<?xml version="1.0" encoding="utf-8" standalone="no"?>
<!DOCTYPE svg PUBLIC "-//W3C//DTD SVG 1.1//EN"
  "http://www.w3.org/Graphics/SVG/1.1/DTD/svg11.dtd">
<svg xmlns:xlink="http://www.w3.org/1999/xlink" width="864pt" height="720pt" viewBox="0 0 864 720" xmlns="http://www.w3.org/2000/svg" version="1.1">
 <metadata>
  <rdf:RDF xmlns:dc="http://purl.org/dc/elements/1.1/" xmlns:cc="http://creativecommons.org/ns#" xmlns:rdf="http://www.w3.org/1999/02/22-rdf-syntax-ns#">
   <cc:Work>
    <dc:type rdf:resource="http://purl.org/dc/dcmitype/StillImage"/>
    <dc:date>2024-06-19T16:27:37.966273</dc:date>
    <dc:format>image/svg+xml</dc:format>
    <dc:creator>
     <cc:Agent>
      <dc:title>Matplotlib v3.7.2, https://matplotlib.org/</dc:title>
     </cc:Agent>
    </dc:creator>
   </cc:Work>
  </rdf:RDF>
 </metadata>
 <defs>
  <style type="text/css">*{stroke-linejoin: round; stroke-linecap: butt}</style>
 </defs>
 <g id="figure_1">
  <g id="patch_1">
   <path d="M 0 720 
L 864 720 
L 864 0 
L 0 0 
z
" style="fill: #ffffff"/>
  </g>
  <g id="axes_1">
   <g id="patch_2">
    <path d="M 108 640.8 
L 777.6 640.8 
L 777.6 86.4 
L 108 86.4 
z
" style="fill: #ffffff"/>
   </g>
   <g id="matplotlib.axis_1">
    <g id="xtick_1">
     <g id="line2d_1">
      <path d="M 138.436364 640.8 
L 138.436364 86.4 
" clip-path="url(#p911d5ffa4c)" style="fill: none; stroke: #b0b0b0; stroke-width: 0.8; stroke-linecap: square"/>
     </g>
     <g id="line2d_2">
      <defs>
       <path id="m1352d83fb8" d="M 0 0 
L 0 3.5 
" style="stroke: #000000; stroke-width: 0.8"/>
      </defs>
      <g>
       <use xlink:href="#m1352d83fb8" x="138.436364" y="640.8" style="stroke: #000000; stroke-width: 0.8"/>
      </g>
     </g>
     <g id="text_1">
      <!-- 0.0 -->
      <g transform="translate(130.484801 655.398438) scale(0.1 -0.1)">
       <defs>
        <path id="DejaVuSans-30" d="M 2034 4250 
Q 1547 4250 1301 3770 
Q 1056 3291 1056 2328 
Q 1056 1369 1301 889 
Q 1547 409 2034 409 
Q 2525 409 2770 889 
Q 3016 1369 3016 2328 
Q 3016 3291 2770 3770 
Q 2525 4250 2034 4250 
z
M 2034 4750 
Q 2819 4750 3233 4129 
Q 3647 3509 3647 2328 
Q 3647 1150 3233 529 
Q 2819 -91 2034 -91 
Q 1250 -91 836 529 
Q 422 1150 422 2328 
Q 422 3509 836 4129 
Q 1250 4750 2034 4750 
z
" transform="scale(0.015625)"/>
        <path id="DejaVuSans-2e" d="M 684 794 
L 1344 794 
L 1344 0 
L 684 0 
L 684 794 
z
" transform="scale(0.015625)"/>
       </defs>
       <use xlink:href="#DejaVuSans-30"/>
       <use xlink:href="#DejaVuSans-2e" x="63.623047"/>
       <use xlink:href="#DejaVuSans-30" x="95.410156"/>
      </g>
     </g>
    </g>
    <g id="xtick_2">
     <g id="line2d_3">
      <path d="M 260.181818 640.8 
L 260.181818 86.4 
" clip-path="url(#p911d5ffa4c)" style="fill: none; stroke: #b0b0b0; stroke-width: 0.8; stroke-linecap: square"/>
     </g>
     <g id="line2d_4">
      <g>
       <use xlink:href="#m1352d83fb8" x="260.181818" y="640.8" style="stroke: #000000; stroke-width: 0.8"/>
      </g>
     </g>
     <g id="text_2">
      <!-- 0.2 -->
      <g transform="translate(252.230256 655.398438) scale(0.1 -0.1)">
       <defs>
        <path id="DejaVuSans-32" d="M 1228 531 
L 3431 531 
L 3431 0 
L 469 0 
L 469 531 
Q 828 903 1448 1529 
Q 2069 2156 2228 2338 
Q 2531 2678 2651 2914 
Q 2772 3150 2772 3378 
Q 2772 3750 2511 3984 
Q 2250 4219 1831 4219 
Q 1534 4219 1204 4116 
Q 875 4013 500 3803 
L 500 4441 
Q 881 4594 1212 4672 
Q 1544 4750 1819 4750 
Q 2544 4750 2975 4387 
Q 3406 4025 3406 3419 
Q 3406 3131 3298 2873 
Q 3191 2616 2906 2266 
Q 2828 2175 2409 1742 
Q 1991 1309 1228 531 
z
" transform="scale(0.015625)"/>
       </defs>
       <use xlink:href="#DejaVuSans-30"/>
       <use xlink:href="#DejaVuSans-2e" x="63.623047"/>
       <use xlink:href="#DejaVuSans-32" x="95.410156"/>
      </g>
     </g>
    </g>
    <g id="xtick_3">
     <g id="line2d_5">
      <path d="M 381.927273 640.8 
L 381.927273 86.4 
" clip-path="url(#p911d5ffa4c)" style="fill: none; stroke: #b0b0b0; stroke-width: 0.8; stroke-linecap: square"/>
     </g>
     <g id="line2d_6">
      <g>
       <use xlink:href="#m1352d83fb8" x="381.927273" y="640.8" style="stroke: #000000; stroke-width: 0.8"/>
      </g>
     </g>
     <g id="text_3">
      <!-- 0.4 -->
      <g transform="translate(373.97571 655.398438) scale(0.1 -0.1)">
       <defs>
        <path id="DejaVuSans-34" d="M 2419 4116 
L 825 1625 
L 2419 1625 
L 2419 4116 
z
M 2253 4666 
L 3047 4666 
L 3047 1625 
L 3713 1625 
L 3713 1100 
L 3047 1100 
L 3047 0 
L 2419 0 
L 2419 1100 
L 313 1100 
L 313 1709 
L 2253 4666 
z
" transform="scale(0.015625)"/>
       </defs>
       <use xlink:href="#DejaVuSans-30"/>
       <use xlink:href="#DejaVuSans-2e" x="63.623047"/>
       <use xlink:href="#DejaVuSans-34" x="95.410156"/>
      </g>
     </g>
    </g>
    <g id="xtick_4">
     <g id="line2d_7">
      <path d="M 503.672727 640.8 
L 503.672727 86.4 
" clip-path="url(#p911d5ffa4c)" style="fill: none; stroke: #b0b0b0; stroke-width: 0.8; stroke-linecap: square"/>
     </g>
     <g id="line2d_8">
      <g>
       <use xlink:href="#m1352d83fb8" x="503.672727" y="640.8" style="stroke: #000000; stroke-width: 0.8"/>
      </g>
     </g>
     <g id="text_4">
      <!-- 0.6 -->
      <g transform="translate(495.721165 655.398438) scale(0.1 -0.1)">
       <defs>
        <path id="DejaVuSans-36" d="M 2113 2584 
Q 1688 2584 1439 2293 
Q 1191 2003 1191 1497 
Q 1191 994 1439 701 
Q 1688 409 2113 409 
Q 2538 409 2786 701 
Q 3034 994 3034 1497 
Q 3034 2003 2786 2293 
Q 2538 2584 2113 2584 
z
M 3366 4563 
L 3366 3988 
Q 3128 4100 2886 4159 
Q 2644 4219 2406 4219 
Q 1781 4219 1451 3797 
Q 1122 3375 1075 2522 
Q 1259 2794 1537 2939 
Q 1816 3084 2150 3084 
Q 2853 3084 3261 2657 
Q 3669 2231 3669 1497 
Q 3669 778 3244 343 
Q 2819 -91 2113 -91 
Q 1303 -91 875 529 
Q 447 1150 447 2328 
Q 447 3434 972 4092 
Q 1497 4750 2381 4750 
Q 2619 4750 2861 4703 
Q 3103 4656 3366 4563 
z
" transform="scale(0.015625)"/>
       </defs>
       <use xlink:href="#DejaVuSans-30"/>
       <use xlink:href="#DejaVuSans-2e" x="63.623047"/>
       <use xlink:href="#DejaVuSans-36" x="95.410156"/>
      </g>
     </g>
    </g>
    <g id="xtick_5">
     <g id="line2d_9">
      <path d="M 625.418182 640.8 
L 625.418182 86.4 
" clip-path="url(#p911d5ffa4c)" style="fill: none; stroke: #b0b0b0; stroke-width: 0.8; stroke-linecap: square"/>
     </g>
     <g id="line2d_10">
      <g>
       <use xlink:href="#m1352d83fb8" x="625.418182" y="640.8" style="stroke: #000000; stroke-width: 0.8"/>
      </g>
     </g>
     <g id="text_5">
      <!-- 0.8 -->
      <g transform="translate(617.466619 655.398438) scale(0.1 -0.1)">
       <defs>
        <path id="DejaVuSans-38" d="M 2034 2216 
Q 1584 2216 1326 1975 
Q 1069 1734 1069 1313 
Q 1069 891 1326 650 
Q 1584 409 2034 409 
Q 2484 409 2743 651 
Q 3003 894 3003 1313 
Q 3003 1734 2745 1975 
Q 2488 2216 2034 2216 
z
M 1403 2484 
Q 997 2584 770 2862 
Q 544 3141 544 3541 
Q 544 4100 942 4425 
Q 1341 4750 2034 4750 
Q 2731 4750 3128 4425 
Q 3525 4100 3525 3541 
Q 3525 3141 3298 2862 
Q 3072 2584 2669 2484 
Q 3125 2378 3379 2068 
Q 3634 1759 3634 1313 
Q 3634 634 3220 271 
Q 2806 -91 2034 -91 
Q 1263 -91 848 271 
Q 434 634 434 1313 
Q 434 1759 690 2068 
Q 947 2378 1403 2484 
z
M 1172 3481 
Q 1172 3119 1398 2916 
Q 1625 2713 2034 2713 
Q 2441 2713 2670 2916 
Q 2900 3119 2900 3481 
Q 2900 3844 2670 4047 
Q 2441 4250 2034 4250 
Q 1625 4250 1398 4047 
Q 1172 3844 1172 3481 
z
" transform="scale(0.015625)"/>
       </defs>
       <use xlink:href="#DejaVuSans-30"/>
       <use xlink:href="#DejaVuSans-2e" x="63.623047"/>
       <use xlink:href="#DejaVuSans-38" x="95.410156"/>
      </g>
     </g>
    </g>
    <g id="xtick_6">
     <g id="line2d_11">
      <path d="M 747.163636 640.8 
L 747.163636 86.4 
" clip-path="url(#p911d5ffa4c)" style="fill: none; stroke: #b0b0b0; stroke-width: 0.8; stroke-linecap: square"/>
     </g>
     <g id="line2d_12">
      <g>
       <use xlink:href="#m1352d83fb8" x="747.163636" y="640.8" style="stroke: #000000; stroke-width: 0.8"/>
      </g>
     </g>
     <g id="text_6">
      <!-- 1.0 -->
      <g transform="translate(739.212074 655.398438) scale(0.1 -0.1)">
       <defs>
        <path id="DejaVuSans-31" d="M 794 531 
L 1825 531 
L 1825 4091 
L 703 3866 
L 703 4441 
L 1819 4666 
L 2450 4666 
L 2450 531 
L 3481 531 
L 3481 0 
L 794 0 
L 794 531 
z
" transform="scale(0.015625)"/>
       </defs>
       <use xlink:href="#DejaVuSans-31"/>
       <use xlink:href="#DejaVuSans-2e" x="63.623047"/>
       <use xlink:href="#DejaVuSans-30" x="95.410156"/>
      </g>
     </g>
    </g>
    <g id="text_7">
     <!-- False Positive Rate -->
     <g transform="translate(396.333594 669.076563) scale(0.1 -0.1)">
      <defs>
       <path id="DejaVuSans-46" d="M 628 4666 
L 3309 4666 
L 3309 4134 
L 1259 4134 
L 1259 2759 
L 3109 2759 
L 3109 2228 
L 1259 2228 
L 1259 0 
L 628 0 
L 628 4666 
z
" transform="scale(0.015625)"/>
       <path id="DejaVuSans-61" d="M 2194 1759 
Q 1497 1759 1228 1600 
Q 959 1441 959 1056 
Q 959 750 1161 570 
Q 1363 391 1709 391 
Q 2188 391 2477 730 
Q 2766 1069 2766 1631 
L 2766 1759 
L 2194 1759 
z
M 3341 1997 
L 3341 0 
L 2766 0 
L 2766 531 
Q 2569 213 2275 61 
Q 1981 -91 1556 -91 
Q 1019 -91 701 211 
Q 384 513 384 1019 
Q 384 1609 779 1909 
Q 1175 2209 1959 2209 
L 2766 2209 
L 2766 2266 
Q 2766 2663 2505 2880 
Q 2244 3097 1772 3097 
Q 1472 3097 1187 3025 
Q 903 2953 641 2809 
L 641 3341 
Q 956 3463 1253 3523 
Q 1550 3584 1831 3584 
Q 2591 3584 2966 3190 
Q 3341 2797 3341 1997 
z
" transform="scale(0.015625)"/>
       <path id="DejaVuSans-6c" d="M 603 4863 
L 1178 4863 
L 1178 0 
L 603 0 
L 603 4863 
z
" transform="scale(0.015625)"/>
       <path id="DejaVuSans-73" d="M 2834 3397 
L 2834 2853 
Q 2591 2978 2328 3040 
Q 2066 3103 1784 3103 
Q 1356 3103 1142 2972 
Q 928 2841 928 2578 
Q 928 2378 1081 2264 
Q 1234 2150 1697 2047 
L 1894 2003 
Q 2506 1872 2764 1633 
Q 3022 1394 3022 966 
Q 3022 478 2636 193 
Q 2250 -91 1575 -91 
Q 1294 -91 989 -36 
Q 684 19 347 128 
L 347 722 
Q 666 556 975 473 
Q 1284 391 1588 391 
Q 1994 391 2212 530 
Q 2431 669 2431 922 
Q 2431 1156 2273 1281 
Q 2116 1406 1581 1522 
L 1381 1569 
Q 847 1681 609 1914 
Q 372 2147 372 2553 
Q 372 3047 722 3315 
Q 1072 3584 1716 3584 
Q 2034 3584 2315 3537 
Q 2597 3491 2834 3397 
z
" transform="scale(0.015625)"/>
       <path id="DejaVuSans-65" d="M 3597 1894 
L 3597 1613 
L 953 1613 
Q 991 1019 1311 708 
Q 1631 397 2203 397 
Q 2534 397 2845 478 
Q 3156 559 3463 722 
L 3463 178 
Q 3153 47 2828 -22 
Q 2503 -91 2169 -91 
Q 1331 -91 842 396 
Q 353 884 353 1716 
Q 353 2575 817 3079 
Q 1281 3584 2069 3584 
Q 2775 3584 3186 3129 
Q 3597 2675 3597 1894 
z
M 3022 2063 
Q 3016 2534 2758 2815 
Q 2500 3097 2075 3097 
Q 1594 3097 1305 2825 
Q 1016 2553 972 2059 
L 3022 2063 
z
" transform="scale(0.015625)"/>
       <path id="DejaVuSans-20" transform="scale(0.015625)"/>
       <path id="DejaVuSans-50" d="M 1259 4147 
L 1259 2394 
L 2053 2394 
Q 2494 2394 2734 2622 
Q 2975 2850 2975 3272 
Q 2975 3691 2734 3919 
Q 2494 4147 2053 4147 
L 1259 4147 
z
M 628 4666 
L 2053 4666 
Q 2838 4666 3239 4311 
Q 3641 3956 3641 3272 
Q 3641 2581 3239 2228 
Q 2838 1875 2053 1875 
L 1259 1875 
L 1259 0 
L 628 0 
L 628 4666 
z
" transform="scale(0.015625)"/>
       <path id="DejaVuSans-6f" d="M 1959 3097 
Q 1497 3097 1228 2736 
Q 959 2375 959 1747 
Q 959 1119 1226 758 
Q 1494 397 1959 397 
Q 2419 397 2687 759 
Q 2956 1122 2956 1747 
Q 2956 2369 2687 2733 
Q 2419 3097 1959 3097 
z
M 1959 3584 
Q 2709 3584 3137 3096 
Q 3566 2609 3566 1747 
Q 3566 888 3137 398 
Q 2709 -91 1959 -91 
Q 1206 -91 779 398 
Q 353 888 353 1747 
Q 353 2609 779 3096 
Q 1206 3584 1959 3584 
z
" transform="scale(0.015625)"/>
       <path id="DejaVuSans-69" d="M 603 3500 
L 1178 3500 
L 1178 0 
L 603 0 
L 603 3500 
z
M 603 4863 
L 1178 4863 
L 1178 4134 
L 603 4134 
L 603 4863 
z
" transform="scale(0.015625)"/>
       <path id="DejaVuSans-74" d="M 1172 4494 
L 1172 3500 
L 2356 3500 
L 2356 3053 
L 1172 3053 
L 1172 1153 
Q 1172 725 1289 603 
Q 1406 481 1766 481 
L 2356 481 
L 2356 0 
L 1766 0 
Q 1100 0 847 248 
Q 594 497 594 1153 
L 594 3053 
L 172 3053 
L 172 3500 
L 594 3500 
L 594 4494 
L 1172 4494 
z
" transform="scale(0.015625)"/>
       <path id="DejaVuSans-76" d="M 191 3500 
L 800 3500 
L 1894 563 
L 2988 3500 
L 3597 3500 
L 2284 0 
L 1503 0 
L 191 3500 
z
" transform="scale(0.015625)"/>
       <path id="DejaVuSans-52" d="M 2841 2188 
Q 3044 2119 3236 1894 
Q 3428 1669 3622 1275 
L 4263 0 
L 3584 0 
L 2988 1197 
Q 2756 1666 2539 1819 
Q 2322 1972 1947 1972 
L 1259 1972 
L 1259 0 
L 628 0 
L 628 4666 
L 2053 4666 
Q 2853 4666 3247 4331 
Q 3641 3997 3641 3322 
Q 3641 2881 3436 2590 
Q 3231 2300 2841 2188 
z
M 1259 4147 
L 1259 2491 
L 2053 2491 
Q 2509 2491 2742 2702 
Q 2975 2913 2975 3322 
Q 2975 3731 2742 3939 
Q 2509 4147 2053 4147 
L 1259 4147 
z
" transform="scale(0.015625)"/>
      </defs>
      <use xlink:href="#DejaVuSans-46"/>
      <use xlink:href="#DejaVuSans-61" x="48.394531"/>
      <use xlink:href="#DejaVuSans-6c" x="109.673828"/>
      <use xlink:href="#DejaVuSans-73" x="137.457031"/>
      <use xlink:href="#DejaVuSans-65" x="189.556641"/>
      <use xlink:href="#DejaVuSans-20" x="251.080078"/>
      <use xlink:href="#DejaVuSans-50" x="282.867188"/>
      <use xlink:href="#DejaVuSans-6f" x="339.544922"/>
      <use xlink:href="#DejaVuSans-73" x="400.726562"/>
      <use xlink:href="#DejaVuSans-69" x="452.826172"/>
      <use xlink:href="#DejaVuSans-74" x="480.609375"/>
      <use xlink:href="#DejaVuSans-69" x="519.818359"/>
      <use xlink:href="#DejaVuSans-76" x="547.601562"/>
      <use xlink:href="#DejaVuSans-65" x="606.78125"/>
      <use xlink:href="#DejaVuSans-20" x="668.304688"/>
      <use xlink:href="#DejaVuSans-52" x="700.091797"/>
      <use xlink:href="#DejaVuSans-61" x="767.324219"/>
      <use xlink:href="#DejaVuSans-74" x="828.603516"/>
      <use xlink:href="#DejaVuSans-65" x="867.8125"/>
     </g>
    </g>
   </g>
   <g id="matplotlib.axis_2">
    <g id="ytick_1">
     <g id="line2d_13">
      <path d="M 108 615.6 
L 777.6 615.6 
" clip-path="url(#p911d5ffa4c)" style="fill: none; stroke: #b0b0b0; stroke-width: 0.8; stroke-linecap: square"/>
     </g>
     <g id="line2d_14">
      <defs>
       <path id="m6d47465ab6" d="M 0 0 
L -3.5 0 
" style="stroke: #000000; stroke-width: 0.8"/>
      </defs>
      <g>
       <use xlink:href="#m6d47465ab6" x="108" y="615.6" style="stroke: #000000; stroke-width: 0.8"/>
      </g>
     </g>
     <g id="text_8">
      <!-- 0.0 -->
      <g transform="translate(85.096875 619.399219) scale(0.1 -0.1)">
       <use xlink:href="#DejaVuSans-30"/>
       <use xlink:href="#DejaVuSans-2e" x="63.623047"/>
       <use xlink:href="#DejaVuSans-30" x="95.410156"/>
      </g>
     </g>
    </g>
    <g id="ytick_2">
     <g id="line2d_15">
      <path d="M 108 514.8 
L 777.6 514.8 
" clip-path="url(#p911d5ffa4c)" style="fill: none; stroke: #b0b0b0; stroke-width: 0.8; stroke-linecap: square"/>
     </g>
     <g id="line2d_16">
      <g>
       <use xlink:href="#m6d47465ab6" x="108" y="514.8" style="stroke: #000000; stroke-width: 0.8"/>
      </g>
     </g>
     <g id="text_9">
      <!-- 0.2 -->
      <g transform="translate(85.096875 518.599219) scale(0.1 -0.1)">
       <use xlink:href="#DejaVuSans-30"/>
       <use xlink:href="#DejaVuSans-2e" x="63.623047"/>
       <use xlink:href="#DejaVuSans-32" x="95.410156"/>
      </g>
     </g>
    </g>
    <g id="ytick_3">
     <g id="line2d_17">
      <path d="M 108 414 
L 777.6 414 
" clip-path="url(#p911d5ffa4c)" style="fill: none; stroke: #b0b0b0; stroke-width: 0.8; stroke-linecap: square"/>
     </g>
     <g id="line2d_18">
      <g>
       <use xlink:href="#m6d47465ab6" x="108" y="414" style="stroke: #000000; stroke-width: 0.8"/>
      </g>
     </g>
     <g id="text_10">
      <!-- 0.4 -->
      <g transform="translate(85.096875 417.799219) scale(0.1 -0.1)">
       <use xlink:href="#DejaVuSans-30"/>
       <use xlink:href="#DejaVuSans-2e" x="63.623047"/>
       <use xlink:href="#DejaVuSans-34" x="95.410156"/>
      </g>
     </g>
    </g>
    <g id="ytick_4">
     <g id="line2d_19">
      <path d="M 108 313.2 
L 777.6 313.2 
" clip-path="url(#p911d5ffa4c)" style="fill: none; stroke: #b0b0b0; stroke-width: 0.8; stroke-linecap: square"/>
     </g>
     <g id="line2d_20">
      <g>
       <use xlink:href="#m6d47465ab6" x="108" y="313.2" style="stroke: #000000; stroke-width: 0.8"/>
      </g>
     </g>
     <g id="text_11">
      <!-- 0.6 -->
      <g transform="translate(85.096875 316.999219) scale(0.1 -0.1)">
       <use xlink:href="#DejaVuSans-30"/>
       <use xlink:href="#DejaVuSans-2e" x="63.623047"/>
       <use xlink:href="#DejaVuSans-36" x="95.410156"/>
      </g>
     </g>
    </g>
    <g id="ytick_5">
     <g id="line2d_21">
      <path d="M 108 212.4 
L 777.6 212.4 
" clip-path="url(#p911d5ffa4c)" style="fill: none; stroke: #b0b0b0; stroke-width: 0.8; stroke-linecap: square"/>
     </g>
     <g id="line2d_22">
      <g>
       <use xlink:href="#m6d47465ab6" x="108" y="212.4" style="stroke: #000000; stroke-width: 0.8"/>
      </g>
     </g>
     <g id="text_12">
      <!-- 0.8 -->
      <g transform="translate(85.096875 216.199219) scale(0.1 -0.1)">
       <use xlink:href="#DejaVuSans-30"/>
       <use xlink:href="#DejaVuSans-2e" x="63.623047"/>
       <use xlink:href="#DejaVuSans-38" x="95.410156"/>
      </g>
     </g>
    </g>
    <g id="ytick_6">
     <g id="line2d_23">
      <path d="M 108 111.6 
L 777.6 111.6 
" clip-path="url(#p911d5ffa4c)" style="fill: none; stroke: #b0b0b0; stroke-width: 0.8; stroke-linecap: square"/>
     </g>
     <g id="line2d_24">
      <g>
       <use xlink:href="#m6d47465ab6" x="108" y="111.6" style="stroke: #000000; stroke-width: 0.8"/>
      </g>
     </g>
     <g id="text_13">
      <!-- 1.0 -->
      <g transform="translate(85.096875 115.399219) scale(0.1 -0.1)">
       <use xlink:href="#DejaVuSans-31"/>
       <use xlink:href="#DejaVuSans-2e" x="63.623047"/>
       <use xlink:href="#DejaVuSans-30" x="95.410156"/>
      </g>
     </g>
    </g>
    <g id="text_14">
     <!-- True Positive Rate -->
     <g transform="translate(79.017187 408.129687) rotate(-90) scale(0.1 -0.1)">
      <defs>
       <path id="DejaVuSans-54" d="M -19 4666 
L 3928 4666 
L 3928 4134 
L 2272 4134 
L 2272 0 
L 1638 0 
L 1638 4134 
L -19 4134 
L -19 4666 
z
" transform="scale(0.015625)"/>
       <path id="DejaVuSans-72" d="M 2631 2963 
Q 2534 3019 2420 3045 
Q 2306 3072 2169 3072 
Q 1681 3072 1420 2755 
Q 1159 2438 1159 1844 
L 1159 0 
L 581 0 
L 581 3500 
L 1159 3500 
L 1159 2956 
Q 1341 3275 1631 3429 
Q 1922 3584 2338 3584 
Q 2397 3584 2469 3576 
Q 2541 3569 2628 3553 
L 2631 2963 
z
" transform="scale(0.015625)"/>
       <path id="DejaVuSans-75" d="M 544 1381 
L 544 3500 
L 1119 3500 
L 1119 1403 
Q 1119 906 1312 657 
Q 1506 409 1894 409 
Q 2359 409 2629 706 
Q 2900 1003 2900 1516 
L 2900 3500 
L 3475 3500 
L 3475 0 
L 2900 0 
L 2900 538 
Q 2691 219 2414 64 
Q 2138 -91 1772 -91 
Q 1169 -91 856 284 
Q 544 659 544 1381 
z
M 1991 3584 
L 1991 3584 
z
" transform="scale(0.015625)"/>
      </defs>
      <use xlink:href="#DejaVuSans-54"/>
      <use xlink:href="#DejaVuSans-72" x="46.333984"/>
      <use xlink:href="#DejaVuSans-75" x="87.447266"/>
      <use xlink:href="#DejaVuSans-65" x="150.826172"/>
      <use xlink:href="#DejaVuSans-20" x="212.349609"/>
      <use xlink:href="#DejaVuSans-50" x="244.136719"/>
      <use xlink:href="#DejaVuSans-6f" x="300.814453"/>
      <use xlink:href="#DejaVuSans-73" x="361.996094"/>
      <use xlink:href="#DejaVuSans-69" x="414.095703"/>
      <use xlink:href="#DejaVuSans-74" x="441.878906"/>
      <use xlink:href="#DejaVuSans-69" x="481.087891"/>
      <use xlink:href="#DejaVuSans-76" x="508.871094"/>
      <use xlink:href="#DejaVuSans-65" x="568.050781"/>
      <use xlink:href="#DejaVuSans-20" x="629.574219"/>
      <use xlink:href="#DejaVuSans-52" x="661.361328"/>
      <use xlink:href="#DejaVuSans-61" x="728.59375"/>
      <use xlink:href="#DejaVuSans-74" x="789.873047"/>
      <use xlink:href="#DejaVuSans-65" x="829.082031"/>
     </g>
    </g>
   </g>
   <g id="line2d_25">
    <path d="M 138.436364 615.6 
L 138.436364 612.293275 
L 138.756915 611.191033 
L 138.756915 608.159869 
L 139.077467 608.159869 
L 139.077467 606.506506 
L 139.398018 606.506506 
L 139.398018 598.515254 
L 139.71857 597.137452 
L 139.71857 596.586331 
L 140.359673 596.586331 
L 140.359673 592.728486 
L 140.680224 592.728486 
L 140.680224 588.043958 
L 141.000776 587.768398 
L 141.000776 585.012794 
L 141.321327 585.012794 
L 141.321327 581.154948 
L 141.641879 580.879388 
L 141.641879 579.777146 
L 141.96243 578.674904 
L 142.282981 578.674904 
L 142.282981 576.745981 
L 142.603533 576.745981 
L 142.603533 572.337015 
L 142.924084 572.061454 
L 142.924084 568.754729 
L 143.565187 568.754729 
L 143.565187 567.652488 
L 143.885739 567.376927 
L 143.885739 564.896884 
L 144.20629 564.896884 
L 144.20629 561.039038 
L 144.526842 560.763477 
L 144.526842 559.385675 
L 144.847393 559.110115 
L 144.847393 558.834554 
L 145.167945 558.283434 
L 145.167945 556.630071 
L 145.488496 556.07895 
L 145.488496 554.976709 
L 145.809048 554.701148 
L 145.809048 552.772225 
L 146.129599 552.772225 
L 146.129599 550.843302 
L 146.450151 550.567742 
L 146.450151 543.954292 
L 146.770702 543.678732 
L 146.770702 542.025369 
L 147.091254 542.025369 
L 147.091254 533.482996 
L 147.411805 532.656315 
L 147.411805 529.900711 
L 147.732357 529.62515 
L 147.732357 528.798469 
L 148.052908 528.798469 
L 148.052908 528.247348 
L 148.37346 528.247348 
L 148.37346 524.940623 
L 149.014563 524.940623 
L 149.014563 524.389502 
L 149.335114 524.389502 
L 149.655666 522.46058 
L 149.655666 518.878294 
L 149.976217 518.327173 
L 149.976217 516.949371 
L 150.296769 516.949371 
L 150.296769 514.469328 
L 150.61732 514.469328 
L 150.61732 512.815965 
L 151.258423 512.815965 
L 151.258423 511.713723 
L 151.578975 511.713723 
L 151.578975 504.549153 
L 151.899526 504.273592 
L 151.899526 503.446911 
L 152.540629 503.446911 
L 152.540629 503.17135 
L 152.861181 503.17135 
L 152.861181 500.691307 
L 153.181732 500.691307 
L 153.181732 499.037944 
L 153.502283 498.486823 
L 153.502283 493.251176 
L 153.822835 492.148934 
L 154.143386 492.148934 
L 154.143386 490.220011 
L 154.463938 489.39333 
L 154.463938 482.504319 
L 154.784489 482.504319 
L 154.784489 478.922034 
L 155.105041 478.922034 
L 155.105041 476.717551 
L 155.425592 476.717551 
L 155.425592 476.16643 
L 155.746144 476.16643 
L 155.746144 475.615309 
L 156.387247 475.064188 
L 156.707798 475.064188 
L 156.707798 474.788628 
L 157.02835 474.788628 
L 157.02835 474.237507 
L 157.348901 473.961946 
L 157.348901 473.135265 
L 157.669453 473.135265 
L 157.669453 471.481903 
L 157.990004 471.481903 
L 157.990004 470.930782 
L 158.310556 470.930782 
L 158.310556 465.695134 
L 158.631107 465.695134 
L 158.631107 464.868453 
L 158.951659 464.592892 
L 158.951659 462.388409 
L 159.27221 462.388409 
L 159.27221 461.561728 
L 159.592762 461.561728 
L 159.592762 458.806124 
L 160.554416 456.050519 
L 160.554416 455.223838 
L 160.874968 455.223838 
L 160.874968 454.672717 
L 161.195519 454.397157 
L 161.516071 454.397157 
L 161.516071 443.37474 
L 161.836622 443.37474 
L 161.836622 436.210169 
L 162.477725 435.659049 
L 162.477725 432.076763 
L 162.798277 432.076763 
L 162.798277 430.698961 
L 163.118828 430.698961 
L 163.118828 430.14784 
L 163.43938 429.59672 
L 163.759931 429.59672 
L 163.759931 428.770038 
L 164.080483 428.770038 
L 164.080483 425.738874 
L 164.401034 425.738874 
L 164.401034 425.187753 
L 164.721586 425.187753 
L 164.721586 424.085511 
L 165.042137 424.085511 
L 165.042137 422.98327 
L 165.362688 422.432149 
L 165.68324 422.432149 
L 165.68324 419.400984 
L 166.324343 418.849863 
L 166.324343 414.992017 
L 166.644894 414.716457 
L 166.965446 414.716457 
L 166.965446 411.134172 
L 167.285997 411.134172 
L 167.285997 407.827447 
L 167.606549 407.827447 
L 167.606549 405.347403 
L 167.9271 405.347403 
L 167.9271 405.071843 
L 168.247652 404.520722 
L 168.247652 403.41848 
L 168.568203 403.41848 
L 168.568203 402.867359 
L 168.888755 402.867359 
L 168.888755 402.040678 
L 169.209306 401.489557 
L 169.209306 400.662876 
L 169.529858 399.560634 
L 170.170961 399.560634 
L 170.170961 394.049426 
L 170.491512 394.049426 
L 170.491512 392.947184 
L 170.812064 392.671624 
L 170.812064 390.467141 
L 171.132615 390.467141 
L 171.132615 388.262657 
L 171.453167 388.262657 
L 171.453167 385.782613 
L 172.09427 384.680372 
L 172.09427 384.129251 
L 172.414821 384.129251 
L 172.414821 379.995845 
L 172.735373 379.444724 
L 172.735373 378.893603 
L 173.055924 378.893603 
L 173.376476 378.618043 
L 173.376476 376.68912 
L 173.697027 376.68912 
L 173.697027 376.413559 
L 174.017579 374.209076 
L 174.017579 373.933516 
L 174.33813 373.106834 
L 174.33813 368.697868 
L 174.658682 368.697868 
L 174.658682 367.871186 
L 174.979233 366.768945 
L 174.979233 366.217824 
L 175.299785 366.217824 
L 175.299785 363.186659 
L 175.620336 363.186659 
L 175.620336 362.359978 
L 176.261439 362.359978 
L 176.261439 360.431055 
L 176.581991 360.431055 
L 176.581991 356.022089 
L 176.902542 356.022089 
L 176.902542 353.817605 
L 177.223093 353.817605 
L 177.223093 353.542045 
L 177.543645 353.542045 
L 177.543645 350.51088 
L 177.864196 350.23532 
L 177.864196 349.408639 
L 178.184748 349.408639 
L 178.505299 349.133078 
L 178.505299 348.581957 
L 178.825851 348.581957 
L 178.825851 347.479716 
L 179.146402 347.479716 
L 179.146402 347.204155 
L 179.466954 346.928595 
L 179.466954 345.550793 
L 179.787505 345.550793 
L 180.108057 344.999672 
L 180.108057 343.89743 
L 180.428608 343.89743 
L 180.428608 343.62187 
L 180.74916 343.62187 
L 180.74916 343.346309 
L 181.069711 343.346309 
L 181.069711 342.244068 
L 181.390263 342.244068 
L 181.390263 340.315145 
L 181.710814 340.315145 
L 181.710814 339.764024 
L 182.351917 339.764024 
L 182.351917 338.386222 
L 182.99302 338.386222 
L 182.99302 336.732859 
L 183.313572 336.732859 
L 183.313572 336.181739 
L 183.634123 336.181739 
L 183.634123 335.630618 
L 184.275226 335.630618 
L 184.275226 335.355057 
L 184.916329 335.355057 
L 184.916329 334.252816 
L 185.236881 333.977255 
L 185.236881 332.599453 
L 185.877984 332.599453 
L 186.198535 332.323893 
L 186.519087 332.323893 
L 186.519087 330.946091 
L 186.839638 330.946091 
L 186.839638 327.914926 
L 187.16019 327.914926 
L 187.16019 327.088245 
L 187.480741 326.812685 
L 187.801293 326.812685 
L 187.801293 326.261564 
L 188.121844 326.261564 
L 188.121844 324.05708 
L 188.442396 324.05708 
L 188.442396 321.577037 
L 188.762947 321.577037 
L 189.083498 321.301476 
L 189.724601 321.301476 
L 189.724601 319.648114 
L 190.045153 319.648114 
L 190.045153 318.821432 
L 190.686256 318.821432 
L 190.686256 317.994751 
L 191.006807 317.994751 
L 191.006807 315.790268 
L 191.327359 315.790268 
L 191.327359 315.239147 
L 191.64791 315.239147 
L 191.64791 310.27906 
L 191.968462 310.27906 
L 191.968462 309.452378 
L 192.289013 309.452378 
L 192.289013 307.799016 
L 192.609565 307.799016 
L 192.609565 307.247895 
L 192.930116 307.247895 
L 192.930116 305.870093 
L 193.250668 305.870093 
L 193.250668 305.594533 
L 193.571219 305.594533 
L 193.571219 305.318972 
L 193.891771 305.318972 
L 193.891771 303.66561 
L 196.135631 303.66561 
L 196.135631 303.390049 
L 197.097286 303.390049 
L 197.097286 302.838928 
L 197.417837 302.838928 
L 197.417837 302.287808 
L 197.738389 302.287808 
L 197.738389 301.736687 
L 198.05894 301.736687 
L 198.05894 300.910005 
L 198.379492 300.910005 
L 198.379492 300.358885 
L 198.700043 300.358885 
L 198.700043 298.981083 
L 199.661698 298.981083 
L 199.661698 298.429962 
L 200.302801 298.429962 
L 200.302801 298.154401 
L 200.623352 298.154401 
L 201.264455 297.60328 
L 201.585006 297.60328 
L 201.905558 297.32772 
L 202.226109 297.32772 
L 202.226109 296.225478 
L 202.546661 296.225478 
L 202.546661 295.398797 
L 203.508315 295.398797 
L 203.508315 295.123237 
L 203.828867 294.572116 
L 204.149418 294.572116 
L 204.149418 292.918753 
L 204.46997 292.918753 
L 204.46997 292.367633 
L 205.111073 292.367633 
L 205.111073 291.816512 
L 205.431624 291.816512 
L 205.431624 290.43871 
L 205.752176 290.43871 
L 205.752176 290.163149 
L 206.393279 290.163149 
L 206.393279 289.612028 
L 206.71383 289.612028 
L 206.71383 288.509787 
L 207.354933 288.509787 
L 207.354933 287.683106 
L 207.675485 287.683106 
L 207.996036 286.580864 
L 207.996036 284.10082 
L 208.316588 284.10082 
L 208.316588 282.998578 
L 208.637139 282.998578 
L 208.637139 282.723018 
L 209.598794 282.723018 
L 209.598794 282.447458 
L 210.881 282.447458 
L 211.201551 282.171897 
L 211.201551 279.140733 
L 211.522103 279.140733 
L 211.522103 278.865172 
L 211.842654 278.865172 
L 211.842654 278.038491 
L 212.163206 278.038491 
L 212.163206 277.762931 
L 212.483757 277.762931 
L 212.483757 277.21181 
L 212.804308 277.21181 
L 212.804308 276.385128 
L 213.12486 275.834008 
L 213.12486 275.282887 
L 213.765963 275.282887 
L 213.765963 274.456206 
L 214.407066 274.456206 
L 214.727617 274.180645 
L 215.36872 274.180645 
L 215.36872 273.353964 
L 215.689272 273.353964 
L 215.689272 272.527283 
L 216.009823 272.527283 
L 216.009823 271.976162 
L 216.330375 271.976162 
L 216.330375 268.944997 
L 217.292029 268.944997 
L 217.292029 268.669437 
L 217.612581 268.393876 
L 217.612581 267.842756 
L 217.933132 267.842756 
L 217.933132 267.016074 
L 218.253684 267.016074 
L 218.253684 266.189393 
L 218.894787 266.189393 
L 218.894787 265.362712 
L 219.215338 265.362712 
L 219.215338 265.087151 
L 219.856441 265.087151 
L 219.856441 263.158229 
L 220.176993 263.158229 
L 220.176993 262.055987 
L 220.497544 262.055987 
L 220.497544 261.229306 
L 220.818096 261.229306 
L 220.818096 260.678185 
L 221.138647 260.678185 
L 221.138647 259.851504 
L 221.77975 259.851504 
L 221.77975 259.300383 
L 222.100302 259.300383 
L 222.100302 258.198141 
L 222.741405 258.198141 
L 222.741405 257.095899 
L 223.061956 257.095899 
L 223.061956 256.544779 
L 224.023611 256.544779 
L 224.023611 256.269218 
L 224.344162 256.269218 
L 224.344162 255.718097 
L 224.664713 255.718097 
L 224.664713 255.442537 
L 224.985265 255.442537 
L 226.267471 254.615856 
L 226.267471 254.064735 
L 226.588022 254.064735 
L 226.588022 253.789174 
L 227.229125 253.789174 
L 227.229125 253.238054 
L 227.870228 253.238054 
L 228.19078 252.686933 
L 228.511331 252.686933 
L 228.511331 251.860252 
L 229.472986 251.860252 
L 229.472986 251.03357 
L 230.43464 251.03357 
L 230.43464 250.206889 
L 230.755192 250.206889 
L 230.755192 249.931329 
L 231.075743 249.931329 
L 231.075743 249.104647 
L 231.716846 249.104647 
L 231.716846 248.829087 
L 232.037398 248.829087 
L 232.037398 248.277966 
L 232.678501 248.277966 
L 232.678501 247.726845 
L 232.999052 247.726845 
L 232.999052 247.451285 
L 233.319604 247.451285 
L 233.319604 247.175724 
L 233.960707 247.175724 
L 233.960707 246.349043 
L 234.281258 246.349043 
L 234.281258 245.246802 
L 234.60181 245.246802 
L 234.922361 244.42012 
L 235.242913 244.42012 
L 235.242913 244.14456 
L 235.563464 243.868999 
L 235.563464 243.317879 
L 237.486773 243.317879 
L 237.486773 243.042318 
L 238.768979 243.042318 
L 238.768979 242.215637 
L 241.653942 242.215637 
L 241.653942 241.940077 
L 241.974494 241.940077 
L 241.974494 240.837835 
L 242.615597 240.837835 
L 242.615597 240.562274 
L 243.897803 240.562274 
L 243.897803 240.011154 
L 244.538906 240.011154 
L 244.538906 239.460033 
L 244.859457 239.460033 
L 244.859457 239.184472 
L 245.180009 239.184472 
L 245.180009 238.908912 
L 245.50056 238.908912 
L 245.50056 238.633352 
L 245.821112 238.633352 
L 245.821112 238.357791 
L 246.141663 238.357791 
L 246.141663 238.082231 
L 246.782766 238.082231 
L 246.782766 237.53111 
L 248.385523 237.53111 
L 248.385523 236.704429 
L 248.706075 236.428868 
L 249.026626 236.428868 
L 249.026626 235.051066 
L 249.988281 235.051066 
L 250.629384 234.775506 
L 250.949935 234.775506 
L 250.949935 233.948824 
L 251.270487 233.948824 
L 251.270487 233.397704 
L 251.591038 233.397704 
L 251.591038 233.122143 
L 252.232141 233.122143 
L 252.232141 232.571022 
L 252.552693 232.571022 
L 252.552693 232.295462 
L 253.193796 232.295462 
L 253.193796 232.019902 
L 253.514347 232.019902 
L 253.514347 231.744341 
L 253.834899 231.744341 
L 253.834899 231.468781 
L 254.15545 231.468781 
L 254.15545 230.91766 
L 254.476002 230.91766 
L 254.476002 230.090979 
L 255.117105 230.090979 
L 255.117105 229.815418 
L 255.437656 229.815418 
L 255.437656 229.264297 
L 256.078759 229.264297 
L 256.078759 228.988737 
L 256.399311 228.988737 
L 256.399311 228.713177 
L 256.719862 228.713177 
L 256.719862 228.162056 
L 257.360965 228.162056 
L 257.360965 227.610935 
L 257.681517 227.610935 
L 257.681517 227.335375 
L 258.002068 227.335375 
L 258.002068 226.784254 
L 258.643171 226.784254 
L 258.643171 226.508693 
L 258.963723 226.508693 
L 258.963723 226.233133 
L 259.925377 226.233133 
L 259.925377 225.957572 
L 260.56648 225.957572 
L 260.56648 225.682012 
L 261.528134 225.682012 
L 261.528134 224.855331 
L 261.848686 224.855331 
L 261.848686 224.57977 
L 262.169237 224.30421 
L 262.169237 224.02865 
L 263.130892 224.02865 
L 263.130892 223.477529 
L 264.733649 223.477529 
L 264.733649 223.201968 
L 265.695304 223.201968 
L 265.695304 222.926408 
L 266.656958 222.926408 
L 266.656958 222.650847 
L 266.97751 222.650847 
L 267.298061 222.375287 
L 267.298061 219.895243 
L 267.618613 219.895243 
L 267.618613 219.619683 
L 267.939164 219.344122 
L 267.939164 218.517441 
L 268.900819 218.517441 
L 268.900819 217.69076 
L 269.22137 217.69076 
L 269.22137 217.4152 
L 270.183025 217.4152 
L 270.183025 216.588518 
L 270.824128 216.588518 
L 270.824128 216.037397 
L 271.144679 216.037397 
L 271.144679 215.486277 
L 273.388539 215.486277 
L 273.388539 215.210716 
L 273.709091 215.210716 
L 273.709091 213.832914 
L 274.029642 213.832914 
L 274.350194 213.557354 
L 274.350194 213.281793 
L 274.670745 213.281793 
L 274.670745 213.006233 
L 274.991297 213.006233 
L 274.991297 212.730672 
L 275.311848 212.730672 
L 275.311848 211.903991 
L 276.594054 211.903991 
L 276.594054 211.628431 
L 276.914606 211.628431 
L 276.914606 211.35287 
L 279.158466 211.35287 
L 279.158466 211.07731 
L 279.479018 211.07731 
L 279.479018 210.80175 
L 280.440672 210.80175 
L 280.440672 209.699508 
L 281.402327 209.699508 
L 281.402327 208.597266 
L 281.722878 208.597266 
L 281.722878 207.770585 
L 282.04343 207.495025 
L 283.325636 207.495025 
L 283.325636 206.392783 
L 283.646187 206.392783 
L 283.646187 206.117223 
L 284.28729 206.117223 
L 284.28729 205.841662 
L 286.210599 205.841662 
L 286.210599 205.566102 
L 286.53115 205.566102 
L 286.53115 205.290541 
L 286.851702 205.290541 
L 286.851702 204.46386 
L 287.813356 204.46386 
L 287.813356 204.1883 
L 288.133908 204.1883 
L 288.133908 203.912739 
L 288.454459 203.912739 
L 288.454459 203.361618 
L 289.416114 203.361618 
L 290.057217 202.810498 
L 290.377768 202.810498 
L 290.377768 202.259377 
L 291.018871 202.259377 
L 291.018871 201.157135 
L 291.659974 201.157135 
L 291.659974 200.054893 
L 293.583283 200.054893 
L 293.903835 199.779333 
L 294.224386 199.779333 
L 294.224386 199.503773 
L 294.544938 199.503773 
L 294.544938 198.952652 
L 294.865489 198.677091 
L 294.865489 198.401531 
L 295.18604 198.401531 
L 295.506592 198.12597 
L 295.506592 197.85041 
L 296.468246 197.85041 
L 296.468246 197.57485 
L 297.109349 197.57485 
L 297.109349 197.299289 
L 297.750452 197.299289 
L 297.750452 197.023729 
L 298.071004 197.023729 
L 298.071004 196.748168 
L 298.391555 196.748168 
L 298.391555 196.472608 
L 299.35321 196.472608 
L 299.35321 195.645927 
L 299.994313 195.645927 
L 299.994313 195.094806 
L 300.635416 195.094806 
L 300.635416 194.819245 
L 301.276519 194.819245 
L 301.276519 194.543685 
L 301.917622 194.543685 
L 302.238173 194.268125 
L 302.238173 193.992564 
L 302.558725 193.441443 
L 302.879276 193.441443 
L 302.879276 192.614762 
L 303.520379 192.614762 
L 303.520379 192.063641 
L 305.443688 192.063641 
L 305.443688 191.788081 
L 305.76424 191.788081 
L 305.76424 191.512521 
L 306.405343 191.512521 
L 306.405343 191.23696 
L 306.725894 189.859158 
L 307.046445 189.859158 
L 307.046445 189.308037 
L 308.969754 189.308037 
L 308.969754 189.032477 
L 309.290306 189.032477 
L 309.290306 188.756916 
L 309.931409 188.756916 
L 310.25196 188.481356 
L 312.175269 188.481356 
L 312.175269 188.205796 
L 313.136924 188.205796 
L 313.136924 187.930235 
L 313.457475 187.930235 
L 313.457475 187.654675 
L 315.060233 187.654675 
L 315.060233 186.827993 
L 316.021887 186.827993 
L 317.304093 186.552433 
L 317.304093 186.276873 
L 318.586299 186.276873 
L 318.586299 186.001312 
L 318.90685 185.725752 
L 323.07402 185.725752 
L 323.394571 185.450191 
L 324.676777 185.450191 
L 324.676777 185.174631 
L 327.241189 185.174631 
L 327.241189 184.899071 
L 327.882292 184.899071 
L 327.882292 184.072389 
L 328.202844 184.072389 
L 328.202844 183.796829 
L 329.164498 183.796829 
L 329.164498 183.521268 
L 330.126153 183.521268 
L 330.126153 182.970148 
L 331.408358 182.970148 
L 331.408358 182.694587 
L 333.011116 182.694587 
L 333.011116 182.143466 
L 334.293322 182.143466 
L 334.293322 181.867906 
L 334.613873 181.867906 
L 334.613873 181.041225 
L 334.934425 181.041225 
L 334.934425 180.765664 
L 335.575528 180.765664 
L 335.575528 180.214543 
L 335.896079 180.214543 
L 336.216631 179.938983 
L 336.216631 179.387862 
L 337.178285 179.387862 
L 337.178285 179.112302 
L 337.498837 179.112302 
L 337.498837 178.836741 
L 338.13994 178.836741 
L 338.13994 178.561181 
L 339.101594 178.561181 
L 339.101594 178.285621 
L 341.024903 178.285621 
L 341.345455 178.01006 
L 342.62766 178.01006 
L 343.268763 177.458939 
L 343.268763 177.183379 
L 343.589315 177.183379 
L 343.589315 176.632258 
L 344.550969 176.632258 
L 344.550969 176.356698 
L 345.192072 176.356698 
L 345.192072 175.805577 
L 345.512624 175.805577 
L 345.512624 175.530016 
L 348.397587 175.530016 
L 348.397587 175.254456 
L 349.03869 175.254456 
L 349.03869 174.703335 
L 350.961999 174.703335 
L 350.961999 174.427775 
L 351.603102 174.427775 
L 351.603102 173.876654 
L 351.923654 173.876654 
L 351.923654 173.601093 
L 353.526411 173.601093 
L 353.526411 173.049973 
L 354.808617 173.049973 
L 355.44972 172.498852 
L 356.090823 172.498852 
L 356.090823 172.223291 
L 356.411374 171.947731 
L 358.334683 171.947731 
L 358.334683 171.672171 
L 358.975786 171.39661 
L 359.616889 171.39661 
L 359.616889 171.12105 
L 360.257992 171.12105 
L 360.899095 170.845489 
L 362.501853 170.845489 
L 362.501853 170.569929 
L 363.784059 170.569929 
L 363.784059 170.294369 
L 364.10461 170.294369 
L 364.10461 170.018808 
L 364.425162 169.743248 
L 365.066265 169.743248 
L 365.066265 169.192127 
L 365.386816 169.192127 
L 365.386816 168.916566 
L 366.989573 168.916566 
L 366.989573 168.641006 
L 368.912882 168.641006 
L 368.912882 168.365446 
L 369.553985 168.365446 
L 369.553985 168.089885 
L 369.874537 168.089885 
L 372.118397 167.814325 
L 374.362258 167.814325 
L 374.362258 167.538764 
L 374.682809 167.538764 
L 374.682809 167.263204 
L 375.003361 167.263204 
L 375.003361 166.987644 
L 376.92667 166.987644 
L 376.92667 165.885402 
L 377.247221 165.885402 
L 377.247221 165.609841 
L 377.567773 165.609841 
L 377.567773 165.058721 
L 377.888324 165.058721 
L 377.888324 164.78316 
L 378.529427 164.232039 
L 378.529427 163.956479 
L 378.849978 163.956479 
L 379.17053 163.680919 
L 379.17053 163.129798 
L 381.734942 163.129798 
L 381.734942 162.854237 
L 382.376045 162.854237 
L 382.376045 162.578677 
L 383.017148 162.578677 
L 383.017148 162.303116 
L 383.978802 162.303116 
L 383.978802 161.751996 
L 384.299354 161.476435 
L 385.261008 161.476435 
L 385.261008 161.200875 
L 385.58156 161.200875 
L 385.58156 160.649754 
L 385.902111 160.374194 
L 386.222663 160.374194 
L 386.222663 160.098633 
L 386.543214 160.098633 
L 386.543214 159.823073 
L 387.82542 159.823073 
L 387.82542 159.547512 
L 389.107626 159.547512 
L 389.107626 158.996391 
L 389.428178 158.996391 
L 389.428178 158.720831 
L 390.06928 158.720831 
L 390.06928 158.445271 
L 391.030935 158.445271 
L 391.030935 158.16971 
L 394.23645 158.16971 
L 394.23645 157.89415 
L 397.121413 157.89415 
L 397.441965 157.618589 
L 397.762516 157.618589 
L 397.762516 157.343029 
L 398.403619 157.343029 
L 398.403619 157.067469 
L 399.044722 157.067469 
L 399.044722 156.791908 
L 399.685825 156.791908 
L 399.685825 156.516348 
L 400.006377 156.516348 
L 400.326928 156.240787 
L 400.326928 155.965227 
L 401.929685 155.965227 
L 401.929685 155.689666 
L 404.814649 155.689666 
L 404.814649 155.414106 
L 405.1352 155.414106 
L 405.1352 155.138546 
L 406.737958 155.138546 
L 406.737958 154.862985 
L 407.058509 154.862985 
L 407.058509 154.587425 
L 407.699612 154.587425 
L 408.020164 154.311864 
L 409.30237 154.311864 
L 409.30237 154.036304 
L 409.622921 154.036304 
L 409.622921 153.485183 
L 410.264024 153.485183 
L 410.264024 152.934062 
L 412.187333 152.934062 
L 412.187333 152.658502 
L 413.79009 152.658502 
L 413.79009 152.382941 
L 415.713399 152.382941 
L 415.713399 152.107381 
L 416.033951 151.831821 
L 416.995605 151.831821 
L 416.995605 151.2807 
L 417.316157 151.005139 
L 418.277811 151.005139 
L 418.277811 150.454019 
L 418.598363 150.454019 
L 418.598363 150.178458 
L 418.918914 150.178458 
L 418.918914 149.902898 
L 419.239466 149.902898 
L 419.239466 149.627337 
L 419.560017 149.627337 
L 419.560017 149.351777 
L 420.20112 148.800656 
L 421.162775 148.800656 
L 421.162775 148.525096 
L 421.483326 148.525096 
L 421.483326 148.249535 
L 422.124429 148.249535 
L 422.124429 147.973975 
L 422.444981 147.973975 
L 422.444981 147.698414 
L 422.765532 147.698414 
L 422.765532 147.422854 
L 425.650495 147.422854 
L 425.650495 146.871733 
L 426.291598 146.871733 
L 426.61215 146.596173 
L 426.932701 146.596173 
L 426.932701 146.320612 
L 427.253253 146.320612 
L 427.253253 146.045052 
L 427.894356 146.045052 
L 427.894356 145.493931 
L 428.535459 145.218371 
L 428.85601 145.218371 
L 428.85601 144.94281 
L 432.061525 144.94281 
L 432.061525 144.66725 
L 433.02318 144.66725 
L 433.02318 144.391689 
L 434.946489 144.391689 
L 434.946489 144.116129 
L 435.26704 144.116129 
L 435.587592 143.840569 
L 436.228695 143.840569 
L 436.228695 143.565008 
L 437.190349 143.565008 
L 437.190349 143.289448 
L 439.434209 143.289448 
L 439.434209 143.013887 
L 439.754761 143.013887 
L 439.754761 142.738327 
L 440.716415 142.738327 
L 440.716415 142.462767 
L 441.998621 142.462767 
L 441.998621 142.187206 
L 443.92193 142.187206 
L 443.92193 141.911646 
L 444.563033 141.911646 
L 444.563033 141.636085 
L 446.806894 141.636085 
L 446.806894 141.360525 
L 447.127445 141.360525 
L 447.127445 141.084964 
L 449.371305 141.084964 
L 449.691857 140.809404 
L 450.012408 140.809404 
L 450.012408 140.533844 
L 452.897372 140.533844 
L 453.217923 140.258283 
L 453.859026 140.258283 
L 453.859026 139.982723 
L 456.102887 139.982723 
L 456.102887 139.431602 
L 456.423438 139.431602 
L 456.423438 138.880481 
L 457.385093 138.880481 
L 457.385093 138.604921 
L 457.705644 138.604921 
L 457.705644 138.32936 
L 458.346747 138.32936 
L 458.346747 137.778239 
L 461.23171 137.778239 
L 461.23171 137.502679 
L 463.155019 137.502679 
L 463.475571 137.227119 
L 464.116674 137.227119 
L 464.116674 136.400437 
L 465.39888 136.400437 
L 465.719431 136.124877 
L 466.039983 136.124877 
L 466.039983 135.573756 
L 466.681086 135.573756 
L 466.681086 135.022635 
L 467.64274 135.022635 
L 467.64274 134.747075 
L 468.283843 134.747075 
L 468.283843 134.471514 
L 468.604395 134.471514 
L 468.604395 134.195954 
L 469.566049 134.195954 
L 470.207152 133.920394 
L 471.489358 133.920394 
L 471.489358 133.644833 
L 472.451012 133.644833 
L 472.451012 133.369273 
L 473.733218 133.369273 
L 473.733218 133.093712 
L 474.05377 132.818152 
L 476.29763 132.818152 
L 476.29763 132.542592 
L 476.938733 132.542592 
L 476.938733 132.267031 
L 477.900388 132.267031 
L 477.900388 131.991471 
L 479.182594 131.991471 
L 479.182594 131.16479 
L 481.105903 131.16479 
L 481.105903 130.889229 
L 483.349763 130.889229 
L 484.311417 129.511427 
L 485.273072 129.511427 
L 485.273072 129.235867 
L 485.593623 129.235867 
L 485.914175 128.960306 
L 487.837484 128.960306 
L 487.837484 128.409185 
L 488.158035 128.133625 
L 488.478587 128.133625 
L 489.11969 127.858065 
L 489.440241 127.858065 
L 491.36355 127.306944 
L 492.004653 127.306944 
L 492.004653 127.031383 
L 492.966308 127.031383 
L 492.966308 126.480262 
L 493.927962 126.480262 
L 494.248514 126.204702 
L 497.77458 126.204702 
L 498.095131 125.929142 
L 499.697889 125.929142 
L 499.697889 125.653581 
L 502.262301 125.653581 
L 502.262301 125.378021 
L 503.223955 125.378021 
L 503.223955 125.10246 
L 503.865058 125.10246 
L 504.18561 124.8269 
L 504.826713 124.8269 
L 505.147264 124.55134 
L 509.634985 124.55134 
L 509.634985 124.000219 
L 511.237742 124.000219 
L 511.558294 123.724658 
L 511.878845 123.724658 
L 511.878845 123.449098 
L 515.08436 123.449098 
L 515.725463 123.173537 
L 517.648772 123.173537 
L 517.648772 122.897977 
L 518.610427 122.897977 
L 518.610427 122.622417 
L 525.342008 122.622417 
L 525.342008 122.346856 
L 525.983111 122.346856 
L 525.983111 122.071296 
L 528.868074 122.071296 
L 528.868074 121.795735 
L 531.753037 121.795735 
L 531.753037 121.520175 
L 534.638001 121.520175 
L 534.638001 121.244615 
L 535.599655 121.244615 
L 535.599655 120.969054 
L 542.331237 120.969054 
L 542.97234 120.693494 
L 544.895648 120.693494 
L 544.895648 120.417933 
L 552.588884 120.417933 
L 552.588884 120.142373 
L 555.794399 119.866812 
L 578.553555 119.866812 
L 578.553555 119.591252 
L 582.400172 119.591252 
L 582.400172 119.315692 
L 583.041275 119.315692 
L 583.041275 119.040131 
L 585.285136 119.040131 
L 585.285136 118.764571 
L 587.849548 118.764571 
L 588.170099 118.48901 
L 589.452305 118.48901 
L 591.375614 117.93789 
L 592.65782 117.93789 
L 592.65782 117.662329 
L 601.31271 117.662329 
L 601.31271 117.386769 
L 603.55657 117.386769 
L 603.55657 117.111208 
L 607.72374 117.111208 
L 608.364843 116.835648 
L 612.532012 116.835648 
L 613.173115 116.560087 
L 613.173115 116.284527 
L 615.416975 116.284527 
L 615.416975 116.008967 
L 616.699181 116.008967 
L 617.019733 115.733406 
L 618.62249 115.733406 
L 618.62249 115.457846 
L 627.918483 115.457846 
L 627.918483 115.182285 
L 633.68841 115.182285 
L 634.329513 114.906725 
L 637.535028 114.906725 
L 638.176131 114.631165 
L 645.228264 114.631165 
L 648.433779 114.355604 
L 660.614735 114.355604 
L 660.614735 114.080044 
L 661.896941 113.804483 
L 664.140801 113.528923 
L 668.949074 113.528923 
L 673.436794 112.977802 
L 676.962861 112.977802 
L 685.938302 112.702242 
L 688.182163 112.426681 
L 691.067126 112.426681 
L 691.067126 112.151121 
L 738.829298 112.151121 
L 740.111504 111.87556 
L 740.111504 111.6 
L 747.163636 111.6 
L 747.163636 111.6 
" clip-path="url(#p911d5ffa4c)" style="fill: none; stroke: #1f77b4; stroke-width: 2; stroke-linecap: square"/>
   </g>
   <g id="line2d_26">
    <path d="M 138.436364 615.6 
L 138.436364 608.277966 
L 139.09232 606.447458 
L 139.09232 597.905085 
L 141.060188 593.023729 
L 141.060188 589.972881 
L 141.716144 589.362712 
L 141.716144 588.142373 
L 142.3721 586.922034 
L 142.3721 578.379661 
L 143.028056 577.159322 
L 143.684013 576.549153 
L 143.684013 571.057627 
L 144.339969 569.837288 
L 144.339969 565.566102 
L 145.651881 561.294915 
L 145.651881 557.023729 
L 146.963793 555.19322 
L 146.963793 550.922034 
L 147.619749 550.922034 
L 147.619749 542.989831 
L 148.931661 542.989831 
L 148.931661 534.447458 
L 149.587618 530.176271 
L 149.587618 528.955932 
L 150.243574 528.345763 
L 150.243574 525.294915 
L 151.555486 525.294915 
L 151.555486 517.972881 
L 152.211442 517.972881 
L 152.211442 516.752542 
L 152.867398 516.142373 
L 152.867398 513.701695 
L 153.523354 513.091525 
L 153.523354 509.430508 
L 154.17931 509.430508 
L 154.17931 500.277966 
L 154.835266 500.277966 
L 154.835266 497.227119 
L 155.491223 497.227119 
L 155.491223 489.294915 
L 156.147179 489.294915 
L 156.147179 486.244068 
L 157.459091 486.244068 
L 157.459091 484.413559 
L 158.115047 480.752542 
L 158.115047 477.091525 
L 159.426959 477.091525 
L 159.426959 476.481356 
L 160.082915 476.481356 
L 160.082915 467.938983 
L 160.738871 467.328814 
L 160.738871 466.718644 
L 161.394828 466.108475 
L 161.394828 465.498305 
L 162.050784 465.498305 
L 163.362696 462.447458 
L 163.362696 442.922034 
L 164.018652 441.091525 
L 164.018652 438.040678 
L 164.674608 438.040678 
L 165.330564 436.210169 
L 165.330564 433.159322 
L 165.98652 433.159322 
L 165.98652 430.108475 
L 166.642476 428.277966 
L 166.642476 427.667797 
L 167.298433 427.667797 
L 167.954389 427.057627 
L 167.954389 422.176271 
L 168.610345 422.176271 
L 168.610345 414.854237 
L 169.266301 414.244068 
L 169.922257 414.244068 
L 169.922257 413.633898 
L 170.578213 413.633898 
L 170.578213 413.023729 
L 171.890125 413.023729 
L 171.890125 412.413559 
L 172.546082 412.413559 
L 172.546082 404.481356 
L 173.202038 404.481356 
L 173.202038 403.871186 
L 173.857994 401.430508 
L 175.169906 400.210169 
L 175.169906 397.769492 
L 175.825862 397.159322 
L 175.825862 396.549153 
L 177.137774 395.328814 
L 177.79373 395.328814 
L 177.79373 392.888136 
L 178.449687 392.888136 
L 178.449687 391.667797 
L 179.105643 391.667797 
L 179.105643 389.837288 
L 180.417555 389.837288 
L 180.417555 386.176271 
L 181.073511 386.176271 
L 181.073511 380.684746 
L 181.729467 380.684746 
L 181.729467 378.854237 
L 182.385423 378.854237 
L 182.385423 377.023729 
L 183.041379 377.023729 
L 183.041379 371.532203 
L 184.353292 370.311864 
L 184.353292 365.430508 
L 186.977116 365.430508 
L 186.977116 363.6 
L 187.633072 363.6 
L 187.633072 359.328814 
L 188.289028 357.498305 
L 188.289028 355.057627 
L 188.944984 354.447458 
L 189.60094 354.447458 
L 189.60094 353.227119 
L 190.256897 353.227119 
L 190.256897 347.125424 
L 190.912853 346.515254 
L 190.912853 343.464407 
L 191.568809 343.464407 
L 191.568809 342.854237 
L 192.224765 342.854237 
L 192.224765 341.023729 
L 192.880721 340.413559 
L 192.880721 337.362712 
L 193.536677 337.362712 
L 193.536677 336.752542 
L 194.192633 336.752542 
L 194.192633 324.549153 
L 194.848589 323.938983 
L 194.848589 319.667797 
L 196.816458 319.667797 
L 196.816458 319.057627 
L 197.472414 319.057627 
L 197.472414 318.447458 
L 198.12837 318.447458 
L 198.12837 316.616949 
L 198.784326 316.616949 
L 198.784326 316.00678 
L 199.440282 315.39661 
L 199.440282 313.566102 
L 200.096238 313.566102 
L 200.096238 312.955932 
L 201.40815 312.955932 
L 202.064107 312.345763 
L 202.720063 312.345763 
L 204.687931 310.515254 
L 204.687931 308.684746 
L 205.343887 308.684746 
L 205.343887 305.023729 
L 205.999843 305.023729 
L 205.999843 303.80339 
L 206.655799 303.80339 
L 206.655799 303.19322 
L 207.311755 302.583051 
L 207.311755 301.972881 
L 208.623668 298.311864 
L 208.623668 297.701695 
L 210.591536 297.091525 
L 210.591536 294.650847 
L 211.247492 294.650847 
L 211.247492 289.159322 
L 211.903448 289.159322 
L 211.903448 286.108475 
L 213.215361 286.108475 
L 213.215361 283.667797 
L 213.871317 283.667797 
L 213.871317 281.837288 
L 216.495141 280.616949 
L 216.495141 278.786441 
L 217.151097 278.786441 
L 217.151097 277.566102 
L 217.807053 275.735593 
L 217.807053 269.023729 
L 218.463009 269.023729 
L 218.463009 268.413559 
L 219.118966 268.413559 
L 219.118966 267.80339 
L 219.774922 267.80339 
L 219.774922 266.583051 
L 220.430878 265.972881 
L 220.430878 262.311864 
L 221.086834 262.311864 
L 221.086834 261.091525 
L 222.398746 261.091525 
L 222.398746 259.871186 
L 223.710658 259.871186 
L 223.710658 258.040678 
L 224.366614 258.040678 
L 224.366614 256.210169 
L 225.022571 256.210169 
L 225.022571 250.718644 
L 225.678527 250.718644 
L 226.334483 250.108475 
L 226.334483 249.498305 
L 226.990439 249.498305 
L 226.990439 247.057627 
L 227.646395 247.057627 
L 227.646395 246.447458 
L 229.614263 246.447458 
L 229.614263 243.39661 
L 230.270219 243.39661 
L 230.270219 242.176271 
L 231.582132 242.176271 
L 231.582132 239.735593 
L 232.238088 239.735593 
L 232.238088 237.294915 
L 232.894044 237.294915 
L 232.894044 236.684746 
L 233.55 236.684746 
L 233.55 236.074576 
L 234.205956 236.074576 
L 234.205956 235.464407 
L 234.861912 235.464407 
L 234.861912 233.633898 
L 236.173824 233.633898 
L 236.173824 231.19322 
L 236.829781 231.19322 
L 236.829781 229.972881 
L 237.485737 229.972881 
L 237.485737 228.752542 
L 238.141693 228.752542 
L 238.141693 228.142373 
L 238.797649 228.142373 
L 239.453605 226.311864 
L 240.765517 226.311864 
L 240.765517 224.481356 
L 241.421473 223.871186 
L 241.421473 220.210169 
L 243.389342 220.210169 
L 243.389342 219.6 
L 244.701254 219.6 
L 244.701254 218.379661 
L 247.981034 218.379661 
L 247.981034 217.159322 
L 249.948903 215.938983 
L 250.604859 215.328814 
L 251.916771 215.328814 
L 251.916771 214.718644 
L 253.884639 214.718644 
L 253.884639 213.498305 
L 254.540596 213.498305 
L 254.540596 212.277966 
L 255.852508 212.277966 
L 255.852508 211.057627 
L 257.820376 211.057627 
L 257.820376 210.447458 
L 258.476332 210.447458 
L 258.476332 208.616949 
L 259.132288 208.616949 
L 259.132288 208.00678 
L 260.444201 208.00678 
L 260.444201 204.345763 
L 261.100157 204.345763 
L 261.100157 203.735593 
L 263.723981 203.735593 
L 263.723981 202.515254 
L 265.035893 202.515254 
L 265.69185 201.905085 
L 265.69185 200.074576 
L 266.347806 200.074576 
L 266.347806 199.464407 
L 267.003762 197.633898 
L 267.659718 197.633898 
L 267.659718 193.362712 
L 268.315674 192.752542 
L 270.283542 192.752542 
L 270.283542 190.922034 
L 278.810972 190.922034 
L 278.810972 189.701695 
L 280.122884 189.701695 
L 280.122884 188.481356 
L 281.434796 188.481356 
L 281.434796 187.261017 
L 283.402665 187.261017 
L 283.402665 185.430508 
L 284.058621 185.430508 
L 284.058621 184.820339 
L 284.714577 184.820339 
L 284.714577 184.210169 
L 286.026489 184.210169 
L 286.026489 181.769492 
L 289.962226 181.769492 
L 289.962226 179.938983 
L 292.58605 179.938983 
L 292.58605 179.328814 
L 294.553918 179.328814 
L 294.553918 178.718644 
L 297.177743 178.718644 
L 297.177743 178.108475 
L 301.11348 178.108475 
L 301.11348 176.888136 
L 303.081348 176.888136 
L 303.081348 175.667797 
L 304.39326 175.667797 
L 304.39326 173.837288 
L 305.049216 173.837288 
L 305.049216 173.227119 
L 309.640909 173.227119 
L 309.640909 172.616949 
L 310.952821 172.616949 
L 310.952821 172.00678 
L 311.608777 172.00678 
L 311.608777 171.39661 
L 312.92069 171.39661 
L 312.92069 170.786441 
L 320.792163 170.786441 
L 320.792163 169.566102 
L 322.104075 169.566102 
L 322.104075 168.955932 
L 323.415987 168.955932 
L 323.415987 167.735593 
L 324.7279 167.735593 
L 324.7279 165.905085 
L 325.383856 165.905085 
L 325.383856 164.684746 
L 326.039812 164.074576 
L 326.039812 163.464407 
L 328.663636 163.464407 
L 328.663636 162.854237 
L 330.631505 162.854237 
L 330.631505 161.023729 
L 331.943417 161.023729 
L 331.943417 160.413559 
L 332.599373 160.413559 
L 332.599373 159.80339 
L 333.255329 159.80339 
L 333.255329 159.19322 
L 334.567241 159.19322 
L 334.567241 158.583051 
L 335.223197 158.583051 
L 335.223197 157.972881 
L 337.191066 157.972881 
L 337.191066 157.362712 
L 340.470846 157.362712 
L 340.470846 156.752542 
L 342.438715 156.752542 
L 342.438715 155.532203 
L 343.094671 155.532203 
L 343.094671 154.922034 
L 343.750627 154.922034 
L 343.750627 154.311864 
L 353.589969 154.311864 
L 353.589969 153.701695 
L 355.557837 153.701695 
L 355.557837 153.091525 
L 356.213793 153.091525 
L 356.213793 152.481356 
L 358.181661 152.481356 
L 358.181661 151.871186 
L 359.493574 151.871186 
L 359.493574 151.261017 
L 360.805486 151.261017 
L 360.805486 149.430508 
L 362.773354 149.430508 
L 362.773354 148.820339 
L 363.42931 148.820339 
L 363.42931 147.6 
L 365.397179 147.6 
L 365.397179 146.989831 
L 366.709091 146.989831 
L 366.709091 146.379661 
L 368.676959 146.379661 
L 368.676959 145.769492 
L 369.988871 145.769492 
L 369.988871 144.549153 
L 370.644828 144.549153 
L 370.644828 142.718644 
L 372.612696 142.718644 
L 372.612696 142.108475 
L 379.828213 142.108475 
L 379.828213 141.498305 
L 380.484169 141.498305 
L 380.484169 140.888136 
L 382.452038 140.888136 
L 382.452038 140.277966 
L 387.04373 140.277966 
L 387.04373 139.667797 
L 388.355643 139.667797 
L 388.355643 138.447458 
L 393.603292 138.447458 
L 393.603292 137.837288 
L 419.18558 137.837288 
L 419.18558 137.227119 
L 422.465361 137.227119 
L 422.465361 136.616949 
L 423.121317 136.00678 
L 423.777273 136.00678 
L 423.777273 135.39661 
L 429.680878 135.39661 
L 430.336834 134.786441 
L 446.079781 134.786441 
L 448.703605 134.176271 
L 453.951254 134.176271 
L 453.951254 133.566102 
L 454.60721 133.566102 
L 454.60721 132.955932 
L 457.231034 132.955932 
L 458.542947 132.345763 
L 461.166771 132.345763 
L 461.166771 131.735593 
L 462.478683 131.735593 
L 462.478683 131.125424 
L 463.134639 131.125424 
L 463.134639 130.515254 
L 467.070376 130.515254 
L 467.070376 129.905085 
L 469.038245 129.905085 
L 469.038245 129.294915 
L 472.973981 129.294915 
L 472.973981 128.684746 
L 477.565674 128.684746 
L 477.565674 128.074576 
L 495.932445 128.074576 
L 495.932445 127.464407 
L 501.180094 127.464407 
L 501.180094 126.854237 
L 503.803918 126.854237 
L 503.803918 126.244068 
L 504.459875 126.244068 
L 504.459875 125.633898 
L 505.115831 125.633898 
L 505.771787 125.023729 
L 511.019436 125.023729 
L 511.019436 124.413559 
L 519.546865 124.413559 
L 519.546865 123.80339 
L 527.418339 123.80339 
L 528.074295 123.19322 
L 537.913636 123.19322 
L 537.913636 122.583051 
L 539.881505 122.583051 
L 539.881505 121.972881 
L 544.473197 121.972881 
L 544.473197 121.362712 
L 547.097022 121.362712 
L 547.097022 120.752542 
L 547.752978 120.752542 
L 547.752978 119.532203 
L 554.968495 119.532203 
L 554.968495 118.922034 
L 567.431661 118.922034 
L 567.431661 118.311864 
L 571.367398 118.311864 
L 573.991223 117.701695 
L 589.734169 117.701695 
L 589.734169 117.091525 
L 595.637774 117.091525 
L 595.637774 116.481356 
L 634.339185 116.481356 
L 634.339185 115.871186 
L 650.082132 115.871186 
L 650.082132 114.650847 
L 654.673824 114.650847 
L 654.673824 114.040678 
L 673.040596 114.040678 
L 675.008464 113.430508 
L 688.127586 113.430508 
L 688.127586 112.820339 
L 731.42069 111.6 
L 747.163636 111.6 
L 747.163636 111.6 
" clip-path="url(#p911d5ffa4c)" style="fill: none; stroke: #ff7f0e; stroke-width: 2; stroke-linecap: square"/>
   </g>
   <g id="line2d_27">
    <path d="M 138.436364 615.6 
L 139.203989 601.502098 
L 141.506867 586.699301 
L 142.274493 579.65035 
L 143.042119 576.830769 
L 143.042119 571.896503 
L 143.809744 571.191608 
L 143.809744 566.257343 
L 144.57737 564.142657 
L 144.57737 562.732867 
L 145.344996 562.027972 
L 145.344996 550.74965 
L 146.112622 550.74965 
L 146.112622 548.634965 
L 146.880248 548.634965 
L 146.880248 545.815385 
L 147.647873 545.11049 
L 147.647873 538.061538 
L 148.415499 538.061538 
L 148.415499 527.488112 
L 149.950751 526.783217 
L 149.950751 521.848951 
L 150.718377 521.848951 
L 150.718377 521.144056 
L 151.486003 519.029371 
L 151.486003 516.20979 
L 152.253628 516.20979 
L 152.253628 507.046154 
L 153.78888 507.046154 
L 153.78888 502.111888 
L 154.556506 502.111888 
L 154.556506 496.472727 
L 155.324132 495.767832 
L 155.324132 495.062937 
L 156.091757 495.062937 
L 156.091757 492.948252 
L 156.859383 492.948252 
L 156.859383 483.07972 
L 157.627009 483.07972 
L 157.627009 477.440559 
L 158.394635 477.440559 
L 158.394635 473.916084 
L 159.162261 473.211189 
L 159.162261 465.457343 
L 159.929887 464.047552 
L 159.929887 461.227972 
L 161.465138 461.227972 
L 161.465138 459.818182 
L 162.232764 457.703497 
L 163.00039 456.998601 
L 163.00039 452.064336 
L 163.768016 452.064336 
L 163.768016 449.94965 
L 164.535641 449.94965 
L 164.535641 448.53986 
L 165.303267 447.834965 
L 165.303267 436.556643 
L 166.070893 436.556643 
L 166.070893 423.163636 
L 166.838519 423.163636 
L 166.838519 413.295105 
L 167.606145 412.59021 
L 168.37377 412.59021 
L 168.37377 399.902098 
L 169.141396 399.902098 
L 169.141396 398.492308 
L 169.909022 398.492308 
L 169.909022 397.787413 
L 170.676648 397.787413 
L 171.444274 395.672727 
L 172.2119 395.672727 
L 172.2119 394.967832 
L 172.979525 394.262937 
L 172.979525 388.623776 
L 173.747151 388.623776 
L 173.747151 387.918881 
L 174.514777 387.918881 
L 174.514777 386.509091 
L 175.282403 386.509091 
L 175.282403 371.001399 
L 176.817654 371.001399 
L 176.817654 370.296503 
L 177.58528 370.296503 
L 177.58528 361.837762 
L 178.352906 361.837762 
L 178.352906 354.083916 
L 179.120532 354.083916 
L 179.120532 351.969231 
L 179.888158 351.969231 
L 179.888158 349.854545 
L 180.655784 349.854545 
L 180.655784 347.034965 
L 181.423409 347.034965 
L 181.423409 343.51049 
L 182.191035 343.51049 
L 182.191035 339.281119 
L 182.958661 339.281119 
L 182.958661 337.871329 
L 184.493913 337.871329 
L 184.493913 337.166434 
L 185.261538 337.166434 
L 185.261538 335.051748 
L 186.029164 335.051748 
L 186.029164 332.937063 
L 186.79679 332.937063 
L 186.79679 332.232168 
L 187.564416 332.232168 
L 187.564416 327.297902 
L 188.332042 327.297902 
L 188.332042 325.888112 
L 189.867293 325.888112 
L 189.867293 320.248951 
L 190.634919 320.248951 
L 190.634919 311.79021 
L 192.170171 311.79021 
L 192.937797 311.085315 
L 193.705422 311.085315 
L 193.705422 308.265734 
L 194.473048 308.265734 
L 194.473048 307.560839 
L 195.240674 307.560839 
L 195.240674 302.626573 
L 196.0083 302.626573 
L 196.0083 301.216783 
L 196.775926 301.216783 
L 196.775926 300.511888 
L 199.078803 300.511888 
L 200.614055 299.806993 
L 200.614055 297.692308 
L 202.149306 297.692308 
L 202.149306 296.987413 
L 202.916932 296.282517 
L 202.916932 294.167832 
L 203.684558 294.167832 
L 203.684558 290.643357 
L 204.452184 290.643357 
L 205.21981 289.938462 
L 205.21981 288.528671 
L 209.057939 288.528671 
L 209.057939 286.413986 
L 209.825565 286.413986 
L 209.825565 285.709091 
L 210.59319 285.709091 
L 210.59319 285.004196 
L 211.360816 285.004196 
L 211.360816 283.594406 
L 212.896068 282.184615 
L 212.896068 281.47972 
L 215.198945 281.47972 
L 215.198945 279.365035 
L 215.966571 279.365035 
L 215.966571 277.25035 
L 216.734197 277.25035 
L 216.734197 275.135664 
L 217.501823 275.135664 
L 218.269449 274.430769 
L 218.269449 271.611189 
L 220.572326 271.611189 
L 220.572326 265.972028 
L 222.875203 265.972028 
L 222.875203 263.857343 
L 223.642829 263.857343 
L 223.642829 263.152448 
L 226.713333 263.152448 
L 226.713333 262.447552 
L 227.480958 262.447552 
L 227.480958 261.742657 
L 229.01621 261.742657 
L 229.01621 258.218182 
L 230.551462 258.218182 
L 230.551462 256.808392 
L 231.319087 256.808392 
L 231.319087 256.103497 
L 232.086713 256.103497 
L 232.086713 255.398601 
L 233.621965 255.398601 
L 233.621965 253.283916 
L 235.157217 253.283916 
L 235.157217 252.579021 
L 236.692468 252.579021 
L 236.692468 251.874126 
L 238.22772 251.874126 
L 238.22772 250.464336 
L 238.995346 250.464336 
L 238.995346 248.34965 
L 239.762971 248.34965 
L 239.762971 246.93986 
L 242.065849 246.93986 
L 242.065849 246.234965 
L 243.601101 246.234965 
L 243.601101 244.825175 
L 244.368726 244.825175 
L 244.368726 244.12028 
L 245.136352 244.12028 
L 245.136352 241.300699 
L 246.671604 241.300699 
L 246.671604 239.890909 
L 248.206855 239.890909 
L 248.206855 238.481119 
L 250.509733 238.481119 
L 250.509733 237.776224 
L 252.81261 237.776224 
L 252.81261 237.071329 
L 253.580236 237.071329 
L 253.580236 234.251748 
L 257.418365 234.251748 
L 257.418365 232.841958 
L 258.185991 232.841958 
L 258.185991 231.432168 
L 258.953617 231.432168 
L 258.953617 230.022378 
L 262.02412 230.022378 
L 262.02412 227.202797 
L 263.559372 227.202797 
L 263.559372 225.088112 
L 265.862249 225.088112 
L 265.862249 224.383217 
L 267.397501 224.383217 
L 267.397501 220.153846 
L 268.165127 220.153846 
L 268.165127 219.448951 
L 270.468004 219.448951 
L 270.468004 218.039161 
L 271.23563 218.039161 
L 271.23563 217.334266 
L 272.003256 217.334266 
L 272.003256 215.21958 
L 273.538507 215.21958 
L 273.538507 214.514685 
L 275.841385 214.514685 
L 275.841385 212.4 
L 278.911888 212.4 
L 278.911888 211.695105 
L 279.679514 211.695105 
L 279.679514 210.99021 
L 280.44714 210.99021 
L 280.44714 209.58042 
L 285.052895 209.58042 
L 285.052895 208.170629 
L 288.123398 208.170629 
L 288.123398 207.465734 
L 288.891024 207.465734 
L 288.891024 206.760839 
L 289.65865 206.760839 
L 289.65865 206.055944 
L 290.426275 206.055944 
L 290.426275 203.236364 
L 292.729153 203.236364 
L 292.729153 200.416783 
L 296.567282 200.416783 
L 296.567282 197.597203 
L 299.637785 197.597203 
L 299.637785 196.187413 
L 300.405411 196.187413 
L 300.405411 194.072727 
L 301.173037 194.072727 
L 301.173037 193.367832 
L 304.24354 193.367832 
L 304.24354 192.662937 
L 306.546418 192.662937 
L 307.314043 191.958042 
L 310.384547 191.958042 
L 310.384547 189.843357 
L 311.152172 189.843357 
L 311.152172 189.138462 
L 312.687424 189.138462 
L 312.687424 187.728671 
L 313.45505 187.728671 
L 313.45505 186.318881 
L 314.990302 186.318881 
L 314.990302 184.204196 
L 315.757927 184.204196 
L 315.757927 183.499301 
L 316.525553 183.499301 
L 316.525553 182.794406 
L 317.293179 182.794406 
L 317.293179 182.08951 
L 320.363682 182.08951 
L 320.363682 179.974825 
L 321.898934 179.974825 
L 321.898934 179.26993 
L 322.66656 179.26993 
L 322.66656 177.86014 
L 324.201811 177.86014 
L 324.201811 177.155245 
L 327.272315 177.155245 
L 327.272315 176.45035 
L 328.03994 176.45035 
L 328.03994 175.040559 
L 328.807566 175.040559 
L 328.807566 173.630769 
L 331.878069 173.630769 
L 331.878069 172.925874 
L 333.413321 172.925874 
L 333.413321 172.220979 
L 334.948573 172.220979 
L 334.948573 171.516084 
L 335.716199 171.516084 
L 335.716199 170.811189 
L 336.483824 170.811189 
L 336.483824 170.106294 
L 337.25145 170.106294 
L 337.25145 169.401399 
L 338.019076 169.401399 
L 338.019076 168.696503 
L 338.786702 168.696503 
L 338.786702 165.876923 
L 340.321953 165.876923 
L 340.321953 165.172028 
L 341.089579 165.172028 
L 341.089579 164.467133 
L 344.927708 164.467133 
L 344.927708 163.057343 
L 347.230586 163.057343 
L 347.230586 162.352448 
L 348.765837 162.352448 
L 348.765837 161.647552 
L 351.068715 161.647552 
L 351.068715 160.942657 
L 355.67447 160.942657 
L 355.67447 159.532867 
L 356.442096 159.532867 
L 356.442096 158.827972 
L 359.512599 158.827972 
L 359.512599 157.418182 
L 360.280225 157.418182 
L 360.280225 156.713287 
L 362.583102 156.713287 
L 362.583102 156.008392 
L 363.350728 156.008392 
L 364.118354 155.303497 
L 364.88598 155.303497 
L 364.88598 153.893706 
L 365.653605 153.893706 
L 365.653605 153.188811 
L 369.491734 153.188811 
L 369.491734 151.779021 
L 371.026986 151.779021 
L 371.026986 150.369231 
L 372.562238 150.369231 
L 372.562238 149.664336 
L 378.703244 149.664336 
L 378.703244 148.959441 
L 379.47087 148.959441 
L 379.47087 147.54965 
L 383.308999 147.54965 
L 383.308999 146.844755 
L 384.844251 146.844755 
L 384.844251 146.13986 
L 388.68238 146.13986 
L 388.68238 145.434965 
L 389.450006 145.434965 
L 389.450006 144.73007 
L 392.520509 144.73007 
L 392.520509 144.025175 
L 394.823386 144.025175 
L 394.823386 143.32028 
L 406.337774 143.32028 
L 406.337774 142.615385 
L 409.408277 142.615385 
L 409.408277 141.91049 
L 412.47878 141.91049 
L 412.47878 141.205594 
L 413.246406 141.205594 
L 413.246406 140.500699 
L 414.781658 140.500699 
L 414.781658 139.795804 
L 416.316909 139.795804 
L 416.316909 139.090909 
L 417.852161 139.090909 
L 417.852161 138.386014 
L 422.457916 138.386014 
L 422.457916 137.681119 
L 423.225542 137.681119 
L 423.225542 136.976224 
L 427.063671 136.976224 
L 427.063671 135.566434 
L 427.831297 135.566434 
L 427.831297 134.861538 
L 431.669426 134.861538 
L 431.669426 134.156643 
L 432.437051 134.156643 
L 432.437051 133.451748 
L 434.739929 133.451748 
L 435.507555 132.746853 
L 435.507555 131.337063 
L 438.578058 131.337063 
L 438.578058 130.632168 
L 440.11331 130.632168 
L 440.11331 129.927273 
L 447.021942 129.927273 
L 447.021942 129.222378 
L 455.465826 129.222378 
L 455.465826 128.517483 
L 466.980213 128.517483 
L 466.980213 127.812587 
L 467.747839 127.812587 
L 467.747839 127.107692 
L 470.818342 127.107692 
L 470.818342 126.402797 
L 475.424097 126.402797 
L 475.424097 124.993007 
L 480.797478 124.993007 
L 480.797478 124.288112 
L 481.565104 124.288112 
L 481.565104 123.583217 
L 485.403233 123.583217 
L 485.403233 122.173427 
L 498.452872 122.173427 
L 498.452872 121.468531 
L 505.361504 121.468531 
L 505.361504 120.058741 
L 507.664382 120.058741 
L 507.664382 119.353846 
L 518.411143 119.353846 
L 518.411143 118.648951 
L 523.784524 118.648951 
L 523.784524 117.944056 
L 526.087401 117.944056 
L 526.855027 117.239161 
L 528.390279 117.239161 
L 529.92553 116.534266 
L 549.116176 116.534266 
L 549.116176 115.829371 
L 582.124086 115.829371 
L 582.124086 115.124476 
L 592.870847 115.124476 
L 593.638473 114.41958 
L 618.202499 114.41958 
L 618.202499 113.714685 
L 624.343506 113.714685 
L 624.343506 113.00979 
L 631.252138 113.00979 
L 631.252138 112.304895 
L 652.745661 112.304895 
L 662.724797 111.6 
L 747.163636 111.6 
L 747.163636 111.6 
" clip-path="url(#p911d5ffa4c)" style="fill: none; stroke: #2ca02c; stroke-width: 2; stroke-linecap: square"/>
   </g>
   <g id="line2d_28">
    <path d="M 138.436364 615.6 
L 138.436364 612.703448 
L 138.436364 609.806897 
L 138.436364 604.013793 
L 138.436364 583.737931 
L 141.362937 583.737931 
L 141.362937 575.048276 
L 144.28951 575.048276 
L 144.28951 572.151724 
L 144.28951 566.358621 
L 144.28951 488.151724 
L 144.28951 482.358621 
L 144.28951 476.565517 
L 147.216084 476.565517 
L 147.216084 421.531034 
L 147.216084 415.737931 
L 147.216084 409.944828 
L 147.216084 404.151724 
L 147.216084 360.703448 
L 150.142657 360.703448 
L 150.142657 328.841379 
L 153.069231 328.841379 
L 153.069231 302.772414 
L 155.995804 302.772414 
L 155.995804 299.875862 
L 158.922378 299.875862 
L 158.922378 294.082759 
L 161.848951 294.082759 
L 161.848951 285.393103 
L 167.702098 285.393103 
L 167.702098 268.013793 
L 170.628671 268.013793 
L 170.628671 236.151724 
L 176.481818 236.151724 
L 176.481818 233.255172 
L 182.334965 233.255172 
L 182.334965 224.565517 
L 188.188112 224.565517 
L 188.188112 212.97931 
L 191.114685 212.97931 
L 191.114685 210.082759 
L 194.041259 207.186207 
L 199.894406 207.186207 
L 199.894406 204.289655 
L 202.820979 204.289655 
L 202.820979 198.496552 
L 205.747552 198.496552 
L 205.747552 192.703448 
L 211.600699 192.703448 
L 211.600699 189.806897 
L 214.527273 189.806897 
L 214.527273 181.117241 
L 229.16014 181.117241 
L 229.16014 178.22069 
L 237.93986 178.22069 
L 237.93986 175.324138 
L 243.793007 175.324138 
L 243.793007 172.427586 
L 246.71958 172.427586 
L 246.71958 169.531034 
L 255.499301 169.531034 
L 255.499301 166.634483 
L 261.352448 166.634483 
L 261.352448 160.841379 
L 270.132168 160.841379 
L 270.132168 155.048276 
L 281.838462 155.048276 
L 281.838462 152.151724 
L 290.618182 152.151724 
L 290.618182 146.358621 
L 299.397902 146.358621 
L 299.397902 140.565517 
L 302.324476 137.668966 
L 308.177622 137.668966 
L 308.177622 134.772414 
L 319.883916 134.772414 
L 319.883916 131.875862 
L 360.855944 131.875862 
L 360.855944 128.97931 
L 425.240559 128.97931 
L 425.240559 126.082759 
L 431.093706 126.082759 
L 431.093706 123.186207 
L 466.212587 123.186207 
L 466.212587 120.289655 
L 507.184615 120.289655 
L 513.037762 120.289655 
L 527.670629 120.289655 
L 527.670629 117.393103 
L 548.156643 117.393103 
L 548.156643 114.496552 
L 571.569231 114.496552 
L 571.569231 111.6 
L 665.21958 111.6 
L 671.072727 111.6 
L 685.705594 111.6 
L 691.558741 111.6 
L 703.265035 111.6 
L 709.118182 111.6 
L 747.163636 111.6 
" clip-path="url(#p911d5ffa4c)" style="fill: none; stroke: #d62728; stroke-width: 2; stroke-linecap: square"/>
   </g>
   <g id="line2d_29">
    <path d="M 138.436364 615.6 
L 747.163636 111.6 
" clip-path="url(#p911d5ffa4c)" style="fill: none; stroke-dasharray: 7.4,3.2; stroke-dashoffset: 0; stroke: #000080; stroke-width: 2"/>
   </g>
   <g id="patch_3">
    <path d="M 108 640.8 
L 108 86.4 
" style="fill: none; stroke: #000000; stroke-width: 0.8; stroke-linejoin: miter; stroke-linecap: square"/>
   </g>
   <g id="patch_4">
    <path d="M 777.6 640.8 
L 777.6 86.4 
" style="fill: none; stroke: #000000; stroke-width: 0.8; stroke-linejoin: miter; stroke-linecap: square"/>
   </g>
   <g id="patch_5">
    <path d="M 108 640.8 
L 777.6 640.8 
" style="fill: none; stroke: #000000; stroke-width: 0.8; stroke-linejoin: miter; stroke-linecap: square"/>
   </g>
   <g id="patch_6">
    <path d="M 108 86.4 
L 777.6 86.4 
" style="fill: none; stroke: #000000; stroke-width: 0.8; stroke-linejoin: miter; stroke-linecap: square"/>
   </g>
   <g id="text_15">
    <!-- Receiver Operating Characteristic (ROC) Curve for All Locations -->
    <g transform="translate(252.105 80.4) scale(0.12 -0.12)">
     <defs>
      <path id="DejaVuSans-63" d="M 3122 3366 
L 3122 2828 
Q 2878 2963 2633 3030 
Q 2388 3097 2138 3097 
Q 1578 3097 1268 2742 
Q 959 2388 959 1747 
Q 959 1106 1268 751 
Q 1578 397 2138 397 
Q 2388 397 2633 464 
Q 2878 531 3122 666 
L 3122 134 
Q 2881 22 2623 -34 
Q 2366 -91 2075 -91 
Q 1284 -91 818 406 
Q 353 903 353 1747 
Q 353 2603 823 3093 
Q 1294 3584 2113 3584 
Q 2378 3584 2631 3529 
Q 2884 3475 3122 3366 
z
" transform="scale(0.015625)"/>
      <path id="DejaVuSans-4f" d="M 2522 4238 
Q 1834 4238 1429 3725 
Q 1025 3213 1025 2328 
Q 1025 1447 1429 934 
Q 1834 422 2522 422 
Q 3209 422 3611 934 
Q 4013 1447 4013 2328 
Q 4013 3213 3611 3725 
Q 3209 4238 2522 4238 
z
M 2522 4750 
Q 3503 4750 4090 4092 
Q 4678 3434 4678 2328 
Q 4678 1225 4090 567 
Q 3503 -91 2522 -91 
Q 1538 -91 948 565 
Q 359 1222 359 2328 
Q 359 3434 948 4092 
Q 1538 4750 2522 4750 
z
" transform="scale(0.015625)"/>
      <path id="DejaVuSans-70" d="M 1159 525 
L 1159 -1331 
L 581 -1331 
L 581 3500 
L 1159 3500 
L 1159 2969 
Q 1341 3281 1617 3432 
Q 1894 3584 2278 3584 
Q 2916 3584 3314 3078 
Q 3713 2572 3713 1747 
Q 3713 922 3314 415 
Q 2916 -91 2278 -91 
Q 1894 -91 1617 61 
Q 1341 213 1159 525 
z
M 3116 1747 
Q 3116 2381 2855 2742 
Q 2594 3103 2138 3103 
Q 1681 3103 1420 2742 
Q 1159 2381 1159 1747 
Q 1159 1113 1420 752 
Q 1681 391 2138 391 
Q 2594 391 2855 752 
Q 3116 1113 3116 1747 
z
" transform="scale(0.015625)"/>
      <path id="DejaVuSans-6e" d="M 3513 2113 
L 3513 0 
L 2938 0 
L 2938 2094 
Q 2938 2591 2744 2837 
Q 2550 3084 2163 3084 
Q 1697 3084 1428 2787 
Q 1159 2491 1159 1978 
L 1159 0 
L 581 0 
L 581 3500 
L 1159 3500 
L 1159 2956 
Q 1366 3272 1645 3428 
Q 1925 3584 2291 3584 
Q 2894 3584 3203 3211 
Q 3513 2838 3513 2113 
z
" transform="scale(0.015625)"/>
      <path id="DejaVuSans-67" d="M 2906 1791 
Q 2906 2416 2648 2759 
Q 2391 3103 1925 3103 
Q 1463 3103 1205 2759 
Q 947 2416 947 1791 
Q 947 1169 1205 825 
Q 1463 481 1925 481 
Q 2391 481 2648 825 
Q 2906 1169 2906 1791 
z
M 3481 434 
Q 3481 -459 3084 -895 
Q 2688 -1331 1869 -1331 
Q 1566 -1331 1297 -1286 
Q 1028 -1241 775 -1147 
L 775 -588 
Q 1028 -725 1275 -790 
Q 1522 -856 1778 -856 
Q 2344 -856 2625 -561 
Q 2906 -266 2906 331 
L 2906 616 
Q 2728 306 2450 153 
Q 2172 0 1784 0 
Q 1141 0 747 490 
Q 353 981 353 1791 
Q 353 2603 747 3093 
Q 1141 3584 1784 3584 
Q 2172 3584 2450 3431 
Q 2728 3278 2906 2969 
L 2906 3500 
L 3481 3500 
L 3481 434 
z
" transform="scale(0.015625)"/>
      <path id="DejaVuSans-43" d="M 4122 4306 
L 4122 3641 
Q 3803 3938 3442 4084 
Q 3081 4231 2675 4231 
Q 1875 4231 1450 3742 
Q 1025 3253 1025 2328 
Q 1025 1406 1450 917 
Q 1875 428 2675 428 
Q 3081 428 3442 575 
Q 3803 722 4122 1019 
L 4122 359 
Q 3791 134 3420 21 
Q 3050 -91 2638 -91 
Q 1578 -91 968 557 
Q 359 1206 359 2328 
Q 359 3453 968 4101 
Q 1578 4750 2638 4750 
Q 3056 4750 3426 4639 
Q 3797 4528 4122 4306 
z
" transform="scale(0.015625)"/>
      <path id="DejaVuSans-68" d="M 3513 2113 
L 3513 0 
L 2938 0 
L 2938 2094 
Q 2938 2591 2744 2837 
Q 2550 3084 2163 3084 
Q 1697 3084 1428 2787 
Q 1159 2491 1159 1978 
L 1159 0 
L 581 0 
L 581 4863 
L 1159 4863 
L 1159 2956 
Q 1366 3272 1645 3428 
Q 1925 3584 2291 3584 
Q 2894 3584 3203 3211 
Q 3513 2838 3513 2113 
z
" transform="scale(0.015625)"/>
      <path id="DejaVuSans-28" d="M 1984 4856 
Q 1566 4138 1362 3434 
Q 1159 2731 1159 2009 
Q 1159 1288 1364 580 
Q 1569 -128 1984 -844 
L 1484 -844 
Q 1016 -109 783 600 
Q 550 1309 550 2009 
Q 550 2706 781 3412 
Q 1013 4119 1484 4856 
L 1984 4856 
z
" transform="scale(0.015625)"/>
      <path id="DejaVuSans-29" d="M 513 4856 
L 1013 4856 
Q 1481 4119 1714 3412 
Q 1947 2706 1947 2009 
Q 1947 1309 1714 600 
Q 1481 -109 1013 -844 
L 513 -844 
Q 928 -128 1133 580 
Q 1338 1288 1338 2009 
Q 1338 2731 1133 3434 
Q 928 4138 513 4856 
z
" transform="scale(0.015625)"/>
      <path id="DejaVuSans-66" d="M 2375 4863 
L 2375 4384 
L 1825 4384 
Q 1516 4384 1395 4259 
Q 1275 4134 1275 3809 
L 1275 3500 
L 2222 3500 
L 2222 3053 
L 1275 3053 
L 1275 0 
L 697 0 
L 697 3053 
L 147 3053 
L 147 3500 
L 697 3500 
L 697 3744 
Q 697 4328 969 4595 
Q 1241 4863 1831 4863 
L 2375 4863 
z
" transform="scale(0.015625)"/>
      <path id="DejaVuSans-41" d="M 2188 4044 
L 1331 1722 
L 3047 1722 
L 2188 4044 
z
M 1831 4666 
L 2547 4666 
L 4325 0 
L 3669 0 
L 3244 1197 
L 1141 1197 
L 716 0 
L 50 0 
L 1831 4666 
z
" transform="scale(0.015625)"/>
      <path id="DejaVuSans-4c" d="M 628 4666 
L 1259 4666 
L 1259 531 
L 3531 531 
L 3531 0 
L 628 0 
L 628 4666 
z
" transform="scale(0.015625)"/>
     </defs>
     <use xlink:href="#DejaVuSans-52"/>
     <use xlink:href="#DejaVuSans-65" x="64.982422"/>
     <use xlink:href="#DejaVuSans-63" x="126.505859"/>
     <use xlink:href="#DejaVuSans-65" x="181.486328"/>
     <use xlink:href="#DejaVuSans-69" x="243.009766"/>
     <use xlink:href="#DejaVuSans-76" x="270.792969"/>
     <use xlink:href="#DejaVuSans-65" x="329.972656"/>
     <use xlink:href="#DejaVuSans-72" x="391.496094"/>
     <use xlink:href="#DejaVuSans-20" x="432.609375"/>
     <use xlink:href="#DejaVuSans-4f" x="464.396484"/>
     <use xlink:href="#DejaVuSans-70" x="543.107422"/>
     <use xlink:href="#DejaVuSans-65" x="606.583984"/>
     <use xlink:href="#DejaVuSans-72" x="668.107422"/>
     <use xlink:href="#DejaVuSans-61" x="709.220703"/>
     <use xlink:href="#DejaVuSans-74" x="770.5"/>
     <use xlink:href="#DejaVuSans-69" x="809.708984"/>
     <use xlink:href="#DejaVuSans-6e" x="837.492188"/>
     <use xlink:href="#DejaVuSans-67" x="900.871094"/>
     <use xlink:href="#DejaVuSans-20" x="964.347656"/>
     <use xlink:href="#DejaVuSans-43" x="996.134766"/>
     <use xlink:href="#DejaVuSans-68" x="1065.958984"/>
     <use xlink:href="#DejaVuSans-61" x="1129.337891"/>
     <use xlink:href="#DejaVuSans-72" x="1190.617188"/>
     <use xlink:href="#DejaVuSans-61" x="1231.730469"/>
     <use xlink:href="#DejaVuSans-63" x="1293.009766"/>
     <use xlink:href="#DejaVuSans-74" x="1347.990234"/>
     <use xlink:href="#DejaVuSans-65" x="1387.199219"/>
     <use xlink:href="#DejaVuSans-72" x="1448.722656"/>
     <use xlink:href="#DejaVuSans-69" x="1489.835938"/>
     <use xlink:href="#DejaVuSans-73" x="1517.619141"/>
     <use xlink:href="#DejaVuSans-74" x="1569.71875"/>
     <use xlink:href="#DejaVuSans-69" x="1608.927734"/>
     <use xlink:href="#DejaVuSans-63" x="1636.710938"/>
     <use xlink:href="#DejaVuSans-20" x="1691.691406"/>
     <use xlink:href="#DejaVuSans-28" x="1723.478516"/>
     <use xlink:href="#DejaVuSans-52" x="1762.492188"/>
     <use xlink:href="#DejaVuSans-4f" x="1831.974609"/>
     <use xlink:href="#DejaVuSans-43" x="1910.685547"/>
     <use xlink:href="#DejaVuSans-29" x="1980.509766"/>
     <use xlink:href="#DejaVuSans-20" x="2019.523438"/>
     <use xlink:href="#DejaVuSans-43" x="2051.310547"/>
     <use xlink:href="#DejaVuSans-75" x="2121.134766"/>
     <use xlink:href="#DejaVuSans-72" x="2184.513672"/>
     <use xlink:href="#DejaVuSans-76" x="2225.626953"/>
     <use xlink:href="#DejaVuSans-65" x="2284.806641"/>
     <use xlink:href="#DejaVuSans-20" x="2346.330078"/>
     <use xlink:href="#DejaVuSans-66" x="2378.117188"/>
     <use xlink:href="#DejaVuSans-6f" x="2413.322266"/>
     <use xlink:href="#DejaVuSans-72" x="2474.503906"/>
     <use xlink:href="#DejaVuSans-20" x="2515.617188"/>
     <use xlink:href="#DejaVuSans-41" x="2547.404297"/>
     <use xlink:href="#DejaVuSans-6c" x="2615.8125"/>
     <use xlink:href="#DejaVuSans-6c" x="2643.595703"/>
     <use xlink:href="#DejaVuSans-20" x="2671.378906"/>
     <use xlink:href="#DejaVuSans-4c" x="2703.166016"/>
     <use xlink:href="#DejaVuSans-6f" x="2757.128906"/>
     <use xlink:href="#DejaVuSans-63" x="2818.310547"/>
     <use xlink:href="#DejaVuSans-61" x="2873.291016"/>
     <use xlink:href="#DejaVuSans-74" x="2934.570312"/>
     <use xlink:href="#DejaVuSans-69" x="2973.779297"/>
     <use xlink:href="#DejaVuSans-6f" x="3001.5625"/>
     <use xlink:href="#DejaVuSans-6e" x="3062.744141"/>
     <use xlink:href="#DejaVuSans-73" x="3126.123047"/>
    </g>
   </g>
   <g id="legend_1">
    <g id="patch_7">
     <path d="M 586.796875 635.8 
L 770.6 635.8 
Q 772.6 635.8 772.6 633.8 
L 772.6 576.0875 
Q 772.6 574.0875 770.6 574.0875 
L 586.796875 574.0875 
Q 584.796875 574.0875 584.796875 576.0875 
L 584.796875 633.8 
Q 584.796875 635.8 586.796875 635.8 
z
" style="fill: #ffffff; opacity: 0.8; stroke: #cccccc; stroke-linejoin: miter"/>
    </g>
    <g id="line2d_30">
     <path d="M 588.796875 582.185938 
L 598.796875 582.185938 
L 608.796875 582.185938 
" style="fill: none; stroke: #1f77b4; stroke-width: 2; stroke-linecap: square"/>
    </g>
    <g id="text_16">
     <!-- Bone Metastasis (AUC = 0.86) -->
     <g transform="translate(616.796875 585.685938) scale(0.1 -0.1)">
      <defs>
       <path id="DejaVuSans-42" d="M 1259 2228 
L 1259 519 
L 2272 519 
Q 2781 519 3026 730 
Q 3272 941 3272 1375 
Q 3272 1813 3026 2020 
Q 2781 2228 2272 2228 
L 1259 2228 
z
M 1259 4147 
L 1259 2741 
L 2194 2741 
Q 2656 2741 2882 2914 
Q 3109 3088 3109 3444 
Q 3109 3797 2882 3972 
Q 2656 4147 2194 4147 
L 1259 4147 
z
M 628 4666 
L 2241 4666 
Q 2963 4666 3353 4366 
Q 3744 4066 3744 3513 
Q 3744 3084 3544 2831 
Q 3344 2578 2956 2516 
Q 3422 2416 3680 2098 
Q 3938 1781 3938 1306 
Q 3938 681 3513 340 
Q 3088 0 2303 0 
L 628 0 
L 628 4666 
z
" transform="scale(0.015625)"/>
       <path id="DejaVuSans-4d" d="M 628 4666 
L 1569 4666 
L 2759 1491 
L 3956 4666 
L 4897 4666 
L 4897 0 
L 4281 0 
L 4281 4097 
L 3078 897 
L 2444 897 
L 1241 4097 
L 1241 0 
L 628 0 
L 628 4666 
z
" transform="scale(0.015625)"/>
       <path id="DejaVuSans-55" d="M 556 4666 
L 1191 4666 
L 1191 1831 
Q 1191 1081 1462 751 
Q 1734 422 2344 422 
Q 2950 422 3222 751 
Q 3494 1081 3494 1831 
L 3494 4666 
L 4128 4666 
L 4128 1753 
Q 4128 841 3676 375 
Q 3225 -91 2344 -91 
Q 1459 -91 1007 375 
Q 556 841 556 1753 
L 556 4666 
z
" transform="scale(0.015625)"/>
       <path id="DejaVuSans-3d" d="M 678 2906 
L 4684 2906 
L 4684 2381 
L 678 2381 
L 678 2906 
z
M 678 1631 
L 4684 1631 
L 4684 1100 
L 678 1100 
L 678 1631 
z
" transform="scale(0.015625)"/>
      </defs>
      <use xlink:href="#DejaVuSans-42"/>
      <use xlink:href="#DejaVuSans-6f" x="68.603516"/>
      <use xlink:href="#DejaVuSans-6e" x="129.785156"/>
      <use xlink:href="#DejaVuSans-65" x="193.164062"/>
      <use xlink:href="#DejaVuSans-20" x="254.6875"/>
      <use xlink:href="#DejaVuSans-4d" x="286.474609"/>
      <use xlink:href="#DejaVuSans-65" x="372.753906"/>
      <use xlink:href="#DejaVuSans-74" x="434.277344"/>
      <use xlink:href="#DejaVuSans-61" x="473.486328"/>
      <use xlink:href="#DejaVuSans-73" x="534.765625"/>
      <use xlink:href="#DejaVuSans-74" x="586.865234"/>
      <use xlink:href="#DejaVuSans-61" x="626.074219"/>
      <use xlink:href="#DejaVuSans-73" x="687.353516"/>
      <use xlink:href="#DejaVuSans-69" x="739.453125"/>
      <use xlink:href="#DejaVuSans-73" x="767.236328"/>
      <use xlink:href="#DejaVuSans-20" x="819.335938"/>
      <use xlink:href="#DejaVuSans-28" x="851.123047"/>
      <use xlink:href="#DejaVuSans-41" x="890.136719"/>
      <use xlink:href="#DejaVuSans-55" x="958.544922"/>
      <use xlink:href="#DejaVuSans-43" x="1031.738281"/>
      <use xlink:href="#DejaVuSans-20" x="1101.5625"/>
      <use xlink:href="#DejaVuSans-3d" x="1133.349609"/>
      <use xlink:href="#DejaVuSans-20" x="1217.138672"/>
      <use xlink:href="#DejaVuSans-30" x="1248.925781"/>
      <use xlink:href="#DejaVuSans-2e" x="1312.548828"/>
      <use xlink:href="#DejaVuSans-38" x="1344.335938"/>
      <use xlink:href="#DejaVuSans-36" x="1407.958984"/>
      <use xlink:href="#DejaVuSans-29" x="1471.582031"/>
     </g>
    </g>
    <g id="line2d_31">
     <path d="M 588.796875 596.864063 
L 598.796875 596.864063 
L 608.796875 596.864063 
" style="fill: none; stroke: #ff7f0e; stroke-width: 2; stroke-linecap: square"/>
    </g>
    <g id="text_17">
     <!-- Lung Metastasis (AUC = 0.87) -->
     <g transform="translate(616.796875 600.364063) scale(0.1 -0.1)">
      <defs>
       <path id="DejaVuSans-37" d="M 525 4666 
L 3525 4666 
L 3525 4397 
L 1831 0 
L 1172 0 
L 2766 4134 
L 525 4134 
L 525 4666 
z
" transform="scale(0.015625)"/>
      </defs>
      <use xlink:href="#DejaVuSans-4c"/>
      <use xlink:href="#DejaVuSans-75" x="53.962891"/>
      <use xlink:href="#DejaVuSans-6e" x="117.341797"/>
      <use xlink:href="#DejaVuSans-67" x="180.720703"/>
      <use xlink:href="#DejaVuSans-20" x="244.197266"/>
      <use xlink:href="#DejaVuSans-4d" x="275.984375"/>
      <use xlink:href="#DejaVuSans-65" x="362.263672"/>
      <use xlink:href="#DejaVuSans-74" x="423.787109"/>
      <use xlink:href="#DejaVuSans-61" x="462.996094"/>
      <use xlink:href="#DejaVuSans-73" x="524.275391"/>
      <use xlink:href="#DejaVuSans-74" x="576.375"/>
      <use xlink:href="#DejaVuSans-61" x="615.583984"/>
      <use xlink:href="#DejaVuSans-73" x="676.863281"/>
      <use xlink:href="#DejaVuSans-69" x="728.962891"/>
      <use xlink:href="#DejaVuSans-73" x="756.746094"/>
      <use xlink:href="#DejaVuSans-20" x="808.845703"/>
      <use xlink:href="#DejaVuSans-28" x="840.632812"/>
      <use xlink:href="#DejaVuSans-41" x="879.646484"/>
      <use xlink:href="#DejaVuSans-55" x="948.054688"/>
      <use xlink:href="#DejaVuSans-43" x="1021.248047"/>
      <use xlink:href="#DejaVuSans-20" x="1091.072266"/>
      <use xlink:href="#DejaVuSans-3d" x="1122.859375"/>
      <use xlink:href="#DejaVuSans-20" x="1206.648438"/>
      <use xlink:href="#DejaVuSans-30" x="1238.435547"/>
      <use xlink:href="#DejaVuSans-2e" x="1302.058594"/>
      <use xlink:href="#DejaVuSans-38" x="1333.845703"/>
      <use xlink:href="#DejaVuSans-37" x="1397.46875"/>
      <use xlink:href="#DejaVuSans-29" x="1461.091797"/>
     </g>
    </g>
    <g id="line2d_32">
     <path d="M 588.796875 611.542188 
L 598.796875 611.542188 
L 608.796875 611.542188 
" style="fill: none; stroke: #2ca02c; stroke-width: 2; stroke-linecap: square"/>
    </g>
    <g id="text_18">
     <!-- Liver Metastasis (AUC = 0.87) -->
     <g transform="translate(616.796875 615.042188) scale(0.1 -0.1)">
      <use xlink:href="#DejaVuSans-4c"/>
      <use xlink:href="#DejaVuSans-69" x="55.712891"/>
      <use xlink:href="#DejaVuSans-76" x="83.496094"/>
      <use xlink:href="#DejaVuSans-65" x="142.675781"/>
      <use xlink:href="#DejaVuSans-72" x="204.199219"/>
      <use xlink:href="#DejaVuSans-20" x="245.3125"/>
      <use xlink:href="#DejaVuSans-4d" x="277.099609"/>
      <use xlink:href="#DejaVuSans-65" x="363.378906"/>
      <use xlink:href="#DejaVuSans-74" x="424.902344"/>
      <use xlink:href="#DejaVuSans-61" x="464.111328"/>
      <use xlink:href="#DejaVuSans-73" x="525.390625"/>
      <use xlink:href="#DejaVuSans-74" x="577.490234"/>
      <use xlink:href="#DejaVuSans-61" x="616.699219"/>
      <use xlink:href="#DejaVuSans-73" x="677.978516"/>
      <use xlink:href="#DejaVuSans-69" x="730.078125"/>
      <use xlink:href="#DejaVuSans-73" x="757.861328"/>
      <use xlink:href="#DejaVuSans-20" x="809.960938"/>
      <use xlink:href="#DejaVuSans-28" x="841.748047"/>
      <use xlink:href="#DejaVuSans-41" x="880.761719"/>
      <use xlink:href="#DejaVuSans-55" x="949.169922"/>
      <use xlink:href="#DejaVuSans-43" x="1022.363281"/>
      <use xlink:href="#DejaVuSans-20" x="1092.1875"/>
      <use xlink:href="#DejaVuSans-3d" x="1123.974609"/>
      <use xlink:href="#DejaVuSans-20" x="1207.763672"/>
      <use xlink:href="#DejaVuSans-30" x="1239.550781"/>
      <use xlink:href="#DejaVuSans-2e" x="1303.173828"/>
      <use xlink:href="#DejaVuSans-38" x="1334.960938"/>
      <use xlink:href="#DejaVuSans-37" x="1398.583984"/>
      <use xlink:href="#DejaVuSans-29" x="1462.207031"/>
     </g>
    </g>
    <g id="line2d_33">
     <path d="M 588.796875 626.220313 
L 598.796875 626.220313 
L 608.796875 626.220313 
" style="fill: none; stroke: #d62728; stroke-width: 2; stroke-linecap: square"/>
    </g>
    <g id="text_19">
     <!-- Brain Metastasis (AUC = 0.93) -->
     <g transform="translate(616.796875 629.720313) scale(0.1 -0.1)">
      <defs>
       <path id="DejaVuSans-39" d="M 703 97 
L 703 672 
Q 941 559 1184 500 
Q 1428 441 1663 441 
Q 2288 441 2617 861 
Q 2947 1281 2994 2138 
Q 2813 1869 2534 1725 
Q 2256 1581 1919 1581 
Q 1219 1581 811 2004 
Q 403 2428 403 3163 
Q 403 3881 828 4315 
Q 1253 4750 1959 4750 
Q 2769 4750 3195 4129 
Q 3622 3509 3622 2328 
Q 3622 1225 3098 567 
Q 2575 -91 1691 -91 
Q 1453 -91 1209 -44 
Q 966 3 703 97 
z
M 1959 2075 
Q 2384 2075 2632 2365 
Q 2881 2656 2881 3163 
Q 2881 3666 2632 3958 
Q 2384 4250 1959 4250 
Q 1534 4250 1286 3958 
Q 1038 3666 1038 3163 
Q 1038 2656 1286 2365 
Q 1534 2075 1959 2075 
z
" transform="scale(0.015625)"/>
       <path id="DejaVuSans-33" d="M 2597 2516 
Q 3050 2419 3304 2112 
Q 3559 1806 3559 1356 
Q 3559 666 3084 287 
Q 2609 -91 1734 -91 
Q 1441 -91 1130 -33 
Q 819 25 488 141 
L 488 750 
Q 750 597 1062 519 
Q 1375 441 1716 441 
Q 2309 441 2620 675 
Q 2931 909 2931 1356 
Q 2931 1769 2642 2001 
Q 2353 2234 1838 2234 
L 1294 2234 
L 1294 2753 
L 1863 2753 
Q 2328 2753 2575 2939 
Q 2822 3125 2822 3475 
Q 2822 3834 2567 4026 
Q 2313 4219 1838 4219 
Q 1578 4219 1281 4162 
Q 984 4106 628 3988 
L 628 4550 
Q 988 4650 1302 4700 
Q 1616 4750 1894 4750 
Q 2613 4750 3031 4423 
Q 3450 4097 3450 3541 
Q 3450 3153 3228 2886 
Q 3006 2619 2597 2516 
z
" transform="scale(0.015625)"/>
      </defs>
      <use xlink:href="#DejaVuSans-42"/>
      <use xlink:href="#DejaVuSans-72" x="68.603516"/>
      <use xlink:href="#DejaVuSans-61" x="109.716797"/>
      <use xlink:href="#DejaVuSans-69" x="170.996094"/>
      <use xlink:href="#DejaVuSans-6e" x="198.779297"/>
      <use xlink:href="#DejaVuSans-20" x="262.158203"/>
      <use xlink:href="#DejaVuSans-4d" x="293.945312"/>
      <use xlink:href="#DejaVuSans-65" x="380.224609"/>
      <use xlink:href="#DejaVuSans-74" x="441.748047"/>
      <use xlink:href="#DejaVuSans-61" x="480.957031"/>
      <use xlink:href="#DejaVuSans-73" x="542.236328"/>
      <use xlink:href="#DejaVuSans-74" x="594.335938"/>
      <use xlink:href="#DejaVuSans-61" x="633.544922"/>
      <use xlink:href="#DejaVuSans-73" x="694.824219"/>
      <use xlink:href="#DejaVuSans-69" x="746.923828"/>
      <use xlink:href="#DejaVuSans-73" x="774.707031"/>
      <use xlink:href="#DejaVuSans-20" x="826.806641"/>
      <use xlink:href="#DejaVuSans-28" x="858.59375"/>
      <use xlink:href="#DejaVuSans-41" x="897.607422"/>
      <use xlink:href="#DejaVuSans-55" x="966.015625"/>
      <use xlink:href="#DejaVuSans-43" x="1039.208984"/>
      <use xlink:href="#DejaVuSans-20" x="1109.033203"/>
      <use xlink:href="#DejaVuSans-3d" x="1140.820312"/>
      <use xlink:href="#DejaVuSans-20" x="1224.609375"/>
      <use xlink:href="#DejaVuSans-30" x="1256.396484"/>
      <use xlink:href="#DejaVuSans-2e" x="1320.019531"/>
      <use xlink:href="#DejaVuSans-39" x="1351.806641"/>
      <use xlink:href="#DejaVuSans-33" x="1415.429688"/>
      <use xlink:href="#DejaVuSans-29" x="1479.052734"/>
     </g>
    </g>
   </g>
  </g>
 </g>
 <defs>
  <clipPath id="p911d5ffa4c">
   <rect x="108" y="86.4" width="669.6" height="554.4"/>
  </clipPath>
 </defs>
</svg>
