<?xml version="1.0" encoding="utf-8" standalone="no"?>
<!DOCTYPE svg PUBLIC "-//W3C//DTD SVG 1.1//EN"
  "http://www.w3.org/Graphics/SVG/1.1/DTD/svg11.dtd">
<svg xmlns:xlink="http://www.w3.org/1999/xlink" width="864pt" height="720pt" viewBox="0 0 864 720" xmlns="http://www.w3.org/2000/svg" version="1.1">
 <metadata>
  <rdf:RDF xmlns:dc="http://purl.org/dc/elements/1.1/" xmlns:cc="http://creativecommons.org/ns#" xmlns:rdf="http://www.w3.org/1999/02/22-rdf-syntax-ns#">
   <cc:Work>
    <dc:type rdf:resource="http://purl.org/dc/dcmitype/StillImage"/>
    <dc:date>2024-06-19T16:27:37.701792</dc:date>
    <dc:format>image/svg+xml</dc:format>
    <dc:creator>
     <cc:Agent>
      <dc:title>Matplotlib v3.7.2, https://matplotlib.org/</dc:title>
     </cc:Agent>
    </dc:creator>
   </cc:Work>
  </rdf:RDF>
 </metadata>
 <defs>
  <style type="text/css">*{stroke-linejoin: round; stroke-linecap: butt}</style>
 </defs>
 <g id="figure_1">
  <g id="patch_1">
   <path d="M 0 720 
L 864 720 
L 864 0 
L 0 0 
z
" style="fill: #ffffff"/>
  </g>
  <g id="axes_1">
   <g id="patch_2">
    <path d="M 108 640.8 
L 777.6 640.8 
L 777.6 86.4 
L 108 86.4 
z
" style="fill: #ffffff"/>
   </g>
   <g id="matplotlib.axis_1">
    <g id="xtick_1">
     <g id="line2d_1">
      <path d="M 138.436364 640.8 
L 138.436364 86.4 
" clip-path="url(#p2f83fcf4c5)" style="fill: none; stroke: #b0b0b0; stroke-width: 0.8; stroke-linecap: square"/>
     </g>
     <g id="line2d_2">
      <defs>
       <path id="m407ebba369" d="M 0 0 
L 0 3.5 
" style="stroke: #000000; stroke-width: 0.8"/>
      </defs>
      <g>
       <use xlink:href="#m407ebba369" x="138.436364" y="640.8" style="stroke: #000000; stroke-width: 0.8"/>
      </g>
     </g>
     <g id="text_1">
      <!-- 0.0 -->
      <g transform="translate(130.484801 655.398438) scale(0.1 -0.1)">
       <defs>
        <path id="DejaVuSans-30" d="M 2034 4250 
Q 1547 4250 1301 3770 
Q 1056 3291 1056 2328 
Q 1056 1369 1301 889 
Q 1547 409 2034 409 
Q 2525 409 2770 889 
Q 3016 1369 3016 2328 
Q 3016 3291 2770 3770 
Q 2525 4250 2034 4250 
z
M 2034 4750 
Q 2819 4750 3233 4129 
Q 3647 3509 3647 2328 
Q 3647 1150 3233 529 
Q 2819 -91 2034 -91 
Q 1250 -91 836 529 
Q 422 1150 422 2328 
Q 422 3509 836 4129 
Q 1250 4750 2034 4750 
z
" transform="scale(0.015625)"/>
        <path id="DejaVuSans-2e" d="M 684 794 
L 1344 794 
L 1344 0 
L 684 0 
L 684 794 
z
" transform="scale(0.015625)"/>
       </defs>
       <use xlink:href="#DejaVuSans-30"/>
       <use xlink:href="#DejaVuSans-2e" x="63.623047"/>
       <use xlink:href="#DejaVuSans-30" x="95.410156"/>
      </g>
     </g>
    </g>
    <g id="xtick_2">
     <g id="line2d_3">
      <path d="M 260.181818 640.8 
L 260.181818 86.4 
" clip-path="url(#p2f83fcf4c5)" style="fill: none; stroke: #b0b0b0; stroke-width: 0.8; stroke-linecap: square"/>
     </g>
     <g id="line2d_4">
      <g>
       <use xlink:href="#m407ebba369" x="260.181818" y="640.8" style="stroke: #000000; stroke-width: 0.8"/>
      </g>
     </g>
     <g id="text_2">
      <!-- 0.2 -->
      <g transform="translate(252.230256 655.398438) scale(0.1 -0.1)">
       <defs>
        <path id="DejaVuSans-32" d="M 1228 531 
L 3431 531 
L 3431 0 
L 469 0 
L 469 531 
Q 828 903 1448 1529 
Q 2069 2156 2228 2338 
Q 2531 2678 2651 2914 
Q 2772 3150 2772 3378 
Q 2772 3750 2511 3984 
Q 2250 4219 1831 4219 
Q 1534 4219 1204 4116 
Q 875 4013 500 3803 
L 500 4441 
Q 881 4594 1212 4672 
Q 1544 4750 1819 4750 
Q 2544 4750 2975 4387 
Q 3406 4025 3406 3419 
Q 3406 3131 3298 2873 
Q 3191 2616 2906 2266 
Q 2828 2175 2409 1742 
Q 1991 1309 1228 531 
z
" transform="scale(0.015625)"/>
       </defs>
       <use xlink:href="#DejaVuSans-30"/>
       <use xlink:href="#DejaVuSans-2e" x="63.623047"/>
       <use xlink:href="#DejaVuSans-32" x="95.410156"/>
      </g>
     </g>
    </g>
    <g id="xtick_3">
     <g id="line2d_5">
      <path d="M 381.927273 640.8 
L 381.927273 86.4 
" clip-path="url(#p2f83fcf4c5)" style="fill: none; stroke: #b0b0b0; stroke-width: 0.8; stroke-linecap: square"/>
     </g>
     <g id="line2d_6">
      <g>
       <use xlink:href="#m407ebba369" x="381.927273" y="640.8" style="stroke: #000000; stroke-width: 0.8"/>
      </g>
     </g>
     <g id="text_3">
      <!-- 0.4 -->
      <g transform="translate(373.97571 655.398438) scale(0.1 -0.1)">
       <defs>
        <path id="DejaVuSans-34" d="M 2419 4116 
L 825 1625 
L 2419 1625 
L 2419 4116 
z
M 2253 4666 
L 3047 4666 
L 3047 1625 
L 3713 1625 
L 3713 1100 
L 3047 1100 
L 3047 0 
L 2419 0 
L 2419 1100 
L 313 1100 
L 313 1709 
L 2253 4666 
z
" transform="scale(0.015625)"/>
       </defs>
       <use xlink:href="#DejaVuSans-30"/>
       <use xlink:href="#DejaVuSans-2e" x="63.623047"/>
       <use xlink:href="#DejaVuSans-34" x="95.410156"/>
      </g>
     </g>
    </g>
    <g id="xtick_4">
     <g id="line2d_7">
      <path d="M 503.672727 640.8 
L 503.672727 86.4 
" clip-path="url(#p2f83fcf4c5)" style="fill: none; stroke: #b0b0b0; stroke-width: 0.8; stroke-linecap: square"/>
     </g>
     <g id="line2d_8">
      <g>
       <use xlink:href="#m407ebba369" x="503.672727" y="640.8" style="stroke: #000000; stroke-width: 0.8"/>
      </g>
     </g>
     <g id="text_4">
      <!-- 0.6 -->
      <g transform="translate(495.721165 655.398438) scale(0.1 -0.1)">
       <defs>
        <path id="DejaVuSans-36" d="M 2113 2584 
Q 1688 2584 1439 2293 
Q 1191 2003 1191 1497 
Q 1191 994 1439 701 
Q 1688 409 2113 409 
Q 2538 409 2786 701 
Q 3034 994 3034 1497 
Q 3034 2003 2786 2293 
Q 2538 2584 2113 2584 
z
M 3366 4563 
L 3366 3988 
Q 3128 4100 2886 4159 
Q 2644 4219 2406 4219 
Q 1781 4219 1451 3797 
Q 1122 3375 1075 2522 
Q 1259 2794 1537 2939 
Q 1816 3084 2150 3084 
Q 2853 3084 3261 2657 
Q 3669 2231 3669 1497 
Q 3669 778 3244 343 
Q 2819 -91 2113 -91 
Q 1303 -91 875 529 
Q 447 1150 447 2328 
Q 447 3434 972 4092 
Q 1497 4750 2381 4750 
Q 2619 4750 2861 4703 
Q 3103 4656 3366 4563 
z
" transform="scale(0.015625)"/>
       </defs>
       <use xlink:href="#DejaVuSans-30"/>
       <use xlink:href="#DejaVuSans-2e" x="63.623047"/>
       <use xlink:href="#DejaVuSans-36" x="95.410156"/>
      </g>
     </g>
    </g>
    <g id="xtick_5">
     <g id="line2d_9">
      <path d="M 625.418182 640.8 
L 625.418182 86.4 
" clip-path="url(#p2f83fcf4c5)" style="fill: none; stroke: #b0b0b0; stroke-width: 0.8; stroke-linecap: square"/>
     </g>
     <g id="line2d_10">
      <g>
       <use xlink:href="#m407ebba369" x="625.418182" y="640.8" style="stroke: #000000; stroke-width: 0.8"/>
      </g>
     </g>
     <g id="text_5">
      <!-- 0.8 -->
      <g transform="translate(617.466619 655.398438) scale(0.1 -0.1)">
       <defs>
        <path id="DejaVuSans-38" d="M 2034 2216 
Q 1584 2216 1326 1975 
Q 1069 1734 1069 1313 
Q 1069 891 1326 650 
Q 1584 409 2034 409 
Q 2484 409 2743 651 
Q 3003 894 3003 1313 
Q 3003 1734 2745 1975 
Q 2488 2216 2034 2216 
z
M 1403 2484 
Q 997 2584 770 2862 
Q 544 3141 544 3541 
Q 544 4100 942 4425 
Q 1341 4750 2034 4750 
Q 2731 4750 3128 4425 
Q 3525 4100 3525 3541 
Q 3525 3141 3298 2862 
Q 3072 2584 2669 2484 
Q 3125 2378 3379 2068 
Q 3634 1759 3634 1313 
Q 3634 634 3220 271 
Q 2806 -91 2034 -91 
Q 1263 -91 848 271 
Q 434 634 434 1313 
Q 434 1759 690 2068 
Q 947 2378 1403 2484 
z
M 1172 3481 
Q 1172 3119 1398 2916 
Q 1625 2713 2034 2713 
Q 2441 2713 2670 2916 
Q 2900 3119 2900 3481 
Q 2900 3844 2670 4047 
Q 2441 4250 2034 4250 
Q 1625 4250 1398 4047 
Q 1172 3844 1172 3481 
z
" transform="scale(0.015625)"/>
       </defs>
       <use xlink:href="#DejaVuSans-30"/>
       <use xlink:href="#DejaVuSans-2e" x="63.623047"/>
       <use xlink:href="#DejaVuSans-38" x="95.410156"/>
      </g>
     </g>
    </g>
    <g id="xtick_6">
     <g id="line2d_11">
      <path d="M 747.163636 640.8 
L 747.163636 86.4 
" clip-path="url(#p2f83fcf4c5)" style="fill: none; stroke: #b0b0b0; stroke-width: 0.8; stroke-linecap: square"/>
     </g>
     <g id="line2d_12">
      <g>
       <use xlink:href="#m407ebba369" x="747.163636" y="640.8" style="stroke: #000000; stroke-width: 0.8"/>
      </g>
     </g>
     <g id="text_6">
      <!-- 1.0 -->
      <g transform="translate(739.212074 655.398438) scale(0.1 -0.1)">
       <defs>
        <path id="DejaVuSans-31" d="M 794 531 
L 1825 531 
L 1825 4091 
L 703 3866 
L 703 4441 
L 1819 4666 
L 2450 4666 
L 2450 531 
L 3481 531 
L 3481 0 
L 794 0 
L 794 531 
z
" transform="scale(0.015625)"/>
       </defs>
       <use xlink:href="#DejaVuSans-31"/>
       <use xlink:href="#DejaVuSans-2e" x="63.623047"/>
       <use xlink:href="#DejaVuSans-30" x="95.410156"/>
      </g>
     </g>
    </g>
    <g id="text_7">
     <!-- False Positive Rate -->
     <g transform="translate(396.333594 669.076563) scale(0.1 -0.1)">
      <defs>
       <path id="DejaVuSans-46" d="M 628 4666 
L 3309 4666 
L 3309 4134 
L 1259 4134 
L 1259 2759 
L 3109 2759 
L 3109 2228 
L 1259 2228 
L 1259 0 
L 628 0 
L 628 4666 
z
" transform="scale(0.015625)"/>
       <path id="DejaVuSans-61" d="M 2194 1759 
Q 1497 1759 1228 1600 
Q 959 1441 959 1056 
Q 959 750 1161 570 
Q 1363 391 1709 391 
Q 2188 391 2477 730 
Q 2766 1069 2766 1631 
L 2766 1759 
L 2194 1759 
z
M 3341 1997 
L 3341 0 
L 2766 0 
L 2766 531 
Q 2569 213 2275 61 
Q 1981 -91 1556 -91 
Q 1019 -91 701 211 
Q 384 513 384 1019 
Q 384 1609 779 1909 
Q 1175 2209 1959 2209 
L 2766 2209 
L 2766 2266 
Q 2766 2663 2505 2880 
Q 2244 3097 1772 3097 
Q 1472 3097 1187 3025 
Q 903 2953 641 2809 
L 641 3341 
Q 956 3463 1253 3523 
Q 1550 3584 1831 3584 
Q 2591 3584 2966 3190 
Q 3341 2797 3341 1997 
z
" transform="scale(0.015625)"/>
       <path id="DejaVuSans-6c" d="M 603 4863 
L 1178 4863 
L 1178 0 
L 603 0 
L 603 4863 
z
" transform="scale(0.015625)"/>
       <path id="DejaVuSans-73" d="M 2834 3397 
L 2834 2853 
Q 2591 2978 2328 3040 
Q 2066 3103 1784 3103 
Q 1356 3103 1142 2972 
Q 928 2841 928 2578 
Q 928 2378 1081 2264 
Q 1234 2150 1697 2047 
L 1894 2003 
Q 2506 1872 2764 1633 
Q 3022 1394 3022 966 
Q 3022 478 2636 193 
Q 2250 -91 1575 -91 
Q 1294 -91 989 -36 
Q 684 19 347 128 
L 347 722 
Q 666 556 975 473 
Q 1284 391 1588 391 
Q 1994 391 2212 530 
Q 2431 669 2431 922 
Q 2431 1156 2273 1281 
Q 2116 1406 1581 1522 
L 1381 1569 
Q 847 1681 609 1914 
Q 372 2147 372 2553 
Q 372 3047 722 3315 
Q 1072 3584 1716 3584 
Q 2034 3584 2315 3537 
Q 2597 3491 2834 3397 
z
" transform="scale(0.015625)"/>
       <path id="DejaVuSans-65" d="M 3597 1894 
L 3597 1613 
L 953 1613 
Q 991 1019 1311 708 
Q 1631 397 2203 397 
Q 2534 397 2845 478 
Q 3156 559 3463 722 
L 3463 178 
Q 3153 47 2828 -22 
Q 2503 -91 2169 -91 
Q 1331 -91 842 396 
Q 353 884 353 1716 
Q 353 2575 817 3079 
Q 1281 3584 2069 3584 
Q 2775 3584 3186 3129 
Q 3597 2675 3597 1894 
z
M 3022 2063 
Q 3016 2534 2758 2815 
Q 2500 3097 2075 3097 
Q 1594 3097 1305 2825 
Q 1016 2553 972 2059 
L 3022 2063 
z
" transform="scale(0.015625)"/>
       <path id="DejaVuSans-20" transform="scale(0.015625)"/>
       <path id="DejaVuSans-50" d="M 1259 4147 
L 1259 2394 
L 2053 2394 
Q 2494 2394 2734 2622 
Q 2975 2850 2975 3272 
Q 2975 3691 2734 3919 
Q 2494 4147 2053 4147 
L 1259 4147 
z
M 628 4666 
L 2053 4666 
Q 2838 4666 3239 4311 
Q 3641 3956 3641 3272 
Q 3641 2581 3239 2228 
Q 2838 1875 2053 1875 
L 1259 1875 
L 1259 0 
L 628 0 
L 628 4666 
z
" transform="scale(0.015625)"/>
       <path id="DejaVuSans-6f" d="M 1959 3097 
Q 1497 3097 1228 2736 
Q 959 2375 959 1747 
Q 959 1119 1226 758 
Q 1494 397 1959 397 
Q 2419 397 2687 759 
Q 2956 1122 2956 1747 
Q 2956 2369 2687 2733 
Q 2419 3097 1959 3097 
z
M 1959 3584 
Q 2709 3584 3137 3096 
Q 3566 2609 3566 1747 
Q 3566 888 3137 398 
Q 2709 -91 1959 -91 
Q 1206 -91 779 398 
Q 353 888 353 1747 
Q 353 2609 779 3096 
Q 1206 3584 1959 3584 
z
" transform="scale(0.015625)"/>
       <path id="DejaVuSans-69" d="M 603 3500 
L 1178 3500 
L 1178 0 
L 603 0 
L 603 3500 
z
M 603 4863 
L 1178 4863 
L 1178 4134 
L 603 4134 
L 603 4863 
z
" transform="scale(0.015625)"/>
       <path id="DejaVuSans-74" d="M 1172 4494 
L 1172 3500 
L 2356 3500 
L 2356 3053 
L 1172 3053 
L 1172 1153 
Q 1172 725 1289 603 
Q 1406 481 1766 481 
L 2356 481 
L 2356 0 
L 1766 0 
Q 1100 0 847 248 
Q 594 497 594 1153 
L 594 3053 
L 172 3053 
L 172 3500 
L 594 3500 
L 594 4494 
L 1172 4494 
z
" transform="scale(0.015625)"/>
       <path id="DejaVuSans-76" d="M 191 3500 
L 800 3500 
L 1894 563 
L 2988 3500 
L 3597 3500 
L 2284 0 
L 1503 0 
L 191 3500 
z
" transform="scale(0.015625)"/>
       <path id="DejaVuSans-52" d="M 2841 2188 
Q 3044 2119 3236 1894 
Q 3428 1669 3622 1275 
L 4263 0 
L 3584 0 
L 2988 1197 
Q 2756 1666 2539 1819 
Q 2322 1972 1947 1972 
L 1259 1972 
L 1259 0 
L 628 0 
L 628 4666 
L 2053 4666 
Q 2853 4666 3247 4331 
Q 3641 3997 3641 3322 
Q 3641 2881 3436 2590 
Q 3231 2300 2841 2188 
z
M 1259 4147 
L 1259 2491 
L 2053 2491 
Q 2509 2491 2742 2702 
Q 2975 2913 2975 3322 
Q 2975 3731 2742 3939 
Q 2509 4147 2053 4147 
L 1259 4147 
z
" transform="scale(0.015625)"/>
      </defs>
      <use xlink:href="#DejaVuSans-46"/>
      <use xlink:href="#DejaVuSans-61" x="48.394531"/>
      <use xlink:href="#DejaVuSans-6c" x="109.673828"/>
      <use xlink:href="#DejaVuSans-73" x="137.457031"/>
      <use xlink:href="#DejaVuSans-65" x="189.556641"/>
      <use xlink:href="#DejaVuSans-20" x="251.080078"/>
      <use xlink:href="#DejaVuSans-50" x="282.867188"/>
      <use xlink:href="#DejaVuSans-6f" x="339.544922"/>
      <use xlink:href="#DejaVuSans-73" x="400.726562"/>
      <use xlink:href="#DejaVuSans-69" x="452.826172"/>
      <use xlink:href="#DejaVuSans-74" x="480.609375"/>
      <use xlink:href="#DejaVuSans-69" x="519.818359"/>
      <use xlink:href="#DejaVuSans-76" x="547.601562"/>
      <use xlink:href="#DejaVuSans-65" x="606.78125"/>
      <use xlink:href="#DejaVuSans-20" x="668.304688"/>
      <use xlink:href="#DejaVuSans-52" x="700.091797"/>
      <use xlink:href="#DejaVuSans-61" x="767.324219"/>
      <use xlink:href="#DejaVuSans-74" x="828.603516"/>
      <use xlink:href="#DejaVuSans-65" x="867.8125"/>
     </g>
    </g>
   </g>
   <g id="matplotlib.axis_2">
    <g id="ytick_1">
     <g id="line2d_13">
      <path d="M 108 615.6 
L 777.6 615.6 
" clip-path="url(#p2f83fcf4c5)" style="fill: none; stroke: #b0b0b0; stroke-width: 0.8; stroke-linecap: square"/>
     </g>
     <g id="line2d_14">
      <defs>
       <path id="mfe9e86048b" d="M 0 0 
L -3.5 0 
" style="stroke: #000000; stroke-width: 0.8"/>
      </defs>
      <g>
       <use xlink:href="#mfe9e86048b" x="108" y="615.6" style="stroke: #000000; stroke-width: 0.8"/>
      </g>
     </g>
     <g id="text_8">
      <!-- 0.0 -->
      <g transform="translate(85.096875 619.399219) scale(0.1 -0.1)">
       <use xlink:href="#DejaVuSans-30"/>
       <use xlink:href="#DejaVuSans-2e" x="63.623047"/>
       <use xlink:href="#DejaVuSans-30" x="95.410156"/>
      </g>
     </g>
    </g>
    <g id="ytick_2">
     <g id="line2d_15">
      <path d="M 108 514.8 
L 777.6 514.8 
" clip-path="url(#p2f83fcf4c5)" style="fill: none; stroke: #b0b0b0; stroke-width: 0.8; stroke-linecap: square"/>
     </g>
     <g id="line2d_16">
      <g>
       <use xlink:href="#mfe9e86048b" x="108" y="514.8" style="stroke: #000000; stroke-width: 0.8"/>
      </g>
     </g>
     <g id="text_9">
      <!-- 0.2 -->
      <g transform="translate(85.096875 518.599219) scale(0.1 -0.1)">
       <use xlink:href="#DejaVuSans-30"/>
       <use xlink:href="#DejaVuSans-2e" x="63.623047"/>
       <use xlink:href="#DejaVuSans-32" x="95.410156"/>
      </g>
     </g>
    </g>
    <g id="ytick_3">
     <g id="line2d_17">
      <path d="M 108 414 
L 777.6 414 
" clip-path="url(#p2f83fcf4c5)" style="fill: none; stroke: #b0b0b0; stroke-width: 0.8; stroke-linecap: square"/>
     </g>
     <g id="line2d_18">
      <g>
       <use xlink:href="#mfe9e86048b" x="108" y="414" style="stroke: #000000; stroke-width: 0.8"/>
      </g>
     </g>
     <g id="text_10">
      <!-- 0.4 -->
      <g transform="translate(85.096875 417.799219) scale(0.1 -0.1)">
       <use xlink:href="#DejaVuSans-30"/>
       <use xlink:href="#DejaVuSans-2e" x="63.623047"/>
       <use xlink:href="#DejaVuSans-34" x="95.410156"/>
      </g>
     </g>
    </g>
    <g id="ytick_4">
     <g id="line2d_19">
      <path d="M 108 313.2 
L 777.6 313.2 
" clip-path="url(#p2f83fcf4c5)" style="fill: none; stroke: #b0b0b0; stroke-width: 0.8; stroke-linecap: square"/>
     </g>
     <g id="line2d_20">
      <g>
       <use xlink:href="#mfe9e86048b" x="108" y="313.2" style="stroke: #000000; stroke-width: 0.8"/>
      </g>
     </g>
     <g id="text_11">
      <!-- 0.6 -->
      <g transform="translate(85.096875 316.999219) scale(0.1 -0.1)">
       <use xlink:href="#DejaVuSans-30"/>
       <use xlink:href="#DejaVuSans-2e" x="63.623047"/>
       <use xlink:href="#DejaVuSans-36" x="95.410156"/>
      </g>
     </g>
    </g>
    <g id="ytick_5">
     <g id="line2d_21">
      <path d="M 108 212.4 
L 777.6 212.4 
" clip-path="url(#p2f83fcf4c5)" style="fill: none; stroke: #b0b0b0; stroke-width: 0.8; stroke-linecap: square"/>
     </g>
     <g id="line2d_22">
      <g>
       <use xlink:href="#mfe9e86048b" x="108" y="212.4" style="stroke: #000000; stroke-width: 0.8"/>
      </g>
     </g>
     <g id="text_12">
      <!-- 0.8 -->
      <g transform="translate(85.096875 216.199219) scale(0.1 -0.1)">
       <use xlink:href="#DejaVuSans-30"/>
       <use xlink:href="#DejaVuSans-2e" x="63.623047"/>
       <use xlink:href="#DejaVuSans-38" x="95.410156"/>
      </g>
     </g>
    </g>
    <g id="ytick_6">
     <g id="line2d_23">
      <path d="M 108 111.6 
L 777.6 111.6 
" clip-path="url(#p2f83fcf4c5)" style="fill: none; stroke: #b0b0b0; stroke-width: 0.8; stroke-linecap: square"/>
     </g>
     <g id="line2d_24">
      <g>
       <use xlink:href="#mfe9e86048b" x="108" y="111.6" style="stroke: #000000; stroke-width: 0.8"/>
      </g>
     </g>
     <g id="text_13">
      <!-- 1.0 -->
      <g transform="translate(85.096875 115.399219) scale(0.1 -0.1)">
       <use xlink:href="#DejaVuSans-31"/>
       <use xlink:href="#DejaVuSans-2e" x="63.623047"/>
       <use xlink:href="#DejaVuSans-30" x="95.410156"/>
      </g>
     </g>
    </g>
    <g id="text_14">
     <!-- True Positive Rate -->
     <g transform="translate(79.017187 408.129687) rotate(-90) scale(0.1 -0.1)">
      <defs>
       <path id="DejaVuSans-54" d="M -19 4666 
L 3928 4666 
L 3928 4134 
L 2272 4134 
L 2272 0 
L 1638 0 
L 1638 4134 
L -19 4134 
L -19 4666 
z
" transform="scale(0.015625)"/>
       <path id="DejaVuSans-72" d="M 2631 2963 
Q 2534 3019 2420 3045 
Q 2306 3072 2169 3072 
Q 1681 3072 1420 2755 
Q 1159 2438 1159 1844 
L 1159 0 
L 581 0 
L 581 3500 
L 1159 3500 
L 1159 2956 
Q 1341 3275 1631 3429 
Q 1922 3584 2338 3584 
Q 2397 3584 2469 3576 
Q 2541 3569 2628 3553 
L 2631 2963 
z
" transform="scale(0.015625)"/>
       <path id="DejaVuSans-75" d="M 544 1381 
L 544 3500 
L 1119 3500 
L 1119 1403 
Q 1119 906 1312 657 
Q 1506 409 1894 409 
Q 2359 409 2629 706 
Q 2900 1003 2900 1516 
L 2900 3500 
L 3475 3500 
L 3475 0 
L 2900 0 
L 2900 538 
Q 2691 219 2414 64 
Q 2138 -91 1772 -91 
Q 1169 -91 856 284 
Q 544 659 544 1381 
z
M 1991 3584 
L 1991 3584 
z
" transform="scale(0.015625)"/>
      </defs>
      <use xlink:href="#DejaVuSans-54"/>
      <use xlink:href="#DejaVuSans-72" x="46.333984"/>
      <use xlink:href="#DejaVuSans-75" x="87.447266"/>
      <use xlink:href="#DejaVuSans-65" x="150.826172"/>
      <use xlink:href="#DejaVuSans-20" x="212.349609"/>
      <use xlink:href="#DejaVuSans-50" x="244.136719"/>
      <use xlink:href="#DejaVuSans-6f" x="300.814453"/>
      <use xlink:href="#DejaVuSans-73" x="361.996094"/>
      <use xlink:href="#DejaVuSans-69" x="414.095703"/>
      <use xlink:href="#DejaVuSans-74" x="441.878906"/>
      <use xlink:href="#DejaVuSans-69" x="481.087891"/>
      <use xlink:href="#DejaVuSans-76" x="508.871094"/>
      <use xlink:href="#DejaVuSans-65" x="568.050781"/>
      <use xlink:href="#DejaVuSans-20" x="629.574219"/>
      <use xlink:href="#DejaVuSans-52" x="661.361328"/>
      <use xlink:href="#DejaVuSans-61" x="728.59375"/>
      <use xlink:href="#DejaVuSans-74" x="789.873047"/>
      <use xlink:href="#DejaVuSans-65" x="829.082031"/>
     </g>
    </g>
   </g>
   <g id="line2d_25">
    <path d="M 138.436364 615.6 
L 138.436364 610.364352 
L 138.756915 610.364352 
L 138.756915 607.608748 
L 139.077467 607.608748 
L 139.077467 599.617496 
L 139.398018 599.617496 
L 139.398018 597.688573 
L 139.71857 597.688573 
L 139.71857 594.381848 
L 140.039121 594.381848 
L 140.039121 592.728486 
L 140.359673 592.728486 
L 140.359673 589.421761 
L 140.680224 589.421761 
L 140.680224 587.492838 
L 141.000776 587.492838 
L 141.000776 585.839475 
L 141.321327 585.839475 
L 141.321327 581.706069 
L 141.641879 581.706069 
L 141.641879 581.430508 
L 142.282981 581.430508 
L 142.282981 573.439256 
L 142.603533 573.439256 
L 142.603533 570.683652 
L 142.924084 570.683652 
L 142.924084 570.132531 
L 143.244636 570.132531 
L 143.244636 558.007873 
L 143.565187 558.007873 
L 143.565187 554.150027 
L 143.885739 554.150027 
L 143.885739 550.843302 
L 144.20629 550.843302 
L 144.20629 543.954292 
L 144.847393 543.954292 
L 144.847393 542.85205 
L 145.167945 542.57649 
L 145.167945 534.585238 
L 145.488496 534.585238 
L 145.488496 534.034117 
L 145.809048 534.034117 
L 145.809048 532.380755 
L 146.129599 532.380755 
L 146.129599 532.105194 
L 146.450151 532.105194 
L 146.450151 529.07403 
L 146.770702 528.798469 
L 147.411805 528.798469 
L 147.411805 526.042865 
L 147.732357 526.042865 
L 147.732357 521.633898 
L 148.694011 521.633898 
L 148.694011 518.051613 
L 149.014563 518.051613 
L 149.014563 515.84713 
L 149.976217 515.84713 
L 149.976217 515.296009 
L 150.296769 515.020448 
L 150.296769 510.335921 
L 150.61732 510.335921 
L 150.61732 508.682559 
L 150.937872 508.682559 
L 150.937872 507.855878 
L 151.258423 507.855878 
L 151.258423 499.037944 
L 151.578975 499.037944 
L 151.578975 495.455659 
L 151.899526 495.455659 
L 151.899526 494.077857 
L 152.220078 494.077857 
L 152.220078 492.975615 
L 152.540629 492.975615 
L 152.540629 491.597813 
L 152.861181 491.597813 
L 152.861181 490.771132 
L 153.502283 490.771132 
L 153.502283 488.291088 
L 153.822835 488.291088 
L 153.822835 484.984363 
L 154.143386 484.984363 
L 154.143386 484.708803 
L 154.463938 484.708803 
L 154.463938 483.606561 
L 154.784489 483.606561 
L 154.784489 478.646473 
L 155.105041 478.646473 
L 155.105041 477.544232 
L 155.425592 477.544232 
L 155.425592 476.44199 
L 155.746144 476.44199 
L 155.746144 474.513067 
L 156.066695 474.513067 
L 156.066695 470.655221 
L 156.707798 470.655221 
L 156.707798 469.001859 
L 157.02835 469.001859 
L 157.02835 468.726299 
L 157.348901 468.726299 
L 157.348901 467.624057 
L 157.990004 467.624057 
L 157.990004 465.419574 
L 158.631107 465.419574 
L 158.631107 464.317332 
L 158.951659 464.317332 
L 158.951659 459.908365 
L 159.592762 459.908365 
L 159.592762 455.499399 
L 159.913313 455.499399 
L 159.913313 454.672717 
L 160.233865 454.397157 
L 160.233865 451.365992 
L 160.554416 451.365992 
L 160.554416 450.263751 
L 160.874968 450.263751 
L 160.874968 448.610388 
L 161.195519 448.610388 
L 161.195519 440.619136 
L 161.836622 440.619136 
L 161.836622 438.139092 
L 162.157174 438.139092 
L 162.157174 437.587972 
L 162.477725 437.587972 
L 162.477725 434.005686 
L 162.798277 434.005686 
L 162.798277 432.627884 
L 163.43938 432.627884 
L 163.43938 430.974522 
L 163.759931 430.974522 
L 163.759931 424.636632 
L 164.080483 424.636632 
L 164.080483 421.881028 
L 164.401034 421.881028 
L 164.401034 421.605467 
L 164.721586 421.329907 
L 164.721586 417.472061 
L 165.042137 417.472061 
L 165.042137 415.267578 
L 165.362688 415.267578 
L 165.362688 412.236413 
L 166.003791 412.236413 
L 166.003791 411.960853 
L 166.324343 411.960853 
L 166.324343 409.480809 
L 166.644894 409.480809 
L 166.644894 409.205249 
L 166.965446 409.205249 
L 166.965446 408.929688 
L 167.285997 408.929688 
L 167.285997 407.827447 
L 167.606549 407.827447 
L 167.9271 407.551886 
L 167.9271 406.449645 
L 168.247652 406.449645 
L 168.247652 405.071843 
L 168.888755 405.071843 
L 168.888755 399.285074 
L 169.209306 399.285074 
L 169.209306 398.182832 
L 169.529858 398.182832 
L 169.529858 397.631711 
L 170.170961 397.631711 
L 170.170961 395.702788 
L 170.491512 395.702788 
L 170.491512 395.427228 
L 170.812064 395.427228 
L 170.812064 395.151668 
L 171.453167 395.151668 
L 171.453167 390.467141 
L 171.773718 390.467141 
L 171.773718 386.333734 
L 172.414821 386.333734 
L 172.414821 383.57813 
L 172.735373 383.57813 
L 172.735373 378.618043 
L 173.055924 378.618043 
L 173.055924 375.311318 
L 173.376476 375.311318 
L 173.376476 373.933516 
L 173.697027 373.933516 
L 173.697027 368.973428 
L 174.017579 368.973428 
L 174.017579 368.422307 
L 174.33813 368.422307 
L 174.33813 367.871186 
L 174.658682 367.871186 
L 174.658682 366.768945 
L 174.979233 366.768945 
L 174.979233 365.666703 
L 175.299785 365.666703 
L 175.299785 365.391143 
L 175.620336 365.391143 
L 175.620336 364.840022 
L 175.940888 364.840022 
L 175.940888 364.288901 
L 176.261439 364.288901 
L 176.261439 363.46222 
L 176.581991 363.186659 
L 176.581991 362.635539 
L 176.902542 362.635539 
L 176.902542 361.808857 
L 177.223093 361.808857 
L 177.223093 360.155495 
L 177.543645 360.155495 
L 177.543645 357.951011 
L 177.864196 357.951011 
L 177.864196 353.266484 
L 178.184748 353.266484 
L 178.184748 351.613122 
L 178.505299 351.613122 
L 178.505299 351.062001 
L 178.825851 351.062001 
L 178.825851 350.23532 
L 179.146402 350.23532 
L 179.146402 349.133078 
L 179.466954 349.133078 
L 179.466954 348.857518 
L 180.108057 348.857518 
L 180.108057 347.755276 
L 180.74916 347.755276 
L 180.74916 346.377474 
L 181.069711 346.377474 
L 181.069711 345.826353 
L 181.390263 345.826353 
L 181.390263 345.550793 
L 182.351917 345.550793 
L 182.351917 344.724112 
L 182.672469 344.724112 
L 182.672469 343.89743 
L 182.99302 343.89743 
L 182.99302 343.070749 
L 183.634123 343.070749 
L 183.634123 342.244068 
L 183.954675 342.244068 
L 183.954675 341.692947 
L 184.275226 341.692947 
L 184.275226 341.141826 
L 184.595778 341.141826 
L 184.595778 340.866266 
L 184.916329 340.866266 
L 184.916329 340.590705 
L 185.236881 340.590705 
L 185.236881 338.937343 
L 185.557432 338.937343 
L 185.557432 337.559541 
L 185.877984 337.559541 
L 185.877984 336.732859 
L 186.198535 336.732859 
L 186.198535 335.355057 
L 186.519087 335.355057 
L 186.519087 335.079497 
L 186.839638 335.079497 
L 186.839638 334.252816 
L 187.16019 334.252816 
L 187.16019 333.426134 
L 187.480741 333.426134 
L 187.480741 333.150574 
L 187.801293 333.150574 
L 187.801293 331.772772 
L 188.121844 331.772772 
L 188.121844 330.946091 
L 188.442396 330.946091 
L 188.442396 329.568289 
L 188.762947 329.568289 
L 188.762947 329.292728 
L 189.083498 329.292728 
L 189.083498 328.190487 
L 189.40405 328.190487 
L 189.40405 327.363805 
L 189.724601 327.363805 
L 189.724601 326.537124 
L 190.045153 326.537124 
L 190.045153 326.261564 
L 190.686256 326.261564 
L 190.686256 325.159322 
L 191.006807 325.159322 
L 191.327359 324.883762 
L 192.289013 324.883762 
L 192.289013 320.750355 
L 192.609565 320.750355 
L 192.609565 319.372553 
L 193.250668 319.372553 
L 193.250668 318.545872 
L 193.571219 318.545872 
L 193.571219 317.16807 
L 193.891771 317.16807 
L 193.891771 316.89251 
L 194.212322 316.89251 
L 194.212322 314.136905 
L 194.853425 314.136905 
L 194.853425 313.310224 
L 195.173977 313.310224 
L 195.173977 311.932422 
L 195.81508 311.932422 
L 195.81508 310.003499 
L 196.456183 310.003499 
L 196.456183 309.727939 
L 196.776734 309.727939 
L 196.776734 306.421214 
L 197.097286 306.421214 
L 197.097286 306.145653 
L 197.417837 306.145653 
L 197.417837 305.870093 
L 197.738389 305.870093 
L 197.738389 305.318972 
L 198.05894 305.318972 
L 198.05894 305.043412 
L 198.700043 305.043412 
L 198.700043 304.767851 
L 199.341146 304.767851 
L 199.341146 302.287808 
L 199.661698 302.287808 
L 199.661698 301.736687 
L 200.302801 301.736687 
L 200.302801 301.461126 
L 200.943903 301.461126 
L 200.943903 299.532203 
L 201.264455 299.532203 
L 201.264455 297.05216 
L 201.585006 297.05216 
L 201.585006 296.501039 
L 201.905558 296.501039 
L 201.905558 295.949918 
L 202.867212 295.949918 
L 203.187764 295.674358 
L 203.187764 294.847676 
L 203.508315 294.847676 
L 203.508315 294.572116 
L 203.828867 294.572116 
L 203.828867 292.092072 
L 204.46997 292.092072 
L 204.46997 290.71427 
L 204.790521 290.71427 
L 204.790521 289.612028 
L 205.111073 289.612028 
L 205.111073 288.785347 
L 205.431624 288.785347 
L 205.431624 288.509787 
L 205.752176 288.509787 
L 205.752176 287.958666 
L 206.072727 287.958666 
L 206.072727 287.683106 
L 206.71383 287.683106 
L 206.71383 287.407545 
L 207.034382 287.407545 
L 207.034382 287.131985 
L 207.675485 287.131985 
L 207.675485 286.580864 
L 208.316588 286.580864 
L 208.316588 286.305303 
L 208.957691 286.305303 
L 208.957691 285.754183 
L 209.278242 285.754183 
L 209.278242 284.651941 
L 209.598794 284.651941 
L 209.598794 283.274139 
L 210.239897 283.274139 
L 210.239897 281.620776 
L 211.201551 281.620776 
L 211.201551 281.069656 
L 211.522103 281.069656 
L 211.522103 280.242974 
L 211.842654 280.242974 
L 211.842654 279.691853 
L 212.804308 279.691853 
L 212.804308 279.416293 
L 213.12486 279.416293 
L 213.12486 278.589612 
L 213.445411 278.589612 
L 213.445411 278.314051 
L 213.765963 278.314051 
L 213.765963 278.038491 
L 214.086514 278.038491 
L 214.086514 276.660689 
L 214.407066 276.660689 
L 214.407066 275.007326 
L 215.36872 275.007326 
L 215.36872 274.180645 
L 215.689272 274.180645 
L 215.689272 273.629524 
L 216.009823 273.629524 
L 216.009823 273.353964 
L 216.330375 273.353964 
L 216.330375 272.802843 
L 216.650926 272.802843 
L 216.650926 271.976162 
L 216.971478 271.976162 
L 216.971478 271.700601 
L 217.612581 271.700601 
L 217.612581 271.425041 
L 217.933132 271.425041 
L 217.933132 269.496118 
L 218.894787 269.496118 
L 218.894787 269.220558 
L 219.215338 269.220558 
L 219.215338 268.944997 
L 220.176993 268.944997 
L 220.176993 268.393876 
L 220.818096 268.393876 
L 220.818096 267.016074 
L 221.138647 267.016074 
L 221.138647 266.189393 
L 222.741405 266.189393 
L 222.741405 265.638272 
L 223.061956 265.638272 
L 223.061956 264.811591 
L 223.382508 264.811591 
L 223.382508 264.536031 
L 223.703059 264.536031 
L 223.703059 264.26047 
L 224.023611 264.26047 
L 224.023611 263.158229 
L 224.344162 263.158229 
L 224.344162 262.055987 
L 225.305816 262.055987 
L 225.305816 260.953745 
L 225.626368 260.953745 
L 225.626368 260.678185 
L 225.946919 260.678185 
L 225.946919 260.127064 
L 226.267471 260.127064 
L 226.267471 258.749262 
L 226.588022 258.749262 
L 226.588022 258.473701 
L 228.19078 258.473701 
L 228.19078 257.37146 
L 228.511331 257.37146 
L 228.511331 257.095899 
L 229.152434 257.095899 
L 229.152434 256.544779 
L 229.793537 256.544779 
L 229.793537 254.064735 
L 230.114089 254.064735 
L 230.114089 253.513614 
L 230.43464 253.513614 
L 230.43464 252.686933 
L 230.755192 252.686933 
L 230.755192 252.411372 
L 231.396295 252.411372 
L 231.396295 252.135812 
L 231.716846 252.135812 
L 231.716846 250.206889 
L 232.037398 250.206889 
L 232.037398 249.931329 
L 232.357949 249.931329 
L 232.357949 249.655768 
L 233.319604 249.655768 
L 233.319604 249.104647 
L 233.640155 249.104647 
L 233.640155 248.829087 
L 233.960707 248.829087 
L 233.960707 247.726845 
L 234.922361 247.726845 
L 234.922361 247.451285 
L 235.242913 247.451285 
L 235.242913 247.175724 
L 236.525118 247.175724 
L 236.525118 246.900164 
L 237.166221 246.900164 
L 237.166221 246.624604 
L 237.486773 246.624604 
L 237.486773 245.522362 
L 238.448427 245.522362 
L 238.448427 243.868999 
L 239.410082 243.868999 
L 239.410082 243.317879 
L 239.730633 243.317879 
L 239.730633 241.664516 
L 240.692288 241.664516 
L 240.692288 241.388956 
L 241.653942 241.388956 
L 241.653942 241.113395 
L 241.974494 241.113395 
L 241.974494 240.837835 
L 242.295045 240.837835 
L 242.295045 240.011154 
L 243.577251 240.011154 
L 243.577251 239.735593 
L 244.218354 239.735593 
L 244.218354 239.460033 
L 244.538906 239.460033 
L 244.538906 238.908912 
L 244.859457 238.908912 
L 244.859457 238.633352 
L 245.50056 238.633352 
L 245.50056 238.357791 
L 246.141663 238.357791 
L 246.141663 238.082231 
L 247.103318 238.082231 
L 247.103318 237.80667 
L 247.423869 237.80667 
L 247.423869 237.255549 
L 248.385523 237.255549 
L 248.385523 236.979989 
L 249.026626 236.979989 
L 249.026626 235.051066 
L 249.347178 235.051066 
L 249.347178 234.775506 
L 249.667729 234.775506 
L 249.667729 234.224385 
L 250.949935 234.224385 
L 250.949935 232.571022 
L 251.270487 232.571022 
L 251.270487 232.019902 
L 251.91159 232.019902 
L 251.91159 230.91766 
L 252.552693 230.91766 
L 252.552693 230.6421 
L 252.873244 230.6421 
L 252.873244 230.090979 
L 253.193796 230.090979 
L 253.193796 228.437616 
L 253.514347 228.437616 
L 253.514347 228.162056 
L 254.476002 228.162056 
L 254.476002 227.610935 
L 254.796553 227.610935 
L 254.796553 225.957572 
L 255.117105 225.957572 
L 255.117105 225.682012 
L 255.437656 225.682012 
L 255.437656 225.406452 
L 255.758208 225.406452 
L 255.758208 224.855331 
L 257.040414 224.855331 
L 257.040414 224.30421 
L 258.002068 224.30421 
L 258.002068 223.753089 
L 258.32262 223.753089 
L 258.32262 222.650847 
L 259.284274 222.650847 
L 259.284274 222.375287 
L 259.604826 222.375287 
L 259.604826 222.099727 
L 259.925377 222.099727 
L 259.925377 221.824166 
L 261.848686 221.824166 
L 261.848686 221.548606 
L 262.169237 221.548606 
L 262.169237 221.273045 
L 263.451443 221.273045 
L 263.451443 220.997485 
L 263.771995 220.997485 
L 263.771995 220.170804 
L 264.733649 220.170804 
L 264.733649 218.793002 
L 265.695304 218.793002 
L 265.695304 218.241881 
L 266.336407 218.241881 
L 266.336407 217.69076 
L 266.656958 217.69076 
L 266.656958 216.588518 
L 267.298061 216.588518 
L 267.298061 215.761837 
L 267.939164 215.761837 
L 267.939164 214.659595 
L 268.259716 214.384035 
L 268.259716 214.108475 
L 268.580267 214.108475 
L 268.580267 213.832914 
L 270.503576 213.832914 
L 270.503576 213.281793 
L 270.824128 213.281793 
L 270.824128 213.006233 
L 271.785782 213.006233 
L 271.785782 212.730672 
L 273.067988 212.730672 
L 273.067988 212.455112 
L 274.350194 212.455112 
L 274.350194 212.179552 
L 274.670745 212.179552 
L 274.670745 211.903991 
L 276.594054 211.903991 
L 276.594054 210.526189 
L 277.87626 210.526189 
L 277.87626 210.250629 
L 278.196812 210.250629 
L 278.196812 209.148387 
L 278.837915 209.148387 
L 278.837915 208.872827 
L 279.479018 208.872827 
L 279.479018 207.495025 
L 280.120121 207.495025 
L 280.120121 207.219464 
L 280.440672 207.219464 
L 280.440672 206.943904 
L 282.363981 206.943904 
L 282.363981 206.668343 
L 284.928393 206.668343 
L 284.928393 206.117223 
L 285.569496 206.117223 
L 285.569496 205.841662 
L 287.172253 205.841662 
L 287.172253 205.014981 
L 287.813356 205.014981 
L 287.813356 204.73942 
L 288.454459 204.73942 
L 288.454459 204.46386 
L 289.736665 204.46386 
L 289.736665 203.912739 
L 292.301077 203.912739 
L 292.301077 202.810498 
L 292.621629 202.810498 
L 292.621629 201.708256 
L 292.94218 201.708256 
L 292.94218 201.432695 
L 294.544938 201.432695 
L 294.544938 201.157135 
L 295.18604 201.157135 
L 295.18604 200.881575 
L 297.429901 200.881575 
L 297.429901 200.606014 
L 297.750452 200.606014 
L 297.750452 200.330454 
L 298.391555 200.330454 
L 298.391555 200.054893 
L 299.35321 200.054893 
L 299.35321 199.503773 
L 299.673761 199.503773 
L 299.673761 199.228212 
L 300.635416 199.228212 
L 300.635416 198.952652 
L 301.59707 198.952652 
L 301.59707 197.57485 
L 303.199828 197.57485 
L 303.199828 197.299289 
L 304.161482 197.299289 
L 304.161482 197.023729 
L 304.482034 197.023729 
L 304.482034 196.748168 
L 305.123137 196.748168 
L 305.123137 196.197048 
L 305.443688 196.197048 
L 305.443688 195.645927 
L 306.405343 195.645927 
L 306.405343 195.370366 
L 307.046445 195.370366 
L 307.046445 195.094806 
L 308.328651 195.094806 
L 308.328651 194.268125 
L 308.649203 194.268125 
L 308.649203 193.717004 
L 309.290306 193.717004 
L 309.290306 193.165883 
L 309.931409 193.165883 
L 309.931409 192.339202 
L 311.534166 192.339202 
L 311.534166 192.063641 
L 312.175269 192.063641 
L 312.175269 191.788081 
L 312.495821 191.788081 
L 312.495821 191.512521 
L 312.816372 191.512521 
L 312.816372 191.23696 
L 314.098578 191.23696 
L 314.098578 190.9614 
L 315.060233 190.9614 
L 315.060233 190.685839 
L 315.380784 190.685839 
L 315.380784 189.859158 
L 316.021887 189.859158 
L 316.021887 189.308037 
L 316.66299 189.308037 
L 316.66299 189.032477 
L 316.983542 189.032477 
L 316.983542 188.756916 
L 318.586299 188.756916 
L 318.586299 187.930235 
L 319.227402 187.930235 
L 319.227402 187.379114 
L 319.547953 187.379114 
L 319.547953 187.103554 
L 320.189056 187.103554 
L 320.189056 186.552433 
L 321.150711 186.552433 
L 321.150711 186.001312 
L 323.07402 186.001312 
L 323.07402 185.725752 
L 323.394571 185.725752 
L 323.394571 185.450191 
L 324.035674 185.450191 
L 324.035674 184.62351 
L 324.356226 184.62351 
L 324.356226 183.796829 
L 324.676777 183.796829 
L 324.676777 183.521268 
L 325.958983 183.521268 
L 325.958983 183.245708 
L 326.279535 183.245708 
L 326.279535 182.694587 
L 327.241189 182.694587 
L 327.241189 182.419027 
L 329.805601 182.419027 
L 329.805601 181.867906 
L 330.767255 181.867906 
L 330.767255 181.041225 
L 332.690564 181.041225 
L 332.690564 180.765664 
L 333.331667 180.765664 
L 333.331667 180.490104 
L 333.97277 180.490104 
L 333.97277 180.214543 
L 334.293322 180.214543 
L 334.293322 179.938983 
L 334.934425 179.938983 
L 334.934425 179.387862 
L 336.537182 179.387862 
L 336.537182 179.112302 
L 337.178285 179.112302 
L 337.178285 178.836741 
L 338.13994 178.836741 
L 338.13994 178.285621 
L 339.101594 178.285621 
L 339.101594 177.7345 
L 340.704352 177.7345 
L 340.704352 177.458939 
L 341.024903 177.458939 
L 341.024903 177.183379 
L 341.345455 177.183379 
L 341.345455 176.907818 
L 341.666006 176.907818 
L 341.666006 176.632258 
L 341.986558 176.632258 
L 341.986558 175.805577 
L 342.307109 175.805577 
L 342.307109 175.254456 
L 342.62766 175.254456 
L 342.62766 174.152214 
L 343.268763 174.152214 
L 343.268763 173.601093 
L 343.909866 173.601093 
L 343.909866 173.325533 
L 344.230418 173.325533 
L 344.230418 173.049973 
L 345.512624 173.049973 
L 345.512624 172.774412 
L 348.718139 172.774412 
L 348.718139 172.498852 
L 350.320896 172.498852 
L 350.320896 171.947731 
L 350.641448 171.672171 
L 351.282551 171.672171 
L 351.282551 171.39661 
L 352.244205 171.39661 
L 352.244205 170.018808 
L 352.564757 170.018808 
L 352.564757 169.467687 
L 354.167514 169.467687 
L 354.167514 168.916566 
L 355.770271 168.916566 
L 355.770271 168.641006 
L 356.731926 168.641006 
L 356.731926 168.365446 
L 360.578544 168.365446 
L 360.899095 168.089885 
L 361.86075 168.089885 
L 361.86075 167.263204 
L 364.10461 167.263204 
L 364.10461 166.987644 
L 365.707368 166.987644 
L 365.707368 166.712083 
L 367.310125 166.712083 
L 367.310125 166.160962 
L 369.233434 166.160962 
L 369.233434 165.609841 
L 369.553985 165.609841 
L 369.874537 165.334281 
L 372.7595 165.334281 
L 372.7595 165.058721 
L 374.682809 165.058721 
L 374.682809 164.5076 
L 376.285567 164.5076 
L 376.285567 164.232039 
L 377.247221 164.232039 
L 377.247221 163.956479 
L 378.529427 163.956479 
L 378.529427 163.405358 
L 379.491081 163.405358 
L 379.491081 163.129798 
L 380.132184 163.129798 
L 380.132184 162.854237 
L 383.017148 162.854237 
L 383.017148 162.303116 
L 385.261008 162.303116 
L 385.261008 161.751996 
L 386.863766 161.751996 
L 386.863766 161.200875 
L 387.82542 161.200875 
L 387.82542 160.925314 
L 388.787075 160.925314 
L 388.787075 160.374194 
L 389.107626 160.374194 
L 389.107626 159.823073 
L 389.748729 159.823073 
L 389.748729 158.720831 
L 390.710383 158.720831 
L 390.710383 158.445271 
L 391.030935 158.445271 
L 391.030935 157.89415 
L 392.633692 157.89415 
L 392.633692 157.343029 
L 393.274795 157.343029 
L 393.274795 157.067469 
L 393.595347 157.067469 
L 393.595347 156.791908 
L 396.159759 156.791908 
L 396.159759 156.516348 
L 396.48031 156.516348 
L 396.48031 155.965227 
L 396.800862 155.965227 
L 396.800862 155.689666 
L 397.762516 155.689666 
L 397.762516 155.138546 
L 399.365274 155.138546 
L 399.365274 154.862985 
L 400.326928 154.862985 
L 400.326928 154.587425 
L 401.609134 154.587425 
L 401.609134 154.036304 
L 405.1352 154.036304 
L 405.1352 153.485183 
L 406.096855 153.485183 
L 406.096855 153.209623 
L 407.058509 153.209623 
L 407.058509 152.658502 
L 408.981818 152.658502 
L 408.981818 152.382941 
L 409.622921 152.382941 
L 409.622921 152.107381 
L 411.225679 152.107381 
L 411.225679 151.831821 
L 412.507885 151.831821 
L 412.507885 151.55626 
L 412.828436 151.55626 
L 412.828436 151.2807 
L 413.79009 151.2807 
L 413.79009 151.005139 
L 414.431193 151.005139 
L 414.431193 150.454019 
L 415.392848 150.454019 
L 415.392848 150.178458 
L 416.033951 150.178458 
L 416.033951 149.902898 
L 416.995605 149.902898 
L 416.995605 149.627337 
L 419.239466 149.627337 
L 419.239466 149.076217 
L 419.560017 149.076217 
L 419.560017 148.525096 
L 419.880569 148.525096 
L 419.880569 147.973975 
L 420.20112 147.973975 
L 420.20112 147.698414 
L 420.521672 147.698414 
L 420.521672 147.147294 
L 420.842223 147.147294 
L 420.842223 146.871733 
L 421.162775 146.871733 
L 421.162775 146.596173 
L 425.650495 146.596173 
L 425.650495 146.320612 
L 426.291598 146.320612 
L 426.291598 145.769492 
L 426.61215 145.769492 
L 426.61215 145.493931 
L 431.420422 145.493931 
L 431.420422 145.218371 
L 431.740974 145.218371 
L 431.740974 144.94281 
L 432.382077 144.94281 
L 432.382077 144.391689 
L 433.343731 144.391689 
L 433.343731 144.116129 
L 435.26704 144.116129 
L 435.26704 143.840569 
L 435.587592 143.840569 
L 435.587592 143.565008 
L 436.549246 143.565008 
L 436.549246 143.289448 
L 437.190349 143.289448 
L 437.5109 143.013887 
L 438.152003 143.013887 
L 438.152003 142.738327 
L 440.716415 142.738327 
L 440.716415 142.187206 
L 441.036967 142.187206 
L 441.036967 141.636085 
L 445.204136 141.636085 
L 445.204136 141.360525 
L 447.447997 141.360525 
L 447.447997 141.084964 
L 449.371305 141.084964 
L 449.371305 140.809404 
L 451.615166 140.809404 
L 451.615166 140.533844 
L 452.256269 140.533844 
L 452.256269 139.982723 
L 452.897372 139.982723 
L 452.897372 139.707162 
L 453.217923 139.707162 
L 453.217923 139.431602 
L 453.859026 139.431602 
L 453.859026 138.880481 
L 454.500129 138.880481 
L 454.500129 138.604921 
L 456.423438 138.604921 
L 456.423438 138.32936 
L 457.705644 138.32936 
L 457.705644 138.0538 
L 459.949505 138.0538 
L 459.949505 137.778239 
L 462.834468 137.778239 
L 462.834468 137.502679 
L 463.475571 137.502679 
L 463.475571 137.227119 
L 464.116674 137.227119 
L 464.116674 136.951558 
L 465.078328 136.951558 
L 465.078328 136.675998 
L 466.039983 136.675998 
L 466.039983 136.400437 
L 467.001637 136.400437 
L 467.001637 136.124877 
L 468.924946 136.124877 
L 468.924946 135.849317 
L 469.886601 135.849317 
L 469.886601 135.573756 
L 471.489358 135.573756 
L 471.489358 135.298196 
L 473.092115 135.298196 
L 473.092115 135.022635 
L 475.656527 135.022635 
L 475.656527 134.747075 
L 476.29763 134.747075 
L 476.29763 133.920394 
L 476.618182 133.920394 
L 476.618182 133.644833 
L 477.259285 133.644833 
L 477.259285 133.369273 
L 480.785351 133.369273 
L 480.785351 133.093712 
L 483.670315 133.093712 
L 483.670315 132.542592 
L 484.95252 132.542592 
L 484.95252 132.267031 
L 486.234726 132.267031 
L 486.234726 131.71591 
L 486.555278 131.71591 
L 486.555278 131.44035 
L 487.516932 131.44035 
L 487.516932 131.16479 
L 488.478587 131.16479 
L 488.478587 130.889229 
L 490.722447 130.889229 
L 490.722447 130.613669 
L 492.004653 130.613669 
L 492.004653 130.338108 
L 492.325205 130.338108 
L 492.325205 130.062548 
L 492.645756 130.062548 
L 492.645756 129.786987 
L 493.286859 129.786987 
L 493.286859 129.235867 
L 494.889617 129.235867 
L 494.889617 128.684746 
L 495.53072 128.684746 
L 495.53072 128.409185 
L 498.736234 128.409185 
L 498.736234 128.133625 
L 500.01844 128.133625 
L 500.01844 127.858065 
L 501.621198 127.858065 
L 501.621198 127.306944 
L 503.865058 127.306944 
L 503.865058 127.031383 
L 504.506161 127.031383 
L 504.506161 126.755823 
L 513.802154 126.755823 
L 513.802154 126.480262 
L 517.328221 126.480262 
L 517.328221 126.204702 
L 517.969324 126.204702 
L 517.969324 125.929142 
L 518.610427 125.929142 
L 518.610427 125.653581 
L 521.49539 125.653581 
L 521.49539 125.378021 
L 522.136493 125.378021 
L 522.136493 125.10246 
L 522.457044 125.10246 
L 522.457044 124.8269 
L 522.777596 124.8269 
L 523.098147 124.55134 
L 525.983111 124.55134 
L 525.983111 124.275779 
L 528.226971 124.275779 
L 528.226971 124.000219 
L 534.638001 124.000219 
L 534.638001 123.724658 
L 535.599655 123.724658 
L 535.599655 123.173537 
L 535.920207 123.173537 
L 535.920207 122.897977 
L 538.164067 122.897977 
L 538.164067 122.622417 
L 538.484619 122.622417 
L 538.484619 122.346856 
L 542.97234 122.346856 
L 542.97234 122.071296 
L 544.895648 122.071296 
L 544.895648 121.795735 
L 546.177854 121.795735 
L 546.177854 121.520175 
L 548.101163 121.520175 
L 548.101163 121.244615 
L 551.306678 121.244615 
L 551.306678 120.969054 
L 551.62723 120.969054 
L 551.62723 120.417933 
L 556.435502 120.417933 
L 556.435502 120.142373 
L 559.320465 120.142373 
L 559.320465 119.866812 
L 564.769841 119.866812 
L 564.769841 119.591252 
L 566.052047 119.591252 
L 566.052047 119.315692 
L 567.654804 119.315692 
L 567.654804 119.040131 
L 574.065834 119.040131 
L 574.065834 118.764571 
L 574.386385 118.764571 
L 574.386385 118.48901 
L 576.309694 118.48901 
L 576.309694 118.21345 
L 576.950797 118.21345 
L 576.950797 117.93789 
L 578.874106 117.93789 
L 578.874106 117.662329 
L 583.041275 117.662329 
L 583.041275 117.386769 
L 587.849548 117.386769 
L 587.849548 117.111208 
L 588.490651 117.111208 
L 588.490651 116.835648 
L 590.093408 116.835648 
L 590.093408 116.284527 
L 590.41396 116.284527 
L 590.41396 116.008967 
L 598.427747 116.008967 
L 598.427747 115.733406 
L 618.301939 115.733406 
L 618.301939 115.182285 
L 623.110211 115.182285 
L 623.110211 114.906725 
L 625.03352 114.906725 
L 625.03352 114.631165 
L 625.674623 114.631165 
L 625.674623 114.355604 
L 626.636277 114.355604 
L 626.636277 114.080044 
L 639.778888 114.080044 
L 639.778888 113.804483 
L 643.304955 113.804483 
L 643.304955 113.528923 
L 644.907712 113.528923 
L 644.907712 113.253362 
L 649.074882 113.253362 
L 649.395433 112.977802 
L 653.242051 112.977802 
L 653.242051 112.702242 
L 690.105472 112.702242 
L 690.105472 112.426681 
L 700.363119 112.426681 
L 700.683671 112.151121 
L 714.787936 112.151121 
L 714.787936 111.87556 
L 734.021025 111.87556 
L 734.341577 111.6 
L 747.163636 111.6 
L 747.163636 111.6 
" clip-path="url(#p2f83fcf4c5)" style="fill: none; stroke: #1f77b4; stroke-width: 2; stroke-linecap: square"/>
   </g>
   <g id="line2d_26">
    <path d="M 138.436364 615.6 
L 138.436364 611.938983 
L 139.09232 611.938983 
L 139.09232 606.447458 
L 139.748276 606.447458 
L 139.748276 597.294915 
L 140.404232 597.294915 
L 140.404232 596.074576 
L 141.060188 595.464407 
L 141.060188 585.091525 
L 141.716144 585.091525 
L 141.716144 578.379661 
L 142.3721 578.379661 
L 142.3721 572.277966 
L 143.028056 572.277966 
L 143.028056 569.227119 
L 143.684013 569.227119 
L 143.684013 554.583051 
L 144.995925 554.583051 
L 144.995925 550.922034 
L 145.651881 550.922034 
L 145.651881 546.650847 
L 146.307837 546.650847 
L 146.307837 544.210169 
L 146.963793 544.210169 
L 146.963793 542.379661 
L 147.619749 542.379661 
L 147.619749 538.718644 
L 148.275705 538.718644 
L 148.275705 534.447458 
L 148.931661 534.447458 
L 148.931661 530.786441 
L 149.587618 530.786441 
L 149.587618 529.566102 
L 150.243574 529.566102 
L 150.243574 528.955932 
L 150.89953 528.955932 
L 150.89953 528.345763 
L 151.555486 528.345763 
L 151.555486 522.854237 
L 152.211442 522.854237 
L 152.211442 520.413559 
L 152.867398 520.413559 
L 152.867398 518.583051 
L 153.523354 518.583051 
L 153.523354 503.938983 
L 154.17931 503.938983 
L 154.17931 502.108475 
L 154.835266 502.108475 
L 154.835266 496.00678 
L 155.491223 496.00678 
L 155.491223 494.176271 
L 156.147179 493.566102 
L 156.147179 490.515254 
L 156.803135 490.515254 
L 156.803135 488.684746 
L 157.459091 488.684746 
L 157.459091 477.701695 
L 158.115047 477.701695 
L 158.115047 476.481356 
L 158.771003 476.481356 
L 158.771003 456.955932 
L 160.082915 456.955932 
L 160.082915 455.125424 
L 160.738871 455.125424 
L 160.738871 449.633898 
L 161.394828 449.633898 
L 161.394828 446.583051 
L 162.050784 446.583051 
L 162.050784 442.922034 
L 162.70674 442.922034 
L 162.70674 437.430508 
L 163.362696 437.430508 
L 163.362696 435.6 
L 164.018652 435.6 
L 164.018652 433.769492 
L 164.674608 433.769492 
L 164.674608 426.447458 
L 165.330564 426.447458 
L 165.330564 425.837288 
L 165.98652 425.837288 
L 165.98652 419.735593 
L 166.642476 419.735593 
L 166.642476 419.125424 
L 167.954389 419.125424 
L 167.954389 415.464407 
L 169.266301 415.464407 
L 169.266301 406.311864 
L 171.234169 406.311864 
L 171.234169 396.549153 
L 171.890125 396.549153 
L 171.890125 395.938983 
L 172.546082 395.938983 
L 172.546082 394.718644 
L 173.857994 394.718644 
L 173.857994 391.667797 
L 174.51395 391.667797 
L 174.51395 389.837288 
L 175.169906 389.837288 
L 175.169906 388.00678 
L 175.825862 388.00678 
L 175.825862 386.176271 
L 176.481818 386.176271 
L 176.481818 384.955932 
L 177.79373 384.955932 
L 177.79373 381.905085 
L 179.105643 381.905085 
L 179.105643 376.413559 
L 179.761599 376.413559 
L 179.761599 374.583051 
L 180.417555 374.583051 
L 180.417555 366.040678 
L 181.073511 366.040678 
L 181.073511 364.210169 
L 181.729467 364.210169 
L 181.729467 363.6 
L 182.385423 363.6 
L 182.385423 362.989831 
L 183.041379 362.989831 
L 183.041379 361.769492 
L 183.697335 361.769492 
L 183.697335 360.549153 
L 184.353292 360.549153 
L 184.353292 354.447458 
L 186.32116 354.447458 
L 186.32116 353.837288 
L 186.977116 353.837288 
L 186.977116 352.616949 
L 187.633072 352.616949 
L 187.633072 350.176271 
L 188.944984 350.176271 
L 188.944984 348.955932 
L 189.60094 348.955932 
L 189.60094 337.972881 
L 190.256897 337.972881 
L 190.256897 337.362712 
L 191.568809 337.362712 
L 191.568809 336.752542 
L 192.880721 336.752542 
L 192.880721 333.091525 
L 193.536677 333.091525 
L 193.536677 330.040678 
L 194.192633 330.040678 
L 194.192633 328.820339 
L 194.848589 328.820339 
L 194.848589 327.6 
L 195.504545 327.6 
L 195.504545 326.379661 
L 196.816458 326.379661 
L 196.816458 322.108475 
L 198.12837 322.108475 
L 198.12837 316.616949 
L 198.784326 316.616949 
L 198.784326 316.00678 
L 199.440282 316.00678 
L 199.440282 313.566102 
L 200.752194 313.566102 
L 200.752194 310.515254 
L 201.40815 310.515254 
L 201.40815 308.684746 
L 202.064107 308.684746 
L 202.064107 305.633898 
L 203.376019 305.633898 
L 203.376019 301.972881 
L 205.343887 301.972881 
L 205.343887 300.752542 
L 205.999843 300.752542 
L 205.999843 298.922034 
L 206.655799 298.922034 
L 206.655799 296.481356 
L 207.311755 296.481356 
L 207.311755 294.650847 
L 207.967712 294.650847 
L 207.967712 292.820339 
L 208.623668 292.820339 
L 208.623668 291.6 
L 209.279624 291.6 
L 209.279624 289.769492 
L 209.93558 289.769492 
L 209.93558 287.938983 
L 210.591536 287.938983 
L 210.591536 284.888136 
L 211.903448 284.888136 
L 211.903448 283.057627 
L 212.559404 283.057627 
L 212.559404 280.616949 
L 213.215361 280.616949 
L 213.215361 278.786441 
L 213.871317 278.786441 
L 213.871317 277.566102 
L 214.527273 277.566102 
L 214.527273 276.955932 
L 215.183229 276.345763 
L 215.183229 273.905085 
L 215.839185 273.905085 
L 215.839185 267.19322 
L 216.495141 267.19322 
L 216.495141 265.972881 
L 217.151097 265.972881 
L 217.151097 265.362712 
L 217.807053 265.362712 
L 217.807053 264.752542 
L 218.463009 264.142373 
L 218.463009 263.532203 
L 219.118966 263.532203 
L 219.118966 262.311864 
L 219.774922 262.311864 
L 219.774922 260.481356 
L 221.086834 260.481356 
L 221.086834 259.871186 
L 222.398746 259.871186 
L 222.398746 256.210169 
L 223.054702 256.210169 
L 223.054702 255.6 
L 223.710658 255.6 
L 223.710658 254.379661 
L 224.366614 254.379661 
L 224.366614 253.159322 
L 225.678527 253.159322 
L 225.678527 252.549153 
L 226.334483 252.549153 
L 226.334483 250.108475 
L 226.990439 250.108475 
L 226.990439 247.057627 
L 228.958307 247.057627 
L 228.958307 244.616949 
L 230.270219 244.616949 
L 230.270219 244.00678 
L 230.926176 244.00678 
L 230.926176 242.786441 
L 231.582132 242.786441 
L 231.582132 242.176271 
L 232.894044 242.176271 
L 232.894044 241.566102 
L 233.55 241.566102 
L 233.55 240.345763 
L 234.205956 240.345763 
L 234.205956 239.735593 
L 234.861912 239.735593 
L 234.861912 238.515254 
L 236.173824 238.515254 
L 236.173824 236.074576 
L 237.485737 236.074576 
L 237.485737 235.464407 
L 239.453605 235.464407 
L 239.453605 232.413559 
L 240.109561 232.413559 
L 240.109561 229.972881 
L 241.421473 229.972881 
L 241.421473 227.532203 
L 242.077429 227.532203 
L 242.077429 226.311864 
L 243.389342 226.311864 
L 243.389342 223.871186 
L 244.045298 223.871186 
L 244.045298 223.261017 
L 245.35721 223.261017 
L 245.35721 222.650847 
L 246.013166 222.650847 
L 246.013166 220.820339 
L 247.325078 220.820339 
L 247.325078 220.210169 
L 249.948903 220.210169 
L 249.948903 218.989831 
L 251.260815 218.989831 
L 251.260815 217.769492 
L 253.884639 217.769492 
L 253.884639 214.108475 
L 255.196552 214.108475 
L 255.196552 211.057627 
L 256.508464 211.057627 
L 256.508464 210.447458 
L 257.820376 210.447458 
L 257.820376 208.616949 
L 259.788245 208.616949 
L 259.788245 205.566102 
L 261.756113 205.566102 
L 261.756113 203.735593 
L 262.412069 203.735593 
L 262.412069 200.684746 
L 263.068025 200.684746 
L 263.068025 199.464407 
L 265.035893 199.464407 
L 265.035893 198.244068 
L 265.69185 198.244068 
L 265.69185 197.633898 
L 267.003762 197.633898 
L 267.003762 197.023729 
L 268.315674 197.023729 
L 268.315674 195.80339 
L 268.97163 195.80339 
L 268.97163 195.19322 
L 270.283542 195.19322 
L 270.283542 193.362712 
L 272.251411 193.362712 
L 272.251411 192.752542 
L 273.563323 192.752542 
L 273.563323 192.142373 
L 274.219279 192.142373 
L 274.219279 190.922034 
L 274.875235 190.922034 
L 274.875235 190.311864 
L 276.843103 190.311864 
L 276.843103 189.701695 
L 278.155016 189.701695 
L 278.155016 188.481356 
L 279.466928 188.481356 
L 279.466928 187.261017 
L 280.122884 187.261017 
L 280.122884 186.040678 
L 280.77884 186.040678 
L 280.77884 184.210169 
L 284.714577 184.210169 
L 284.714577 183.6 
L 286.026489 183.6 
L 286.026489 182.989831 
L 287.994357 182.989831 
L 287.994357 182.379661 
L 288.650313 182.379661 
L 288.650313 181.769492 
L 289.30627 181.769492 
L 289.30627 181.159322 
L 289.962226 181.159322 
L 289.962226 180.549153 
L 291.274138 180.549153 
L 291.274138 179.328814 
L 291.930094 179.328814 
L 291.930094 178.718644 
L 292.58605 178.718644 
L 292.58605 178.108475 
L 297.833699 178.108475 
L 297.833699 177.498305 
L 299.801567 177.498305 
L 299.801567 176.888136 
L 301.769436 176.888136 
L 301.769436 176.277966 
L 302.425392 176.277966 
L 302.425392 175.667797 
L 307.017085 175.667797 
L 307.017085 175.057627 
L 307.673041 175.057627 
L 307.673041 174.447458 
L 308.328997 174.447458 
L 308.328997 173.227119 
L 308.984953 173.227119 
L 308.984953 172.616949 
L 309.640909 172.616949 
L 309.640909 172.00678 
L 310.296865 172.00678 
L 310.296865 170.786441 
L 311.608777 170.786441 
L 311.608777 170.176271 
L 312.92069 170.176271 
L 312.92069 169.566102 
L 314.232602 169.566102 
L 314.232602 168.955932 
L 318.168339 168.955932 
L 318.168339 166.515254 
L 318.824295 166.515254 
L 318.824295 165.905085 
L 322.104075 165.905085 
L 322.104075 165.294915 
L 323.415987 165.294915 
L 323.415987 164.684746 
L 324.071944 164.684746 
L 324.071944 161.633898 
L 326.039812 161.633898 
L 326.039812 160.413559 
L 329.319592 160.413559 
L 329.319592 159.19322 
L 330.631505 159.19322 
L 330.631505 157.362712 
L 331.943417 157.362712 
L 331.943417 156.752542 
L 335.879154 156.752542 
L 335.879154 156.142373 
L 338.502978 156.142373 
L 338.502978 154.922034 
L 339.158934 154.922034 
L 339.158934 154.311864 
L 341.126803 154.311864 
L 341.126803 152.481356 
L 343.094671 152.481356 
L 343.094671 151.871186 
L 343.750627 151.871186 
L 343.750627 150.650847 
L 345.718495 150.650847 
L 345.718495 150.040678 
L 353.589969 150.040678 
L 353.589969 148.820339 
L 354.901881 148.820339 
L 354.901881 148.210169 
L 357.525705 148.210169 
L 357.525705 147.6 
L 359.493574 147.6 
L 359.493574 146.989831 
L 360.14953 146.989831 
L 360.14953 146.379661 
L 360.805486 146.379661 
L 360.805486 145.159322 
L 361.461442 145.159322 
L 361.461442 144.549153 
L 364.741223 144.549153 
L 364.741223 143.938983 
L 365.397179 143.938983 
L 365.397179 143.328814 
L 368.021003 143.328814 
L 368.021003 142.108475 
L 368.676959 142.108475 
L 368.676959 141.498305 
L 370.644828 141.498305 
L 370.644828 139.667797 
L 378.516301 139.667797 
L 378.516301 139.057627 
L 383.107994 139.057627 
L 383.107994 138.447458 
L 394.915204 138.447458 
L 394.915204 137.227119 
L 395.57116 137.227119 
L 395.57116 136.616949 
L 402.786677 136.616949 
L 402.786677 136.00678 
L 407.37837 136.00678 
L 407.37837 135.39661 
L 410.002194 135.39661 
L 410.002194 134.176271 
L 415.249843 134.176271 
L 415.249843 133.566102 
L 417.873668 133.566102 
L 417.873668 132.955932 
L 419.18558 132.955932 
L 419.18558 132.345763 
L 422.465361 132.345763 
L 422.465361 131.735593 
L 427.713009 131.735593 
L 427.713009 131.125424 
L 432.304702 131.125424 
L 432.304702 130.515254 
L 432.960658 130.515254 
L 432.960658 129.294915 
L 435.584483 129.294915 
L 435.584483 128.684746 
L 447.391693 128.684746 
L 447.391693 128.074576 
L 455.263166 128.074576 
L 455.263166 127.464407 
L 457.886991 127.464407 
L 457.886991 126.244068 
L 460.510815 126.244068 
L 460.510815 125.633898 
L 466.41442 125.633898 
L 466.41442 125.023729 
L 475.597806 125.023729 
L 475.597806 124.413559 
L 478.877586 124.413559 
L 478.877586 123.80339 
L 509.707524 123.80339 
L 509.707524 121.972881 
L 516.923041 121.972881 
L 516.923041 121.362712 
L 522.826646 121.362712 
L 522.826646 120.752542 
L 525.45047 120.752542 
L 525.45047 120.142373 
L 526.106426 120.142373 
L 526.106426 119.532203 
L 534.633856 119.532203 
L 534.633856 118.922034 
L 560.216144 118.922034 
L 560.216144 118.311864 
L 564.807837 118.311864 
L 564.807837 117.701695 
L 572.67931 117.701695 
L 572.67931 117.091525 
L 578.582915 117.091525 
L 578.582915 116.481356 
L 592.357994 116.481356 
L 592.357994 115.871186 
L 597.605643 115.871186 
L 597.605643 115.261017 
L 598.917555 115.261017 
L 598.917555 114.650847 
L 619.90815 114.650847 
L 619.90815 114.040678 
L 676.320376 114.040678 
L 676.320376 113.430508 
L 695.99906 113.430508 
L 695.99906 112.820339 
L 721.581348 112.820339 
L 721.581348 112.210169 
L 739.292163 112.210169 
L 739.292163 111.6 
L 747.163636 111.6 
L 747.163636 111.6 
" clip-path="url(#p2f83fcf4c5)" style="fill: none; stroke: #ff7f0e; stroke-width: 2; stroke-linecap: square"/>
   </g>
   <g id="line2d_27">
    <path d="M 138.436364 615.6 
L 138.436364 609.960839 
L 139.971615 609.960839 
L 139.971615 606.436364 
L 140.739241 606.436364 
L 140.739241 605.731469 
L 141.506867 605.731469 
L 141.506867 597.272727 
L 142.274493 597.272727 
L 142.274493 590.928671 
L 143.042119 590.928671 
L 143.042119 584.584615 
L 143.809744 584.584615 
L 143.809744 581.765035 
L 144.57737 581.765035 
L 144.57737 576.125874 
L 145.344996 576.125874 
L 145.344996 571.896503 
L 146.112622 571.896503 
L 146.112622 559.913287 
L 146.880248 559.913287 
L 146.880248 556.388811 
L 147.647873 556.388811 
L 147.647873 547.225175 
L 149.183125 547.225175 
L 149.183125 538.766434 
L 149.950751 538.766434 
L 149.950751 519.029371 
L 150.718377 519.029371 
L 150.718377 509.865734 
L 151.486003 509.865734 
L 151.486003 507.751049 
L 152.253628 507.751049 
L 152.253628 502.816783 
L 153.021254 502.816783 
L 153.021254 502.111888 
L 153.78888 502.111888 
L 153.78888 499.292308 
L 154.556506 499.292308 
L 154.556506 495.767832 
L 155.324132 495.767832 
L 155.324132 490.833566 
L 156.091757 490.833566 
L 156.091757 488.718881 
L 156.859383 488.718881 
L 156.859383 483.07972 
L 157.627009 483.07972 
L 157.627009 481.66993 
L 159.162261 481.66993 
L 159.162261 480.965035 
L 159.929887 480.965035 
L 159.929887 478.145455 
L 160.697512 478.145455 
L 160.697512 459.113287 
L 161.465138 459.113287 
L 161.465138 458.408392 
L 162.232764 458.408392 
L 162.232764 457.703497 
L 163.00039 457.703497 
L 163.00039 454.883916 
L 163.768016 454.883916 
L 163.768016 449.244755 
L 164.535641 449.244755 
L 164.535641 440.081119 
L 165.303267 440.081119 
L 165.303267 434.441958 
L 166.070893 434.441958 
L 166.070893 432.327273 
L 166.838519 432.327273 
L 166.838519 431.622378 
L 167.606145 431.622378 
L 167.606145 425.278322 
L 168.37377 425.278322 
L 168.37377 424.573427 
L 169.141396 424.573427 
L 169.141396 421.753846 
L 169.909022 421.753846 
L 169.909022 419.639161 
L 170.676648 419.639161 
L 170.676648 416.114685 
L 171.444274 416.114685 
L 171.444274 409.065734 
L 172.2119 409.065734 
L 172.2119 407.655944 
L 172.979525 406.951049 
L 172.979525 404.836364 
L 173.747151 404.836364 
L 173.747151 385.804196 
L 175.282403 385.804196 
L 175.282403 382.27972 
L 176.050029 382.27972 
L 176.050029 379.46014 
L 176.817654 379.46014 
L 176.817654 377.345455 
L 177.58528 377.345455 
L 177.58528 370.296503 
L 178.352906 370.296503 
L 178.352906 366.772028 
L 179.120532 366.772028 
L 179.120532 361.837762 
L 180.655784 361.837762 
L 180.655784 357.608392 
L 181.423409 357.608392 
L 181.423409 354.788811 
L 183.726287 354.788811 
L 183.726287 353.379021 
L 184.493913 353.379021 
L 184.493913 351.264336 
L 185.261538 351.264336 
L 185.261538 349.14965 
L 186.029164 349.14965 
L 186.029164 347.73986 
L 187.564416 347.73986 
L 187.564416 347.034965 
L 188.332042 347.034965 
L 188.332042 337.871329 
L 189.099668 337.871329 
L 189.099668 337.166434 
L 189.867293 337.166434 
L 189.867293 335.756643 
L 190.634919 335.756643 
L 190.634919 329.412587 
L 191.402545 329.412587 
L 191.402545 328.002797 
L 192.170171 328.002797 
L 192.170171 327.297902 
L 192.937797 327.297902 
L 192.937797 323.068531 
L 194.473048 323.068531 
L 194.473048 322.363636 
L 195.240674 322.363636 
L 195.240674 320.248951 
L 196.0083 320.248951 
L 196.0083 317.429371 
L 196.775926 317.429371 
L 196.775926 316.724476 
L 197.543552 316.724476 
L 197.543552 309.675524 
L 198.311177 309.675524 
L 198.311177 304.741259 
L 199.078803 304.741259 
L 199.078803 304.036364 
L 199.846429 304.036364 
L 199.846429 301.216783 
L 200.614055 301.216783 
L 200.614055 299.102098 
L 201.381681 299.102098 
L 201.381681 298.397203 
L 202.916932 298.397203 
L 202.916932 296.282517 
L 204.452184 296.282517 
L 204.452184 295.577622 
L 205.987436 295.577622 
L 205.987436 294.872727 
L 206.755061 294.872727 
L 206.755061 294.167832 
L 207.522687 294.167832 
L 207.522687 293.462937 
L 209.825565 293.462937 
L 209.825565 292.758042 
L 212.128442 292.758042 
L 212.128442 290.643357 
L 212.896068 290.643357 
L 212.896068 287.823776 
L 213.663694 287.823776 
L 213.663694 287.118881 
L 214.43132 287.118881 
L 214.43132 286.413986 
L 215.198945 286.413986 
L 215.198945 285.004196 
L 216.734197 285.004196 
L 216.734197 284.299301 
L 217.501823 284.299301 
L 217.501823 283.594406 
L 218.269449 283.594406 
L 218.269449 282.88951 
L 219.037074 282.88951 
L 219.037074 280.774825 
L 219.8047 280.774825 
L 219.8047 277.955245 
L 220.572326 277.25035 
L 220.572326 273.725874 
L 221.339952 273.725874 
L 221.339952 270.201399 
L 222.107578 270.201399 
L 222.107578 267.381818 
L 222.875203 267.381818 
L 222.875203 265.267133 
L 224.410455 265.267133 
L 224.410455 264.562238 
L 225.945707 264.562238 
L 225.945707 261.037762 
L 226.713333 261.037762 
L 226.713333 260.332867 
L 227.480958 260.332867 
L 227.480958 256.103497 
L 229.01621 256.103497 
L 229.01621 254.693706 
L 230.551462 254.693706 
L 230.551462 253.283916 
L 232.086713 253.283916 
L 232.086713 252.579021 
L 234.389591 252.579021 
L 234.389591 249.759441 
L 235.157217 249.759441 
L 235.157217 245.53007 
L 236.692468 245.53007 
L 236.692468 244.12028 
L 237.460094 244.12028 
L 237.460094 240.595804 
L 238.995346 240.595804 
L 238.995346 237.776224 
L 239.762971 237.776224 
L 239.762971 236.366434 
L 241.298223 236.366434 
L 241.298223 235.661538 
L 242.833475 235.661538 
L 242.833475 234.251748 
L 246.671604 234.251748 
L 246.671604 232.841958 
L 249.742107 232.841958 
L 249.742107 229.317483 
L 250.509733 229.317483 
L 250.509733 227.202797 
L 252.044985 227.202797 
L 252.044985 225.793007 
L 252.81261 225.793007 
L 252.81261 224.383217 
L 253.580236 224.383217 
L 253.580236 222.268531 
L 255.115488 222.268531 
L 255.115488 220.858741 
L 258.953617 220.858741 
L 258.953617 220.153846 
L 259.721243 220.153846 
L 259.721243 218.039161 
L 260.488869 218.039161 
L 260.488869 217.334266 
L 261.256494 217.334266 
L 261.256494 215.924476 
L 262.791746 215.924476 
L 262.791746 215.21958 
L 264.326998 215.21958 
L 264.326998 214.514685 
L 265.862249 214.514685 
L 265.862249 213.80979 
L 266.629875 213.80979 
L 266.629875 212.4 
L 269.700378 212.4 
L 269.700378 210.99021 
L 270.468004 210.99021 
L 270.468004 210.285315 
L 273.538507 210.285315 
L 273.538507 208.170629 
L 275.073759 208.170629 
L 275.073759 207.465734 
L 275.841385 207.465734 
L 275.841385 206.055944 
L 276.609011 206.055944 
L 276.609011 205.351049 
L 277.376636 205.351049 
L 277.376636 203.236364 
L 278.144262 203.236364 
L 278.144262 202.531469 
L 279.679514 202.531469 
L 279.679514 201.826573 
L 280.44714 201.826573 
L 280.44714 200.416783 
L 281.982391 200.416783 
L 281.982391 199.711888 
L 284.285269 199.711888 
L 284.285269 199.006993 
L 286.588146 199.006993 
L 286.588146 198.302098 
L 289.65865 198.302098 
L 289.65865 196.892308 
L 291.193901 196.892308 
L 291.193901 195.482517 
L 291.961527 195.482517 
L 291.961527 194.777622 
L 292.729153 194.777622 
L 292.729153 193.367832 
L 293.496779 193.367832 
L 293.496779 192.662937 
L 297.334908 192.662937 
L 297.334908 191.958042 
L 299.637785 191.958042 
L 299.637785 191.253147 
L 300.405411 191.253147 
L 300.405411 190.548252 
L 301.173037 190.548252 
L 301.173037 189.843357 
L 304.24354 189.843357 
L 304.24354 189.138462 
L 305.778792 189.138462 
L 305.778792 188.433566 
L 308.081669 188.433566 
L 308.081669 187.023776 
L 312.687424 187.023776 
L 312.687424 185.613986 
L 314.222676 185.613986 
L 314.222676 184.204196 
L 315.757927 184.204196 
L 315.757927 182.794406 
L 318.828431 182.794406 
L 318.828431 182.08951 
L 321.131308 182.08951 
L 321.131308 181.384615 
L 324.201811 181.384615 
L 324.201811 180.67972 
L 324.969437 180.67972 
L 324.969437 179.974825 
L 331.878069 179.974825 
L 331.878069 178.565035 
L 332.645695 178.565035 
L 332.645695 177.86014 
L 336.483824 177.86014 
L 336.483824 176.45035 
L 337.25145 176.45035 
L 337.25145 175.745455 
L 338.019076 175.745455 
L 338.019076 173.630769 
L 338.786702 173.630769 
L 338.786702 172.220979 
L 339.554328 172.220979 
L 339.554328 171.516084 
L 345.695334 171.516084 
L 345.695334 168.696503 
L 347.230586 168.696503 
L 347.230586 167.286713 
L 347.998212 167.286713 
L 347.998212 166.581818 
L 348.765837 166.581818 
L 348.765837 165.876923 
L 350.301089 165.876923 
L 350.301089 164.467133 
L 351.068715 164.467133 
L 351.068715 163.762238 
L 357.209721 163.762238 
L 357.209721 163.057343 
L 359.512599 163.057343 
L 359.512599 161.647552 
L 360.280225 161.647552 
L 360.280225 158.827972 
L 361.815476 158.827972 
L 361.815476 158.123077 
L 363.350728 158.123077 
L 363.350728 157.418182 
L 364.118354 157.418182 
L 364.118354 155.303497 
L 365.653605 155.303497 
L 365.653605 154.598601 
L 371.026986 154.598601 
L 371.026986 152.483916 
L 371.794612 152.483916 
L 371.794612 151.779021 
L 374.097489 151.779021 
L 374.097489 151.074126 
L 374.865115 151.074126 
L 374.865115 149.664336 
L 375.632741 149.664336 
L 375.632741 148.959441 
L 378.703244 148.959441 
L 378.703244 146.844755 
L 384.844251 146.844755 
L 384.844251 145.434965 
L 389.450006 145.434965 
L 389.450006 144.025175 
L 394.055761 144.025175 
L 394.055761 143.32028 
L 394.823386 143.32028 
L 394.823386 141.91049 
L 395.591012 141.91049 
L 395.591012 141.205594 
L 398.661516 141.205594 
L 398.661516 139.795804 
L 399.429141 139.795804 
L 399.429141 139.090909 
L 403.26727 139.090909 
L 403.26727 138.386014 
L 410.175903 138.386014 
L 410.175903 137.681119 
L 411.711154 137.681119 
L 411.711154 136.271329 
L 413.246406 136.271329 
L 413.246406 135.566434 
L 420.155038 135.566434 
L 420.155038 134.861538 
L 421.69029 134.861538 
L 421.69029 134.156643 
L 425.528419 134.156643 
L 425.528419 133.451748 
L 427.831297 133.451748 
L 427.831297 132.041958 
L 430.9018 132.041958 
L 430.9018 131.337063 
L 443.951439 131.337063 
L 443.951439 130.632168 
L 444.719065 130.632168 
L 444.719065 128.517483 
L 453.930574 128.517483 
L 453.930574 127.812587 
L 456.233452 127.812587 
L 456.233452 127.107692 
L 461.606833 127.107692 
L 461.606833 126.402797 
L 462.374458 126.402797 
L 462.374458 125.697902 
L 463.90971 125.697902 
L 463.90971 124.993007 
L 473.12122 124.993007 
L 473.12122 124.288112 
L 479.262226 124.288112 
L 479.262226 123.583217 
L 503.058627 123.583217 
L 503.058627 122.878322 
L 508.432007 122.878322 
L 508.432007 122.173427 
L 514.573014 122.173427 
L 514.573014 121.468531 
L 515.34064 121.468531 
L 515.34064 120.763636 
L 516.875891 120.763636 
L 516.875891 120.058741 
L 538.369414 120.058741 
L 538.369414 119.353846 
L 540.672292 119.353846 
L 540.672292 118.648951 
L 542.975169 118.648951 
L 542.975169 117.944056 
L 550.651427 117.944056 
L 550.651427 117.239161 
L 556.024808 117.239161 
L 556.024808 116.534266 
L 565.236318 116.534266 
L 565.236318 115.829371 
L 579.053582 115.829371 
L 579.821208 115.124476 
L 580.588834 115.124476 
L 580.588834 114.41958 
L 590.56797 114.41958 
L 590.56797 113.714685 
L 634.322641 113.714685 
L 634.322641 113.00979 
L 635.857893 113.00979 
L 635.857893 112.304895 
L 660.421919 112.304895 
L 660.421919 111.6 
L 747.163636 111.6 
L 747.163636 111.6 
" clip-path="url(#p2f83fcf4c5)" style="fill: none; stroke: #2ca02c; stroke-width: 2; stroke-linecap: square"/>
   </g>
   <g id="line2d_28">
    <path d="M 138.436364 615.6 
L 138.436364 612.703448 
L 138.436364 569.255172 
L 138.436364 563.462069 
L 138.436364 551.875862 
L 138.436364 546.082759 
L 138.436364 520.013793 
L 141.362937 520.013793 
L 141.362937 508.427586 
L 144.28951 508.427586 
L 144.28951 491.048276 
L 144.28951 485.255172 
L 144.28951 450.496552 
L 147.216084 450.496552 
L 147.216084 421.531034 
L 150.142657 421.531034 
L 150.142657 412.841379 
L 153.069231 412.841379 
L 153.069231 357.806897 
L 155.995804 357.806897 
L 155.995804 294.082759 
L 161.848951 294.082759 
L 161.848951 282.496552 
L 164.775524 282.496552 
L 164.775524 259.324138 
L 167.702098 259.324138 
L 167.702098 253.531034 
L 170.628671 253.531034 
L 170.628671 247.737931 
L 173.555245 247.737931 
L 173.555245 244.841379 
L 182.334965 244.841379 
L 182.334965 241.944828 
L 185.261538 241.944828 
L 185.261538 233.255172 
L 188.188112 233.255172 
L 188.188112 227.462069 
L 191.114685 227.462069 
L 191.114685 221.668966 
L 194.041259 221.668966 
L 194.041259 215.875862 
L 196.967832 215.875862 
L 196.967832 207.186207 
L 199.894406 207.186207 
L 199.894406 201.393103 
L 202.820979 201.393103 
L 202.820979 195.6 
L 205.747552 195.6 
L 205.747552 189.806897 
L 208.674126 189.806897 
L 208.674126 186.910345 
L 211.600699 186.910345 
L 211.600699 184.013793 
L 214.527273 184.013793 
L 214.527273 181.117241 
L 223.306993 181.117241 
L 223.306993 178.22069 
L 226.233566 178.22069 
L 226.233566 175.324138 
L 243.793007 175.324138 
L 243.793007 172.427586 
L 246.71958 172.427586 
L 246.71958 160.841379 
L 249.646154 160.841379 
L 249.646154 157.944828 
L 252.572727 157.944828 
L 255.499301 155.048276 
L 267.205594 155.048276 
L 267.205594 152.151724 
L 287.691608 152.151724 
L 287.691608 149.255172 
L 314.030769 149.255172 
L 314.030769 146.358621 
L 322.81049 146.358621 
L 322.81049 140.565517 
L 337.443357 140.565517 
L 337.443357 137.668966 
L 357.929371 137.668966 
L 357.929371 134.772414 
L 366.709091 134.772414 
L 366.709091 131.875862 
L 381.341958 131.875862 
L 381.341958 128.97931 
L 442.8 128.97931 
L 442.8 123.186207 
L 448.653147 123.186207 
L 448.653147 120.289655 
L 504.258042 120.289655 
L 504.258042 117.393103 
L 551.083217 117.393103 
L 551.083217 114.496552 
L 592.055245 114.496552 
L 597.908392 114.496552 
L 606.688112 114.496552 
L 606.688112 111.6 
L 665.21958 111.6 
L 671.072727 111.6 
L 700.338462 111.6 
L 709.118182 111.6 
L 712.044755 111.6 
L 720.824476 111.6 
L 738.383916 111.6 
L 747.163636 111.6 
" clip-path="url(#p2f83fcf4c5)" style="fill: none; stroke: #d62728; stroke-width: 2; stroke-linecap: square"/>
   </g>
   <g id="line2d_29">
    <path d="M 138.436364 615.6 
L 747.163636 111.6 
" clip-path="url(#p2f83fcf4c5)" style="fill: none; stroke-dasharray: 7.4,3.2; stroke-dashoffset: 0; stroke: #000080; stroke-width: 2"/>
   </g>
   <g id="patch_3">
    <path d="M 108 640.8 
L 108 86.4 
" style="fill: none; stroke: #000000; stroke-width: 0.8; stroke-linejoin: miter; stroke-linecap: square"/>
   </g>
   <g id="patch_4">
    <path d="M 777.6 640.8 
L 777.6 86.4 
" style="fill: none; stroke: #000000; stroke-width: 0.8; stroke-linejoin: miter; stroke-linecap: square"/>
   </g>
   <g id="patch_5">
    <path d="M 108 640.8 
L 777.6 640.8 
" style="fill: none; stroke: #000000; stroke-width: 0.8; stroke-linejoin: miter; stroke-linecap: square"/>
   </g>
   <g id="patch_6">
    <path d="M 108 86.4 
L 777.6 86.4 
" style="fill: none; stroke: #000000; stroke-width: 0.8; stroke-linejoin: miter; stroke-linecap: square"/>
   </g>
   <g id="text_15">
    <!-- Receiver Operating Characteristic (ROC) Curve for All Locations -->
    <g transform="translate(252.105 80.4) scale(0.12 -0.12)">
     <defs>
      <path id="DejaVuSans-63" d="M 3122 3366 
L 3122 2828 
Q 2878 2963 2633 3030 
Q 2388 3097 2138 3097 
Q 1578 3097 1268 2742 
Q 959 2388 959 1747 
Q 959 1106 1268 751 
Q 1578 397 2138 397 
Q 2388 397 2633 464 
Q 2878 531 3122 666 
L 3122 134 
Q 2881 22 2623 -34 
Q 2366 -91 2075 -91 
Q 1284 -91 818 406 
Q 353 903 353 1747 
Q 353 2603 823 3093 
Q 1294 3584 2113 3584 
Q 2378 3584 2631 3529 
Q 2884 3475 3122 3366 
z
" transform="scale(0.015625)"/>
      <path id="DejaVuSans-4f" d="M 2522 4238 
Q 1834 4238 1429 3725 
Q 1025 3213 1025 2328 
Q 1025 1447 1429 934 
Q 1834 422 2522 422 
Q 3209 422 3611 934 
Q 4013 1447 4013 2328 
Q 4013 3213 3611 3725 
Q 3209 4238 2522 4238 
z
M 2522 4750 
Q 3503 4750 4090 4092 
Q 4678 3434 4678 2328 
Q 4678 1225 4090 567 
Q 3503 -91 2522 -91 
Q 1538 -91 948 565 
Q 359 1222 359 2328 
Q 359 3434 948 4092 
Q 1538 4750 2522 4750 
z
" transform="scale(0.015625)"/>
      <path id="DejaVuSans-70" d="M 1159 525 
L 1159 -1331 
L 581 -1331 
L 581 3500 
L 1159 3500 
L 1159 2969 
Q 1341 3281 1617 3432 
Q 1894 3584 2278 3584 
Q 2916 3584 3314 3078 
Q 3713 2572 3713 1747 
Q 3713 922 3314 415 
Q 2916 -91 2278 -91 
Q 1894 -91 1617 61 
Q 1341 213 1159 525 
z
M 3116 1747 
Q 3116 2381 2855 2742 
Q 2594 3103 2138 3103 
Q 1681 3103 1420 2742 
Q 1159 2381 1159 1747 
Q 1159 1113 1420 752 
Q 1681 391 2138 391 
Q 2594 391 2855 752 
Q 3116 1113 3116 1747 
z
" transform="scale(0.015625)"/>
      <path id="DejaVuSans-6e" d="M 3513 2113 
L 3513 0 
L 2938 0 
L 2938 2094 
Q 2938 2591 2744 2837 
Q 2550 3084 2163 3084 
Q 1697 3084 1428 2787 
Q 1159 2491 1159 1978 
L 1159 0 
L 581 0 
L 581 3500 
L 1159 3500 
L 1159 2956 
Q 1366 3272 1645 3428 
Q 1925 3584 2291 3584 
Q 2894 3584 3203 3211 
Q 3513 2838 3513 2113 
z
" transform="scale(0.015625)"/>
      <path id="DejaVuSans-67" d="M 2906 1791 
Q 2906 2416 2648 2759 
Q 2391 3103 1925 3103 
Q 1463 3103 1205 2759 
Q 947 2416 947 1791 
Q 947 1169 1205 825 
Q 1463 481 1925 481 
Q 2391 481 2648 825 
Q 2906 1169 2906 1791 
z
M 3481 434 
Q 3481 -459 3084 -895 
Q 2688 -1331 1869 -1331 
Q 1566 -1331 1297 -1286 
Q 1028 -1241 775 -1147 
L 775 -588 
Q 1028 -725 1275 -790 
Q 1522 -856 1778 -856 
Q 2344 -856 2625 -561 
Q 2906 -266 2906 331 
L 2906 616 
Q 2728 306 2450 153 
Q 2172 0 1784 0 
Q 1141 0 747 490 
Q 353 981 353 1791 
Q 353 2603 747 3093 
Q 1141 3584 1784 3584 
Q 2172 3584 2450 3431 
Q 2728 3278 2906 2969 
L 2906 3500 
L 3481 3500 
L 3481 434 
z
" transform="scale(0.015625)"/>
      <path id="DejaVuSans-43" d="M 4122 4306 
L 4122 3641 
Q 3803 3938 3442 4084 
Q 3081 4231 2675 4231 
Q 1875 4231 1450 3742 
Q 1025 3253 1025 2328 
Q 1025 1406 1450 917 
Q 1875 428 2675 428 
Q 3081 428 3442 575 
Q 3803 722 4122 1019 
L 4122 359 
Q 3791 134 3420 21 
Q 3050 -91 2638 -91 
Q 1578 -91 968 557 
Q 359 1206 359 2328 
Q 359 3453 968 4101 
Q 1578 4750 2638 4750 
Q 3056 4750 3426 4639 
Q 3797 4528 4122 4306 
z
" transform="scale(0.015625)"/>
      <path id="DejaVuSans-68" d="M 3513 2113 
L 3513 0 
L 2938 0 
L 2938 2094 
Q 2938 2591 2744 2837 
Q 2550 3084 2163 3084 
Q 1697 3084 1428 2787 
Q 1159 2491 1159 1978 
L 1159 0 
L 581 0 
L 581 4863 
L 1159 4863 
L 1159 2956 
Q 1366 3272 1645 3428 
Q 1925 3584 2291 3584 
Q 2894 3584 3203 3211 
Q 3513 2838 3513 2113 
z
" transform="scale(0.015625)"/>
      <path id="DejaVuSans-28" d="M 1984 4856 
Q 1566 4138 1362 3434 
Q 1159 2731 1159 2009 
Q 1159 1288 1364 580 
Q 1569 -128 1984 -844 
L 1484 -844 
Q 1016 -109 783 600 
Q 550 1309 550 2009 
Q 550 2706 781 3412 
Q 1013 4119 1484 4856 
L 1984 4856 
z
" transform="scale(0.015625)"/>
      <path id="DejaVuSans-29" d="M 513 4856 
L 1013 4856 
Q 1481 4119 1714 3412 
Q 1947 2706 1947 2009 
Q 1947 1309 1714 600 
Q 1481 -109 1013 -844 
L 513 -844 
Q 928 -128 1133 580 
Q 1338 1288 1338 2009 
Q 1338 2731 1133 3434 
Q 928 4138 513 4856 
z
" transform="scale(0.015625)"/>
      <path id="DejaVuSans-66" d="M 2375 4863 
L 2375 4384 
L 1825 4384 
Q 1516 4384 1395 4259 
Q 1275 4134 1275 3809 
L 1275 3500 
L 2222 3500 
L 2222 3053 
L 1275 3053 
L 1275 0 
L 697 0 
L 697 3053 
L 147 3053 
L 147 3500 
L 697 3500 
L 697 3744 
Q 697 4328 969 4595 
Q 1241 4863 1831 4863 
L 2375 4863 
z
" transform="scale(0.015625)"/>
      <path id="DejaVuSans-41" d="M 2188 4044 
L 1331 1722 
L 3047 1722 
L 2188 4044 
z
M 1831 4666 
L 2547 4666 
L 4325 0 
L 3669 0 
L 3244 1197 
L 1141 1197 
L 716 0 
L 50 0 
L 1831 4666 
z
" transform="scale(0.015625)"/>
      <path id="DejaVuSans-4c" d="M 628 4666 
L 1259 4666 
L 1259 531 
L 3531 531 
L 3531 0 
L 628 0 
L 628 4666 
z
" transform="scale(0.015625)"/>
     </defs>
     <use xlink:href="#DejaVuSans-52"/>
     <use xlink:href="#DejaVuSans-65" x="64.982422"/>
     <use xlink:href="#DejaVuSans-63" x="126.505859"/>
     <use xlink:href="#DejaVuSans-65" x="181.486328"/>
     <use xlink:href="#DejaVuSans-69" x="243.009766"/>
     <use xlink:href="#DejaVuSans-76" x="270.792969"/>
     <use xlink:href="#DejaVuSans-65" x="329.972656"/>
     <use xlink:href="#DejaVuSans-72" x="391.496094"/>
     <use xlink:href="#DejaVuSans-20" x="432.609375"/>
     <use xlink:href="#DejaVuSans-4f" x="464.396484"/>
     <use xlink:href="#DejaVuSans-70" x="543.107422"/>
     <use xlink:href="#DejaVuSans-65" x="606.583984"/>
     <use xlink:href="#DejaVuSans-72" x="668.107422"/>
     <use xlink:href="#DejaVuSans-61" x="709.220703"/>
     <use xlink:href="#DejaVuSans-74" x="770.5"/>
     <use xlink:href="#DejaVuSans-69" x="809.708984"/>
     <use xlink:href="#DejaVuSans-6e" x="837.492188"/>
     <use xlink:href="#DejaVuSans-67" x="900.871094"/>
     <use xlink:href="#DejaVuSans-20" x="964.347656"/>
     <use xlink:href="#DejaVuSans-43" x="996.134766"/>
     <use xlink:href="#DejaVuSans-68" x="1065.958984"/>
     <use xlink:href="#DejaVuSans-61" x="1129.337891"/>
     <use xlink:href="#DejaVuSans-72" x="1190.617188"/>
     <use xlink:href="#DejaVuSans-61" x="1231.730469"/>
     <use xlink:href="#DejaVuSans-63" x="1293.009766"/>
     <use xlink:href="#DejaVuSans-74" x="1347.990234"/>
     <use xlink:href="#DejaVuSans-65" x="1387.199219"/>
     <use xlink:href="#DejaVuSans-72" x="1448.722656"/>
     <use xlink:href="#DejaVuSans-69" x="1489.835938"/>
     <use xlink:href="#DejaVuSans-73" x="1517.619141"/>
     <use xlink:href="#DejaVuSans-74" x="1569.71875"/>
     <use xlink:href="#DejaVuSans-69" x="1608.927734"/>
     <use xlink:href="#DejaVuSans-63" x="1636.710938"/>
     <use xlink:href="#DejaVuSans-20" x="1691.691406"/>
     <use xlink:href="#DejaVuSans-28" x="1723.478516"/>
     <use xlink:href="#DejaVuSans-52" x="1762.492188"/>
     <use xlink:href="#DejaVuSans-4f" x="1831.974609"/>
     <use xlink:href="#DejaVuSans-43" x="1910.685547"/>
     <use xlink:href="#DejaVuSans-29" x="1980.509766"/>
     <use xlink:href="#DejaVuSans-20" x="2019.523438"/>
     <use xlink:href="#DejaVuSans-43" x="2051.310547"/>
     <use xlink:href="#DejaVuSans-75" x="2121.134766"/>
     <use xlink:href="#DejaVuSans-72" x="2184.513672"/>
     <use xlink:href="#DejaVuSans-76" x="2225.626953"/>
     <use xlink:href="#DejaVuSans-65" x="2284.806641"/>
     <use xlink:href="#DejaVuSans-20" x="2346.330078"/>
     <use xlink:href="#DejaVuSans-66" x="2378.117188"/>
     <use xlink:href="#DejaVuSans-6f" x="2413.322266"/>
     <use xlink:href="#DejaVuSans-72" x="2474.503906"/>
     <use xlink:href="#DejaVuSans-20" x="2515.617188"/>
     <use xlink:href="#DejaVuSans-41" x="2547.404297"/>
     <use xlink:href="#DejaVuSans-6c" x="2615.8125"/>
     <use xlink:href="#DejaVuSans-6c" x="2643.595703"/>
     <use xlink:href="#DejaVuSans-20" x="2671.378906"/>
     <use xlink:href="#DejaVuSans-4c" x="2703.166016"/>
     <use xlink:href="#DejaVuSans-6f" x="2757.128906"/>
     <use xlink:href="#DejaVuSans-63" x="2818.310547"/>
     <use xlink:href="#DejaVuSans-61" x="2873.291016"/>
     <use xlink:href="#DejaVuSans-74" x="2934.570312"/>
     <use xlink:href="#DejaVuSans-69" x="2973.779297"/>
     <use xlink:href="#DejaVuSans-6f" x="3001.5625"/>
     <use xlink:href="#DejaVuSans-6e" x="3062.744141"/>
     <use xlink:href="#DejaVuSans-73" x="3126.123047"/>
    </g>
   </g>
   <g id="legend_1">
    <g id="patch_7">
     <path d="M 586.796875 635.8 
L 770.6 635.8 
Q 772.6 635.8 772.6 633.8 
L 772.6 576.0875 
Q 772.6 574.0875 770.6 574.0875 
L 586.796875 574.0875 
Q 584.796875 574.0875 584.796875 576.0875 
L 584.796875 633.8 
Q 584.796875 635.8 586.796875 635.8 
z
" style="fill: #ffffff; opacity: 0.8; stroke: #cccccc; stroke-linejoin: miter"/>
    </g>
    <g id="line2d_30">
     <path d="M 588.796875 582.185938 
L 598.796875 582.185938 
L 608.796875 582.185938 
" style="fill: none; stroke: #1f77b4; stroke-width: 2; stroke-linecap: square"/>
    </g>
    <g id="text_16">
     <!-- Bone Metastasis (AUC = 0.86) -->
     <g transform="translate(616.796875 585.685938) scale(0.1 -0.1)">
      <defs>
       <path id="DejaVuSans-42" d="M 1259 2228 
L 1259 519 
L 2272 519 
Q 2781 519 3026 730 
Q 3272 941 3272 1375 
Q 3272 1813 3026 2020 
Q 2781 2228 2272 2228 
L 1259 2228 
z
M 1259 4147 
L 1259 2741 
L 2194 2741 
Q 2656 2741 2882 2914 
Q 3109 3088 3109 3444 
Q 3109 3797 2882 3972 
Q 2656 4147 2194 4147 
L 1259 4147 
z
M 628 4666 
L 2241 4666 
Q 2963 4666 3353 4366 
Q 3744 4066 3744 3513 
Q 3744 3084 3544 2831 
Q 3344 2578 2956 2516 
Q 3422 2416 3680 2098 
Q 3938 1781 3938 1306 
Q 3938 681 3513 340 
Q 3088 0 2303 0 
L 628 0 
L 628 4666 
z
" transform="scale(0.015625)"/>
       <path id="DejaVuSans-4d" d="M 628 4666 
L 1569 4666 
L 2759 1491 
L 3956 4666 
L 4897 4666 
L 4897 0 
L 4281 0 
L 4281 4097 
L 3078 897 
L 2444 897 
L 1241 4097 
L 1241 0 
L 628 0 
L 628 4666 
z
" transform="scale(0.015625)"/>
       <path id="DejaVuSans-55" d="M 556 4666 
L 1191 4666 
L 1191 1831 
Q 1191 1081 1462 751 
Q 1734 422 2344 422 
Q 2950 422 3222 751 
Q 3494 1081 3494 1831 
L 3494 4666 
L 4128 4666 
L 4128 1753 
Q 4128 841 3676 375 
Q 3225 -91 2344 -91 
Q 1459 -91 1007 375 
Q 556 841 556 1753 
L 556 4666 
z
" transform="scale(0.015625)"/>
       <path id="DejaVuSans-3d" d="M 678 2906 
L 4684 2906 
L 4684 2381 
L 678 2381 
L 678 2906 
z
M 678 1631 
L 4684 1631 
L 4684 1100 
L 678 1100 
L 678 1631 
z
" transform="scale(0.015625)"/>
      </defs>
      <use xlink:href="#DejaVuSans-42"/>
      <use xlink:href="#DejaVuSans-6f" x="68.603516"/>
      <use xlink:href="#DejaVuSans-6e" x="129.785156"/>
      <use xlink:href="#DejaVuSans-65" x="193.164062"/>
      <use xlink:href="#DejaVuSans-20" x="254.6875"/>
      <use xlink:href="#DejaVuSans-4d" x="286.474609"/>
      <use xlink:href="#DejaVuSans-65" x="372.753906"/>
      <use xlink:href="#DejaVuSans-74" x="434.277344"/>
      <use xlink:href="#DejaVuSans-61" x="473.486328"/>
      <use xlink:href="#DejaVuSans-73" x="534.765625"/>
      <use xlink:href="#DejaVuSans-74" x="586.865234"/>
      <use xlink:href="#DejaVuSans-61" x="626.074219"/>
      <use xlink:href="#DejaVuSans-73" x="687.353516"/>
      <use xlink:href="#DejaVuSans-69" x="739.453125"/>
      <use xlink:href="#DejaVuSans-73" x="767.236328"/>
      <use xlink:href="#DejaVuSans-20" x="819.335938"/>
      <use xlink:href="#DejaVuSans-28" x="851.123047"/>
      <use xlink:href="#DejaVuSans-41" x="890.136719"/>
      <use xlink:href="#DejaVuSans-55" x="958.544922"/>
      <use xlink:href="#DejaVuSans-43" x="1031.738281"/>
      <use xlink:href="#DejaVuSans-20" x="1101.5625"/>
      <use xlink:href="#DejaVuSans-3d" x="1133.349609"/>
      <use xlink:href="#DejaVuSans-20" x="1217.138672"/>
      <use xlink:href="#DejaVuSans-30" x="1248.925781"/>
      <use xlink:href="#DejaVuSans-2e" x="1312.548828"/>
      <use xlink:href="#DejaVuSans-38" x="1344.335938"/>
      <use xlink:href="#DejaVuSans-36" x="1407.958984"/>
      <use xlink:href="#DejaVuSans-29" x="1471.582031"/>
     </g>
    </g>
    <g id="line2d_31">
     <path d="M 588.796875 596.864063 
L 598.796875 596.864063 
L 608.796875 596.864063 
" style="fill: none; stroke: #ff7f0e; stroke-width: 2; stroke-linecap: square"/>
    </g>
    <g id="text_17">
     <!-- Lung Metastasis (AUC = 0.88) -->
     <g transform="translate(616.796875 600.364063) scale(0.1 -0.1)">
      <use xlink:href="#DejaVuSans-4c"/>
      <use xlink:href="#DejaVuSans-75" x="53.962891"/>
      <use xlink:href="#DejaVuSans-6e" x="117.341797"/>
      <use xlink:href="#DejaVuSans-67" x="180.720703"/>
      <use xlink:href="#DejaVuSans-20" x="244.197266"/>
      <use xlink:href="#DejaVuSans-4d" x="275.984375"/>
      <use xlink:href="#DejaVuSans-65" x="362.263672"/>
      <use xlink:href="#DejaVuSans-74" x="423.787109"/>
      <use xlink:href="#DejaVuSans-61" x="462.996094"/>
      <use xlink:href="#DejaVuSans-73" x="524.275391"/>
      <use xlink:href="#DejaVuSans-74" x="576.375"/>
      <use xlink:href="#DejaVuSans-61" x="615.583984"/>
      <use xlink:href="#DejaVuSans-73" x="676.863281"/>
      <use xlink:href="#DejaVuSans-69" x="728.962891"/>
      <use xlink:href="#DejaVuSans-73" x="756.746094"/>
      <use xlink:href="#DejaVuSans-20" x="808.845703"/>
      <use xlink:href="#DejaVuSans-28" x="840.632812"/>
      <use xlink:href="#DejaVuSans-41" x="879.646484"/>
      <use xlink:href="#DejaVuSans-55" x="948.054688"/>
      <use xlink:href="#DejaVuSans-43" x="1021.248047"/>
      <use xlink:href="#DejaVuSans-20" x="1091.072266"/>
      <use xlink:href="#DejaVuSans-3d" x="1122.859375"/>
      <use xlink:href="#DejaVuSans-20" x="1206.648438"/>
      <use xlink:href="#DejaVuSans-30" x="1238.435547"/>
      <use xlink:href="#DejaVuSans-2e" x="1302.058594"/>
      <use xlink:href="#DejaVuSans-38" x="1333.845703"/>
      <use xlink:href="#DejaVuSans-38" x="1397.46875"/>
      <use xlink:href="#DejaVuSans-29" x="1461.091797"/>
     </g>
    </g>
    <g id="line2d_32">
     <path d="M 588.796875 611.542188 
L 598.796875 611.542188 
L 608.796875 611.542188 
" style="fill: none; stroke: #2ca02c; stroke-width: 2; stroke-linecap: square"/>
    </g>
    <g id="text_18">
     <!-- Liver Metastasis (AUC = 0.87) -->
     <g transform="translate(616.796875 615.042188) scale(0.1 -0.1)">
      <defs>
       <path id="DejaVuSans-37" d="M 525 4666 
L 3525 4666 
L 3525 4397 
L 1831 0 
L 1172 0 
L 2766 4134 
L 525 4134 
L 525 4666 
z
" transform="scale(0.015625)"/>
      </defs>
      <use xlink:href="#DejaVuSans-4c"/>
      <use xlink:href="#DejaVuSans-69" x="55.712891"/>
      <use xlink:href="#DejaVuSans-76" x="83.496094"/>
      <use xlink:href="#DejaVuSans-65" x="142.675781"/>
      <use xlink:href="#DejaVuSans-72" x="204.199219"/>
      <use xlink:href="#DejaVuSans-20" x="245.3125"/>
      <use xlink:href="#DejaVuSans-4d" x="277.099609"/>
      <use xlink:href="#DejaVuSans-65" x="363.378906"/>
      <use xlink:href="#DejaVuSans-74" x="424.902344"/>
      <use xlink:href="#DejaVuSans-61" x="464.111328"/>
      <use xlink:href="#DejaVuSans-73" x="525.390625"/>
      <use xlink:href="#DejaVuSans-74" x="577.490234"/>
      <use xlink:href="#DejaVuSans-61" x="616.699219"/>
      <use xlink:href="#DejaVuSans-73" x="677.978516"/>
      <use xlink:href="#DejaVuSans-69" x="730.078125"/>
      <use xlink:href="#DejaVuSans-73" x="757.861328"/>
      <use xlink:href="#DejaVuSans-20" x="809.960938"/>
      <use xlink:href="#DejaVuSans-28" x="841.748047"/>
      <use xlink:href="#DejaVuSans-41" x="880.761719"/>
      <use xlink:href="#DejaVuSans-55" x="949.169922"/>
      <use xlink:href="#DejaVuSans-43" x="1022.363281"/>
      <use xlink:href="#DejaVuSans-20" x="1092.1875"/>
      <use xlink:href="#DejaVuSans-3d" x="1123.974609"/>
      <use xlink:href="#DejaVuSans-20" x="1207.763672"/>
      <use xlink:href="#DejaVuSans-30" x="1239.550781"/>
      <use xlink:href="#DejaVuSans-2e" x="1303.173828"/>
      <use xlink:href="#DejaVuSans-38" x="1334.960938"/>
      <use xlink:href="#DejaVuSans-37" x="1398.583984"/>
      <use xlink:href="#DejaVuSans-29" x="1462.207031"/>
     </g>
    </g>
    <g id="line2d_33">
     <path d="M 588.796875 626.220313 
L 598.796875 626.220313 
L 608.796875 626.220313 
" style="fill: none; stroke: #d62728; stroke-width: 2; stroke-linecap: square"/>
    </g>
    <g id="text_19">
     <!-- Brain Metastasis (AUC = 0.93) -->
     <g transform="translate(616.796875 629.720313) scale(0.1 -0.1)">
      <defs>
       <path id="DejaVuSans-39" d="M 703 97 
L 703 672 
Q 941 559 1184 500 
Q 1428 441 1663 441 
Q 2288 441 2617 861 
Q 2947 1281 2994 2138 
Q 2813 1869 2534 1725 
Q 2256 1581 1919 1581 
Q 1219 1581 811 2004 
Q 403 2428 403 3163 
Q 403 3881 828 4315 
Q 1253 4750 1959 4750 
Q 2769 4750 3195 4129 
Q 3622 3509 3622 2328 
Q 3622 1225 3098 567 
Q 2575 -91 1691 -91 
Q 1453 -91 1209 -44 
Q 966 3 703 97 
z
M 1959 2075 
Q 2384 2075 2632 2365 
Q 2881 2656 2881 3163 
Q 2881 3666 2632 3958 
Q 2384 4250 1959 4250 
Q 1534 4250 1286 3958 
Q 1038 3666 1038 3163 
Q 1038 2656 1286 2365 
Q 1534 2075 1959 2075 
z
" transform="scale(0.015625)"/>
       <path id="DejaVuSans-33" d="M 2597 2516 
Q 3050 2419 3304 2112 
Q 3559 1806 3559 1356 
Q 3559 666 3084 287 
Q 2609 -91 1734 -91 
Q 1441 -91 1130 -33 
Q 819 25 488 141 
L 488 750 
Q 750 597 1062 519 
Q 1375 441 1716 441 
Q 2309 441 2620 675 
Q 2931 909 2931 1356 
Q 2931 1769 2642 2001 
Q 2353 2234 1838 2234 
L 1294 2234 
L 1294 2753 
L 1863 2753 
Q 2328 2753 2575 2939 
Q 2822 3125 2822 3475 
Q 2822 3834 2567 4026 
Q 2313 4219 1838 4219 
Q 1578 4219 1281 4162 
Q 984 4106 628 3988 
L 628 4550 
Q 988 4650 1302 4700 
Q 1616 4750 1894 4750 
Q 2613 4750 3031 4423 
Q 3450 4097 3450 3541 
Q 3450 3153 3228 2886 
Q 3006 2619 2597 2516 
z
" transform="scale(0.015625)"/>
      </defs>
      <use xlink:href="#DejaVuSans-42"/>
      <use xlink:href="#DejaVuSans-72" x="68.603516"/>
      <use xlink:href="#DejaVuSans-61" x="109.716797"/>
      <use xlink:href="#DejaVuSans-69" x="170.996094"/>
      <use xlink:href="#DejaVuSans-6e" x="198.779297"/>
      <use xlink:href="#DejaVuSans-20" x="262.158203"/>
      <use xlink:href="#DejaVuSans-4d" x="293.945312"/>
      <use xlink:href="#DejaVuSans-65" x="380.224609"/>
      <use xlink:href="#DejaVuSans-74" x="441.748047"/>
      <use xlink:href="#DejaVuSans-61" x="480.957031"/>
      <use xlink:href="#DejaVuSans-73" x="542.236328"/>
      <use xlink:href="#DejaVuSans-74" x="594.335938"/>
      <use xlink:href="#DejaVuSans-61" x="633.544922"/>
      <use xlink:href="#DejaVuSans-73" x="694.824219"/>
      <use xlink:href="#DejaVuSans-69" x="746.923828"/>
      <use xlink:href="#DejaVuSans-73" x="774.707031"/>
      <use xlink:href="#DejaVuSans-20" x="826.806641"/>
      <use xlink:href="#DejaVuSans-28" x="858.59375"/>
      <use xlink:href="#DejaVuSans-41" x="897.607422"/>
      <use xlink:href="#DejaVuSans-55" x="966.015625"/>
      <use xlink:href="#DejaVuSans-43" x="1039.208984"/>
      <use xlink:href="#DejaVuSans-20" x="1109.033203"/>
      <use xlink:href="#DejaVuSans-3d" x="1140.820312"/>
      <use xlink:href="#DejaVuSans-20" x="1224.609375"/>
      <use xlink:href="#DejaVuSans-30" x="1256.396484"/>
      <use xlink:href="#DejaVuSans-2e" x="1320.019531"/>
      <use xlink:href="#DejaVuSans-39" x="1351.806641"/>
      <use xlink:href="#DejaVuSans-33" x="1415.429688"/>
      <use xlink:href="#DejaVuSans-29" x="1479.052734"/>
     </g>
    </g>
   </g>
  </g>
 </g>
 <defs>
  <clipPath id="p2f83fcf4c5">
   <rect x="108" y="86.4" width="669.6" height="554.4"/>
  </clipPath>
 </defs>
</svg>
