<?xml version="1.0" encoding="utf-8" standalone="no"?>
<!DOCTYPE svg PUBLIC "-//W3C//DTD SVG 1.1//EN"
  "http://www.w3.org/Graphics/SVG/1.1/DTD/svg11.dtd">
<svg xmlns:xlink="http://www.w3.org/1999/xlink" width="864pt" height="720pt" viewBox="0 0 864 720" xmlns="http://www.w3.org/2000/svg" version="1.1">
 <metadata>
  <rdf:RDF xmlns:dc="http://purl.org/dc/elements/1.1/" xmlns:cc="http://creativecommons.org/ns#" xmlns:rdf="http://www.w3.org/1999/02/22-rdf-syntax-ns#">
   <cc:Work>
    <dc:type rdf:resource="http://purl.org/dc/dcmitype/StillImage"/>
    <dc:date>2024-05-31T18:24:55.865793</dc:date>
    <dc:format>image/svg+xml</dc:format>
    <dc:creator>
     <cc:Agent>
      <dc:title>Matplotlib v3.7.1, https://matplotlib.org/</dc:title>
     </cc:Agent>
    </dc:creator>
   </cc:Work>
  </rdf:RDF>
 </metadata>
 <defs>
  <style type="text/css">*{stroke-linejoin: round; stroke-linecap: butt}</style>
 </defs>
 <g id="figure_1">
  <g id="patch_1">
   <path d="M 0 720 
L 864 720 
L 864 0 
L 0 0 
z
" style="fill: #ffffff"/>
  </g>
  <g id="axes_1">
   <g id="patch_2">
    <path d="M 108 640.8 
L 777.6 640.8 
L 777.6 86.4 
L 108 86.4 
z
" style="fill: #ffffff"/>
   </g>
   <g id="matplotlib.axis_1">
    <g id="xtick_1">
     <g id="line2d_1">
      <path d="M 138.436364 640.8 
L 138.436364 86.4 
" clip-path="url(#pc170f55c55)" style="fill: none; stroke: #b0b0b0; stroke-width: 0.8; stroke-linecap: square"/>
     </g>
     <g id="line2d_2">
      <defs>
       <path id="ma4082c2bee" d="M 0 0 
L 0 3.5 
" style="stroke: #000000; stroke-width: 0.8"/>
      </defs>
      <g>
       <use xlink:href="#ma4082c2bee" x="138.436364" y="640.8" style="stroke: #000000; stroke-width: 0.8"/>
      </g>
     </g>
     <g id="text_1">
      <!-- 0.0 -->
      <g transform="translate(130.484801 655.398438) scale(0.1 -0.1)">
       <defs>
        <path id="DejaVuSans-30" d="M 2034 4250 
Q 1547 4250 1301 3770 
Q 1056 3291 1056 2328 
Q 1056 1369 1301 889 
Q 1547 409 2034 409 
Q 2525 409 2770 889 
Q 3016 1369 3016 2328 
Q 3016 3291 2770 3770 
Q 2525 4250 2034 4250 
z
M 2034 4750 
Q 2819 4750 3233 4129 
Q 3647 3509 3647 2328 
Q 3647 1150 3233 529 
Q 2819 -91 2034 -91 
Q 1250 -91 836 529 
Q 422 1150 422 2328 
Q 422 3509 836 4129 
Q 1250 4750 2034 4750 
z
" transform="scale(0.015625)"/>
        <path id="DejaVuSans-2e" d="M 684 794 
L 1344 794 
L 1344 0 
L 684 0 
L 684 794 
z
" transform="scale(0.015625)"/>
       </defs>
       <use xlink:href="#DejaVuSans-30"/>
       <use xlink:href="#DejaVuSans-2e" x="63.623047"/>
       <use xlink:href="#DejaVuSans-30" x="95.410156"/>
      </g>
     </g>
    </g>
    <g id="xtick_2">
     <g id="line2d_3">
      <path d="M 260.181818 640.8 
L 260.181818 86.4 
" clip-path="url(#pc170f55c55)" style="fill: none; stroke: #b0b0b0; stroke-width: 0.8; stroke-linecap: square"/>
     </g>
     <g id="line2d_4">
      <g>
       <use xlink:href="#ma4082c2bee" x="260.181818" y="640.8" style="stroke: #000000; stroke-width: 0.8"/>
      </g>
     </g>
     <g id="text_2">
      <!-- 0.2 -->
      <g transform="translate(252.230256 655.398438) scale(0.1 -0.1)">
       <defs>
        <path id="DejaVuSans-32" d="M 1228 531 
L 3431 531 
L 3431 0 
L 469 0 
L 469 531 
Q 828 903 1448 1529 
Q 2069 2156 2228 2338 
Q 2531 2678 2651 2914 
Q 2772 3150 2772 3378 
Q 2772 3750 2511 3984 
Q 2250 4219 1831 4219 
Q 1534 4219 1204 4116 
Q 875 4013 500 3803 
L 500 4441 
Q 881 4594 1212 4672 
Q 1544 4750 1819 4750 
Q 2544 4750 2975 4387 
Q 3406 4025 3406 3419 
Q 3406 3131 3298 2873 
Q 3191 2616 2906 2266 
Q 2828 2175 2409 1742 
Q 1991 1309 1228 531 
z
" transform="scale(0.015625)"/>
       </defs>
       <use xlink:href="#DejaVuSans-30"/>
       <use xlink:href="#DejaVuSans-2e" x="63.623047"/>
       <use xlink:href="#DejaVuSans-32" x="95.410156"/>
      </g>
     </g>
    </g>
    <g id="xtick_3">
     <g id="line2d_5">
      <path d="M 381.927273 640.8 
L 381.927273 86.4 
" clip-path="url(#pc170f55c55)" style="fill: none; stroke: #b0b0b0; stroke-width: 0.8; stroke-linecap: square"/>
     </g>
     <g id="line2d_6">
      <g>
       <use xlink:href="#ma4082c2bee" x="381.927273" y="640.8" style="stroke: #000000; stroke-width: 0.8"/>
      </g>
     </g>
     <g id="text_3">
      <!-- 0.4 -->
      <g transform="translate(373.97571 655.398438) scale(0.1 -0.1)">
       <defs>
        <path id="DejaVuSans-34" d="M 2419 4116 
L 825 1625 
L 2419 1625 
L 2419 4116 
z
M 2253 4666 
L 3047 4666 
L 3047 1625 
L 3713 1625 
L 3713 1100 
L 3047 1100 
L 3047 0 
L 2419 0 
L 2419 1100 
L 313 1100 
L 313 1709 
L 2253 4666 
z
" transform="scale(0.015625)"/>
       </defs>
       <use xlink:href="#DejaVuSans-30"/>
       <use xlink:href="#DejaVuSans-2e" x="63.623047"/>
       <use xlink:href="#DejaVuSans-34" x="95.410156"/>
      </g>
     </g>
    </g>
    <g id="xtick_4">
     <g id="line2d_7">
      <path d="M 503.672727 640.8 
L 503.672727 86.4 
" clip-path="url(#pc170f55c55)" style="fill: none; stroke: #b0b0b0; stroke-width: 0.8; stroke-linecap: square"/>
     </g>
     <g id="line2d_8">
      <g>
       <use xlink:href="#ma4082c2bee" x="503.672727" y="640.8" style="stroke: #000000; stroke-width: 0.8"/>
      </g>
     </g>
     <g id="text_4">
      <!-- 0.6 -->
      <g transform="translate(495.721165 655.398438) scale(0.1 -0.1)">
       <defs>
        <path id="DejaVuSans-36" d="M 2113 2584 
Q 1688 2584 1439 2293 
Q 1191 2003 1191 1497 
Q 1191 994 1439 701 
Q 1688 409 2113 409 
Q 2538 409 2786 701 
Q 3034 994 3034 1497 
Q 3034 2003 2786 2293 
Q 2538 2584 2113 2584 
z
M 3366 4563 
L 3366 3988 
Q 3128 4100 2886 4159 
Q 2644 4219 2406 4219 
Q 1781 4219 1451 3797 
Q 1122 3375 1075 2522 
Q 1259 2794 1537 2939 
Q 1816 3084 2150 3084 
Q 2853 3084 3261 2657 
Q 3669 2231 3669 1497 
Q 3669 778 3244 343 
Q 2819 -91 2113 -91 
Q 1303 -91 875 529 
Q 447 1150 447 2328 
Q 447 3434 972 4092 
Q 1497 4750 2381 4750 
Q 2619 4750 2861 4703 
Q 3103 4656 3366 4563 
z
" transform="scale(0.015625)"/>
       </defs>
       <use xlink:href="#DejaVuSans-30"/>
       <use xlink:href="#DejaVuSans-2e" x="63.623047"/>
       <use xlink:href="#DejaVuSans-36" x="95.410156"/>
      </g>
     </g>
    </g>
    <g id="xtick_5">
     <g id="line2d_9">
      <path d="M 625.418182 640.8 
L 625.418182 86.4 
" clip-path="url(#pc170f55c55)" style="fill: none; stroke: #b0b0b0; stroke-width: 0.8; stroke-linecap: square"/>
     </g>
     <g id="line2d_10">
      <g>
       <use xlink:href="#ma4082c2bee" x="625.418182" y="640.8" style="stroke: #000000; stroke-width: 0.8"/>
      </g>
     </g>
     <g id="text_5">
      <!-- 0.8 -->
      <g transform="translate(617.466619 655.398438) scale(0.1 -0.1)">
       <defs>
        <path id="DejaVuSans-38" d="M 2034 2216 
Q 1584 2216 1326 1975 
Q 1069 1734 1069 1313 
Q 1069 891 1326 650 
Q 1584 409 2034 409 
Q 2484 409 2743 651 
Q 3003 894 3003 1313 
Q 3003 1734 2745 1975 
Q 2488 2216 2034 2216 
z
M 1403 2484 
Q 997 2584 770 2862 
Q 544 3141 544 3541 
Q 544 4100 942 4425 
Q 1341 4750 2034 4750 
Q 2731 4750 3128 4425 
Q 3525 4100 3525 3541 
Q 3525 3141 3298 2862 
Q 3072 2584 2669 2484 
Q 3125 2378 3379 2068 
Q 3634 1759 3634 1313 
Q 3634 634 3220 271 
Q 2806 -91 2034 -91 
Q 1263 -91 848 271 
Q 434 634 434 1313 
Q 434 1759 690 2068 
Q 947 2378 1403 2484 
z
M 1172 3481 
Q 1172 3119 1398 2916 
Q 1625 2713 2034 2713 
Q 2441 2713 2670 2916 
Q 2900 3119 2900 3481 
Q 2900 3844 2670 4047 
Q 2441 4250 2034 4250 
Q 1625 4250 1398 4047 
Q 1172 3844 1172 3481 
z
" transform="scale(0.015625)"/>
       </defs>
       <use xlink:href="#DejaVuSans-30"/>
       <use xlink:href="#DejaVuSans-2e" x="63.623047"/>
       <use xlink:href="#DejaVuSans-38" x="95.410156"/>
      </g>
     </g>
    </g>
    <g id="xtick_6">
     <g id="line2d_11">
      <path d="M 747.163636 640.8 
L 747.163636 86.4 
" clip-path="url(#pc170f55c55)" style="fill: none; stroke: #b0b0b0; stroke-width: 0.8; stroke-linecap: square"/>
     </g>
     <g id="line2d_12">
      <g>
       <use xlink:href="#ma4082c2bee" x="747.163636" y="640.8" style="stroke: #000000; stroke-width: 0.8"/>
      </g>
     </g>
     <g id="text_6">
      <!-- 1.0 -->
      <g transform="translate(739.212074 655.398438) scale(0.1 -0.1)">
       <defs>
        <path id="DejaVuSans-31" d="M 794 531 
L 1825 531 
L 1825 4091 
L 703 3866 
L 703 4441 
L 1819 4666 
L 2450 4666 
L 2450 531 
L 3481 531 
L 3481 0 
L 794 0 
L 794 531 
z
" transform="scale(0.015625)"/>
       </defs>
       <use xlink:href="#DejaVuSans-31"/>
       <use xlink:href="#DejaVuSans-2e" x="63.623047"/>
       <use xlink:href="#DejaVuSans-30" x="95.410156"/>
      </g>
     </g>
    </g>
    <g id="text_7">
     <!-- False Positive Rate -->
     <g transform="translate(396.333594 669.076563) scale(0.1 -0.1)">
      <defs>
       <path id="DejaVuSans-46" d="M 628 4666 
L 3309 4666 
L 3309 4134 
L 1259 4134 
L 1259 2759 
L 3109 2759 
L 3109 2228 
L 1259 2228 
L 1259 0 
L 628 0 
L 628 4666 
z
" transform="scale(0.015625)"/>
       <path id="DejaVuSans-61" d="M 2194 1759 
Q 1497 1759 1228 1600 
Q 959 1441 959 1056 
Q 959 750 1161 570 
Q 1363 391 1709 391 
Q 2188 391 2477 730 
Q 2766 1069 2766 1631 
L 2766 1759 
L 2194 1759 
z
M 3341 1997 
L 3341 0 
L 2766 0 
L 2766 531 
Q 2569 213 2275 61 
Q 1981 -91 1556 -91 
Q 1019 -91 701 211 
Q 384 513 384 1019 
Q 384 1609 779 1909 
Q 1175 2209 1959 2209 
L 2766 2209 
L 2766 2266 
Q 2766 2663 2505 2880 
Q 2244 3097 1772 3097 
Q 1472 3097 1187 3025 
Q 903 2953 641 2809 
L 641 3341 
Q 956 3463 1253 3523 
Q 1550 3584 1831 3584 
Q 2591 3584 2966 3190 
Q 3341 2797 3341 1997 
z
" transform="scale(0.015625)"/>
       <path id="DejaVuSans-6c" d="M 603 4863 
L 1178 4863 
L 1178 0 
L 603 0 
L 603 4863 
z
" transform="scale(0.015625)"/>
       <path id="DejaVuSans-73" d="M 2834 3397 
L 2834 2853 
Q 2591 2978 2328 3040 
Q 2066 3103 1784 3103 
Q 1356 3103 1142 2972 
Q 928 2841 928 2578 
Q 928 2378 1081 2264 
Q 1234 2150 1697 2047 
L 1894 2003 
Q 2506 1872 2764 1633 
Q 3022 1394 3022 966 
Q 3022 478 2636 193 
Q 2250 -91 1575 -91 
Q 1294 -91 989 -36 
Q 684 19 347 128 
L 347 722 
Q 666 556 975 473 
Q 1284 391 1588 391 
Q 1994 391 2212 530 
Q 2431 669 2431 922 
Q 2431 1156 2273 1281 
Q 2116 1406 1581 1522 
L 1381 1569 
Q 847 1681 609 1914 
Q 372 2147 372 2553 
Q 372 3047 722 3315 
Q 1072 3584 1716 3584 
Q 2034 3584 2315 3537 
Q 2597 3491 2834 3397 
z
" transform="scale(0.015625)"/>
       <path id="DejaVuSans-65" d="M 3597 1894 
L 3597 1613 
L 953 1613 
Q 991 1019 1311 708 
Q 1631 397 2203 397 
Q 2534 397 2845 478 
Q 3156 559 3463 722 
L 3463 178 
Q 3153 47 2828 -22 
Q 2503 -91 2169 -91 
Q 1331 -91 842 396 
Q 353 884 353 1716 
Q 353 2575 817 3079 
Q 1281 3584 2069 3584 
Q 2775 3584 3186 3129 
Q 3597 2675 3597 1894 
z
M 3022 2063 
Q 3016 2534 2758 2815 
Q 2500 3097 2075 3097 
Q 1594 3097 1305 2825 
Q 1016 2553 972 2059 
L 3022 2063 
z
" transform="scale(0.015625)"/>
       <path id="DejaVuSans-20" transform="scale(0.015625)"/>
       <path id="DejaVuSans-50" d="M 1259 4147 
L 1259 2394 
L 2053 2394 
Q 2494 2394 2734 2622 
Q 2975 2850 2975 3272 
Q 2975 3691 2734 3919 
Q 2494 4147 2053 4147 
L 1259 4147 
z
M 628 4666 
L 2053 4666 
Q 2838 4666 3239 4311 
Q 3641 3956 3641 3272 
Q 3641 2581 3239 2228 
Q 2838 1875 2053 1875 
L 1259 1875 
L 1259 0 
L 628 0 
L 628 4666 
z
" transform="scale(0.015625)"/>
       <path id="DejaVuSans-6f" d="M 1959 3097 
Q 1497 3097 1228 2736 
Q 959 2375 959 1747 
Q 959 1119 1226 758 
Q 1494 397 1959 397 
Q 2419 397 2687 759 
Q 2956 1122 2956 1747 
Q 2956 2369 2687 2733 
Q 2419 3097 1959 3097 
z
M 1959 3584 
Q 2709 3584 3137 3096 
Q 3566 2609 3566 1747 
Q 3566 888 3137 398 
Q 2709 -91 1959 -91 
Q 1206 -91 779 398 
Q 353 888 353 1747 
Q 353 2609 779 3096 
Q 1206 3584 1959 3584 
z
" transform="scale(0.015625)"/>
       <path id="DejaVuSans-69" d="M 603 3500 
L 1178 3500 
L 1178 0 
L 603 0 
L 603 3500 
z
M 603 4863 
L 1178 4863 
L 1178 4134 
L 603 4134 
L 603 4863 
z
" transform="scale(0.015625)"/>
       <path id="DejaVuSans-74" d="M 1172 4494 
L 1172 3500 
L 2356 3500 
L 2356 3053 
L 1172 3053 
L 1172 1153 
Q 1172 725 1289 603 
Q 1406 481 1766 481 
L 2356 481 
L 2356 0 
L 1766 0 
Q 1100 0 847 248 
Q 594 497 594 1153 
L 594 3053 
L 172 3053 
L 172 3500 
L 594 3500 
L 594 4494 
L 1172 4494 
z
" transform="scale(0.015625)"/>
       <path id="DejaVuSans-76" d="M 191 3500 
L 800 3500 
L 1894 563 
L 2988 3500 
L 3597 3500 
L 2284 0 
L 1503 0 
L 191 3500 
z
" transform="scale(0.015625)"/>
       <path id="DejaVuSans-52" d="M 2841 2188 
Q 3044 2119 3236 1894 
Q 3428 1669 3622 1275 
L 4263 0 
L 3584 0 
L 2988 1197 
Q 2756 1666 2539 1819 
Q 2322 1972 1947 1972 
L 1259 1972 
L 1259 0 
L 628 0 
L 628 4666 
L 2053 4666 
Q 2853 4666 3247 4331 
Q 3641 3997 3641 3322 
Q 3641 2881 3436 2590 
Q 3231 2300 2841 2188 
z
M 1259 4147 
L 1259 2491 
L 2053 2491 
Q 2509 2491 2742 2702 
Q 2975 2913 2975 3322 
Q 2975 3731 2742 3939 
Q 2509 4147 2053 4147 
L 1259 4147 
z
" transform="scale(0.015625)"/>
      </defs>
      <use xlink:href="#DejaVuSans-46"/>
      <use xlink:href="#DejaVuSans-61" x="48.394531"/>
      <use xlink:href="#DejaVuSans-6c" x="109.673828"/>
      <use xlink:href="#DejaVuSans-73" x="137.457031"/>
      <use xlink:href="#DejaVuSans-65" x="189.556641"/>
      <use xlink:href="#DejaVuSans-20" x="251.080078"/>
      <use xlink:href="#DejaVuSans-50" x="282.867188"/>
      <use xlink:href="#DejaVuSans-6f" x="339.544922"/>
      <use xlink:href="#DejaVuSans-73" x="400.726562"/>
      <use xlink:href="#DejaVuSans-69" x="452.826172"/>
      <use xlink:href="#DejaVuSans-74" x="480.609375"/>
      <use xlink:href="#DejaVuSans-69" x="519.818359"/>
      <use xlink:href="#DejaVuSans-76" x="547.601562"/>
      <use xlink:href="#DejaVuSans-65" x="606.78125"/>
      <use xlink:href="#DejaVuSans-20" x="668.304688"/>
      <use xlink:href="#DejaVuSans-52" x="700.091797"/>
      <use xlink:href="#DejaVuSans-61" x="767.324219"/>
      <use xlink:href="#DejaVuSans-74" x="828.603516"/>
      <use xlink:href="#DejaVuSans-65" x="867.8125"/>
     </g>
    </g>
   </g>
   <g id="matplotlib.axis_2">
    <g id="ytick_1">
     <g id="line2d_13">
      <path d="M 108 615.6 
L 777.6 615.6 
" clip-path="url(#pc170f55c55)" style="fill: none; stroke: #b0b0b0; stroke-width: 0.8; stroke-linecap: square"/>
     </g>
     <g id="line2d_14">
      <defs>
       <path id="me55f4c6d3b" d="M 0 0 
L -3.5 0 
" style="stroke: #000000; stroke-width: 0.8"/>
      </defs>
      <g>
       <use xlink:href="#me55f4c6d3b" x="108" y="615.6" style="stroke: #000000; stroke-width: 0.8"/>
      </g>
     </g>
     <g id="text_8">
      <!-- 0.0 -->
      <g transform="translate(85.096875 619.399219) scale(0.1 -0.1)">
       <use xlink:href="#DejaVuSans-30"/>
       <use xlink:href="#DejaVuSans-2e" x="63.623047"/>
       <use xlink:href="#DejaVuSans-30" x="95.410156"/>
      </g>
     </g>
    </g>
    <g id="ytick_2">
     <g id="line2d_15">
      <path d="M 108 514.8 
L 777.6 514.8 
" clip-path="url(#pc170f55c55)" style="fill: none; stroke: #b0b0b0; stroke-width: 0.8; stroke-linecap: square"/>
     </g>
     <g id="line2d_16">
      <g>
       <use xlink:href="#me55f4c6d3b" x="108" y="514.8" style="stroke: #000000; stroke-width: 0.8"/>
      </g>
     </g>
     <g id="text_9">
      <!-- 0.2 -->
      <g transform="translate(85.096875 518.599219) scale(0.1 -0.1)">
       <use xlink:href="#DejaVuSans-30"/>
       <use xlink:href="#DejaVuSans-2e" x="63.623047"/>
       <use xlink:href="#DejaVuSans-32" x="95.410156"/>
      </g>
     </g>
    </g>
    <g id="ytick_3">
     <g id="line2d_17">
      <path d="M 108 414 
L 777.6 414 
" clip-path="url(#pc170f55c55)" style="fill: none; stroke: #b0b0b0; stroke-width: 0.8; stroke-linecap: square"/>
     </g>
     <g id="line2d_18">
      <g>
       <use xlink:href="#me55f4c6d3b" x="108" y="414" style="stroke: #000000; stroke-width: 0.8"/>
      </g>
     </g>
     <g id="text_10">
      <!-- 0.4 -->
      <g transform="translate(85.096875 417.799219) scale(0.1 -0.1)">
       <use xlink:href="#DejaVuSans-30"/>
       <use xlink:href="#DejaVuSans-2e" x="63.623047"/>
       <use xlink:href="#DejaVuSans-34" x="95.410156"/>
      </g>
     </g>
    </g>
    <g id="ytick_4">
     <g id="line2d_19">
      <path d="M 108 313.2 
L 777.6 313.2 
" clip-path="url(#pc170f55c55)" style="fill: none; stroke: #b0b0b0; stroke-width: 0.8; stroke-linecap: square"/>
     </g>
     <g id="line2d_20">
      <g>
       <use xlink:href="#me55f4c6d3b" x="108" y="313.2" style="stroke: #000000; stroke-width: 0.8"/>
      </g>
     </g>
     <g id="text_11">
      <!-- 0.6 -->
      <g transform="translate(85.096875 316.999219) scale(0.1 -0.1)">
       <use xlink:href="#DejaVuSans-30"/>
       <use xlink:href="#DejaVuSans-2e" x="63.623047"/>
       <use xlink:href="#DejaVuSans-36" x="95.410156"/>
      </g>
     </g>
    </g>
    <g id="ytick_5">
     <g id="line2d_21">
      <path d="M 108 212.4 
L 777.6 212.4 
" clip-path="url(#pc170f55c55)" style="fill: none; stroke: #b0b0b0; stroke-width: 0.8; stroke-linecap: square"/>
     </g>
     <g id="line2d_22">
      <g>
       <use xlink:href="#me55f4c6d3b" x="108" y="212.4" style="stroke: #000000; stroke-width: 0.8"/>
      </g>
     </g>
     <g id="text_12">
      <!-- 0.8 -->
      <g transform="translate(85.096875 216.199219) scale(0.1 -0.1)">
       <use xlink:href="#DejaVuSans-30"/>
       <use xlink:href="#DejaVuSans-2e" x="63.623047"/>
       <use xlink:href="#DejaVuSans-38" x="95.410156"/>
      </g>
     </g>
    </g>
    <g id="ytick_6">
     <g id="line2d_23">
      <path d="M 108 111.6 
L 777.6 111.6 
" clip-path="url(#pc170f55c55)" style="fill: none; stroke: #b0b0b0; stroke-width: 0.8; stroke-linecap: square"/>
     </g>
     <g id="line2d_24">
      <g>
       <use xlink:href="#me55f4c6d3b" x="108" y="111.6" style="stroke: #000000; stroke-width: 0.8"/>
      </g>
     </g>
     <g id="text_13">
      <!-- 1.0 -->
      <g transform="translate(85.096875 115.399219) scale(0.1 -0.1)">
       <use xlink:href="#DejaVuSans-31"/>
       <use xlink:href="#DejaVuSans-2e" x="63.623047"/>
       <use xlink:href="#DejaVuSans-30" x="95.410156"/>
      </g>
     </g>
    </g>
    <g id="text_14">
     <!-- True Positive Rate -->
     <g transform="translate(79.017187 408.129687) rotate(-90) scale(0.1 -0.1)">
      <defs>
       <path id="DejaVuSans-54" d="M -19 4666 
L 3928 4666 
L 3928 4134 
L 2272 4134 
L 2272 0 
L 1638 0 
L 1638 4134 
L -19 4134 
L -19 4666 
z
" transform="scale(0.015625)"/>
       <path id="DejaVuSans-72" d="M 2631 2963 
Q 2534 3019 2420 3045 
Q 2306 3072 2169 3072 
Q 1681 3072 1420 2755 
Q 1159 2438 1159 1844 
L 1159 0 
L 581 0 
L 581 3500 
L 1159 3500 
L 1159 2956 
Q 1341 3275 1631 3429 
Q 1922 3584 2338 3584 
Q 2397 3584 2469 3576 
Q 2541 3569 2628 3553 
L 2631 2963 
z
" transform="scale(0.015625)"/>
       <path id="DejaVuSans-75" d="M 544 1381 
L 544 3500 
L 1119 3500 
L 1119 1403 
Q 1119 906 1312 657 
Q 1506 409 1894 409 
Q 2359 409 2629 706 
Q 2900 1003 2900 1516 
L 2900 3500 
L 3475 3500 
L 3475 0 
L 2900 0 
L 2900 538 
Q 2691 219 2414 64 
Q 2138 -91 1772 -91 
Q 1169 -91 856 284 
Q 544 659 544 1381 
z
M 1991 3584 
L 1991 3584 
z
" transform="scale(0.015625)"/>
      </defs>
      <use xlink:href="#DejaVuSans-54"/>
      <use xlink:href="#DejaVuSans-72" x="46.333984"/>
      <use xlink:href="#DejaVuSans-75" x="87.447266"/>
      <use xlink:href="#DejaVuSans-65" x="150.826172"/>
      <use xlink:href="#DejaVuSans-20" x="212.349609"/>
      <use xlink:href="#DejaVuSans-50" x="244.136719"/>
      <use xlink:href="#DejaVuSans-6f" x="300.814453"/>
      <use xlink:href="#DejaVuSans-73" x="361.996094"/>
      <use xlink:href="#DejaVuSans-69" x="414.095703"/>
      <use xlink:href="#DejaVuSans-74" x="441.878906"/>
      <use xlink:href="#DejaVuSans-69" x="481.087891"/>
      <use xlink:href="#DejaVuSans-76" x="508.871094"/>
      <use xlink:href="#DejaVuSans-65" x="568.050781"/>
      <use xlink:href="#DejaVuSans-20" x="629.574219"/>
      <use xlink:href="#DejaVuSans-52" x="661.361328"/>
      <use xlink:href="#DejaVuSans-61" x="728.59375"/>
      <use xlink:href="#DejaVuSans-74" x="789.873047"/>
      <use xlink:href="#DejaVuSans-65" x="829.082031"/>
     </g>
    </g>
   </g>
   <g id="line2d_25">
    <path d="M 138.436364 615.6 
L 138.436364 596.763908 
L 138.737863 596.763908 
L 138.737863 581.964122 
L 139.039362 581.964122 
L 139.039362 574.967859 
L 139.340862 574.967859 
L 139.340862 518.728671 
L 139.642361 518.728671 
L 139.642361 516.575974 
L 139.943861 516.575974 
L 139.943861 502.852536 
L 140.24536 502.852536 
L 140.24536 500.161666 
L 140.546859 500.161666 
L 140.546859 442.038868 
L 140.848359 442.038868 
L 140.848359 430.737213 
L 141.149858 430.737213 
L 141.149858 421.588254 
L 141.451358 421.588254 
L 141.451358 420.511906 
L 141.752857 420.511906 
L 141.752857 419.973732 
L 142.054356 419.973732 
L 142.054356 418.628297 
L 142.355856 418.628297 
L 142.355856 413.515643 
L 142.657355 413.515643 
L 142.657355 389.297811 
L 142.958855 389.297811 
L 142.958855 347.051148 
L 143.260354 347.051148 
L 143.260354 346.782061 
L 143.561853 346.782061 
L 143.561853 340.593059 
L 143.863353 340.593059 
L 143.863353 336.287667 
L 144.164852 336.287667 
L 144.164852 331.175013 
L 144.466351 331.175013 
L 144.466351 328.215056 
L 144.767851 328.215056 
L 144.767851 318.258836 
L 145.06935 318.258836 
L 145.06935 295.655526 
L 145.37085 295.655526 
L 145.37085 288.390176 
L 145.672349 288.390176 
L 145.672349 288.121089 
L 145.973848 288.121089 
L 145.973848 282.739349 
L 146.275348 282.739349 
L 146.275348 280.586652 
L 146.576847 280.586652 
L 146.576847 280.317565 
L 146.878347 280.317565 
L 146.878347 270.361345 
L 147.179846 270.361345 
L 147.179846 267.670475 
L 147.782845 267.670475 
L 147.782845 256.36882 
L 148.084344 256.36882 
L 148.084344 249.641644 
L 148.385844 249.641644 
L 148.385844 249.372557 
L 148.988842 249.372557 
L 148.988842 246.4126 
L 149.290342 246.4126 
L 149.290342 237.263641 
L 149.591841 237.263641 
L 149.591841 235.918206 
L 150.19484 235.918206 
L 150.19484 232.689162 
L 150.496339 232.689162 
L 150.496339 223.002029 
L 150.797839 223.002029 
L 150.797839 221.925681 
L 151.099338 221.925681 
L 151.099338 220.311159 
L 151.400837 220.311159 
L 151.400837 220.042072 
L 151.702337 220.042072 
L 151.702337 219.23481 
L 152.003836 219.23481 
L 152.003836 217.620288 
L 152.305336 217.620288 
L 152.305336 217.351201 
L 153.209834 217.351201 
L 153.209834 217.082114 
L 153.511333 217.082114 
L 153.511333 214.391244 
L 153.812833 214.391244 
L 153.812833 212.507635 
L 154.114332 212.507635 
L 154.114332 207.125894 
L 154.415831 207.125894 
L 154.415831 205.780459 
L 154.717331 205.780459 
L 154.717331 204.704111 
L 155.01883 204.704111 
L 155.01883 204.435024 
L 155.32033 204.435024 
L 155.32033 199.053284 
L 155.621829 199.053284 
L 155.621829 189.635238 
L 155.923328 189.635238 
L 155.923328 186.137106 
L 156.526327 186.137106 
L 156.526327 185.060758 
L 157.129326 185.060758 
L 157.129326 183.98441 
L 157.430825 183.98441 
L 157.430825 183.177149 
L 158.033824 183.177149 
L 158.033824 177.795408 
L 158.335324 177.795408 
L 158.335324 176.988147 
L 158.636823 176.988147 
L 158.636823 173.759103 
L 158.938322 173.759103 
L 158.938322 172.413668 
L 159.239822 172.413668 
L 159.239822 172.144581 
L 159.541321 172.144581 
L 159.541321 169.991885 
L 160.14432 169.991885 
L 160.14432 164.07197 
L 160.445819 164.07197 
L 160.445819 162.188361 
L 160.747319 162.188361 
L 160.747319 157.075707 
L 161.048818 157.075707 
L 161.048818 156.80662 
L 161.350317 156.80662 
L 161.350317 155.461185 
L 161.651817 155.461185 
L 161.651817 154.923011 
L 161.953316 154.923011 
L 161.953316 152.770315 
L 162.254816 152.770315 
L 162.254816 152.232141 
L 164.063812 152.232141 
L 164.063812 151.693967 
L 164.365311 151.693967 
L 164.365311 150.079445 
L 164.666811 150.079445 
L 164.666811 147.388574 
L 164.96831 147.388574 
L 164.96831 145.235878 
L 165.26981 145.235878 
L 165.26981 144.697704 
L 165.571309 144.697704 
L 165.571309 144.15953 
L 166.777306 144.15953 
L 166.777306 143.890443 
L 167.078806 143.890443 
L 167.078806 143.621356 
L 167.983304 143.621356 
L 167.983304 143.352269 
L 168.284803 143.352269 
L 168.284803 143.083182 
L 168.887802 143.083182 
L 168.887802 142.545008 
L 170.395299 142.545008 
L 170.395299 142.275921 
L 171.902796 142.275921 
L 171.902796 142.006834 
L 173.410293 142.006834 
L 173.410293 141.737747 
L 174.013292 141.737747 
L 174.013292 141.199573 
L 174.91779 141.199573 
L 174.91779 140.392312 
L 175.219289 140.392312 
L 175.219289 140.123225 
L 176.123788 140.123225 
L 176.123788 139.854138 
L 177.028286 139.854138 
L 177.028286 139.585051 
L 178.535783 139.585051 
L 178.535783 139.315964 
L 181.249277 139.315964 
L 181.249277 139.046877 
L 184.264271 139.046877 
L 184.264271 138.77779 
L 187.580765 138.77779 
L 187.580765 138.508703 
L 187.882264 138.508703 
L 187.882264 138.239616 
L 188.485263 138.239616 
L 188.485263 137.970529 
L 189.389761 137.970529 
L 189.389761 137.701442 
L 193.007754 137.701442 
L 193.007754 137.432355 
L 194.515251 137.432355 
L 194.515251 137.163267 
L 197.530244 137.163267 
L 197.530244 136.89418 
L 200.846738 136.89418 
L 200.846738 136.625093 
L 204.163231 136.625093 
L 204.163231 136.356006 
L 209.89172 136.356006 
L 209.89172 136.086919 
L 216.826206 136.086919 
L 216.826206 135.817832 
L 217.429204 135.817832 
L 217.429204 135.548745 
L 220.142699 135.548745 
L 220.142699 135.279658 
L 229.187681 135.279658 
L 229.187681 135.010571 
L 237.931163 135.010571 
L 237.931163 134.472397 
L 240.946157 134.472397 
L 240.946157 134.20331 
L 242.453654 134.20331 
L 242.453654 133.934223 
L 248.483642 133.934223 
L 248.483642 133.665136 
L 257.227124 133.665136 
L 257.227124 133.396049 
L 265.367608 133.396049 
L 265.367608 133.126962 
L 267.176604 133.126962 
L 267.176604 132.857875 
L 271.397596 132.857875 
L 271.397596 132.588788 
L 282.553073 132.588788 
L 282.553073 132.319701 
L 291.598055 132.319701 
L 291.598055 132.050614 
L 295.517547 132.050614 
L 295.517547 131.781527 
L 300.944536 131.781527 
L 300.944536 131.51244 
L 301.547535 131.51244 
L 301.547535 130.705179 
L 308.180521 130.705179 
L 308.180521 130.436092 
L 314.210509 130.436092 
L 314.210509 130.167005 
L 315.115007 130.167005 
L 315.115007 129.897918 
L 331.094475 129.897918 
L 331.094475 129.628831 
L 337.124463 129.628831 
L 337.124463 129.359744 
L 338.028961 129.359744 
L 338.028961 129.090657 
L 338.63196 129.090657 
L 338.933459 128.82157 
L 340.742456 128.82157 
L 340.742456 128.552483 
L 345.867945 128.552483 
L 345.867945 128.283396 
L 350.993435 128.283396 
L 350.993435 128.014309 
L 351.596434 128.014309 
L 351.596434 127.745222 
L 364.560908 127.745222 
L 364.862407 127.476135 
L 365.465406 127.476135 
L 365.465406 127.207048 
L 369.083399 127.207048 
L 369.083399 126.93796 
L 375.113386 126.93796 
L 375.113386 126.668873 
L 384.459868 126.668873 
L 384.459868 126.130699 
L 396.821343 126.130699 
L 396.821343 125.861612 
L 406.770823 125.861612 
L 406.770823 125.592525 
L 407.675321 125.592525 
L 407.675321 125.323438 
L 410.690315 125.323438 
L 410.690315 125.054351 
L 411.293314 125.054351 
L 411.293314 124.785264 
L 419.132298 124.785264 
L 419.132298 124.516177 
L 420.036796 124.516177 
L 420.036796 124.24709 
L 431.493773 124.24709 
L 431.493773 123.978003 
L 441.443253 123.978003 
L 441.443253 123.708916 
L 442.046252 123.708916 
L 442.046252 123.439829 
L 442.64925 123.439829 
L 442.64925 123.170742 
L 445.664244 123.170742 
L 445.664244 122.632568 
L 447.77474 122.632568 
L 447.77474 122.363481 
L 464.960205 122.363481 
L 464.960205 122.094394 
L 467.975199 122.094394 
L 467.975199 121.825307 
L 469.482696 121.825307 
L 469.482696 121.55622 
L 479.733676 121.55622 
L 479.733676 121.287133 
L 483.050169 121.287133 
L 483.050169 121.018046 
L 484.557666 121.018046 
L 484.557666 120.748959 
L 485.160665 120.748959 
L 485.160665 120.479872 
L 486.969661 120.479872 
L 486.969661 120.210785 
L 492.999649 120.210785 
L 492.999649 119.941698 
L 503.250628 119.941698 
L 503.250628 119.672611 
L 514.104606 119.672611 
L 514.104606 119.403524 
L 515.612103 119.403524 
L 515.612103 119.134437 
L 518.024098 119.134437 
L 518.024098 118.86535 
L 518.325598 118.86535 
L 518.325598 118.596263 
L 540.938052 118.596263 
L 540.938052 118.327176 
L 541.541051 118.327176 
L 541.541051 118.058089 
L 555.108524 118.058089 
L 555.108524 117.789002 
L 560.234013 117.789002 
L 560.234013 117.519915 
L 562.04301 117.519915 
L 562.04301 117.250828 
L 568.374497 117.250828 
L 568.374497 116.981741 
L 575.911982 116.981741 
L 575.911982 116.712653 
L 600.031933 116.712653 
L 600.031933 116.443566 
L 624.453384 116.443566 
L 624.453384 116.174479 
L 639.528353 116.174479 
L 639.528353 115.905392 
L 664.552803 115.905392 
L 664.552803 115.636305 
L 667.567797 115.636305 
L 667.567797 115.367218 
L 675.105282 115.367218 
L 675.105282 115.098131 
L 678.120276 115.098131 
L 678.120276 114.829044 
L 685.054762 114.829044 
L 685.054762 114.559957 
L 690.481751 114.559957 
L 690.481751 114.29087 
L 698.320735 114.29087 
L 698.320735 114.021783 
L 704.049223 114.021783 
L 704.049223 113.752696 
L 709.777712 113.752696 
L 709.777712 113.483609 
L 712.189707 113.483609 
L 712.189707 113.214522 
L 721.536188 113.214522 
L 721.536188 112.945435 
L 723.646684 112.945435 
L 723.646684 112.676348 
L 729.073673 112.676348 
L 729.073673 112.407261 
L 733.294664 112.407261 
L 733.294664 112.138174 
L 741.736647 112.138174 
L 741.736647 111.869087 
L 742.942645 111.869087 
L 742.942645 111.6 
L 747.163636 111.6 
L 747.163636 111.6 
" clip-path="url(#pc170f55c55)" style="fill: none; stroke: #1f77b4; stroke-width: 2; stroke-linecap: square"/>
   </g>
   <g id="line2d_26">
    <path d="M 138.436364 615.6 
L 138.436364 528.955932 
L 139.09232 528.955932 
L 139.09232 510.040678 
L 139.748276 510.040678 
L 139.748276 472.820339 
L 140.404232 472.820339 
L 140.404232 466.108475 
L 141.060188 466.108475 
L 141.060188 449.023729 
L 141.716144 449.023729 
L 141.716144 440.481356 
L 142.3721 440.481356 
L 142.3721 429.498305 
L 143.028056 429.498305 
L 143.028056 424.00678 
L 143.684013 424.00678 
L 143.684013 420.345763 
L 144.339969 420.345763 
L 144.339969 413.023729 
L 144.995925 413.023729 
L 144.995925 371.532203 
L 145.651881 371.532203 
L 145.651881 361.769492 
L 146.307837 361.769492 
L 146.307837 352.616949 
L 146.963793 352.616949 
L 146.963793 306.244068 
L 147.619749 306.244068 
L 147.619749 303.19322 
L 148.275705 303.19322 
L 148.275705 301.972881 
L 148.931661 301.972881 
L 148.931661 285.498305 
L 149.587618 285.498305 
L 149.587618 284.888136 
L 150.243574 284.888136 
L 150.243574 284.277966 
L 150.89953 284.277966 
L 150.89953 245.837288 
L 151.555486 245.837288 
L 151.555486 244.00678 
L 152.211442 244.00678 
L 152.211442 233.633898 
L 152.867398 233.633898 
L 152.867398 225.701695 
L 153.523354 225.701695 
L 153.523354 222.040678 
L 154.17931 222.040678 
L 154.17931 208.00678 
L 155.491223 208.00678 
L 155.491223 198.244068 
L 156.803135 198.244068 
L 156.803135 187.871186 
L 157.459091 187.871186 
L 157.459091 185.430508 
L 159.426959 185.430508 
L 159.426959 184.820339 
L 160.082915 184.820339 
L 160.082915 180.549153 
L 160.738871 180.549153 
L 160.738871 179.938983 
L 161.394828 179.938983 
L 161.394828 176.277966 
L 162.70674 176.277966 
L 162.70674 171.39661 
L 164.018652 171.39661 
L 164.018652 168.955932 
L 164.674608 168.955932 
L 164.674608 156.142373 
L 165.98652 156.142373 
L 165.98652 155.532203 
L 166.642476 155.532203 
L 166.642476 153.701695 
L 167.298433 153.701695 
L 167.298433 153.091525 
L 167.954389 153.091525 
L 167.954389 151.261017 
L 168.610345 151.261017 
L 168.610345 150.040678 
L 169.266301 150.040678 
L 169.266301 148.820339 
L 169.922257 148.820339 
L 169.922257 144.549153 
L 170.578213 144.549153 
L 170.578213 143.938983 
L 171.234169 143.938983 
L 171.234169 142.718644 
L 171.890125 142.718644 
L 172.546082 142.108475 
L 174.51395 142.108475 
L 174.51395 140.888136 
L 175.169906 140.888136 
L 175.169906 135.39661 
L 175.825862 135.39661 
L 175.825862 134.786441 
L 177.79373 134.786441 
L 177.79373 134.176271 
L 178.449687 134.176271 
L 178.449687 131.125424 
L 179.105643 131.125424 
L 179.105643 130.515254 
L 180.417555 130.515254 
L 180.417555 129.294915 
L 186.977116 129.294915 
L 186.977116 128.684746 
L 193.536677 128.684746 
L 193.536677 128.074576 
L 196.160502 128.074576 
L 196.160502 126.854237 
L 197.472414 126.854237 
L 197.472414 125.633898 
L 200.096238 125.633898 
L 200.096238 125.023729 
L 202.720063 125.023729 
L 202.720063 124.413559 
L 203.376019 124.413559 
L 203.376019 123.80339 
L 232.238088 123.80339 
L 232.238088 123.19322 
L 236.173824 123.19322 
L 236.173824 122.583051 
L 244.045298 122.583051 
L 244.045298 121.972881 
L 249.948903 121.972881 
L 249.948903 121.362712 
L 259.788245 121.362712 
L 259.788245 120.752542 
L 270.939498 120.752542 
L 270.939498 120.142373 
L 288.650313 120.142373 
L 288.650313 119.532203 
L 337.191066 119.532203 
L 337.191066 118.922034 
L 365.397179 118.922034 
L 365.397179 118.311864 
L 368.676959 118.311864 
L 368.676959 117.701695 
L 425.089185 117.701695 
L 425.089185 117.091525 
L 434.272571 117.091525 
L 434.272571 116.481356 
L 492.652665 116.481356 
L 492.652665 115.871186 
L 507.739655 115.871186 
L 507.739655 115.261017 
L 514.299216 115.261017 
L 514.299216 114.650847 
L 525.45047 114.650847 
L 525.45047 114.040678 
L 540.537461 114.040678 
L 540.537461 113.430508 
L 543.817241 113.430508 
L 543.817241 112.820339 
L 587.110345 112.820339 
L 587.110345 112.210169 
L 665.825078 112.210169 
L 665.825078 111.6 
L 747.163636 111.6 
L 747.163636 111.6 
" clip-path="url(#pc170f55c55)" style="fill: none; stroke: #ff7f0e; stroke-width: 2; stroke-linecap: square"/>
   </g>
   <g id="line2d_27">
    <path d="M 138.436364 615.6 
L 138.436364 561.247059 
L 139.203023 561.247059 
L 139.203023 540.776471 
L 139.969682 540.776471 
L 139.969682 530.894118 
L 140.736341 530.894118 
L 140.736341 485.717647 
L 141.503 485.717647 
L 141.503 470.894118 
L 142.269659 470.894118 
L 142.269659 465.952941 
L 143.036318 465.952941 
L 143.036318 423.6 
L 143.802977 423.6 
L 143.802977 394.658824 
L 144.569636 394.658824 
L 144.569636 379.129412 
L 145.336295 379.129412 
L 145.336295 351.6 
L 146.102954 351.6 
L 146.102954 325.482353 
L 146.869613 325.482353 
L 146.869613 324.776471 
L 147.636272 324.776471 
L 147.636272 311.364706 
L 148.402931 311.364706 
L 148.402931 302.894118 
L 149.16959 302.894118 
L 149.16959 277.482353 
L 149.936249 277.482353 
L 149.936249 261.247059 
L 150.702908 261.247059 
L 150.702908 222.423529 
L 151.469567 222.423529 
L 151.469567 215.364706 
L 152.236226 215.364706 
L 152.236226 209.011765 
L 153.002885 209.011765 
L 153.002885 208.305882 
L 153.769544 208.305882 
L 153.769544 206.188235 
L 154.536203 206.188235 
L 154.536203 204.070588 
L 155.302862 204.070588 
L 155.302862 201.952941 
L 156.069521 201.952941 
L 156.069521 199.129412 
L 156.83618 199.129412 
L 156.83618 196.305882 
L 157.602839 196.305882 
L 157.602839 193.482353 
L 158.369499 193.482353 
L 158.369499 180.070588 
L 159.136158 180.070588 
L 159.136158 176.541176 
L 159.902817 176.541176 
L 159.902817 158.188235 
L 160.669476 158.188235 
L 160.669476 156.776471 
L 162.969453 156.776471 
L 162.969453 149.717647 
L 167.569407 149.717647 
L 167.569407 147.6 
L 169.102725 147.6 
L 169.102725 146.894118 
L 169.869384 146.894118 
L 169.869384 146.188235 
L 170.636043 146.188235 
L 170.636043 141.952941 
L 173.702679 141.952941 
L 173.702679 141.247059 
L 176.002656 141.247059 
L 176.002656 140.541176 
L 176.769315 140.541176 
L 176.769315 135.6 
L 178.302633 135.6 
L 178.302633 134.894118 
L 179.069292 134.894118 
L 179.069292 134.188235 
L 183.669247 134.188235 
L 183.669247 132.776471 
L 185.202565 132.776471 
L 185.202565 132.070588 
L 185.969224 132.070588 
L 185.969224 131.364706 
L 188.269201 131.364706 
L 188.269201 130.658824 
L 189.03586 130.658824 
L 189.03586 129.952941 
L 190.569178 129.952941 
L 190.569178 129.247059 
L 193.635814 129.247059 
L 193.635814 128.541176 
L 195.169132 128.541176 
L 195.169132 127.835294 
L 196.70245 127.835294 
L 196.70245 127.129412 
L 208.968995 127.129412 
L 208.968995 126.423529 
L 220.46888 126.423529 
L 220.46888 125.717647 
L 225.835493 125.717647 
L 225.835493 125.011765 
L 229.668789 125.011765 
L 229.668789 124.305882 
L 238.868697 124.305882 
L 238.868697 123.6 
L 248.835264 123.6 
L 248.835264 122.188235 
L 271.068376 122.188235 
L 271.068376 121.482353 
L 277.968308 121.482353 
L 277.968308 120.776471 
L 281.034944 120.776471 
L 281.034944 120.070588 
L 283.334921 120.070588 
L 283.334921 119.364706 
L 297.134784 119.364706 
L 297.134784 118.658824 
L 300.20142 118.658824 
L 300.20142 117.952941 
L 341.601008 117.952941 
L 341.601008 117.247059 
L 364.600779 117.247059 
L 364.600779 116.541176 
L 369.967392 116.541176 
L 369.967392 115.835294 
L 381.467277 115.835294 
L 381.467277 115.129412 
L 409.067003 115.129412 
L 409.067003 114.423529 
L 421.333547 114.423529 
L 421.333547 113.717647 
L 540.932356 113.717647 
L 540.932356 113.011765 
L 666.664438 113.011765 
L 666.664438 112.305882 
L 675.864346 112.305882 
L 675.864346 111.6 
L 747.163636 111.6 
L 747.163636 111.6 
" clip-path="url(#pc170f55c55)" style="fill: none; stroke: #2ca02c; stroke-width: 2; stroke-linecap: square"/>
   </g>
   <g id="line2d_28">
    <path d="M 138.436364 615.6 
L 138.436364 612.81547 
L 138.436364 470.80442 
L 141.449865 470.80442 
L 141.449865 459.666298 
L 144.463366 459.666298 
L 144.463366 431.820994 
L 147.476868 431.820994 
L 147.476868 406.760221 
L 150.490369 406.760221 
L 150.490369 398.40663 
L 153.50387 398.40663 
L 153.50387 367.776796 
L 156.517372 367.776796 
L 156.517372 331.577901 
L 159.530873 331.577901 
L 159.530873 261.964641 
L 162.544374 261.964641 
L 162.544374 231.334807 
L 165.557876 231.334807 
L 165.557876 178.428729 
L 168.571377 178.428729 
L 168.571377 172.859669 
L 171.584878 172.859669 
L 171.584878 164.506077 
L 174.59838 164.506077 
L 174.59838 161.721547 
L 177.611881 161.721547 
L 177.611881 153.367956 
L 183.638884 153.367956 
L 183.638884 145.014365 
L 186.652385 145.014365 
L 186.652385 136.660773 
L 189.665887 136.660773 
L 189.665887 131.091713 
L 195.692889 131.091713 
L 195.692889 128.307182 
L 198.706391 128.307182 
L 198.706391 125.522652 
L 204.733393 125.522652 
L 204.733393 122.738122 
L 207.746895 122.738122 
L 207.746895 119.953591 
L 213.773897 119.953591 
L 213.773897 117.169061 
L 237.881908 117.169061 
L 237.881908 114.38453 
L 316.232943 114.38453 
L 316.232943 111.6 
L 747.163636 111.6 
" clip-path="url(#pc170f55c55)" style="fill: none; stroke: #d62728; stroke-width: 2; stroke-linecap: square"/>
   </g>
   <g id="line2d_29">
    <path d="M 138.436364 615.6 
L 747.163636 111.6 
" clip-path="url(#pc170f55c55)" style="fill: none; stroke-dasharray: 7.4,3.2; stroke-dashoffset: 0; stroke: #000080; stroke-width: 2"/>
   </g>
   <g id="patch_3">
    <path d="M 108 640.8 
L 108 86.4 
" style="fill: none; stroke: #000000; stroke-width: 0.8; stroke-linejoin: miter; stroke-linecap: square"/>
   </g>
   <g id="patch_4">
    <path d="M 777.6 640.8 
L 777.6 86.4 
" style="fill: none; stroke: #000000; stroke-width: 0.8; stroke-linejoin: miter; stroke-linecap: square"/>
   </g>
   <g id="patch_5">
    <path d="M 108 640.8 
L 777.6 640.8 
" style="fill: none; stroke: #000000; stroke-width: 0.8; stroke-linejoin: miter; stroke-linecap: square"/>
   </g>
   <g id="patch_6">
    <path d="M 108 86.4 
L 777.6 86.4 
" style="fill: none; stroke: #000000; stroke-width: 0.8; stroke-linejoin: miter; stroke-linecap: square"/>
   </g>
   <g id="text_15">
    <!-- Receiver Operating Characteristic (ROC) Curve for All Locations -->
    <g transform="translate(252.105 80.4) scale(0.12 -0.12)">
     <defs>
      <path id="DejaVuSans-63" d="M 3122 3366 
L 3122 2828 
Q 2878 2963 2633 3030 
Q 2388 3097 2138 3097 
Q 1578 3097 1268 2742 
Q 959 2388 959 1747 
Q 959 1106 1268 751 
Q 1578 397 2138 397 
Q 2388 397 2633 464 
Q 2878 531 3122 666 
L 3122 134 
Q 2881 22 2623 -34 
Q 2366 -91 2075 -91 
Q 1284 -91 818 406 
Q 353 903 353 1747 
Q 353 2603 823 3093 
Q 1294 3584 2113 3584 
Q 2378 3584 2631 3529 
Q 2884 3475 3122 3366 
z
" transform="scale(0.015625)"/>
      <path id="DejaVuSans-4f" d="M 2522 4238 
Q 1834 4238 1429 3725 
Q 1025 3213 1025 2328 
Q 1025 1447 1429 934 
Q 1834 422 2522 422 
Q 3209 422 3611 934 
Q 4013 1447 4013 2328 
Q 4013 3213 3611 3725 
Q 3209 4238 2522 4238 
z
M 2522 4750 
Q 3503 4750 4090 4092 
Q 4678 3434 4678 2328 
Q 4678 1225 4090 567 
Q 3503 -91 2522 -91 
Q 1538 -91 948 565 
Q 359 1222 359 2328 
Q 359 3434 948 4092 
Q 1538 4750 2522 4750 
z
" transform="scale(0.015625)"/>
      <path id="DejaVuSans-70" d="M 1159 525 
L 1159 -1331 
L 581 -1331 
L 581 3500 
L 1159 3500 
L 1159 2969 
Q 1341 3281 1617 3432 
Q 1894 3584 2278 3584 
Q 2916 3584 3314 3078 
Q 3713 2572 3713 1747 
Q 3713 922 3314 415 
Q 2916 -91 2278 -91 
Q 1894 -91 1617 61 
Q 1341 213 1159 525 
z
M 3116 1747 
Q 3116 2381 2855 2742 
Q 2594 3103 2138 3103 
Q 1681 3103 1420 2742 
Q 1159 2381 1159 1747 
Q 1159 1113 1420 752 
Q 1681 391 2138 391 
Q 2594 391 2855 752 
Q 3116 1113 3116 1747 
z
" transform="scale(0.015625)"/>
      <path id="DejaVuSans-6e" d="M 3513 2113 
L 3513 0 
L 2938 0 
L 2938 2094 
Q 2938 2591 2744 2837 
Q 2550 3084 2163 3084 
Q 1697 3084 1428 2787 
Q 1159 2491 1159 1978 
L 1159 0 
L 581 0 
L 581 3500 
L 1159 3500 
L 1159 2956 
Q 1366 3272 1645 3428 
Q 1925 3584 2291 3584 
Q 2894 3584 3203 3211 
Q 3513 2838 3513 2113 
z
" transform="scale(0.015625)"/>
      <path id="DejaVuSans-67" d="M 2906 1791 
Q 2906 2416 2648 2759 
Q 2391 3103 1925 3103 
Q 1463 3103 1205 2759 
Q 947 2416 947 1791 
Q 947 1169 1205 825 
Q 1463 481 1925 481 
Q 2391 481 2648 825 
Q 2906 1169 2906 1791 
z
M 3481 434 
Q 3481 -459 3084 -895 
Q 2688 -1331 1869 -1331 
Q 1566 -1331 1297 -1286 
Q 1028 -1241 775 -1147 
L 775 -588 
Q 1028 -725 1275 -790 
Q 1522 -856 1778 -856 
Q 2344 -856 2625 -561 
Q 2906 -266 2906 331 
L 2906 616 
Q 2728 306 2450 153 
Q 2172 0 1784 0 
Q 1141 0 747 490 
Q 353 981 353 1791 
Q 353 2603 747 3093 
Q 1141 3584 1784 3584 
Q 2172 3584 2450 3431 
Q 2728 3278 2906 2969 
L 2906 3500 
L 3481 3500 
L 3481 434 
z
" transform="scale(0.015625)"/>
      <path id="DejaVuSans-43" d="M 4122 4306 
L 4122 3641 
Q 3803 3938 3442 4084 
Q 3081 4231 2675 4231 
Q 1875 4231 1450 3742 
Q 1025 3253 1025 2328 
Q 1025 1406 1450 917 
Q 1875 428 2675 428 
Q 3081 428 3442 575 
Q 3803 722 4122 1019 
L 4122 359 
Q 3791 134 3420 21 
Q 3050 -91 2638 -91 
Q 1578 -91 968 557 
Q 359 1206 359 2328 
Q 359 3453 968 4101 
Q 1578 4750 2638 4750 
Q 3056 4750 3426 4639 
Q 3797 4528 4122 4306 
z
" transform="scale(0.015625)"/>
      <path id="DejaVuSans-68" d="M 3513 2113 
L 3513 0 
L 2938 0 
L 2938 2094 
Q 2938 2591 2744 2837 
Q 2550 3084 2163 3084 
Q 1697 3084 1428 2787 
Q 1159 2491 1159 1978 
L 1159 0 
L 581 0 
L 581 4863 
L 1159 4863 
L 1159 2956 
Q 1366 3272 1645 3428 
Q 1925 3584 2291 3584 
Q 2894 3584 3203 3211 
Q 3513 2838 3513 2113 
z
" transform="scale(0.015625)"/>
      <path id="DejaVuSans-28" d="M 1984 4856 
Q 1566 4138 1362 3434 
Q 1159 2731 1159 2009 
Q 1159 1288 1364 580 
Q 1569 -128 1984 -844 
L 1484 -844 
Q 1016 -109 783 600 
Q 550 1309 550 2009 
Q 550 2706 781 3412 
Q 1013 4119 1484 4856 
L 1984 4856 
z
" transform="scale(0.015625)"/>
      <path id="DejaVuSans-29" d="M 513 4856 
L 1013 4856 
Q 1481 4119 1714 3412 
Q 1947 2706 1947 2009 
Q 1947 1309 1714 600 
Q 1481 -109 1013 -844 
L 513 -844 
Q 928 -128 1133 580 
Q 1338 1288 1338 2009 
Q 1338 2731 1133 3434 
Q 928 4138 513 4856 
z
" transform="scale(0.015625)"/>
      <path id="DejaVuSans-66" d="M 2375 4863 
L 2375 4384 
L 1825 4384 
Q 1516 4384 1395 4259 
Q 1275 4134 1275 3809 
L 1275 3500 
L 2222 3500 
L 2222 3053 
L 1275 3053 
L 1275 0 
L 697 0 
L 697 3053 
L 147 3053 
L 147 3500 
L 697 3500 
L 697 3744 
Q 697 4328 969 4595 
Q 1241 4863 1831 4863 
L 2375 4863 
z
" transform="scale(0.015625)"/>
      <path id="DejaVuSans-41" d="M 2188 4044 
L 1331 1722 
L 3047 1722 
L 2188 4044 
z
M 1831 4666 
L 2547 4666 
L 4325 0 
L 3669 0 
L 3244 1197 
L 1141 1197 
L 716 0 
L 50 0 
L 1831 4666 
z
" transform="scale(0.015625)"/>
      <path id="DejaVuSans-4c" d="M 628 4666 
L 1259 4666 
L 1259 531 
L 3531 531 
L 3531 0 
L 628 0 
L 628 4666 
z
" transform="scale(0.015625)"/>
     </defs>
     <use xlink:href="#DejaVuSans-52"/>
     <use xlink:href="#DejaVuSans-65" x="64.982422"/>
     <use xlink:href="#DejaVuSans-63" x="126.505859"/>
     <use xlink:href="#DejaVuSans-65" x="181.486328"/>
     <use xlink:href="#DejaVuSans-69" x="243.009766"/>
     <use xlink:href="#DejaVuSans-76" x="270.792969"/>
     <use xlink:href="#DejaVuSans-65" x="329.972656"/>
     <use xlink:href="#DejaVuSans-72" x="391.496094"/>
     <use xlink:href="#DejaVuSans-20" x="432.609375"/>
     <use xlink:href="#DejaVuSans-4f" x="464.396484"/>
     <use xlink:href="#DejaVuSans-70" x="543.107422"/>
     <use xlink:href="#DejaVuSans-65" x="606.583984"/>
     <use xlink:href="#DejaVuSans-72" x="668.107422"/>
     <use xlink:href="#DejaVuSans-61" x="709.220703"/>
     <use xlink:href="#DejaVuSans-74" x="770.5"/>
     <use xlink:href="#DejaVuSans-69" x="809.708984"/>
     <use xlink:href="#DejaVuSans-6e" x="837.492188"/>
     <use xlink:href="#DejaVuSans-67" x="900.871094"/>
     <use xlink:href="#DejaVuSans-20" x="964.347656"/>
     <use xlink:href="#DejaVuSans-43" x="996.134766"/>
     <use xlink:href="#DejaVuSans-68" x="1065.958984"/>
     <use xlink:href="#DejaVuSans-61" x="1129.337891"/>
     <use xlink:href="#DejaVuSans-72" x="1190.617188"/>
     <use xlink:href="#DejaVuSans-61" x="1231.730469"/>
     <use xlink:href="#DejaVuSans-63" x="1293.009766"/>
     <use xlink:href="#DejaVuSans-74" x="1347.990234"/>
     <use xlink:href="#DejaVuSans-65" x="1387.199219"/>
     <use xlink:href="#DejaVuSans-72" x="1448.722656"/>
     <use xlink:href="#DejaVuSans-69" x="1489.835938"/>
     <use xlink:href="#DejaVuSans-73" x="1517.619141"/>
     <use xlink:href="#DejaVuSans-74" x="1569.71875"/>
     <use xlink:href="#DejaVuSans-69" x="1608.927734"/>
     <use xlink:href="#DejaVuSans-63" x="1636.710938"/>
     <use xlink:href="#DejaVuSans-20" x="1691.691406"/>
     <use xlink:href="#DejaVuSans-28" x="1723.478516"/>
     <use xlink:href="#DejaVuSans-52" x="1762.492188"/>
     <use xlink:href="#DejaVuSans-4f" x="1831.974609"/>
     <use xlink:href="#DejaVuSans-43" x="1910.685547"/>
     <use xlink:href="#DejaVuSans-29" x="1980.509766"/>
     <use xlink:href="#DejaVuSans-20" x="2019.523438"/>
     <use xlink:href="#DejaVuSans-43" x="2051.310547"/>
     <use xlink:href="#DejaVuSans-75" x="2121.134766"/>
     <use xlink:href="#DejaVuSans-72" x="2184.513672"/>
     <use xlink:href="#DejaVuSans-76" x="2225.626953"/>
     <use xlink:href="#DejaVuSans-65" x="2284.806641"/>
     <use xlink:href="#DejaVuSans-20" x="2346.330078"/>
     <use xlink:href="#DejaVuSans-66" x="2378.117188"/>
     <use xlink:href="#DejaVuSans-6f" x="2413.322266"/>
     <use xlink:href="#DejaVuSans-72" x="2474.503906"/>
     <use xlink:href="#DejaVuSans-20" x="2515.617188"/>
     <use xlink:href="#DejaVuSans-41" x="2547.404297"/>
     <use xlink:href="#DejaVuSans-6c" x="2615.8125"/>
     <use xlink:href="#DejaVuSans-6c" x="2643.595703"/>
     <use xlink:href="#DejaVuSans-20" x="2671.378906"/>
     <use xlink:href="#DejaVuSans-4c" x="2703.166016"/>
     <use xlink:href="#DejaVuSans-6f" x="2757.128906"/>
     <use xlink:href="#DejaVuSans-63" x="2818.310547"/>
     <use xlink:href="#DejaVuSans-61" x="2873.291016"/>
     <use xlink:href="#DejaVuSans-74" x="2934.570312"/>
     <use xlink:href="#DejaVuSans-69" x="2973.779297"/>
     <use xlink:href="#DejaVuSans-6f" x="3001.5625"/>
     <use xlink:href="#DejaVuSans-6e" x="3062.744141"/>
     <use xlink:href="#DejaVuSans-73" x="3126.123047"/>
    </g>
   </g>
   <g id="legend_1">
    <g id="patch_7">
     <path d="M 586.796875 635.8 
L 770.6 635.8 
Q 772.6 635.8 772.6 633.8 
L 772.6 576.0875 
Q 772.6 574.0875 770.6 574.0875 
L 586.796875 574.0875 
Q 584.796875 574.0875 584.796875 576.0875 
L 584.796875 633.8 
Q 584.796875 635.8 586.796875 635.8 
z
" style="fill: #ffffff; opacity: 0.8; stroke: #cccccc; stroke-linejoin: miter"/>
    </g>
    <g id="line2d_30">
     <path d="M 588.796875 582.185938 
L 598.796875 582.185938 
L 608.796875 582.185938 
" style="fill: none; stroke: #1f77b4; stroke-width: 2; stroke-linecap: square"/>
    </g>
    <g id="text_16">
     <!-- Bone Metastasis (AUC = 0.96) -->
     <g transform="translate(616.796875 585.685938) scale(0.1 -0.1)">
      <defs>
       <path id="DejaVuSans-42" d="M 1259 2228 
L 1259 519 
L 2272 519 
Q 2781 519 3026 730 
Q 3272 941 3272 1375 
Q 3272 1813 3026 2020 
Q 2781 2228 2272 2228 
L 1259 2228 
z
M 1259 4147 
L 1259 2741 
L 2194 2741 
Q 2656 2741 2882 2914 
Q 3109 3088 3109 3444 
Q 3109 3797 2882 3972 
Q 2656 4147 2194 4147 
L 1259 4147 
z
M 628 4666 
L 2241 4666 
Q 2963 4666 3353 4366 
Q 3744 4066 3744 3513 
Q 3744 3084 3544 2831 
Q 3344 2578 2956 2516 
Q 3422 2416 3680 2098 
Q 3938 1781 3938 1306 
Q 3938 681 3513 340 
Q 3088 0 2303 0 
L 628 0 
L 628 4666 
z
" transform="scale(0.015625)"/>
       <path id="DejaVuSans-4d" d="M 628 4666 
L 1569 4666 
L 2759 1491 
L 3956 4666 
L 4897 4666 
L 4897 0 
L 4281 0 
L 4281 4097 
L 3078 897 
L 2444 897 
L 1241 4097 
L 1241 0 
L 628 0 
L 628 4666 
z
" transform="scale(0.015625)"/>
       <path id="DejaVuSans-55" d="M 556 4666 
L 1191 4666 
L 1191 1831 
Q 1191 1081 1462 751 
Q 1734 422 2344 422 
Q 2950 422 3222 751 
Q 3494 1081 3494 1831 
L 3494 4666 
L 4128 4666 
L 4128 1753 
Q 4128 841 3676 375 
Q 3225 -91 2344 -91 
Q 1459 -91 1007 375 
Q 556 841 556 1753 
L 556 4666 
z
" transform="scale(0.015625)"/>
       <path id="DejaVuSans-3d" d="M 678 2906 
L 4684 2906 
L 4684 2381 
L 678 2381 
L 678 2906 
z
M 678 1631 
L 4684 1631 
L 4684 1100 
L 678 1100 
L 678 1631 
z
" transform="scale(0.015625)"/>
       <path id="DejaVuSans-39" d="M 703 97 
L 703 672 
Q 941 559 1184 500 
Q 1428 441 1663 441 
Q 2288 441 2617 861 
Q 2947 1281 2994 2138 
Q 2813 1869 2534 1725 
Q 2256 1581 1919 1581 
Q 1219 1581 811 2004 
Q 403 2428 403 3163 
Q 403 3881 828 4315 
Q 1253 4750 1959 4750 
Q 2769 4750 3195 4129 
Q 3622 3509 3622 2328 
Q 3622 1225 3098 567 
Q 2575 -91 1691 -91 
Q 1453 -91 1209 -44 
Q 966 3 703 97 
z
M 1959 2075 
Q 2384 2075 2632 2365 
Q 2881 2656 2881 3163 
Q 2881 3666 2632 3958 
Q 2384 4250 1959 4250 
Q 1534 4250 1286 3958 
Q 1038 3666 1038 3163 
Q 1038 2656 1286 2365 
Q 1534 2075 1959 2075 
z
" transform="scale(0.015625)"/>
      </defs>
      <use xlink:href="#DejaVuSans-42"/>
      <use xlink:href="#DejaVuSans-6f" x="68.603516"/>
      <use xlink:href="#DejaVuSans-6e" x="129.785156"/>
      <use xlink:href="#DejaVuSans-65" x="193.164062"/>
      <use xlink:href="#DejaVuSans-20" x="254.6875"/>
      <use xlink:href="#DejaVuSans-4d" x="286.474609"/>
      <use xlink:href="#DejaVuSans-65" x="372.753906"/>
      <use xlink:href="#DejaVuSans-74" x="434.277344"/>
      <use xlink:href="#DejaVuSans-61" x="473.486328"/>
      <use xlink:href="#DejaVuSans-73" x="534.765625"/>
      <use xlink:href="#DejaVuSans-74" x="586.865234"/>
      <use xlink:href="#DejaVuSans-61" x="626.074219"/>
      <use xlink:href="#DejaVuSans-73" x="687.353516"/>
      <use xlink:href="#DejaVuSans-69" x="739.453125"/>
      <use xlink:href="#DejaVuSans-73" x="767.236328"/>
      <use xlink:href="#DejaVuSans-20" x="819.335938"/>
      <use xlink:href="#DejaVuSans-28" x="851.123047"/>
      <use xlink:href="#DejaVuSans-41" x="890.136719"/>
      <use xlink:href="#DejaVuSans-55" x="958.544922"/>
      <use xlink:href="#DejaVuSans-43" x="1031.738281"/>
      <use xlink:href="#DejaVuSans-20" x="1101.5625"/>
      <use xlink:href="#DejaVuSans-3d" x="1133.349609"/>
      <use xlink:href="#DejaVuSans-20" x="1217.138672"/>
      <use xlink:href="#DejaVuSans-30" x="1248.925781"/>
      <use xlink:href="#DejaVuSans-2e" x="1312.548828"/>
      <use xlink:href="#DejaVuSans-39" x="1344.335938"/>
      <use xlink:href="#DejaVuSans-36" x="1407.958984"/>
      <use xlink:href="#DejaVuSans-29" x="1471.582031"/>
     </g>
    </g>
    <g id="line2d_31">
     <path d="M 588.796875 596.864063 
L 598.796875 596.864063 
L 608.796875 596.864063 
" style="fill: none; stroke: #ff7f0e; stroke-width: 2; stroke-linecap: square"/>
    </g>
    <g id="text_17">
     <!-- Lung Metastasis (AUC = 0.97) -->
     <g transform="translate(616.796875 600.364063) scale(0.1 -0.1)">
      <defs>
       <path id="DejaVuSans-37" d="M 525 4666 
L 3525 4666 
L 3525 4397 
L 1831 0 
L 1172 0 
L 2766 4134 
L 525 4134 
L 525 4666 
z
" transform="scale(0.015625)"/>
      </defs>
      <use xlink:href="#DejaVuSans-4c"/>
      <use xlink:href="#DejaVuSans-75" x="53.962891"/>
      <use xlink:href="#DejaVuSans-6e" x="117.341797"/>
      <use xlink:href="#DejaVuSans-67" x="180.720703"/>
      <use xlink:href="#DejaVuSans-20" x="244.197266"/>
      <use xlink:href="#DejaVuSans-4d" x="275.984375"/>
      <use xlink:href="#DejaVuSans-65" x="362.263672"/>
      <use xlink:href="#DejaVuSans-74" x="423.787109"/>
      <use xlink:href="#DejaVuSans-61" x="462.996094"/>
      <use xlink:href="#DejaVuSans-73" x="524.275391"/>
      <use xlink:href="#DejaVuSans-74" x="576.375"/>
      <use xlink:href="#DejaVuSans-61" x="615.583984"/>
      <use xlink:href="#DejaVuSans-73" x="676.863281"/>
      <use xlink:href="#DejaVuSans-69" x="728.962891"/>
      <use xlink:href="#DejaVuSans-73" x="756.746094"/>
      <use xlink:href="#DejaVuSans-20" x="808.845703"/>
      <use xlink:href="#DejaVuSans-28" x="840.632812"/>
      <use xlink:href="#DejaVuSans-41" x="879.646484"/>
      <use xlink:href="#DejaVuSans-55" x="948.054688"/>
      <use xlink:href="#DejaVuSans-43" x="1021.248047"/>
      <use xlink:href="#DejaVuSans-20" x="1091.072266"/>
      <use xlink:href="#DejaVuSans-3d" x="1122.859375"/>
      <use xlink:href="#DejaVuSans-20" x="1206.648438"/>
      <use xlink:href="#DejaVuSans-30" x="1238.435547"/>
      <use xlink:href="#DejaVuSans-2e" x="1302.058594"/>
      <use xlink:href="#DejaVuSans-39" x="1333.845703"/>
      <use xlink:href="#DejaVuSans-37" x="1397.46875"/>
      <use xlink:href="#DejaVuSans-29" x="1461.091797"/>
     </g>
    </g>
    <g id="line2d_32">
     <path d="M 588.796875 611.542188 
L 598.796875 611.542188 
L 608.796875 611.542188 
" style="fill: none; stroke: #2ca02c; stroke-width: 2; stroke-linecap: square"/>
    </g>
    <g id="text_18">
     <!-- Liver Metastasis (AUC = 0.98) -->
     <g transform="translate(616.796875 615.042188) scale(0.1 -0.1)">
      <use xlink:href="#DejaVuSans-4c"/>
      <use xlink:href="#DejaVuSans-69" x="55.712891"/>
      <use xlink:href="#DejaVuSans-76" x="83.496094"/>
      <use xlink:href="#DejaVuSans-65" x="142.675781"/>
      <use xlink:href="#DejaVuSans-72" x="204.199219"/>
      <use xlink:href="#DejaVuSans-20" x="245.3125"/>
      <use xlink:href="#DejaVuSans-4d" x="277.099609"/>
      <use xlink:href="#DejaVuSans-65" x="363.378906"/>
      <use xlink:href="#DejaVuSans-74" x="424.902344"/>
      <use xlink:href="#DejaVuSans-61" x="464.111328"/>
      <use xlink:href="#DejaVuSans-73" x="525.390625"/>
      <use xlink:href="#DejaVuSans-74" x="577.490234"/>
      <use xlink:href="#DejaVuSans-61" x="616.699219"/>
      <use xlink:href="#DejaVuSans-73" x="677.978516"/>
      <use xlink:href="#DejaVuSans-69" x="730.078125"/>
      <use xlink:href="#DejaVuSans-73" x="757.861328"/>
      <use xlink:href="#DejaVuSans-20" x="809.960938"/>
      <use xlink:href="#DejaVuSans-28" x="841.748047"/>
      <use xlink:href="#DejaVuSans-41" x="880.761719"/>
      <use xlink:href="#DejaVuSans-55" x="949.169922"/>
      <use xlink:href="#DejaVuSans-43" x="1022.363281"/>
      <use xlink:href="#DejaVuSans-20" x="1092.1875"/>
      <use xlink:href="#DejaVuSans-3d" x="1123.974609"/>
      <use xlink:href="#DejaVuSans-20" x="1207.763672"/>
      <use xlink:href="#DejaVuSans-30" x="1239.550781"/>
      <use xlink:href="#DejaVuSans-2e" x="1303.173828"/>
      <use xlink:href="#DejaVuSans-39" x="1334.960938"/>
      <use xlink:href="#DejaVuSans-38" x="1398.583984"/>
      <use xlink:href="#DejaVuSans-29" x="1462.207031"/>
     </g>
    </g>
    <g id="line2d_33">
     <path d="M 588.796875 626.220313 
L 598.796875 626.220313 
L 608.796875 626.220313 
" style="fill: none; stroke: #d62728; stroke-width: 2; stroke-linecap: square"/>
    </g>
    <g id="text_19">
     <!-- Brain Metastasis (AUC = 0.97) -->
     <g transform="translate(616.796875 629.720313) scale(0.1 -0.1)">
      <use xlink:href="#DejaVuSans-42"/>
      <use xlink:href="#DejaVuSans-72" x="68.603516"/>
      <use xlink:href="#DejaVuSans-61" x="109.716797"/>
      <use xlink:href="#DejaVuSans-69" x="170.996094"/>
      <use xlink:href="#DejaVuSans-6e" x="198.779297"/>
      <use xlink:href="#DejaVuSans-20" x="262.158203"/>
      <use xlink:href="#DejaVuSans-4d" x="293.945312"/>
      <use xlink:href="#DejaVuSans-65" x="380.224609"/>
      <use xlink:href="#DejaVuSans-74" x="441.748047"/>
      <use xlink:href="#DejaVuSans-61" x="480.957031"/>
      <use xlink:href="#DejaVuSans-73" x="542.236328"/>
      <use xlink:href="#DejaVuSans-74" x="594.335938"/>
      <use xlink:href="#DejaVuSans-61" x="633.544922"/>
      <use xlink:href="#DejaVuSans-73" x="694.824219"/>
      <use xlink:href="#DejaVuSans-69" x="746.923828"/>
      <use xlink:href="#DejaVuSans-73" x="774.707031"/>
      <use xlink:href="#DejaVuSans-20" x="826.806641"/>
      <use xlink:href="#DejaVuSans-28" x="858.59375"/>
      <use xlink:href="#DejaVuSans-41" x="897.607422"/>
      <use xlink:href="#DejaVuSans-55" x="966.015625"/>
      <use xlink:href="#DejaVuSans-43" x="1039.208984"/>
      <use xlink:href="#DejaVuSans-20" x="1109.033203"/>
      <use xlink:href="#DejaVuSans-3d" x="1140.820312"/>
      <use xlink:href="#DejaVuSans-20" x="1224.609375"/>
      <use xlink:href="#DejaVuSans-30" x="1256.396484"/>
      <use xlink:href="#DejaVuSans-2e" x="1320.019531"/>
      <use xlink:href="#DejaVuSans-39" x="1351.806641"/>
      <use xlink:href="#DejaVuSans-37" x="1415.429688"/>
      <use xlink:href="#DejaVuSans-29" x="1479.052734"/>
     </g>
    </g>
   </g>
  </g>
 </g>
 <defs>
  <clipPath id="pc170f55c55">
   <rect x="108" y="86.4" width="669.6" height="554.4"/>
  </clipPath>
 </defs>
</svg>
