<?xml version="1.0" encoding="utf-8" standalone="no"?>
<!DOCTYPE svg PUBLIC "-//W3C//DTD SVG 1.1//EN"
  "http://www.w3.org/Graphics/SVG/1.1/DTD/svg11.dtd">
<svg xmlns:xlink="http://www.w3.org/1999/xlink" width="864pt" height="720pt" viewBox="0 0 864 720" xmlns="http://www.w3.org/2000/svg" version="1.1">
 <metadata>
  <rdf:RDF xmlns:dc="http://purl.org/dc/elements/1.1/" xmlns:cc="http://creativecommons.org/ns#" xmlns:rdf="http://www.w3.org/1999/02/22-rdf-syntax-ns#">
   <cc:Work>
    <dc:type rdf:resource="http://purl.org/dc/dcmitype/StillImage"/>
    <dc:date>2024-06-19T16:27:36.079870</dc:date>
    <dc:format>image/svg+xml</dc:format>
    <dc:creator>
     <cc:Agent>
      <dc:title>Matplotlib v3.7.2, https://matplotlib.org/</dc:title>
     </cc:Agent>
    </dc:creator>
   </cc:Work>
  </rdf:RDF>
 </metadata>
 <defs>
  <style type="text/css">*{stroke-linejoin: round; stroke-linecap: butt}</style>
 </defs>
 <g id="figure_1">
  <g id="patch_1">
   <path d="M 0 720 
L 864 720 
L 864 0 
L 0 0 
z
" style="fill: #ffffff"/>
  </g>
  <g id="axes_1">
   <g id="patch_2">
    <path d="M 108 640.8 
L 777.6 640.8 
L 777.6 86.4 
L 108 86.4 
z
" style="fill: #ffffff"/>
   </g>
   <g id="matplotlib.axis_1">
    <g id="xtick_1">
     <g id="line2d_1">
      <path d="M 138.436364 640.8 
L 138.436364 86.4 
" clip-path="url(#p51e63c6911)" style="fill: none; stroke: #b0b0b0; stroke-width: 0.8; stroke-linecap: square"/>
     </g>
     <g id="line2d_2">
      <defs>
       <path id="mbf6b58d255" d="M 0 0 
L 0 3.5 
" style="stroke: #000000; stroke-width: 0.8"/>
      </defs>
      <g>
       <use xlink:href="#mbf6b58d255" x="138.436364" y="640.8" style="stroke: #000000; stroke-width: 0.8"/>
      </g>
     </g>
     <g id="text_1">
      <!-- 0.0 -->
      <g transform="translate(130.484801 655.398438) scale(0.1 -0.1)">
       <defs>
        <path id="DejaVuSans-30" d="M 2034 4250 
Q 1547 4250 1301 3770 
Q 1056 3291 1056 2328 
Q 1056 1369 1301 889 
Q 1547 409 2034 409 
Q 2525 409 2770 889 
Q 3016 1369 3016 2328 
Q 3016 3291 2770 3770 
Q 2525 4250 2034 4250 
z
M 2034 4750 
Q 2819 4750 3233 4129 
Q 3647 3509 3647 2328 
Q 3647 1150 3233 529 
Q 2819 -91 2034 -91 
Q 1250 -91 836 529 
Q 422 1150 422 2328 
Q 422 3509 836 4129 
Q 1250 4750 2034 4750 
z
" transform="scale(0.015625)"/>
        <path id="DejaVuSans-2e" d="M 684 794 
L 1344 794 
L 1344 0 
L 684 0 
L 684 794 
z
" transform="scale(0.015625)"/>
       </defs>
       <use xlink:href="#DejaVuSans-30"/>
       <use xlink:href="#DejaVuSans-2e" x="63.623047"/>
       <use xlink:href="#DejaVuSans-30" x="95.410156"/>
      </g>
     </g>
    </g>
    <g id="xtick_2">
     <g id="line2d_3">
      <path d="M 260.181818 640.8 
L 260.181818 86.4 
" clip-path="url(#p51e63c6911)" style="fill: none; stroke: #b0b0b0; stroke-width: 0.8; stroke-linecap: square"/>
     </g>
     <g id="line2d_4">
      <g>
       <use xlink:href="#mbf6b58d255" x="260.181818" y="640.8" style="stroke: #000000; stroke-width: 0.8"/>
      </g>
     </g>
     <g id="text_2">
      <!-- 0.2 -->
      <g transform="translate(252.230256 655.398438) scale(0.1 -0.1)">
       <defs>
        <path id="DejaVuSans-32" d="M 1228 531 
L 3431 531 
L 3431 0 
L 469 0 
L 469 531 
Q 828 903 1448 1529 
Q 2069 2156 2228 2338 
Q 2531 2678 2651 2914 
Q 2772 3150 2772 3378 
Q 2772 3750 2511 3984 
Q 2250 4219 1831 4219 
Q 1534 4219 1204 4116 
Q 875 4013 500 3803 
L 500 4441 
Q 881 4594 1212 4672 
Q 1544 4750 1819 4750 
Q 2544 4750 2975 4387 
Q 3406 4025 3406 3419 
Q 3406 3131 3298 2873 
Q 3191 2616 2906 2266 
Q 2828 2175 2409 1742 
Q 1991 1309 1228 531 
z
" transform="scale(0.015625)"/>
       </defs>
       <use xlink:href="#DejaVuSans-30"/>
       <use xlink:href="#DejaVuSans-2e" x="63.623047"/>
       <use xlink:href="#DejaVuSans-32" x="95.410156"/>
      </g>
     </g>
    </g>
    <g id="xtick_3">
     <g id="line2d_5">
      <path d="M 381.927273 640.8 
L 381.927273 86.4 
" clip-path="url(#p51e63c6911)" style="fill: none; stroke: #b0b0b0; stroke-width: 0.8; stroke-linecap: square"/>
     </g>
     <g id="line2d_6">
      <g>
       <use xlink:href="#mbf6b58d255" x="381.927273" y="640.8" style="stroke: #000000; stroke-width: 0.8"/>
      </g>
     </g>
     <g id="text_3">
      <!-- 0.4 -->
      <g transform="translate(373.97571 655.398438) scale(0.1 -0.1)">
       <defs>
        <path id="DejaVuSans-34" d="M 2419 4116 
L 825 1625 
L 2419 1625 
L 2419 4116 
z
M 2253 4666 
L 3047 4666 
L 3047 1625 
L 3713 1625 
L 3713 1100 
L 3047 1100 
L 3047 0 
L 2419 0 
L 2419 1100 
L 313 1100 
L 313 1709 
L 2253 4666 
z
" transform="scale(0.015625)"/>
       </defs>
       <use xlink:href="#DejaVuSans-30"/>
       <use xlink:href="#DejaVuSans-2e" x="63.623047"/>
       <use xlink:href="#DejaVuSans-34" x="95.410156"/>
      </g>
     </g>
    </g>
    <g id="xtick_4">
     <g id="line2d_7">
      <path d="M 503.672727 640.8 
L 503.672727 86.4 
" clip-path="url(#p51e63c6911)" style="fill: none; stroke: #b0b0b0; stroke-width: 0.8; stroke-linecap: square"/>
     </g>
     <g id="line2d_8">
      <g>
       <use xlink:href="#mbf6b58d255" x="503.672727" y="640.8" style="stroke: #000000; stroke-width: 0.8"/>
      </g>
     </g>
     <g id="text_4">
      <!-- 0.6 -->
      <g transform="translate(495.721165 655.398438) scale(0.1 -0.1)">
       <defs>
        <path id="DejaVuSans-36" d="M 2113 2584 
Q 1688 2584 1439 2293 
Q 1191 2003 1191 1497 
Q 1191 994 1439 701 
Q 1688 409 2113 409 
Q 2538 409 2786 701 
Q 3034 994 3034 1497 
Q 3034 2003 2786 2293 
Q 2538 2584 2113 2584 
z
M 3366 4563 
L 3366 3988 
Q 3128 4100 2886 4159 
Q 2644 4219 2406 4219 
Q 1781 4219 1451 3797 
Q 1122 3375 1075 2522 
Q 1259 2794 1537 2939 
Q 1816 3084 2150 3084 
Q 2853 3084 3261 2657 
Q 3669 2231 3669 1497 
Q 3669 778 3244 343 
Q 2819 -91 2113 -91 
Q 1303 -91 875 529 
Q 447 1150 447 2328 
Q 447 3434 972 4092 
Q 1497 4750 2381 4750 
Q 2619 4750 2861 4703 
Q 3103 4656 3366 4563 
z
" transform="scale(0.015625)"/>
       </defs>
       <use xlink:href="#DejaVuSans-30"/>
       <use xlink:href="#DejaVuSans-2e" x="63.623047"/>
       <use xlink:href="#DejaVuSans-36" x="95.410156"/>
      </g>
     </g>
    </g>
    <g id="xtick_5">
     <g id="line2d_9">
      <path d="M 625.418182 640.8 
L 625.418182 86.4 
" clip-path="url(#p51e63c6911)" style="fill: none; stroke: #b0b0b0; stroke-width: 0.8; stroke-linecap: square"/>
     </g>
     <g id="line2d_10">
      <g>
       <use xlink:href="#mbf6b58d255" x="625.418182" y="640.8" style="stroke: #000000; stroke-width: 0.8"/>
      </g>
     </g>
     <g id="text_5">
      <!-- 0.8 -->
      <g transform="translate(617.466619 655.398438) scale(0.1 -0.1)">
       <defs>
        <path id="DejaVuSans-38" d="M 2034 2216 
Q 1584 2216 1326 1975 
Q 1069 1734 1069 1313 
Q 1069 891 1326 650 
Q 1584 409 2034 409 
Q 2484 409 2743 651 
Q 3003 894 3003 1313 
Q 3003 1734 2745 1975 
Q 2488 2216 2034 2216 
z
M 1403 2484 
Q 997 2584 770 2862 
Q 544 3141 544 3541 
Q 544 4100 942 4425 
Q 1341 4750 2034 4750 
Q 2731 4750 3128 4425 
Q 3525 4100 3525 3541 
Q 3525 3141 3298 2862 
Q 3072 2584 2669 2484 
Q 3125 2378 3379 2068 
Q 3634 1759 3634 1313 
Q 3634 634 3220 271 
Q 2806 -91 2034 -91 
Q 1263 -91 848 271 
Q 434 634 434 1313 
Q 434 1759 690 2068 
Q 947 2378 1403 2484 
z
M 1172 3481 
Q 1172 3119 1398 2916 
Q 1625 2713 2034 2713 
Q 2441 2713 2670 2916 
Q 2900 3119 2900 3481 
Q 2900 3844 2670 4047 
Q 2441 4250 2034 4250 
Q 1625 4250 1398 4047 
Q 1172 3844 1172 3481 
z
" transform="scale(0.015625)"/>
       </defs>
       <use xlink:href="#DejaVuSans-30"/>
       <use xlink:href="#DejaVuSans-2e" x="63.623047"/>
       <use xlink:href="#DejaVuSans-38" x="95.410156"/>
      </g>
     </g>
    </g>
    <g id="xtick_6">
     <g id="line2d_11">
      <path d="M 747.163636 640.8 
L 747.163636 86.4 
" clip-path="url(#p51e63c6911)" style="fill: none; stroke: #b0b0b0; stroke-width: 0.8; stroke-linecap: square"/>
     </g>
     <g id="line2d_12">
      <g>
       <use xlink:href="#mbf6b58d255" x="747.163636" y="640.8" style="stroke: #000000; stroke-width: 0.8"/>
      </g>
     </g>
     <g id="text_6">
      <!-- 1.0 -->
      <g transform="translate(739.212074 655.398438) scale(0.1 -0.1)">
       <defs>
        <path id="DejaVuSans-31" d="M 794 531 
L 1825 531 
L 1825 4091 
L 703 3866 
L 703 4441 
L 1819 4666 
L 2450 4666 
L 2450 531 
L 3481 531 
L 3481 0 
L 794 0 
L 794 531 
z
" transform="scale(0.015625)"/>
       </defs>
       <use xlink:href="#DejaVuSans-31"/>
       <use xlink:href="#DejaVuSans-2e" x="63.623047"/>
       <use xlink:href="#DejaVuSans-30" x="95.410156"/>
      </g>
     </g>
    </g>
    <g id="text_7">
     <!-- False Positive Rate -->
     <g transform="translate(396.333594 669.076563) scale(0.1 -0.1)">
      <defs>
       <path id="DejaVuSans-46" d="M 628 4666 
L 3309 4666 
L 3309 4134 
L 1259 4134 
L 1259 2759 
L 3109 2759 
L 3109 2228 
L 1259 2228 
L 1259 0 
L 628 0 
L 628 4666 
z
" transform="scale(0.015625)"/>
       <path id="DejaVuSans-61" d="M 2194 1759 
Q 1497 1759 1228 1600 
Q 959 1441 959 1056 
Q 959 750 1161 570 
Q 1363 391 1709 391 
Q 2188 391 2477 730 
Q 2766 1069 2766 1631 
L 2766 1759 
L 2194 1759 
z
M 3341 1997 
L 3341 0 
L 2766 0 
L 2766 531 
Q 2569 213 2275 61 
Q 1981 -91 1556 -91 
Q 1019 -91 701 211 
Q 384 513 384 1019 
Q 384 1609 779 1909 
Q 1175 2209 1959 2209 
L 2766 2209 
L 2766 2266 
Q 2766 2663 2505 2880 
Q 2244 3097 1772 3097 
Q 1472 3097 1187 3025 
Q 903 2953 641 2809 
L 641 3341 
Q 956 3463 1253 3523 
Q 1550 3584 1831 3584 
Q 2591 3584 2966 3190 
Q 3341 2797 3341 1997 
z
" transform="scale(0.015625)"/>
       <path id="DejaVuSans-6c" d="M 603 4863 
L 1178 4863 
L 1178 0 
L 603 0 
L 603 4863 
z
" transform="scale(0.015625)"/>
       <path id="DejaVuSans-73" d="M 2834 3397 
L 2834 2853 
Q 2591 2978 2328 3040 
Q 2066 3103 1784 3103 
Q 1356 3103 1142 2972 
Q 928 2841 928 2578 
Q 928 2378 1081 2264 
Q 1234 2150 1697 2047 
L 1894 2003 
Q 2506 1872 2764 1633 
Q 3022 1394 3022 966 
Q 3022 478 2636 193 
Q 2250 -91 1575 -91 
Q 1294 -91 989 -36 
Q 684 19 347 128 
L 347 722 
Q 666 556 975 473 
Q 1284 391 1588 391 
Q 1994 391 2212 530 
Q 2431 669 2431 922 
Q 2431 1156 2273 1281 
Q 2116 1406 1581 1522 
L 1381 1569 
Q 847 1681 609 1914 
Q 372 2147 372 2553 
Q 372 3047 722 3315 
Q 1072 3584 1716 3584 
Q 2034 3584 2315 3537 
Q 2597 3491 2834 3397 
z
" transform="scale(0.015625)"/>
       <path id="DejaVuSans-65" d="M 3597 1894 
L 3597 1613 
L 953 1613 
Q 991 1019 1311 708 
Q 1631 397 2203 397 
Q 2534 397 2845 478 
Q 3156 559 3463 722 
L 3463 178 
Q 3153 47 2828 -22 
Q 2503 -91 2169 -91 
Q 1331 -91 842 396 
Q 353 884 353 1716 
Q 353 2575 817 3079 
Q 1281 3584 2069 3584 
Q 2775 3584 3186 3129 
Q 3597 2675 3597 1894 
z
M 3022 2063 
Q 3016 2534 2758 2815 
Q 2500 3097 2075 3097 
Q 1594 3097 1305 2825 
Q 1016 2553 972 2059 
L 3022 2063 
z
" transform="scale(0.015625)"/>
       <path id="DejaVuSans-20" transform="scale(0.015625)"/>
       <path id="DejaVuSans-50" d="M 1259 4147 
L 1259 2394 
L 2053 2394 
Q 2494 2394 2734 2622 
Q 2975 2850 2975 3272 
Q 2975 3691 2734 3919 
Q 2494 4147 2053 4147 
L 1259 4147 
z
M 628 4666 
L 2053 4666 
Q 2838 4666 3239 4311 
Q 3641 3956 3641 3272 
Q 3641 2581 3239 2228 
Q 2838 1875 2053 1875 
L 1259 1875 
L 1259 0 
L 628 0 
L 628 4666 
z
" transform="scale(0.015625)"/>
       <path id="DejaVuSans-6f" d="M 1959 3097 
Q 1497 3097 1228 2736 
Q 959 2375 959 1747 
Q 959 1119 1226 758 
Q 1494 397 1959 397 
Q 2419 397 2687 759 
Q 2956 1122 2956 1747 
Q 2956 2369 2687 2733 
Q 2419 3097 1959 3097 
z
M 1959 3584 
Q 2709 3584 3137 3096 
Q 3566 2609 3566 1747 
Q 3566 888 3137 398 
Q 2709 -91 1959 -91 
Q 1206 -91 779 398 
Q 353 888 353 1747 
Q 353 2609 779 3096 
Q 1206 3584 1959 3584 
z
" transform="scale(0.015625)"/>
       <path id="DejaVuSans-69" d="M 603 3500 
L 1178 3500 
L 1178 0 
L 603 0 
L 603 3500 
z
M 603 4863 
L 1178 4863 
L 1178 4134 
L 603 4134 
L 603 4863 
z
" transform="scale(0.015625)"/>
       <path id="DejaVuSans-74" d="M 1172 4494 
L 1172 3500 
L 2356 3500 
L 2356 3053 
L 1172 3053 
L 1172 1153 
Q 1172 725 1289 603 
Q 1406 481 1766 481 
L 2356 481 
L 2356 0 
L 1766 0 
Q 1100 0 847 248 
Q 594 497 594 1153 
L 594 3053 
L 172 3053 
L 172 3500 
L 594 3500 
L 594 4494 
L 1172 4494 
z
" transform="scale(0.015625)"/>
       <path id="DejaVuSans-76" d="M 191 3500 
L 800 3500 
L 1894 563 
L 2988 3500 
L 3597 3500 
L 2284 0 
L 1503 0 
L 191 3500 
z
" transform="scale(0.015625)"/>
       <path id="DejaVuSans-52" d="M 2841 2188 
Q 3044 2119 3236 1894 
Q 3428 1669 3622 1275 
L 4263 0 
L 3584 0 
L 2988 1197 
Q 2756 1666 2539 1819 
Q 2322 1972 1947 1972 
L 1259 1972 
L 1259 0 
L 628 0 
L 628 4666 
L 2053 4666 
Q 2853 4666 3247 4331 
Q 3641 3997 3641 3322 
Q 3641 2881 3436 2590 
Q 3231 2300 2841 2188 
z
M 1259 4147 
L 1259 2491 
L 2053 2491 
Q 2509 2491 2742 2702 
Q 2975 2913 2975 3322 
Q 2975 3731 2742 3939 
Q 2509 4147 2053 4147 
L 1259 4147 
z
" transform="scale(0.015625)"/>
      </defs>
      <use xlink:href="#DejaVuSans-46"/>
      <use xlink:href="#DejaVuSans-61" x="48.394531"/>
      <use xlink:href="#DejaVuSans-6c" x="109.673828"/>
      <use xlink:href="#DejaVuSans-73" x="137.457031"/>
      <use xlink:href="#DejaVuSans-65" x="189.556641"/>
      <use xlink:href="#DejaVuSans-20" x="251.080078"/>
      <use xlink:href="#DejaVuSans-50" x="282.867188"/>
      <use xlink:href="#DejaVuSans-6f" x="339.544922"/>
      <use xlink:href="#DejaVuSans-73" x="400.726562"/>
      <use xlink:href="#DejaVuSans-69" x="452.826172"/>
      <use xlink:href="#DejaVuSans-74" x="480.609375"/>
      <use xlink:href="#DejaVuSans-69" x="519.818359"/>
      <use xlink:href="#DejaVuSans-76" x="547.601562"/>
      <use xlink:href="#DejaVuSans-65" x="606.78125"/>
      <use xlink:href="#DejaVuSans-20" x="668.304688"/>
      <use xlink:href="#DejaVuSans-52" x="700.091797"/>
      <use xlink:href="#DejaVuSans-61" x="767.324219"/>
      <use xlink:href="#DejaVuSans-74" x="828.603516"/>
      <use xlink:href="#DejaVuSans-65" x="867.8125"/>
     </g>
    </g>
   </g>
   <g id="matplotlib.axis_2">
    <g id="ytick_1">
     <g id="line2d_13">
      <path d="M 108 615.6 
L 777.6 615.6 
" clip-path="url(#p51e63c6911)" style="fill: none; stroke: #b0b0b0; stroke-width: 0.8; stroke-linecap: square"/>
     </g>
     <g id="line2d_14">
      <defs>
       <path id="m10cfa7bf06" d="M 0 0 
L -3.5 0 
" style="stroke: #000000; stroke-width: 0.8"/>
      </defs>
      <g>
       <use xlink:href="#m10cfa7bf06" x="108" y="615.6" style="stroke: #000000; stroke-width: 0.8"/>
      </g>
     </g>
     <g id="text_8">
      <!-- 0.0 -->
      <g transform="translate(85.096875 619.399219) scale(0.1 -0.1)">
       <use xlink:href="#DejaVuSans-30"/>
       <use xlink:href="#DejaVuSans-2e" x="63.623047"/>
       <use xlink:href="#DejaVuSans-30" x="95.410156"/>
      </g>
     </g>
    </g>
    <g id="ytick_2">
     <g id="line2d_15">
      <path d="M 108 514.8 
L 777.6 514.8 
" clip-path="url(#p51e63c6911)" style="fill: none; stroke: #b0b0b0; stroke-width: 0.8; stroke-linecap: square"/>
     </g>
     <g id="line2d_16">
      <g>
       <use xlink:href="#m10cfa7bf06" x="108" y="514.8" style="stroke: #000000; stroke-width: 0.8"/>
      </g>
     </g>
     <g id="text_9">
      <!-- 0.2 -->
      <g transform="translate(85.096875 518.599219) scale(0.1 -0.1)">
       <use xlink:href="#DejaVuSans-30"/>
       <use xlink:href="#DejaVuSans-2e" x="63.623047"/>
       <use xlink:href="#DejaVuSans-32" x="95.410156"/>
      </g>
     </g>
    </g>
    <g id="ytick_3">
     <g id="line2d_17">
      <path d="M 108 414 
L 777.6 414 
" clip-path="url(#p51e63c6911)" style="fill: none; stroke: #b0b0b0; stroke-width: 0.8; stroke-linecap: square"/>
     </g>
     <g id="line2d_18">
      <g>
       <use xlink:href="#m10cfa7bf06" x="108" y="414" style="stroke: #000000; stroke-width: 0.8"/>
      </g>
     </g>
     <g id="text_10">
      <!-- 0.4 -->
      <g transform="translate(85.096875 417.799219) scale(0.1 -0.1)">
       <use xlink:href="#DejaVuSans-30"/>
       <use xlink:href="#DejaVuSans-2e" x="63.623047"/>
       <use xlink:href="#DejaVuSans-34" x="95.410156"/>
      </g>
     </g>
    </g>
    <g id="ytick_4">
     <g id="line2d_19">
      <path d="M 108 313.2 
L 777.6 313.2 
" clip-path="url(#p51e63c6911)" style="fill: none; stroke: #b0b0b0; stroke-width: 0.8; stroke-linecap: square"/>
     </g>
     <g id="line2d_20">
      <g>
       <use xlink:href="#m10cfa7bf06" x="108" y="313.2" style="stroke: #000000; stroke-width: 0.8"/>
      </g>
     </g>
     <g id="text_11">
      <!-- 0.6 -->
      <g transform="translate(85.096875 316.999219) scale(0.1 -0.1)">
       <use xlink:href="#DejaVuSans-30"/>
       <use xlink:href="#DejaVuSans-2e" x="63.623047"/>
       <use xlink:href="#DejaVuSans-36" x="95.410156"/>
      </g>
     </g>
    </g>
    <g id="ytick_5">
     <g id="line2d_21">
      <path d="M 108 212.4 
L 777.6 212.4 
" clip-path="url(#p51e63c6911)" style="fill: none; stroke: #b0b0b0; stroke-width: 0.8; stroke-linecap: square"/>
     </g>
     <g id="line2d_22">
      <g>
       <use xlink:href="#m10cfa7bf06" x="108" y="212.4" style="stroke: #000000; stroke-width: 0.8"/>
      </g>
     </g>
     <g id="text_12">
      <!-- 0.8 -->
      <g transform="translate(85.096875 216.199219) scale(0.1 -0.1)">
       <use xlink:href="#DejaVuSans-30"/>
       <use xlink:href="#DejaVuSans-2e" x="63.623047"/>
       <use xlink:href="#DejaVuSans-38" x="95.410156"/>
      </g>
     </g>
    </g>
    <g id="ytick_6">
     <g id="line2d_23">
      <path d="M 108 111.6 
L 777.6 111.6 
" clip-path="url(#p51e63c6911)" style="fill: none; stroke: #b0b0b0; stroke-width: 0.8; stroke-linecap: square"/>
     </g>
     <g id="line2d_24">
      <g>
       <use xlink:href="#m10cfa7bf06" x="108" y="111.6" style="stroke: #000000; stroke-width: 0.8"/>
      </g>
     </g>
     <g id="text_13">
      <!-- 1.0 -->
      <g transform="translate(85.096875 115.399219) scale(0.1 -0.1)">
       <use xlink:href="#DejaVuSans-31"/>
       <use xlink:href="#DejaVuSans-2e" x="63.623047"/>
       <use xlink:href="#DejaVuSans-30" x="95.410156"/>
      </g>
     </g>
    </g>
    <g id="text_14">
     <!-- True Positive Rate -->
     <g transform="translate(79.017187 408.129687) rotate(-90) scale(0.1 -0.1)">
      <defs>
       <path id="DejaVuSans-54" d="M -19 4666 
L 3928 4666 
L 3928 4134 
L 2272 4134 
L 2272 0 
L 1638 0 
L 1638 4134 
L -19 4134 
L -19 4666 
z
" transform="scale(0.015625)"/>
       <path id="DejaVuSans-72" d="M 2631 2963 
Q 2534 3019 2420 3045 
Q 2306 3072 2169 3072 
Q 1681 3072 1420 2755 
Q 1159 2438 1159 1844 
L 1159 0 
L 581 0 
L 581 3500 
L 1159 3500 
L 1159 2956 
Q 1341 3275 1631 3429 
Q 1922 3584 2338 3584 
Q 2397 3584 2469 3576 
Q 2541 3569 2628 3553 
L 2631 2963 
z
" transform="scale(0.015625)"/>
       <path id="DejaVuSans-75" d="M 544 1381 
L 544 3500 
L 1119 3500 
L 1119 1403 
Q 1119 906 1312 657 
Q 1506 409 1894 409 
Q 2359 409 2629 706 
Q 2900 1003 2900 1516 
L 2900 3500 
L 3475 3500 
L 3475 0 
L 2900 0 
L 2900 538 
Q 2691 219 2414 64 
Q 2138 -91 1772 -91 
Q 1169 -91 856 284 
Q 544 659 544 1381 
z
M 1991 3584 
L 1991 3584 
z
" transform="scale(0.015625)"/>
      </defs>
      <use xlink:href="#DejaVuSans-54"/>
      <use xlink:href="#DejaVuSans-72" x="46.333984"/>
      <use xlink:href="#DejaVuSans-75" x="87.447266"/>
      <use xlink:href="#DejaVuSans-65" x="150.826172"/>
      <use xlink:href="#DejaVuSans-20" x="212.349609"/>
      <use xlink:href="#DejaVuSans-50" x="244.136719"/>
      <use xlink:href="#DejaVuSans-6f" x="300.814453"/>
      <use xlink:href="#DejaVuSans-73" x="361.996094"/>
      <use xlink:href="#DejaVuSans-69" x="414.095703"/>
      <use xlink:href="#DejaVuSans-74" x="441.878906"/>
      <use xlink:href="#DejaVuSans-69" x="481.087891"/>
      <use xlink:href="#DejaVuSans-76" x="508.871094"/>
      <use xlink:href="#DejaVuSans-65" x="568.050781"/>
      <use xlink:href="#DejaVuSans-20" x="629.574219"/>
      <use xlink:href="#DejaVuSans-52" x="661.361328"/>
      <use xlink:href="#DejaVuSans-61" x="728.59375"/>
      <use xlink:href="#DejaVuSans-74" x="789.873047"/>
      <use xlink:href="#DejaVuSans-65" x="829.082031"/>
     </g>
    </g>
   </g>
   <g id="line2d_25">
    <path d="M 138.436364 615.6 
L 138.436364 613.671077 
L 138.756915 611.466594 
L 138.756915 607.333188 
L 139.077467 607.333188 
L 139.077467 606.782067 
L 139.398018 606.506506 
L 139.398018 604.577583 
L 139.71857 603.475342 
L 139.71857 595.208529 
L 140.039121 595.208529 
L 140.039121 591.350683 
L 140.359673 591.350683 
L 140.359673 589.972881 
L 140.680224 589.972881 
L 140.680224 588.87064 
L 141.000776 588.87064 
L 141.000776 584.737233 
L 141.321327 584.737233 
L 141.321327 583.910552 
L 141.641879 583.083871 
L 141.641879 581.430508 
L 141.96243 580.052706 
L 141.96243 575.368179 
L 142.282981 572.337015 
L 142.603533 570.959213 
L 142.603533 568.754729 
L 142.924084 568.203609 
L 143.565187 567.928048 
L 143.565187 567.101367 
L 144.20629 565.999125 
L 144.20629 563.243521 
L 144.526842 562.967961 
L 144.526842 562.6924 
L 144.847393 562.141279 
L 145.488496 559.385675 
L 145.488496 556.354511 
L 145.809048 553.598907 
L 146.129599 553.047786 
L 146.129599 548.363259 
L 146.450151 548.363259 
L 146.450151 544.780973 
L 147.411805 536.2386 
L 148.052908 535.136359 
L 148.052908 532.931875 
L 148.694011 523.838382 
L 149.014563 523.838382 
L 149.335114 523.562821 
L 149.335114 518.878294 
L 149.655666 518.878294 
L 150.296769 516.949371 
L 150.937872 511.162603 
L 150.937872 508.958119 
L 151.258423 508.131438 
L 151.258423 507.580317 
L 151.578975 505.926955 
L 151.899526 498.762384 
L 151.899526 494.904538 
L 152.540629 493.251176 
L 152.861181 492.975615 
L 152.861181 488.291088 
L 153.502283 488.015528 
L 153.502283 482.228759 
L 153.822835 482.228759 
L 153.822835 481.677638 
L 154.143386 481.402078 
L 154.143386 480.850957 
L 154.463938 480.575396 
L 154.463938 478.922034 
L 156.066695 476.44199 
L 156.066695 475.615309 
L 156.387247 474.788628 
L 156.387247 472.584144 
L 156.707798 470.379661 
L 156.707798 469.55298 
L 157.02835 469.55298 
L 157.02835 469.277419 
L 157.348901 469.277419 
L 157.348901 462.663969 
L 157.669453 462.663969 
L 158.951659 457.152761 
L 158.951659 456.60164 
L 159.27221 456.60164 
L 159.592762 456.050519 
L 159.592762 454.672717 
L 160.554416 448.885949 
L 160.554416 446.957026 
L 160.874968 446.681465 
L 160.874968 444.752542 
L 161.195519 444.752542 
L 162.477725 438.139092 
L 162.477725 433.179005 
L 162.798277 433.179005 
L 162.798277 432.627884 
L 163.118828 432.627884 
L 163.118828 432.352324 
L 163.759931 431.801203 
L 163.759931 427.116676 
L 164.401034 426.289995 
L 164.401034 421.881028 
L 164.721586 421.881028 
L 164.721586 419.952105 
L 165.042137 419.952105 
L 165.042137 413.338655 
L 165.362688 413.338655 
L 165.362688 411.685293 
L 165.68324 411.685293 
L 165.68324 410.30749 
L 166.003791 410.03193 
L 166.003791 409.75637 
L 166.644894 409.205249 
L 166.644894 408.378568 
L 166.965446 408.378568 
L 166.965446 407.551886 
L 167.285997 407.551886 
L 167.285997 407.000765 
L 167.606549 407.000765 
L 167.606549 406.725205 
L 167.9271 406.725205 
L 167.9271 405.071843 
L 168.568203 405.071843 
L 168.568203 403.14292 
L 169.209306 400.938436 
L 169.209306 399.836195 
L 169.529858 399.560634 
L 169.529858 397.356151 
L 169.850409 397.356151 
L 169.850409 395.702788 
L 170.170961 394.324986 
L 170.491512 394.324986 
L 170.491512 393.773866 
L 170.812064 393.498305 
L 170.812064 392.947184 
L 171.132615 392.671624 
L 171.132615 391.569382 
L 171.773718 388.262657 
L 171.773718 386.609295 
L 172.414821 386.333734 
L 172.414821 385.231493 
L 172.735373 384.680372 
L 172.735373 384.129251 
L 173.055924 384.129251 
L 173.055924 382.475888 
L 173.376476 381.098086 
L 173.376476 372.555714 
L 173.697027 372.280153 
L 174.017579 372.280153 
L 174.017579 368.973428 
L 174.33813 365.115582 
L 174.658682 365.115582 
L 174.658682 364.840022 
L 174.979233 364.564461 
L 174.979233 363.46222 
L 175.299785 363.46222 
L 175.299785 359.879934 
L 175.620336 359.879934 
L 175.620336 359.604374 
L 175.940888 359.604374 
L 175.940888 358.502132 
L 176.581991 358.502132 
L 176.581991 358.226572 
L 176.902542 358.226572 
L 176.902542 357.399891 
L 177.223093 357.399891 
L 177.223093 355.470968 
L 177.543645 355.470968 
L 177.543645 354.368726 
L 177.864196 354.368726 
L 177.864196 352.990924 
L 178.184748 352.715364 
L 178.184748 351.888682 
L 178.505299 351.613122 
L 178.505299 350.23532 
L 178.825851 350.23532 
L 178.825851 349.959759 
L 179.146402 349.684199 
L 179.146402 348.857518 
L 179.466954 348.857518 
L 179.466954 348.306397 
L 179.787505 348.306397 
L 179.787505 346.653034 
L 180.108057 346.653034 
L 180.108057 346.101914 
L 180.428608 346.101914 
L 180.428608 344.448551 
L 180.74916 344.172991 
L 180.74916 341.692947 
L 181.069711 341.417387 
L 181.069711 341.141826 
L 181.390263 340.315145 
L 181.710814 340.315145 
L 181.710814 337.835101 
L 182.031366 337.835101 
L 182.031366 337.00842 
L 182.672469 337.00842 
L 182.672469 335.630618 
L 182.99302 335.355057 
L 182.99302 334.803937 
L 183.313572 334.528376 
L 183.313572 334.252816 
L 183.634123 334.252816 
L 184.275226 333.701695 
L 184.275226 332.875014 
L 184.595778 332.875014 
L 184.595778 330.67053 
L 184.916329 330.67053 
L 185.236881 329.292728 
L 185.557432 329.292728 
L 185.557432 328.466047 
L 185.877984 327.914926 
L 185.877984 327.639366 
L 186.519087 327.088245 
L 186.519087 325.986003 
L 186.839638 325.986003 
L 186.839638 325.710443 
L 187.16019 325.710443 
L 187.16019 324.883762 
L 187.480741 324.608201 
L 187.480741 324.05708 
L 187.801293 324.05708 
L 187.801293 322.679278 
L 188.762947 322.679278 
L 188.762947 322.403718 
L 189.083498 322.403718 
L 189.083498 322.128157 
L 190.045153 322.128157 
L 190.045153 320.750355 
L 190.365704 320.750355 
L 190.365704 319.923674 
L 190.686256 319.923674 
L 190.686256 317.44363 
L 191.968462 315.514707 
L 191.968462 314.412466 
L 192.289013 314.412466 
L 192.289013 313.861345 
L 192.609565 313.861345 
L 192.609565 313.310224 
L 192.930116 313.310224 
L 192.930116 310.55462 
L 193.250668 310.55462 
L 193.250668 310.003499 
L 193.571219 310.003499 
L 193.571219 307.799016 
L 194.532874 306.972335 
L 194.853425 306.972335 
L 194.853425 306.696774 
L 195.173977 306.421214 
L 195.494528 306.421214 
L 195.494528 305.870093 
L 195.81508 305.318972 
L 195.81508 304.767851 
L 196.135631 304.767851 
L 196.135631 303.114489 
L 196.776734 303.114489 
L 197.417837 302.838928 
L 197.417837 300.910005 
L 198.05894 300.910005 
L 198.05894 300.634445 
L 198.379492 300.634445 
L 198.379492 300.358885 
L 199.341146 300.358885 
L 199.661698 300.083324 
L 199.982249 300.083324 
L 199.982249 298.705522 
L 201.264455 298.705522 
L 201.264455 298.154401 
L 201.585006 296.776599 
L 202.226109 296.776599 
L 202.226109 296.225478 
L 202.546661 296.225478 
L 203.187764 295.674358 
L 203.187764 294.020995 
L 204.149418 294.020995 
L 204.149418 290.989831 
L 204.790521 290.989831 
L 204.790521 289.887589 
L 205.111073 289.887589 
L 205.111073 289.336468 
L 205.431624 289.336468 
L 205.431624 287.131985 
L 206.072727 287.131985 
L 206.072727 286.856424 
L 206.393279 286.856424 
L 206.393279 285.754183 
L 207.034382 285.754183 
L 207.034382 285.478622 
L 207.354933 285.478622 
L 207.354933 284.927501 
L 207.996036 284.927501 
L 207.996036 284.376381 
L 208.637139 284.376381 
L 208.637139 283.274139 
L 208.957691 282.998578 
L 208.957691 282.723018 
L 209.919345 282.723018 
L 209.919345 281.345216 
L 210.560448 281.345216 
L 210.560448 279.967414 
L 210.881 279.416293 
L 210.881 278.865172 
L 211.201551 278.865172 
L 211.522103 278.314051 
L 211.522103 277.762931 
L 211.842654 277.762931 
L 212.163206 277.48737 
L 212.163206 277.21181 
L 212.483757 277.21181 
L 212.483757 276.936249 
L 213.445411 276.936249 
L 214.086514 276.385128 
L 214.086514 276.109568 
L 214.407066 276.109568 
L 214.407066 275.834008 
L 214.727617 275.834008 
L 214.727617 273.905085 
L 215.048169 273.905085 
L 215.048169 273.629524 
L 215.36872 273.629524 
L 215.689272 273.353964 
L 215.689272 273.078403 
L 216.009823 273.078403 
L 216.009823 271.976162 
L 216.971478 271.976162 
L 216.971478 271.700601 
L 217.292029 270.87392 
L 217.612581 270.59836 
L 217.612581 270.322799 
L 217.933132 270.322799 
L 217.933132 268.669437 
L 218.894787 268.669437 
L 218.894787 268.118316 
L 219.215338 265.913833 
L 219.53589 265.913833 
L 219.53589 264.811591 
L 219.856441 264.811591 
L 219.856441 264.26047 
L 220.176993 264.26047 
L 220.176993 263.98491 
L 220.497544 263.98491 
L 221.138647 263.433789 
L 222.420853 263.433789 
L 222.420853 263.158229 
L 222.741405 263.158229 
L 225.305816 260.678185 
L 225.626368 260.678185 
L 225.626368 260.127064 
L 225.946919 260.127064 
L 227.229125 259.024822 
L 227.229125 258.198141 
L 227.549677 258.198141 
L 227.870228 257.922581 
L 228.19078 257.922581 
L 228.19078 257.64702 
L 228.511331 257.64702 
L 229.793537 257.37146 
L 229.793537 256.820339 
L 230.43464 256.820339 
L 231.396295 255.718097 
L 232.037398 255.718097 
L 232.037398 254.891416 
L 232.357949 254.891416 
L 232.357949 254.615856 
L 232.678501 254.615856 
L 232.678501 253.238054 
L 234.281258 253.238054 
L 234.281258 252.411372 
L 234.60181 252.411372 
L 234.60181 252.135812 
L 234.922361 252.135812 
L 234.922361 251.860252 
L 235.242913 251.860252 
L 235.563464 251.584691 
L 235.884016 251.584691 
L 235.884016 251.03357 
L 236.204567 251.03357 
L 236.84567 250.482449 
L 236.84567 249.931329 
L 237.166221 249.380208 
L 237.166221 248.829087 
L 237.486773 248.829087 
L 237.486773 248.277966 
L 237.807324 248.277966 
L 237.807324 247.175724 
L 239.08953 247.175724 
L 239.08953 246.900164 
L 240.692288 246.900164 
L 240.692288 246.624604 
L 241.012839 246.624604 
L 241.012839 245.797922 
L 241.333391 245.797922 
L 241.333391 244.971241 
L 241.974494 244.971241 
L 241.974494 244.695681 
L 242.295045 244.695681 
L 242.295045 244.42012 
L 242.936148 244.42012 
L 242.936148 243.868999 
L 243.2567 243.868999 
L 243.2567 243.593439 
L 243.897803 243.593439 
L 243.897803 241.940077 
L 244.538906 241.940077 
L 244.538906 241.664516 
L 244.859457 241.388956 
L 244.859457 241.113395 
L 246.462215 241.113395 
L 246.462215 240.837835 
L 247.423869 240.837835 
L 247.423869 240.011154 
L 247.744421 240.011154 
L 247.744421 238.908912 
L 249.026626 238.908912 
L 249.026626 238.357791 
L 249.347178 238.357791 
L 249.347178 236.979989 
L 250.308832 236.979989 
L 250.308832 236.704429 
L 250.629384 236.704429 
L 250.629384 236.428868 
L 251.270487 236.428868 
L 251.270487 236.153308 
L 251.591038 236.153308 
L 251.591038 234.775506 
L 251.91159 234.775506 
L 251.91159 234.499945 
L 252.232141 234.499945 
L 252.232141 233.948824 
L 252.552693 233.948824 
L 252.552693 233.122143 
L 253.193796 233.122143 
L 253.193796 232.846583 
L 254.15545 232.846583 
L 254.15545 232.571022 
L 254.796553 232.571022 
L 255.117105 232.295462 
L 255.117105 232.019902 
L 255.437656 232.019902 
L 255.437656 230.6421 
L 256.399311 230.6421 
L 256.719862 230.366539 
L 257.040414 230.366539 
L 257.040414 229.815418 
L 257.360965 229.815418 
L 257.681517 229.264297 
L 257.681517 228.713177 
L 258.32262 228.713177 
L 258.32262 227.610935 
L 259.284274 227.610935 
L 259.284274 226.784254 
L 259.604826 226.508693 
L 259.604826 225.957572 
L 260.245928 225.957572 
L 260.56648 225.682012 
L 260.887031 225.682012 
L 262.169237 224.57977 
L 262.169237 223.753089 
L 262.81034 223.477529 
L 263.771995 223.477529 
L 263.771995 223.201968 
L 264.092546 223.201968 
L 264.092546 222.375287 
L 264.413098 222.375287 
L 264.413098 221.824166 
L 264.733649 221.548606 
L 264.733649 221.273045 
L 265.054201 221.273045 
L 265.054201 220.721925 
L 265.695304 220.721925 
L 266.015855 220.446364 
L 266.656958 220.446364 
L 266.97751 219.895243 
L 266.97751 218.793002 
L 267.298061 218.517441 
L 268.259716 218.517441 
L 270.824128 217.4152 
L 270.824128 217.139639 
L 271.465231 216.864079 
L 273.709091 214.935156 
L 273.709091 214.659595 
L 275.6324 213.832914 
L 276.594054 213.832914 
L 276.594054 213.281793 
L 276.914606 213.281793 
L 276.914606 213.006233 
L 277.235157 213.006233 
L 277.235157 212.730672 
L 278.196812 212.730672 
L 278.196812 212.455112 
L 278.517363 212.455112 
L 278.517363 212.179552 
L 279.158466 211.07731 
L 280.440672 210.526189 
L 282.04343 208.872827 
L 282.04343 208.321706 
L 283.005084 207.219464 
L 283.966738 207.219464 
L 284.28729 206.943904 
L 285.248944 206.668343 
L 285.890047 206.668343 
L 285.890047 206.117223 
L 286.210599 205.566102 
L 286.851702 205.566102 
L 287.172253 205.290541 
L 288.133908 205.290541 
L 288.454459 205.014981 
L 288.775011 205.014981 
L 288.775011 204.73942 
L 290.057217 203.912739 
L 290.377768 203.912739 
L 290.377768 203.361618 
L 290.69832 203.361618 
L 291.980526 203.086058 
L 292.621629 203.086058 
L 293.262732 202.810498 
L 293.262732 202.534937 
L 293.583283 201.708256 
L 294.224386 201.708256 
L 294.224386 200.881575 
L 294.544938 200.881575 
L 294.544938 200.606014 
L 294.865489 200.606014 
L 294.865489 200.054893 
L 295.18604 200.054893 
L 295.18604 199.503773 
L 296.147695 199.503773 
L 296.147695 199.228212 
L 296.468246 199.228212 
L 296.468246 198.952652 
L 296.788798 198.677091 
L 296.788798 198.401531 
L 297.429901 198.401531 
L 298.391555 198.12597 
L 299.032658 197.57485 
L 299.673761 197.57485 
L 299.994313 197.023729 
L 299.994313 196.748168 
L 300.314864 196.748168 
L 300.314864 195.094806 
L 302.238173 195.094806 
L 302.238173 194.543685 
L 302.558725 194.543685 
L 302.558725 194.268125 
L 303.840931 194.268125 
L 304.161482 193.992564 
L 304.802585 193.992564 
L 304.802585 193.717004 
L 305.123137 193.717004 
L 305.123137 193.441443 
L 305.76424 193.165883 
L 306.405343 193.165883 
L 306.405343 192.339202 
L 307.366997 192.339202 
L 307.366997 192.063641 
L 308.0081 192.063641 
L 308.0081 191.512521 
L 308.649203 191.23696 
L 308.969754 191.23696 
L 308.969754 190.9614 
L 309.290306 190.9614 
L 309.290306 190.685839 
L 309.610857 190.685839 
L 309.610857 190.134718 
L 309.931409 190.134718 
L 309.931409 189.859158 
L 313.778027 189.859158 
L 315.060233 188.205796 
L 316.983542 187.654675 
L 320.189056 187.654675 
L 322.112365 187.379114 
L 322.753468 187.103554 
L 323.07402 187.103554 
L 323.07402 186.827993 
L 323.715123 186.827993 
L 323.715123 186.001312 
L 324.035674 186.001312 
L 324.035674 185.725752 
L 324.676777 185.725752 
L 324.676777 185.450191 
L 324.997329 185.174631 
L 325.31788 185.174631 
L 325.638432 184.899071 
L 326.600086 184.899071 
L 326.600086 184.34795 
L 327.241189 184.34795 
L 327.241189 184.072389 
L 327.561741 183.245708 
L 333.331667 180.214543 
L 333.331667 179.938983 
L 338.460491 178.285621 
L 338.460491 178.01006 
L 338.781043 178.01006 
L 338.781043 177.458939 
L 339.101594 177.458939 
L 339.101594 176.907818 
L 339.422146 176.907818 
L 339.422146 176.632258 
L 340.3838 176.632258 
L 340.3838 176.356698 
L 341.024903 176.081137 
L 342.307109 176.081137 
L 342.307109 175.805577 
L 342.62766 175.805577 
L 342.62766 175.530016 
L 343.268763 175.530016 
L 343.268763 175.254456 
L 346.153727 172.774412 
L 348.397587 172.498852 
L 353.846963 171.12105 
L 353.846963 170.569929 
L 355.129168 170.569929 
L 355.44972 170.294369 
L 355.44972 170.018808 
L 356.090823 169.743248 
L 357.69358 169.743248 
L 357.69358 169.467687 
L 358.014132 169.467687 
L 358.014132 169.192127 
L 358.655235 168.916566 
L 359.616889 168.916566 
L 359.616889 168.641006 
L 359.937441 168.641006 
L 359.937441 168.365446 
L 361.86075 168.365446 
L 361.86075 168.089885 
L 362.822404 168.089885 
L 362.822404 167.814325 
L 363.142956 167.538764 
L 363.142956 167.263204 
L 364.10461 167.263204 
L 364.10461 166.987644 
L 373.400603 164.232039 
L 376.606118 163.956479 
L 376.606118 163.680919 
L 380.452736 163.680919 
L 380.452736 163.405358 
L 380.773287 163.405358 
L 381.41439 163.129798 
L 381.41439 162.854237 
L 385.261008 162.854237 
L 385.58156 162.578677 
L 387.82542 162.303116 
L 387.82542 162.027556 
L 388.145972 162.027556 
L 388.787075 161.751996 
L 391.992589 161.751996 
L 391.992589 161.476435 
L 392.954244 160.925314 
L 392.954244 160.649754 
L 393.915898 160.649754 
L 393.915898 160.374194 
L 394.877553 160.374194 
L 394.877553 160.098633 
L 395.198104 160.098633 
L 395.198104 159.823073 
L 395.518656 159.823073 
L 396.159759 159.547512 
L 396.48031 159.271952 
L 396.48031 158.996391 
L 397.441965 158.720831 
L 397.441965 158.445271 
L 398.724171 158.445271 
L 398.724171 158.16971 
L 401.609134 158.16971 
L 401.609134 157.89415 
L 402.250237 157.89415 
L 402.250237 157.618589 
L 402.570788 157.618589 
L 402.570788 157.343029 
L 402.89134 157.343029 
L 402.89134 157.067469 
L 404.173546 157.067469 
L 406.096855 156.240787 
L 406.096855 155.965227 
L 406.417406 155.965227 
L 406.417406 155.138546 
L 407.058509 155.138546 
L 407.379061 154.862985 
L 407.699612 154.862985 
L 408.020164 154.587425 
L 408.661267 154.587425 
L 408.981818 154.311864 
L 410.264024 154.311864 
L 412.828436 153.209623 
L 413.148988 153.209623 
L 414.110642 152.658502 
L 414.110642 152.382941 
L 414.751745 152.382941 
L 414.751745 151.831821 
L 415.072296 151.2807 
L 415.072296 150.454019 
L 415.392848 150.454019 
L 415.392848 149.627337 
L 417.95726 149.627337 
L 417.95726 149.351777 
L 419.560017 149.351777 
L 419.560017 149.076217 
L 419.880569 149.076217 
L 420.842223 148.800656 
L 421.483326 148.800656 
L 421.483326 148.249535 
L 422.124429 148.249535 
L 422.765532 147.973975 
L 423.086084 147.973975 
L 423.406635 147.698414 
L 424.36829 147.147294 
L 425.009393 147.147294 
L 425.009393 146.871733 
L 425.650495 146.871733 
L 425.650495 146.045052 
L 427.573804 146.045052 
L 427.573804 145.769492 
L 428.535459 145.769492 
L 428.85601 145.493931 
L 428.85601 145.218371 
L 429.176562 145.218371 
L 429.817665 144.94281 
L 429.817665 144.66725 
L 430.458768 144.66725 
L 430.458768 143.840569 
L 431.099871 143.840569 
L 431.740974 143.565008 
L 432.702628 143.565008 
L 432.702628 143.013887 
L 433.02318 142.738327 
L 433.343731 142.738327 
L 433.984834 142.462767 
L 435.26704 142.462767 
L 435.26704 142.187206 
L 437.5109 142.187206 
L 437.5109 141.911646 
L 438.793106 141.636085 
L 442.319173 141.636085 
L 442.319173 141.084964 
L 444.242482 141.084964 
L 444.563033 140.533844 
L 444.883585 140.533844 
L 446.486342 139.982723 
L 446.806894 139.707162 
L 447.127445 138.880481 
L 447.127445 138.32936 
L 448.730202 138.0538 
L 450.33296 138.0538 
L 451.615166 137.778239 
L 453.859026 137.502679 
L 455.782335 137.502679 
L 455.782335 137.227119 
L 456.423438 137.227119 
L 456.423438 136.951558 
L 457.705644 136.951558 
L 457.705644 136.400437 
L 459.308402 136.400437 
L 459.308402 136.124877 
L 460.911159 136.124877 
L 461.23171 135.849317 
L 461.552262 135.849317 
L 461.872813 135.573756 
L 462.834468 135.573756 
L 462.834468 135.298196 
L 466.039983 135.298196 
L 466.039983 135.022635 
L 466.681086 135.022635 
L 466.681086 134.747075 
L 468.283843 134.747075 
L 468.283843 134.471514 
L 469.245498 134.471514 
L 469.886601 134.195954 
L 470.527704 134.195954 
L 471.168807 133.920394 
L 472.130461 133.920394 
L 472.130461 133.644833 
L 472.451012 133.369273 
L 473.412667 133.369273 
L 473.412667 132.818152 
L 474.694873 132.818152 
L 475.015424 132.542592 
L 476.29763 132.542592 
L 476.29763 132.267031 
L 477.259285 132.267031 
L 477.259285 131.991471 
L 479.503145 131.991471 
L 480.785351 131.44035 
L 484.631969 131.44035 
L 485.273072 131.16479 
L 486.875829 131.16479 
L 487.837484 130.613669 
L 488.158035 130.613669 
L 489.760793 130.338108 
L 489.760793 130.062548 
L 490.081344 128.960306 
L 492.325205 128.960306 
L 492.325205 128.684746 
L 493.286859 128.684746 
L 493.286859 128.409185 
L 494.569065 128.409185 
L 494.569065 127.582504 
L 496.812925 127.582504 
L 496.812925 127.306944 
L 500.980095 127.306944 
L 500.980095 127.031383 
L 502.903404 127.031383 
L 502.903404 126.755823 
L 504.506161 126.755823 
L 505.147264 126.480262 
L 506.108919 126.204702 
L 506.42947 125.929142 
L 507.070573 125.653581 
L 507.391125 125.653581 
L 507.391125 125.378021 
L 509.634985 125.378021 
L 509.634985 125.10246 
L 511.237742 125.10246 
L 511.237742 124.8269 
L 512.519948 124.8269 
L 512.519948 124.55134 
L 514.122706 124.55134 
L 514.443257 124.275779 
L 516.046015 124.275779 
L 516.366566 124.000219 
L 516.687118 124.000219 
L 518.289875 123.724658 
L 523.418699 123.724658 
L 524.059802 123.449098 
L 525.021456 123.449098 
L 525.021456 123.173537 
L 525.662559 123.173537 
L 525.662559 122.897977 
L 528.226971 122.897977 
L 528.226971 122.622417 
L 528.547523 122.622417 
L 528.547523 122.346856 
L 528.868074 122.346856 
L 528.868074 122.071296 
L 534.317449 122.071296 
L 535.920207 121.520175 
L 535.920207 121.244615 
L 536.881861 121.244615 
L 539.446273 120.969054 
L 540.728479 120.969054 
L 540.728479 120.693494 
L 554.832745 120.693494 
L 555.153296 120.417933 
L 557.397156 120.417933 
L 557.397156 120.142373 
L 568.93701 120.142373 
L 568.93701 119.591252 
L 572.463076 119.591252 
L 572.463076 119.315692 
L 577.912452 119.315692 
L 578.233003 119.040131 
L 579.83576 119.040131 
L 580.156312 118.764571 
L 582.079621 118.764571 
L 582.079621 118.48901 
L 592.978371 118.48901 
L 592.978371 118.21345 
L 593.298923 118.21345 
L 593.298923 117.93789 
L 595.222232 117.93789 
L 595.542783 117.662329 
L 596.504438 117.662329 
L 596.504438 116.835648 
L 598.427747 116.835648 
L 598.427747 116.560087 
L 617.340284 116.560087 
L 618.301939 116.008967 
L 627.27738 116.008967 
L 627.918483 115.733406 
L 628.239035 115.733406 
L 628.239035 115.457846 
L 628.559586 115.457846 
L 629.521241 114.906725 
L 630.803447 114.631165 
L 642.663852 114.631165 
L 642.663852 114.355604 
L 652.280396 114.355604 
L 655.16536 114.080044 
L 655.16536 113.804483 
L 667.987419 113.804483 
L 669.590177 113.253362 
L 678.245067 113.253362 
L 678.245067 112.977802 
L 683.373891 112.977802 
L 685.617751 112.702242 
L 702.927531 112.702242 
L 705.812495 112.426681 
L 709.338561 112.426681 
L 712.223524 112.151121 
L 712.544076 112.151121 
L 726.007238 111.87556 
L 735.944334 111.87556 
L 742.675916 111.6 
L 747.163636 111.6 
L 747.163636 111.6 
" clip-path="url(#p51e63c6911)" style="fill: none; stroke: #1f77b4; stroke-width: 2; stroke-linecap: square"/>
   </g>
   <g id="line2d_26">
    <path d="M 138.436364 615.6 
L 138.436364 614.379661 
L 139.09232 614.379661 
L 139.09232 602.176271 
L 139.748276 602.176271 
L 139.748276 598.515254 
L 140.404232 598.515254 
L 140.404232 596.684746 
L 141.060188 596.684746 
L 141.060188 583.871186 
L 141.716144 583.871186 
L 141.716144 582.040678 
L 142.3721 582.040678 
L 142.3721 580.820339 
L 143.028056 580.210169 
L 143.028056 568.00678 
L 143.684013 568.00678 
L 143.684013 566.176271 
L 144.339969 566.176271 
L 144.339969 564.345763 
L 144.995925 564.345763 
L 144.995925 563.125424 
L 145.651881 563.125424 
L 145.651881 561.905085 
L 146.307837 561.905085 
L 146.307837 547.261017 
L 146.963793 547.261017 
L 146.963793 537.498305 
L 147.619749 537.498305 
L 147.619749 529.566102 
L 148.275705 529.566102 
L 148.275705 527.125424 
L 148.931661 527.125424 
L 148.931661 524.074576 
L 149.587618 523.464407 
L 149.587618 516.142373 
L 150.243574 516.142373 
L 150.243574 514.311864 
L 150.89953 514.311864 
L 150.89953 513.701695 
L 151.555486 513.701695 
L 151.555486 509.430508 
L 152.211442 509.430508 
L 152.211442 507.6 
L 152.867398 507.6 
L 152.867398 505.769492 
L 154.17931 505.769492 
L 154.17931 497.837288 
L 154.835266 497.837288 
L 154.835266 491.125424 
L 155.491223 491.125424 
L 155.491223 489.294915 
L 156.147179 489.294915 
L 156.147179 483.80339 
L 156.803135 483.19322 
L 156.803135 470.989831 
L 157.459091 470.989831 
L 157.459091 467.328814 
L 158.115047 467.328814 
L 158.115047 465.498305 
L 158.771003 465.498305 
L 158.771003 464.888136 
L 159.426959 464.888136 
L 159.426959 460.00678 
L 160.082915 460.00678 
L 160.082915 457.566102 
L 160.738871 457.566102 
L 160.738871 451.464407 
L 162.050784 451.464407 
L 162.050784 441.701695 
L 162.70674 441.701695 
L 162.70674 434.379661 
L 163.362696 434.379661 
L 163.362696 425.227119 
L 164.018652 425.227119 
L 164.018652 420.345763 
L 164.674608 420.345763 
L 164.674608 417.294915 
L 165.98652 417.294915 
L 165.98652 413.023729 
L 166.642476 413.023729 
L 166.642476 411.80339 
L 167.298433 411.80339 
L 167.298433 402.650847 
L 167.954389 402.040678 
L 167.954389 397.769492 
L 168.610345 397.769492 
L 168.610345 394.718644 
L 169.266301 394.718644 
L 169.266301 391.057627 
L 169.922257 391.057627 
L 169.922257 390.447458 
L 170.578213 390.447458 
L 170.578213 387.39661 
L 171.234169 387.39661 
L 171.234169 386.176271 
L 171.890125 386.176271 
L 171.890125 384.955932 
L 172.546082 384.955932 
L 172.546082 380.684746 
L 173.202038 380.684746 
L 173.202038 380.074576 
L 173.857994 380.074576 
L 173.857994 377.023729 
L 175.169906 377.023729 
L 175.169906 372.752542 
L 175.825862 372.752542 
L 175.825862 366.650847 
L 176.481818 366.040678 
L 176.481818 363.6 
L 178.449687 363.6 
L 178.449687 360.549153 
L 180.417555 360.549153 
L 180.417555 359.328814 
L 181.073511 359.328814 
L 181.073511 357.498305 
L 183.697335 357.498305 
L 183.697335 356.888136 
L 184.353292 356.277966 
L 184.353292 341.023729 
L 185.009248 341.023729 
L 185.009248 340.413559 
L 185.665204 340.413559 
L 185.665204 337.972881 
L 186.32116 337.972881 
L 186.32116 336.752542 
L 187.633072 336.752542 
L 187.633072 333.701695 
L 188.289028 333.701695 
L 188.289028 330.650847 
L 190.912853 330.650847 
L 190.912853 326.989831 
L 191.568809 326.989831 
L 191.568809 324.549153 
L 192.224765 324.549153 
L 192.224765 321.498305 
L 192.880721 321.498305 
L 192.880721 320.277966 
L 193.536677 320.277966 
L 193.536677 314.176271 
L 194.192633 314.176271 
L 194.192633 313.566102 
L 196.160502 313.566102 
L 196.160502 307.464407 
L 196.816458 306.854237 
L 196.816458 305.633898 
L 197.472414 305.633898 
L 197.472414 304.413559 
L 198.12837 304.413559 
L 198.12837 303.80339 
L 199.440282 303.80339 
L 199.440282 300.142373 
L 200.096238 300.142373 
L 200.096238 299.532203 
L 200.752194 299.532203 
L 200.752194 298.311864 
L 201.40815 298.311864 
L 201.40815 297.091525 
L 202.064107 297.091525 
L 202.064107 295.871186 
L 203.376019 295.871186 
L 203.376019 294.650847 
L 204.687931 294.650847 
L 204.687931 294.040678 
L 205.343887 294.040678 
L 205.343887 293.430508 
L 205.999843 293.430508 
L 205.999843 290.379661 
L 206.655799 290.379661 
L 206.655799 289.159322 
L 207.311755 288.549153 
L 207.311755 286.718644 
L 207.967712 286.108475 
L 207.967712 285.498305 
L 208.623668 285.498305 
L 208.623668 282.447458 
L 209.279624 282.447458 
L 209.279624 280.616949 
L 209.93558 280.616949 
L 209.93558 280.00678 
L 210.591536 280.00678 
L 210.591536 277.566102 
L 211.247492 277.566102 
L 211.247492 274.515254 
L 212.559404 274.515254 
L 212.559404 268.413559 
L 213.215361 268.413559 
L 213.215361 265.972881 
L 213.871317 265.972881 
L 213.871317 264.142373 
L 214.527273 264.142373 
L 214.527273 263.532203 
L 215.183229 263.532203 
L 215.183229 262.311864 
L 215.839185 262.311864 
L 215.839185 259.871186 
L 216.495141 259.871186 
L 216.495141 258.650847 
L 217.151097 258.650847 
L 217.807053 258.040678 
L 218.463009 258.040678 
L 218.463009 255.6 
L 219.118966 255.6 
L 219.118966 253.769492 
L 219.774922 253.769492 
L 219.774922 252.549153 
L 221.086834 252.549153 
L 221.086834 250.108475 
L 221.74279 250.108475 
L 221.74279 247.667797 
L 222.398746 247.667797 
L 222.398746 245.227119 
L 223.054702 245.227119 
L 223.054702 244.616949 
L 224.366614 244.616949 
L 224.366614 241.566102 
L 225.678527 241.566102 
L 225.678527 240.955932 
L 226.334483 240.955932 
L 226.334483 240.345763 
L 228.302351 240.345763 
L 228.302351 239.735593 
L 228.958307 239.735593 
L 228.958307 239.125424 
L 230.926176 239.125424 
L 230.926176 236.684746 
L 231.582132 236.684746 
L 231.582132 236.074576 
L 232.238088 236.074576 
L 232.238088 233.633898 
L 232.894044 233.633898 
L 232.894044 231.19322 
L 234.205956 231.19322 
L 234.205956 228.142373 
L 234.861912 228.142373 
L 234.861912 225.701695 
L 235.517868 225.701695 
L 235.517868 225.091525 
L 238.141693 225.091525 
L 238.141693 222.650847 
L 238.797649 222.650847 
L 238.797649 220.820339 
L 242.733386 220.820339 
L 242.733386 220.210169 
L 245.35721 220.210169 
L 245.35721 219.6 
L 247.981034 219.6 
L 247.981034 218.379661 
L 249.292947 218.379661 
L 249.292947 217.769492 
L 249.948903 217.769492 
L 249.948903 216.549153 
L 250.604859 216.549153 
L 250.604859 215.938983 
L 251.260815 215.938983 
L 251.260815 215.328814 
L 252.572727 215.328814 
L 252.572727 212.888136 
L 253.228683 212.888136 
L 253.228683 212.277966 
L 255.852508 212.277966 
L 255.852508 209.227119 
L 256.508464 209.227119 
L 256.508464 208.00678 
L 257.16442 208.00678 
L 257.16442 207.39661 
L 257.820376 207.39661 
L 257.820376 204.955932 
L 261.100157 204.955932 
L 261.100157 203.125424 
L 263.723981 203.125424 
L 263.723981 202.515254 
L 264.379937 202.515254 
L 264.379937 200.684746 
L 265.035893 200.684746 
L 265.035893 199.464407 
L 267.659718 199.464407 
L 267.659718 197.633898 
L 268.97163 197.633898 
L 268.97163 197.023729 
L 269.627586 197.023729 
L 269.627586 196.413559 
L 270.939498 196.413559 
L 270.939498 195.80339 
L 273.563323 195.80339 
L 273.563323 194.583051 
L 274.219279 194.583051 
L 274.219279 193.362712 
L 275.531191 193.362712 
L 275.531191 192.752542 
L 277.49906 192.752542 
L 277.49906 190.311864 
L 278.155016 190.311864 
L 278.155016 189.091525 
L 279.466928 189.091525 
L 279.466928 187.871186 
L 280.77884 187.871186 
L 280.77884 186.650847 
L 281.434796 186.650847 
L 281.434796 186.040678 
L 282.746708 186.040678 
L 282.746708 185.430508 
L 285.370533 185.430508 
L 285.370533 182.989831 
L 286.026489 182.989831 
L 286.026489 182.379661 
L 286.682445 182.379661 
L 286.682445 181.159322 
L 288.650313 181.159322 
L 288.650313 179.328814 
L 292.58605 179.328814 
L 292.58605 178.718644 
L 293.897962 178.718644 
L 293.897962 176.888136 
L 299.145611 176.888136 
L 299.145611 176.277966 
L 300.457524 176.277966 
L 300.457524 175.667797 
L 302.425392 175.667797 
L 302.425392 174.447458 
L 312.92069 174.447458 
L 312.92069 173.837288 
L 313.576646 173.837288 
L 313.576646 172.616949 
L 314.232602 172.616949 
L 314.232602 171.39661 
L 314.888558 171.39661 
L 314.888558 170.786441 
L 316.856426 170.786441 
L 316.856426 168.955932 
L 317.512382 168.955932 
L 317.512382 168.345763 
L 318.824295 168.345763 
L 318.824295 167.735593 
L 319.480251 167.735593 
L 319.480251 167.125424 
L 320.792163 167.125424 
L 320.792163 166.515254 
L 321.448119 166.515254 
L 322.104075 165.905085 
L 324.071944 165.905085 
L 324.071944 163.464407 
L 324.7279 163.464407 
L 324.7279 162.854237 
L 331.287461 162.854237 
L 331.287461 162.244068 
L 333.255329 162.244068 
L 333.255329 161.633898 
L 335.879154 161.633898 
L 335.879154 161.023729 
L 336.53511 161.023729 
L 336.53511 160.413559 
L 337.847022 160.413559 
L 337.847022 159.80339 
L 338.502978 159.19322 
L 338.502978 158.583051 
L 341.782759 158.583051 
L 341.782759 157.972881 
L 343.094671 157.972881 
L 343.094671 156.752542 
L 345.062539 156.752542 
L 345.062539 156.142373 
L 352.278056 156.142373 
L 352.278056 155.532203 
L 357.525705 155.532203 
L 357.525705 154.311864 
L 359.493574 154.311864 
L 359.493574 153.091525 
L 362.773354 153.091525 
L 362.773354 151.871186 
L 363.42931 151.871186 
L 363.42931 151.261017 
L 364.085266 151.261017 
L 364.085266 150.650847 
L 364.741223 150.650847 
L 364.741223 150.040678 
L 369.332915 150.040678 
L 369.332915 148.820339 
L 375.892476 148.820339 
L 375.892476 148.210169 
L 380.484169 148.210169 
L 380.484169 146.989831 
L 383.107994 146.989831 
L 383.107994 145.769492 
L 383.76395 145.769492 
L 383.76395 145.159322 
L 389.667555 145.159322 
L 389.667555 144.549153 
L 394.259248 144.549153 
L 394.259248 143.938983 
L 394.915204 143.938983 
L 394.915204 143.328814 
L 396.883072 143.328814 
L 396.883072 142.108475 
L 398.85094 142.108475 
L 398.85094 140.888136 
L 399.506897 140.888136 
L 399.506897 140.277966 
L 403.442633 140.277966 
L 403.442633 139.057627 
L 408.034326 139.057627 
L 408.034326 137.837288 
L 409.346238 137.837288 
L 409.346238 136.616949 
L 413.937931 136.616949 
L 413.937931 135.39661 
L 422.465361 135.39661 
L 422.465361 134.786441 
L 428.368966 134.786441 
L 428.368966 134.176271 
L 437.552351 134.176271 
L 437.552351 133.566102 
L 440.176176 133.566102 
L 440.176176 132.955932 
L 441.488088 132.955932 
L 441.488088 132.345763 
L 442.144044 132.345763 
L 442.144044 131.125424 
L 443.455956 131.125424 
L 443.455956 130.515254 
L 452.639342 130.515254 
L 452.639342 129.905085 
L 453.295298 129.294915 
L 453.295298 128.684746 
L 454.60721 128.684746 
L 454.60721 128.074576 
L 459.198903 128.074576 
L 459.198903 127.464407 
L 464.446552 127.464407 
L 464.446552 126.854237 
L 479.533542 126.854237 
L 479.533542 126.244068 
L 482.157367 126.244068 
L 482.157367 125.633898 
L 495.276489 125.633898 
L 495.276489 125.023729 
L 501.83605 125.023729 
L 501.83605 124.413559 
L 512.331348 124.413559 
L 512.331348 123.80339 
L 516.267085 123.80339 
L 516.267085 123.19322 
L 516.923041 123.19322 
L 516.923041 121.362712 
L 517.578997 121.362712 
L 517.578997 120.752542 
L 530.698119 120.752542 
L 530.698119 120.142373 
L 532.665987 120.142373 
L 532.665987 119.532203 
L 538.569592 119.532203 
L 538.569592 118.922034 
L 551.688715 118.922034 
L 551.688715 118.311864 
L 554.312539 118.311864 
L 554.312539 117.701695 
L 554.968495 117.701695 
L 554.968495 117.091525 
L 555.624451 117.091525 
L 555.624451 116.481356 
L 571.367398 116.481356 
L 571.367398 115.871186 
L 573.991223 115.871186 
L 573.991223 115.261017 
L 586.454389 115.261017 
L 586.454389 114.650847 
L 599.573511 114.650847 
L 599.573511 114.040678 
L 631.059404 114.040678 
L 631.059404 113.430508 
L 653.361912 113.430508 
L 653.361912 112.820339 
L 708.462226 112.820339 
L 708.462226 112.210169 
L 744.539812 112.210169 
L 744.539812 111.6 
L 747.163636 111.6 
L 747.163636 111.6 
" clip-path="url(#p51e63c6911)" style="fill: none; stroke: #ff7f0e; stroke-width: 2; stroke-linecap: square"/>
   </g>
   <g id="line2d_27">
    <path d="M 138.436364 615.6 
L 139.203989 615.6 
L 139.203989 613.485315 
L 139.971615 613.485315 
L 139.971615 605.731469 
L 140.739241 605.026573 
L 140.739241 591.633566 
L 141.506867 591.633566 
L 141.506867 583.174825 
L 142.274493 582.46993 
L 142.274493 576.125874 
L 143.042119 576.125874 
L 143.042119 567.667133 
L 143.809744 567.667133 
L 143.809744 557.093706 
L 144.57737 557.093706 
L 144.57737 554.274126 
L 145.344996 554.274126 
L 145.344996 545.815385 
L 146.112622 545.815385 
L 146.880248 545.11049 
L 146.880248 543.700699 
L 147.647873 543.700699 
L 147.647873 538.766434 
L 148.415499 538.766434 
L 148.415499 525.373427 
L 149.183125 525.373427 
L 149.183125 519.029371 
L 149.950751 515.504895 
L 149.950751 497.177622 
L 150.718377 497.177622 
L 150.718377 496.472727 
L 151.486003 496.472727 
L 152.253628 495.062937 
L 152.253628 494.358042 
L 153.021254 494.358042 
L 153.021254 492.243357 
L 153.78888 492.243357 
L 153.78888 490.128671 
L 154.556506 489.423776 
L 154.556506 481.66993 
L 155.324132 480.965035 
L 155.324132 467.572028 
L 156.091757 467.572028 
L 156.091757 461.227972 
L 156.859383 461.227972 
L 156.859383 452.769231 
L 157.627009 452.769231 
L 157.627009 452.064336 
L 158.394635 449.94965 
L 158.394635 447.834965 
L 159.162261 447.834965 
L 159.162261 443.605594 
L 159.929887 443.605594 
L 159.929887 437.966434 
L 160.697512 437.261538 
L 160.697512 436.556643 
L 162.232764 436.556643 
L 162.232764 430.917483 
L 163.00039 430.917483 
L 163.00039 428.802797 
L 163.768016 428.802797 
L 163.768016 425.983217 
L 164.535641 425.983217 
L 164.535641 420.344056 
L 165.303267 420.344056 
L 165.303267 418.229371 
L 166.070893 418.229371 
L 166.838519 417.524476 
L 166.838519 410.475524 
L 167.606145 407.655944 
L 167.606145 398.492308 
L 169.141396 398.492308 
L 169.141396 397.787413 
L 169.909022 397.787413 
L 169.909022 388.623776 
L 170.676648 388.623776 
L 170.676648 385.099301 
L 171.444274 382.984615 
L 172.2119 382.984615 
L 172.2119 377.345455 
L 173.747151 373.116084 
L 174.514777 373.116084 
L 174.514777 369.591608 
L 176.050029 369.591608 
L 176.050029 367.476923 
L 176.817654 367.476923 
L 176.817654 356.198601 
L 178.352906 356.198601 
L 178.352906 354.083916 
L 179.120532 354.083916 
L 179.120532 353.379021 
L 179.888158 353.379021 
L 179.888158 347.73986 
L 180.655784 347.73986 
L 181.423409 347.034965 
L 181.423409 346.33007 
L 182.191035 346.33007 
L 182.191035 345.625175 
L 182.958661 344.92028 
L 186.029164 343.51049 
L 186.79679 343.51049 
L 186.79679 342.805594 
L 187.564416 342.805594 
L 187.564416 340.690909 
L 188.332042 340.690909 
L 188.332042 339.281119 
L 189.867293 339.281119 
L 189.867293 334.346853 
L 190.634919 334.346853 
L 190.634919 329.412587 
L 192.170171 329.412587 
L 192.170171 328.707692 
L 193.705422 328.002797 
L 193.705422 327.297902 
L 194.473048 327.297902 
L 194.473048 325.888112 
L 195.240674 325.888112 
L 195.240674 321.658741 
L 196.0083 321.658741 
L 196.0083 320.953846 
L 197.543552 320.953846 
L 197.543552 318.134266 
L 199.846429 318.134266 
L 199.846429 317.429371 
L 201.381681 317.429371 
L 201.381681 314.60979 
L 202.916932 314.60979 
L 202.916932 313.904895 
L 204.452184 313.904895 
L 204.452184 309.675524 
L 205.21981 309.675524 
L 205.21981 308.970629 
L 205.987436 308.265734 
L 205.987436 306.855944 
L 206.755061 306.855944 
L 206.755061 305.446154 
L 207.522687 305.446154 
L 207.522687 301.216783 
L 208.290313 301.216783 
L 208.290313 298.397203 
L 209.057939 296.987413 
L 209.825565 296.987413 
L 209.825565 296.282517 
L 210.59319 296.282517 
L 210.59319 295.577622 
L 211.360816 295.577622 
L 211.360816 294.167832 
L 212.896068 294.167832 
L 212.896068 289.938462 
L 214.43132 289.938462 
L 214.43132 287.823776 
L 215.198945 287.823776 
L 215.198945 287.118881 
L 215.966571 287.118881 
L 215.966571 286.413986 
L 216.734197 286.413986 
L 217.501823 285.709091 
L 217.501823 285.004196 
L 219.037074 285.004196 
L 219.037074 282.88951 
L 220.572326 282.88951 
L 220.572326 282.184615 
L 222.875203 282.184615 
L 222.875203 281.47972 
L 223.642829 281.47972 
L 223.642829 280.774825 
L 225.178081 280.774825 
L 225.178081 280.06993 
L 225.945707 280.06993 
L 225.945707 277.955245 
L 226.713333 277.955245 
L 226.713333 275.135664 
L 228.248584 275.135664 
L 228.248584 270.201399 
L 229.783836 270.201399 
L 229.783836 268.791608 
L 230.551462 268.086713 
L 231.319087 268.086713 
L 231.319087 265.267133 
L 232.086713 265.267133 
L 232.086713 263.857343 
L 232.854339 263.857343 
L 232.854339 262.447552 
L 234.389591 262.447552 
L 234.389591 261.037762 
L 235.924842 261.037762 
L 235.924842 259.627972 
L 236.692468 259.627972 
L 236.692468 256.808392 
L 237.460094 256.808392 
L 237.460094 254.693706 
L 238.22772 254.693706 
L 238.22772 253.283916 
L 238.995346 253.283916 
L 238.995346 251.169231 
L 239.762971 251.169231 
L 239.762971 249.054545 
L 240.530597 249.054545 
L 240.530597 247.644755 
L 241.298223 247.644755 
L 241.298223 239.186014 
L 242.833475 239.186014 
L 242.833475 234.956643 
L 246.671604 234.956643 
L 247.43923 234.251748 
L 247.43923 233.546853 
L 248.974481 233.546853 
L 248.974481 230.727273 
L 249.742107 230.727273 
L 250.509733 230.022378 
L 250.509733 229.317483 
L 252.81261 229.317483 
L 252.81261 228.612587 
L 255.115488 228.612587 
L 255.115488 222.268531 
L 255.883114 222.268531 
L 255.883114 221.563636 
L 257.418365 221.563636 
L 257.418365 218.039161 
L 258.185991 218.039161 
L 258.185991 216.629371 
L 259.721243 216.629371 
L 259.721243 215.924476 
L 262.791746 215.924476 
L 262.791746 215.21958 
L 264.326998 215.21958 
L 264.326998 214.514685 
L 266.629875 214.514685 
L 266.629875 213.104895 
L 267.397501 213.104895 
L 267.397501 211.695105 
L 269.700378 211.695105 
L 269.700378 210.99021 
L 272.003256 210.99021 
L 272.003256 208.875524 
L 274.306133 208.875524 
L 274.306133 208.170629 
L 277.376636 208.170629 
L 277.376636 206.055944 
L 278.144262 206.055944 
L 278.144262 205.351049 
L 278.911888 205.351049 
L 278.911888 203.941259 
L 280.44714 203.941259 
L 280.44714 203.236364 
L 284.285269 203.236364 
L 284.285269 202.531469 
L 285.82052 202.531469 
L 285.82052 201.826573 
L 286.588146 201.121678 
L 288.123398 201.121678 
L 288.123398 200.416783 
L 291.961527 200.416783 
L 291.961527 198.302098 
L 292.729153 196.892308 
L 292.729153 196.187413 
L 295.03203 196.187413 
L 295.03203 195.482517 
L 296.567282 195.482517 
L 296.567282 194.777622 
L 298.102534 194.777622 
L 298.102534 192.662937 
L 298.870159 192.662937 
L 298.870159 191.253147 
L 299.637785 191.253147 
L 299.637785 189.843357 
L 300.405411 189.843357 
L 300.405411 188.433566 
L 304.24354 188.433566 
L 304.24354 187.728671 
L 305.011166 187.728671 
L 305.011166 187.023776 
L 306.546418 187.023776 
L 306.546418 184.204196 
L 309.616921 184.204196 
L 309.616921 182.794406 
L 310.384547 182.794406 
L 310.384547 182.08951 
L 313.45505 182.08951 
L 313.45505 179.974825 
L 314.222676 179.974825 
L 314.222676 177.86014 
L 317.293179 177.86014 
L 317.293179 177.155245 
L 321.131308 177.155245 
L 321.131308 176.45035 
L 322.66656 176.45035 
L 322.66656 175.745455 
L 323.434185 175.745455 
L 323.434185 175.040559 
L 324.201811 175.040559 
L 324.201811 174.335664 
L 326.504689 174.335664 
L 326.504689 173.630769 
L 327.272315 173.630769 
L 328.807566 172.220979 
L 330.342818 172.220979 
L 330.342818 171.516084 
L 331.878069 171.516084 
L 331.878069 168.696503 
L 332.645695 168.696503 
L 332.645695 165.876923 
L 336.483824 165.876923 
L 336.483824 163.762238 
L 339.554328 163.762238 
L 339.554328 163.057343 
L 341.089579 163.057343 
L 341.089579 162.352448 
L 341.857205 162.352448 
L 341.857205 161.647552 
L 343.392457 161.647552 
L 343.392457 160.942657 
L 344.927708 160.942657 
L 344.927708 160.237762 
L 348.765837 160.237762 
L 348.765837 158.827972 
L 350.301089 158.827972 
L 350.301089 158.123077 
L 353.371592 158.123077 
L 353.371592 157.418182 
L 354.906844 157.418182 
L 354.906844 156.713287 
L 355.67447 156.713287 
L 355.67447 156.008392 
L 357.977347 156.008392 
L 359.512599 155.303497 
L 364.118354 155.303497 
L 364.118354 154.598601 
L 366.421231 154.598601 
L 366.421231 153.188811 
L 367.188857 153.188811 
L 367.188857 152.483916 
L 368.724109 152.483916 
L 368.724109 151.074126 
L 369.491734 151.074126 
L 369.491734 150.369231 
L 374.865115 150.369231 
L 374.865115 148.959441 
L 381.006122 148.959441 
L 381.006122 148.254545 
L 387.914754 148.254545 
L 387.914754 146.844755 
L 392.520509 146.844755 
L 392.520509 146.13986 
L 393.288135 145.434965 
L 395.591012 145.434965 
L 395.591012 144.73007 
L 405.570148 144.73007 
L 405.570148 144.025175 
L 406.337774 144.025175 
L 406.337774 142.615385 
L 407.1054 142.615385 
L 408.640651 141.91049 
L 410.943529 141.91049 
L 410.943529 141.205594 
L 412.47878 141.205594 
L 412.47878 140.500699 
L 416.316909 140.500699 
L 416.316909 139.090909 
L 421.69029 139.090909 
L 423.225542 137.681119 
L 423.225542 136.271329 
L 424.760793 136.271329 
L 424.760793 135.566434 
L 426.296045 134.861538 
L 433.972303 134.861538 
L 433.972303 130.632168 
L 437.042806 130.632168 
L 437.042806 129.927273 
L 452.395323 129.927273 
L 452.395323 129.222378 
L 453.930574 129.222378 
L 453.930574 127.107692 
L 470.050716 127.107692 
L 470.050716 126.402797 
L 471.585968 126.402797 
L 471.585968 125.697902 
L 490.008988 125.697902 
L 490.008988 124.993007 
L 491.544239 124.993007 
L 491.544239 123.583217 
L 510.734885 123.583217 
L 510.734885 122.878322 
L 517.643517 122.878322 
L 518.411143 122.173427 
L 522.249272 122.173427 
L 522.249272 121.468531 
L 523.016898 121.468531 
L 523.016898 120.763636 
L 527.622653 120.763636 
L 527.622653 120.058741 
L 536.066537 120.058741 
L 536.066537 119.353846 
L 539.904666 119.353846 
L 540.672292 118.648951 
L 546.045672 118.648951 
L 546.045672 117.944056 
L 554.489556 117.944056 
L 556.792434 117.239161 
L 557.56006 116.534266 
L 560.630563 116.534266 
L 560.630563 115.829371 
L 561.398189 115.829371 
L 562.165815 115.124476 
L 566.771569 115.124476 
L 566.771569 114.41958 
L 582.891712 114.41958 
L 585.194589 113.714685 
L 625.878757 113.714685 
L 625.878757 113.00979 
L 701.873713 113.00979 
L 704.176591 112.304895 
L 714.923352 112.304895 
L 714.923352 111.6 
L 747.163636 111.6 
L 747.163636 111.6 
" clip-path="url(#p51e63c6911)" style="fill: none; stroke: #2ca02c; stroke-width: 2; stroke-linecap: square"/>
   </g>
   <g id="line2d_28">
    <path d="M 138.436364 615.6 
L 138.436364 543.186207 
L 144.28951 534.496552 
L 144.28951 473.668966 
L 147.216084 450.496552 
L 147.216084 436.013793 
L 150.142657 427.324138 
L 150.142657 331.737931 
L 153.069231 331.737931 
L 153.069231 314.358621 
L 155.995804 314.358621 
L 155.995804 294.082759 
L 158.922378 291.186207 
L 158.922378 288.289655 
L 161.848951 288.289655 
L 161.848951 285.393103 
L 164.775524 285.393103 
L 167.702098 282.496552 
L 170.628671 282.496552 
L 170.628671 273.806897 
L 176.481818 273.806897 
L 176.481818 253.531034 
L 179.408392 253.531034 
L 179.408392 241.944828 
L 185.261538 241.944828 
L 185.261538 239.048276 
L 188.188112 239.048276 
L 188.188112 224.565517 
L 191.114685 224.565517 
L 191.114685 218.772414 
L 194.041259 218.772414 
L 194.041259 210.082759 
L 196.967832 207.186207 
L 202.820979 207.186207 
L 202.820979 204.289655 
L 205.747552 204.289655 
L 205.747552 201.393103 
L 208.674126 201.393103 
L 208.674126 195.6 
L 211.600699 195.6 
L 211.600699 192.703448 
L 214.527273 192.703448 
L 214.527273 186.910345 
L 217.453846 186.910345 
L 217.453846 184.013793 
L 220.38042 184.013793 
L 220.38042 178.22069 
L 232.086713 178.22069 
L 232.086713 175.324138 
L 235.013287 175.324138 
L 235.013287 172.427586 
L 237.93986 172.427586 
L 237.93986 169.531034 
L 243.793007 169.531034 
L 243.793007 166.634483 
L 246.71958 166.634483 
L 246.71958 163.737931 
L 261.352448 163.737931 
L 261.352448 160.841379 
L 264.279021 160.841379 
L 264.279021 157.944828 
L 293.544755 157.944828 
L 293.544755 155.048276 
L 316.957343 155.048276 
L 316.957343 152.151724 
L 319.883916 152.151724 
L 319.883916 149.255172 
L 325.737063 149.255172 
L 325.737063 146.358621 
L 352.076224 146.358621 
L 352.076224 143.462069 
L 355.002797 143.462069 
L 357.929371 140.565517 
L 384.268531 140.565517 
L 384.268531 137.668966 
L 393.048252 137.668966 
L 393.048252 134.772414 
L 395.974825 134.772414 
L 395.974825 128.97931 
L 413.534266 128.97931 
L 413.534266 126.082759 
L 434.02028 126.082759 
L 434.02028 123.186207 
L 436.946853 123.186207 
L 436.946853 120.289655 
L 501.331469 120.289655 
L 504.258042 117.393103 
L 556.936364 117.393103 
L 559.862937 114.496552 
L 571.569231 114.496552 
L 580.348951 111.6 
L 747.163636 111.6 
L 747.163636 111.6 
" clip-path="url(#p51e63c6911)" style="fill: none; stroke: #d62728; stroke-width: 2; stroke-linecap: square"/>
   </g>
   <g id="line2d_29">
    <path d="M 138.436364 615.6 
L 747.163636 111.6 
" clip-path="url(#p51e63c6911)" style="fill: none; stroke-dasharray: 7.4,3.2; stroke-dashoffset: 0; stroke: #000080; stroke-width: 2"/>
   </g>
   <g id="patch_3">
    <path d="M 108 640.8 
L 108 86.4 
" style="fill: none; stroke: #000000; stroke-width: 0.8; stroke-linejoin: miter; stroke-linecap: square"/>
   </g>
   <g id="patch_4">
    <path d="M 777.6 640.8 
L 777.6 86.4 
" style="fill: none; stroke: #000000; stroke-width: 0.8; stroke-linejoin: miter; stroke-linecap: square"/>
   </g>
   <g id="patch_5">
    <path d="M 108 640.8 
L 777.6 640.8 
" style="fill: none; stroke: #000000; stroke-width: 0.8; stroke-linejoin: miter; stroke-linecap: square"/>
   </g>
   <g id="patch_6">
    <path d="M 108 86.4 
L 777.6 86.4 
" style="fill: none; stroke: #000000; stroke-width: 0.8; stroke-linejoin: miter; stroke-linecap: square"/>
   </g>
   <g id="text_15">
    <!-- Receiver Operating Characteristic (ROC) Curve for All Locations -->
    <g transform="translate(252.105 80.4) scale(0.12 -0.12)">
     <defs>
      <path id="DejaVuSans-63" d="M 3122 3366 
L 3122 2828 
Q 2878 2963 2633 3030 
Q 2388 3097 2138 3097 
Q 1578 3097 1268 2742 
Q 959 2388 959 1747 
Q 959 1106 1268 751 
Q 1578 397 2138 397 
Q 2388 397 2633 464 
Q 2878 531 3122 666 
L 3122 134 
Q 2881 22 2623 -34 
Q 2366 -91 2075 -91 
Q 1284 -91 818 406 
Q 353 903 353 1747 
Q 353 2603 823 3093 
Q 1294 3584 2113 3584 
Q 2378 3584 2631 3529 
Q 2884 3475 3122 3366 
z
" transform="scale(0.015625)"/>
      <path id="DejaVuSans-4f" d="M 2522 4238 
Q 1834 4238 1429 3725 
Q 1025 3213 1025 2328 
Q 1025 1447 1429 934 
Q 1834 422 2522 422 
Q 3209 422 3611 934 
Q 4013 1447 4013 2328 
Q 4013 3213 3611 3725 
Q 3209 4238 2522 4238 
z
M 2522 4750 
Q 3503 4750 4090 4092 
Q 4678 3434 4678 2328 
Q 4678 1225 4090 567 
Q 3503 -91 2522 -91 
Q 1538 -91 948 565 
Q 359 1222 359 2328 
Q 359 3434 948 4092 
Q 1538 4750 2522 4750 
z
" transform="scale(0.015625)"/>
      <path id="DejaVuSans-70" d="M 1159 525 
L 1159 -1331 
L 581 -1331 
L 581 3500 
L 1159 3500 
L 1159 2969 
Q 1341 3281 1617 3432 
Q 1894 3584 2278 3584 
Q 2916 3584 3314 3078 
Q 3713 2572 3713 1747 
Q 3713 922 3314 415 
Q 2916 -91 2278 -91 
Q 1894 -91 1617 61 
Q 1341 213 1159 525 
z
M 3116 1747 
Q 3116 2381 2855 2742 
Q 2594 3103 2138 3103 
Q 1681 3103 1420 2742 
Q 1159 2381 1159 1747 
Q 1159 1113 1420 752 
Q 1681 391 2138 391 
Q 2594 391 2855 752 
Q 3116 1113 3116 1747 
z
" transform="scale(0.015625)"/>
      <path id="DejaVuSans-6e" d="M 3513 2113 
L 3513 0 
L 2938 0 
L 2938 2094 
Q 2938 2591 2744 2837 
Q 2550 3084 2163 3084 
Q 1697 3084 1428 2787 
Q 1159 2491 1159 1978 
L 1159 0 
L 581 0 
L 581 3500 
L 1159 3500 
L 1159 2956 
Q 1366 3272 1645 3428 
Q 1925 3584 2291 3584 
Q 2894 3584 3203 3211 
Q 3513 2838 3513 2113 
z
" transform="scale(0.015625)"/>
      <path id="DejaVuSans-67" d="M 2906 1791 
Q 2906 2416 2648 2759 
Q 2391 3103 1925 3103 
Q 1463 3103 1205 2759 
Q 947 2416 947 1791 
Q 947 1169 1205 825 
Q 1463 481 1925 481 
Q 2391 481 2648 825 
Q 2906 1169 2906 1791 
z
M 3481 434 
Q 3481 -459 3084 -895 
Q 2688 -1331 1869 -1331 
Q 1566 -1331 1297 -1286 
Q 1028 -1241 775 -1147 
L 775 -588 
Q 1028 -725 1275 -790 
Q 1522 -856 1778 -856 
Q 2344 -856 2625 -561 
Q 2906 -266 2906 331 
L 2906 616 
Q 2728 306 2450 153 
Q 2172 0 1784 0 
Q 1141 0 747 490 
Q 353 981 353 1791 
Q 353 2603 747 3093 
Q 1141 3584 1784 3584 
Q 2172 3584 2450 3431 
Q 2728 3278 2906 2969 
L 2906 3500 
L 3481 3500 
L 3481 434 
z
" transform="scale(0.015625)"/>
      <path id="DejaVuSans-43" d="M 4122 4306 
L 4122 3641 
Q 3803 3938 3442 4084 
Q 3081 4231 2675 4231 
Q 1875 4231 1450 3742 
Q 1025 3253 1025 2328 
Q 1025 1406 1450 917 
Q 1875 428 2675 428 
Q 3081 428 3442 575 
Q 3803 722 4122 1019 
L 4122 359 
Q 3791 134 3420 21 
Q 3050 -91 2638 -91 
Q 1578 -91 968 557 
Q 359 1206 359 2328 
Q 359 3453 968 4101 
Q 1578 4750 2638 4750 
Q 3056 4750 3426 4639 
Q 3797 4528 4122 4306 
z
" transform="scale(0.015625)"/>
      <path id="DejaVuSans-68" d="M 3513 2113 
L 3513 0 
L 2938 0 
L 2938 2094 
Q 2938 2591 2744 2837 
Q 2550 3084 2163 3084 
Q 1697 3084 1428 2787 
Q 1159 2491 1159 1978 
L 1159 0 
L 581 0 
L 581 4863 
L 1159 4863 
L 1159 2956 
Q 1366 3272 1645 3428 
Q 1925 3584 2291 3584 
Q 2894 3584 3203 3211 
Q 3513 2838 3513 2113 
z
" transform="scale(0.015625)"/>
      <path id="DejaVuSans-28" d="M 1984 4856 
Q 1566 4138 1362 3434 
Q 1159 2731 1159 2009 
Q 1159 1288 1364 580 
Q 1569 -128 1984 -844 
L 1484 -844 
Q 1016 -109 783 600 
Q 550 1309 550 2009 
Q 550 2706 781 3412 
Q 1013 4119 1484 4856 
L 1984 4856 
z
" transform="scale(0.015625)"/>
      <path id="DejaVuSans-29" d="M 513 4856 
L 1013 4856 
Q 1481 4119 1714 3412 
Q 1947 2706 1947 2009 
Q 1947 1309 1714 600 
Q 1481 -109 1013 -844 
L 513 -844 
Q 928 -128 1133 580 
Q 1338 1288 1338 2009 
Q 1338 2731 1133 3434 
Q 928 4138 513 4856 
z
" transform="scale(0.015625)"/>
      <path id="DejaVuSans-66" d="M 2375 4863 
L 2375 4384 
L 1825 4384 
Q 1516 4384 1395 4259 
Q 1275 4134 1275 3809 
L 1275 3500 
L 2222 3500 
L 2222 3053 
L 1275 3053 
L 1275 0 
L 697 0 
L 697 3053 
L 147 3053 
L 147 3500 
L 697 3500 
L 697 3744 
Q 697 4328 969 4595 
Q 1241 4863 1831 4863 
L 2375 4863 
z
" transform="scale(0.015625)"/>
      <path id="DejaVuSans-41" d="M 2188 4044 
L 1331 1722 
L 3047 1722 
L 2188 4044 
z
M 1831 4666 
L 2547 4666 
L 4325 0 
L 3669 0 
L 3244 1197 
L 1141 1197 
L 716 0 
L 50 0 
L 1831 4666 
z
" transform="scale(0.015625)"/>
      <path id="DejaVuSans-4c" d="M 628 4666 
L 1259 4666 
L 1259 531 
L 3531 531 
L 3531 0 
L 628 0 
L 628 4666 
z
" transform="scale(0.015625)"/>
     </defs>
     <use xlink:href="#DejaVuSans-52"/>
     <use xlink:href="#DejaVuSans-65" x="64.982422"/>
     <use xlink:href="#DejaVuSans-63" x="126.505859"/>
     <use xlink:href="#DejaVuSans-65" x="181.486328"/>
     <use xlink:href="#DejaVuSans-69" x="243.009766"/>
     <use xlink:href="#DejaVuSans-76" x="270.792969"/>
     <use xlink:href="#DejaVuSans-65" x="329.972656"/>
     <use xlink:href="#DejaVuSans-72" x="391.496094"/>
     <use xlink:href="#DejaVuSans-20" x="432.609375"/>
     <use xlink:href="#DejaVuSans-4f" x="464.396484"/>
     <use xlink:href="#DejaVuSans-70" x="543.107422"/>
     <use xlink:href="#DejaVuSans-65" x="606.583984"/>
     <use xlink:href="#DejaVuSans-72" x="668.107422"/>
     <use xlink:href="#DejaVuSans-61" x="709.220703"/>
     <use xlink:href="#DejaVuSans-74" x="770.5"/>
     <use xlink:href="#DejaVuSans-69" x="809.708984"/>
     <use xlink:href="#DejaVuSans-6e" x="837.492188"/>
     <use xlink:href="#DejaVuSans-67" x="900.871094"/>
     <use xlink:href="#DejaVuSans-20" x="964.347656"/>
     <use xlink:href="#DejaVuSans-43" x="996.134766"/>
     <use xlink:href="#DejaVuSans-68" x="1065.958984"/>
     <use xlink:href="#DejaVuSans-61" x="1129.337891"/>
     <use xlink:href="#DejaVuSans-72" x="1190.617188"/>
     <use xlink:href="#DejaVuSans-61" x="1231.730469"/>
     <use xlink:href="#DejaVuSans-63" x="1293.009766"/>
     <use xlink:href="#DejaVuSans-74" x="1347.990234"/>
     <use xlink:href="#DejaVuSans-65" x="1387.199219"/>
     <use xlink:href="#DejaVuSans-72" x="1448.722656"/>
     <use xlink:href="#DejaVuSans-69" x="1489.835938"/>
     <use xlink:href="#DejaVuSans-73" x="1517.619141"/>
     <use xlink:href="#DejaVuSans-74" x="1569.71875"/>
     <use xlink:href="#DejaVuSans-69" x="1608.927734"/>
     <use xlink:href="#DejaVuSans-63" x="1636.710938"/>
     <use xlink:href="#DejaVuSans-20" x="1691.691406"/>
     <use xlink:href="#DejaVuSans-28" x="1723.478516"/>
     <use xlink:href="#DejaVuSans-52" x="1762.492188"/>
     <use xlink:href="#DejaVuSans-4f" x="1831.974609"/>
     <use xlink:href="#DejaVuSans-43" x="1910.685547"/>
     <use xlink:href="#DejaVuSans-29" x="1980.509766"/>
     <use xlink:href="#DejaVuSans-20" x="2019.523438"/>
     <use xlink:href="#DejaVuSans-43" x="2051.310547"/>
     <use xlink:href="#DejaVuSans-75" x="2121.134766"/>
     <use xlink:href="#DejaVuSans-72" x="2184.513672"/>
     <use xlink:href="#DejaVuSans-76" x="2225.626953"/>
     <use xlink:href="#DejaVuSans-65" x="2284.806641"/>
     <use xlink:href="#DejaVuSans-20" x="2346.330078"/>
     <use xlink:href="#DejaVuSans-66" x="2378.117188"/>
     <use xlink:href="#DejaVuSans-6f" x="2413.322266"/>
     <use xlink:href="#DejaVuSans-72" x="2474.503906"/>
     <use xlink:href="#DejaVuSans-20" x="2515.617188"/>
     <use xlink:href="#DejaVuSans-41" x="2547.404297"/>
     <use xlink:href="#DejaVuSans-6c" x="2615.8125"/>
     <use xlink:href="#DejaVuSans-6c" x="2643.595703"/>
     <use xlink:href="#DejaVuSans-20" x="2671.378906"/>
     <use xlink:href="#DejaVuSans-4c" x="2703.166016"/>
     <use xlink:href="#DejaVuSans-6f" x="2757.128906"/>
     <use xlink:href="#DejaVuSans-63" x="2818.310547"/>
     <use xlink:href="#DejaVuSans-61" x="2873.291016"/>
     <use xlink:href="#DejaVuSans-74" x="2934.570312"/>
     <use xlink:href="#DejaVuSans-69" x="2973.779297"/>
     <use xlink:href="#DejaVuSans-6f" x="3001.5625"/>
     <use xlink:href="#DejaVuSans-6e" x="3062.744141"/>
     <use xlink:href="#DejaVuSans-73" x="3126.123047"/>
    </g>
   </g>
   <g id="legend_1">
    <g id="patch_7">
     <path d="M 586.796875 635.8 
L 770.6 635.8 
Q 772.6 635.8 772.6 633.8 
L 772.6 576.0875 
Q 772.6 574.0875 770.6 574.0875 
L 586.796875 574.0875 
Q 584.796875 574.0875 584.796875 576.0875 
L 584.796875 633.8 
Q 584.796875 635.8 586.796875 635.8 
z
" style="fill: #ffffff; opacity: 0.8; stroke: #cccccc; stroke-linejoin: miter"/>
    </g>
    <g id="line2d_30">
     <path d="M 588.796875 582.185938 
L 598.796875 582.185938 
L 608.796875 582.185938 
" style="fill: none; stroke: #1f77b4; stroke-width: 2; stroke-linecap: square"/>
    </g>
    <g id="text_16">
     <!-- Bone Metastasis (AUC = 0.86) -->
     <g transform="translate(616.796875 585.685938) scale(0.1 -0.1)">
      <defs>
       <path id="DejaVuSans-42" d="M 1259 2228 
L 1259 519 
L 2272 519 
Q 2781 519 3026 730 
Q 3272 941 3272 1375 
Q 3272 1813 3026 2020 
Q 2781 2228 2272 2228 
L 1259 2228 
z
M 1259 4147 
L 1259 2741 
L 2194 2741 
Q 2656 2741 2882 2914 
Q 3109 3088 3109 3444 
Q 3109 3797 2882 3972 
Q 2656 4147 2194 4147 
L 1259 4147 
z
M 628 4666 
L 2241 4666 
Q 2963 4666 3353 4366 
Q 3744 4066 3744 3513 
Q 3744 3084 3544 2831 
Q 3344 2578 2956 2516 
Q 3422 2416 3680 2098 
Q 3938 1781 3938 1306 
Q 3938 681 3513 340 
Q 3088 0 2303 0 
L 628 0 
L 628 4666 
z
" transform="scale(0.015625)"/>
       <path id="DejaVuSans-4d" d="M 628 4666 
L 1569 4666 
L 2759 1491 
L 3956 4666 
L 4897 4666 
L 4897 0 
L 4281 0 
L 4281 4097 
L 3078 897 
L 2444 897 
L 1241 4097 
L 1241 0 
L 628 0 
L 628 4666 
z
" transform="scale(0.015625)"/>
       <path id="DejaVuSans-55" d="M 556 4666 
L 1191 4666 
L 1191 1831 
Q 1191 1081 1462 751 
Q 1734 422 2344 422 
Q 2950 422 3222 751 
Q 3494 1081 3494 1831 
L 3494 4666 
L 4128 4666 
L 4128 1753 
Q 4128 841 3676 375 
Q 3225 -91 2344 -91 
Q 1459 -91 1007 375 
Q 556 841 556 1753 
L 556 4666 
z
" transform="scale(0.015625)"/>
       <path id="DejaVuSans-3d" d="M 678 2906 
L 4684 2906 
L 4684 2381 
L 678 2381 
L 678 2906 
z
M 678 1631 
L 4684 1631 
L 4684 1100 
L 678 1100 
L 678 1631 
z
" transform="scale(0.015625)"/>
      </defs>
      <use xlink:href="#DejaVuSans-42"/>
      <use xlink:href="#DejaVuSans-6f" x="68.603516"/>
      <use xlink:href="#DejaVuSans-6e" x="129.785156"/>
      <use xlink:href="#DejaVuSans-65" x="193.164062"/>
      <use xlink:href="#DejaVuSans-20" x="254.6875"/>
      <use xlink:href="#DejaVuSans-4d" x="286.474609"/>
      <use xlink:href="#DejaVuSans-65" x="372.753906"/>
      <use xlink:href="#DejaVuSans-74" x="434.277344"/>
      <use xlink:href="#DejaVuSans-61" x="473.486328"/>
      <use xlink:href="#DejaVuSans-73" x="534.765625"/>
      <use xlink:href="#DejaVuSans-74" x="586.865234"/>
      <use xlink:href="#DejaVuSans-61" x="626.074219"/>
      <use xlink:href="#DejaVuSans-73" x="687.353516"/>
      <use xlink:href="#DejaVuSans-69" x="739.453125"/>
      <use xlink:href="#DejaVuSans-73" x="767.236328"/>
      <use xlink:href="#DejaVuSans-20" x="819.335938"/>
      <use xlink:href="#DejaVuSans-28" x="851.123047"/>
      <use xlink:href="#DejaVuSans-41" x="890.136719"/>
      <use xlink:href="#DejaVuSans-55" x="958.544922"/>
      <use xlink:href="#DejaVuSans-43" x="1031.738281"/>
      <use xlink:href="#DejaVuSans-20" x="1101.5625"/>
      <use xlink:href="#DejaVuSans-3d" x="1133.349609"/>
      <use xlink:href="#DejaVuSans-20" x="1217.138672"/>
      <use xlink:href="#DejaVuSans-30" x="1248.925781"/>
      <use xlink:href="#DejaVuSans-2e" x="1312.548828"/>
      <use xlink:href="#DejaVuSans-38" x="1344.335938"/>
      <use xlink:href="#DejaVuSans-36" x="1407.958984"/>
      <use xlink:href="#DejaVuSans-29" x="1471.582031"/>
     </g>
    </g>
    <g id="line2d_31">
     <path d="M 588.796875 596.864063 
L 598.796875 596.864063 
L 608.796875 596.864063 
" style="fill: none; stroke: #ff7f0e; stroke-width: 2; stroke-linecap: square"/>
    </g>
    <g id="text_17">
     <!-- Lung Metastasis (AUC = 0.88) -->
     <g transform="translate(616.796875 600.364063) scale(0.1 -0.1)">
      <use xlink:href="#DejaVuSans-4c"/>
      <use xlink:href="#DejaVuSans-75" x="53.962891"/>
      <use xlink:href="#DejaVuSans-6e" x="117.341797"/>
      <use xlink:href="#DejaVuSans-67" x="180.720703"/>
      <use xlink:href="#DejaVuSans-20" x="244.197266"/>
      <use xlink:href="#DejaVuSans-4d" x="275.984375"/>
      <use xlink:href="#DejaVuSans-65" x="362.263672"/>
      <use xlink:href="#DejaVuSans-74" x="423.787109"/>
      <use xlink:href="#DejaVuSans-61" x="462.996094"/>
      <use xlink:href="#DejaVuSans-73" x="524.275391"/>
      <use xlink:href="#DejaVuSans-74" x="576.375"/>
      <use xlink:href="#DejaVuSans-61" x="615.583984"/>
      <use xlink:href="#DejaVuSans-73" x="676.863281"/>
      <use xlink:href="#DejaVuSans-69" x="728.962891"/>
      <use xlink:href="#DejaVuSans-73" x="756.746094"/>
      <use xlink:href="#DejaVuSans-20" x="808.845703"/>
      <use xlink:href="#DejaVuSans-28" x="840.632812"/>
      <use xlink:href="#DejaVuSans-41" x="879.646484"/>
      <use xlink:href="#DejaVuSans-55" x="948.054688"/>
      <use xlink:href="#DejaVuSans-43" x="1021.248047"/>
      <use xlink:href="#DejaVuSans-20" x="1091.072266"/>
      <use xlink:href="#DejaVuSans-3d" x="1122.859375"/>
      <use xlink:href="#DejaVuSans-20" x="1206.648438"/>
      <use xlink:href="#DejaVuSans-30" x="1238.435547"/>
      <use xlink:href="#DejaVuSans-2e" x="1302.058594"/>
      <use xlink:href="#DejaVuSans-38" x="1333.845703"/>
      <use xlink:href="#DejaVuSans-38" x="1397.46875"/>
      <use xlink:href="#DejaVuSans-29" x="1461.091797"/>
     </g>
    </g>
    <g id="line2d_32">
     <path d="M 588.796875 611.542188 
L 598.796875 611.542188 
L 608.796875 611.542188 
" style="fill: none; stroke: #2ca02c; stroke-width: 2; stroke-linecap: square"/>
    </g>
    <g id="text_18">
     <!-- Liver Metastasis (AUC = 0.87) -->
     <g transform="translate(616.796875 615.042188) scale(0.1 -0.1)">
      <defs>
       <path id="DejaVuSans-37" d="M 525 4666 
L 3525 4666 
L 3525 4397 
L 1831 0 
L 1172 0 
L 2766 4134 
L 525 4134 
L 525 4666 
z
" transform="scale(0.015625)"/>
      </defs>
      <use xlink:href="#DejaVuSans-4c"/>
      <use xlink:href="#DejaVuSans-69" x="55.712891"/>
      <use xlink:href="#DejaVuSans-76" x="83.496094"/>
      <use xlink:href="#DejaVuSans-65" x="142.675781"/>
      <use xlink:href="#DejaVuSans-72" x="204.199219"/>
      <use xlink:href="#DejaVuSans-20" x="245.3125"/>
      <use xlink:href="#DejaVuSans-4d" x="277.099609"/>
      <use xlink:href="#DejaVuSans-65" x="363.378906"/>
      <use xlink:href="#DejaVuSans-74" x="424.902344"/>
      <use xlink:href="#DejaVuSans-61" x="464.111328"/>
      <use xlink:href="#DejaVuSans-73" x="525.390625"/>
      <use xlink:href="#DejaVuSans-74" x="577.490234"/>
      <use xlink:href="#DejaVuSans-61" x="616.699219"/>
      <use xlink:href="#DejaVuSans-73" x="677.978516"/>
      <use xlink:href="#DejaVuSans-69" x="730.078125"/>
      <use xlink:href="#DejaVuSans-73" x="757.861328"/>
      <use xlink:href="#DejaVuSans-20" x="809.960938"/>
      <use xlink:href="#DejaVuSans-28" x="841.748047"/>
      <use xlink:href="#DejaVuSans-41" x="880.761719"/>
      <use xlink:href="#DejaVuSans-55" x="949.169922"/>
      <use xlink:href="#DejaVuSans-43" x="1022.363281"/>
      <use xlink:href="#DejaVuSans-20" x="1092.1875"/>
      <use xlink:href="#DejaVuSans-3d" x="1123.974609"/>
      <use xlink:href="#DejaVuSans-20" x="1207.763672"/>
      <use xlink:href="#DejaVuSans-30" x="1239.550781"/>
      <use xlink:href="#DejaVuSans-2e" x="1303.173828"/>
      <use xlink:href="#DejaVuSans-38" x="1334.960938"/>
      <use xlink:href="#DejaVuSans-37" x="1398.583984"/>
      <use xlink:href="#DejaVuSans-29" x="1462.207031"/>
     </g>
    </g>
    <g id="line2d_33">
     <path d="M 588.796875 626.220313 
L 598.796875 626.220313 
L 608.796875 626.220313 
" style="fill: none; stroke: #d62728; stroke-width: 2; stroke-linecap: square"/>
    </g>
    <g id="text_19">
     <!-- Brain Metastasis (AUC = 0.93) -->
     <g transform="translate(616.796875 629.720313) scale(0.1 -0.1)">
      <defs>
       <path id="DejaVuSans-39" d="M 703 97 
L 703 672 
Q 941 559 1184 500 
Q 1428 441 1663 441 
Q 2288 441 2617 861 
Q 2947 1281 2994 2138 
Q 2813 1869 2534 1725 
Q 2256 1581 1919 1581 
Q 1219 1581 811 2004 
Q 403 2428 403 3163 
Q 403 3881 828 4315 
Q 1253 4750 1959 4750 
Q 2769 4750 3195 4129 
Q 3622 3509 3622 2328 
Q 3622 1225 3098 567 
Q 2575 -91 1691 -91 
Q 1453 -91 1209 -44 
Q 966 3 703 97 
z
M 1959 2075 
Q 2384 2075 2632 2365 
Q 2881 2656 2881 3163 
Q 2881 3666 2632 3958 
Q 2384 4250 1959 4250 
Q 1534 4250 1286 3958 
Q 1038 3666 1038 3163 
Q 1038 2656 1286 2365 
Q 1534 2075 1959 2075 
z
" transform="scale(0.015625)"/>
       <path id="DejaVuSans-33" d="M 2597 2516 
Q 3050 2419 3304 2112 
Q 3559 1806 3559 1356 
Q 3559 666 3084 287 
Q 2609 -91 1734 -91 
Q 1441 -91 1130 -33 
Q 819 25 488 141 
L 488 750 
Q 750 597 1062 519 
Q 1375 441 1716 441 
Q 2309 441 2620 675 
Q 2931 909 2931 1356 
Q 2931 1769 2642 2001 
Q 2353 2234 1838 2234 
L 1294 2234 
L 1294 2753 
L 1863 2753 
Q 2328 2753 2575 2939 
Q 2822 3125 2822 3475 
Q 2822 3834 2567 4026 
Q 2313 4219 1838 4219 
Q 1578 4219 1281 4162 
Q 984 4106 628 3988 
L 628 4550 
Q 988 4650 1302 4700 
Q 1616 4750 1894 4750 
Q 2613 4750 3031 4423 
Q 3450 4097 3450 3541 
Q 3450 3153 3228 2886 
Q 3006 2619 2597 2516 
z
" transform="scale(0.015625)"/>
      </defs>
      <use xlink:href="#DejaVuSans-42"/>
      <use xlink:href="#DejaVuSans-72" x="68.603516"/>
      <use xlink:href="#DejaVuSans-61" x="109.716797"/>
      <use xlink:href="#DejaVuSans-69" x="170.996094"/>
      <use xlink:href="#DejaVuSans-6e" x="198.779297"/>
      <use xlink:href="#DejaVuSans-20" x="262.158203"/>
      <use xlink:href="#DejaVuSans-4d" x="293.945312"/>
      <use xlink:href="#DejaVuSans-65" x="380.224609"/>
      <use xlink:href="#DejaVuSans-74" x="441.748047"/>
      <use xlink:href="#DejaVuSans-61" x="480.957031"/>
      <use xlink:href="#DejaVuSans-73" x="542.236328"/>
      <use xlink:href="#DejaVuSans-74" x="594.335938"/>
      <use xlink:href="#DejaVuSans-61" x="633.544922"/>
      <use xlink:href="#DejaVuSans-73" x="694.824219"/>
      <use xlink:href="#DejaVuSans-69" x="746.923828"/>
      <use xlink:href="#DejaVuSans-73" x="774.707031"/>
      <use xlink:href="#DejaVuSans-20" x="826.806641"/>
      <use xlink:href="#DejaVuSans-28" x="858.59375"/>
      <use xlink:href="#DejaVuSans-41" x="897.607422"/>
      <use xlink:href="#DejaVuSans-55" x="966.015625"/>
      <use xlink:href="#DejaVuSans-43" x="1039.208984"/>
      <use xlink:href="#DejaVuSans-20" x="1109.033203"/>
      <use xlink:href="#DejaVuSans-3d" x="1140.820312"/>
      <use xlink:href="#DejaVuSans-20" x="1224.609375"/>
      <use xlink:href="#DejaVuSans-30" x="1256.396484"/>
      <use xlink:href="#DejaVuSans-2e" x="1320.019531"/>
      <use xlink:href="#DejaVuSans-39" x="1351.806641"/>
      <use xlink:href="#DejaVuSans-33" x="1415.429688"/>
      <use xlink:href="#DejaVuSans-29" x="1479.052734"/>
     </g>
    </g>
   </g>
  </g>
 </g>
 <defs>
  <clipPath id="p51e63c6911">
   <rect x="108" y="86.4" width="669.6" height="554.4"/>
  </clipPath>
 </defs>
</svg>
