<?xml version="1.0" encoding="utf-8" standalone="no"?>
<!DOCTYPE svg PUBLIC "-//W3C//DTD SVG 1.1//EN"
  "http://www.w3.org/Graphics/SVG/1.1/DTD/svg11.dtd">
<svg xmlns:xlink="http://www.w3.org/1999/xlink" width="864pt" height="720pt" viewBox="0 0 864 720" xmlns="http://www.w3.org/2000/svg" version="1.1">
 <metadata>
  <rdf:RDF xmlns:dc="http://purl.org/dc/elements/1.1/" xmlns:cc="http://creativecommons.org/ns#" xmlns:rdf="http://www.w3.org/1999/02/22-rdf-syntax-ns#">
   <cc:Work>
    <dc:type rdf:resource="http://purl.org/dc/dcmitype/StillImage"/>
    <dc:date>2024-05-31T18:40:34.943724</dc:date>
    <dc:format>image/svg+xml</dc:format>
    <dc:creator>
     <cc:Agent>
      <dc:title>Matplotlib v3.7.1, https://matplotlib.org/</dc:title>
     </cc:Agent>
    </dc:creator>
   </cc:Work>
  </rdf:RDF>
 </metadata>
 <defs>
  <style type="text/css">*{stroke-linejoin: round; stroke-linecap: butt}</style>
 </defs>
 <g id="figure_1">
  <g id="patch_1">
   <path d="M 0 720 
L 864 720 
L 864 0 
L 0 0 
z
" style="fill: #ffffff"/>
  </g>
  <g id="axes_1">
   <g id="patch_2">
    <path d="M 108 640.8 
L 777.6 640.8 
L 777.6 86.4 
L 108 86.4 
z
" style="fill: #ffffff"/>
   </g>
   <g id="matplotlib.axis_1">
    <g id="xtick_1">
     <g id="line2d_1">
      <path d="M 138.436364 640.8 
L 138.436364 86.4 
" clip-path="url(#pfe4724d787)" style="fill: none; stroke: #b0b0b0; stroke-width: 0.8; stroke-linecap: square"/>
     </g>
     <g id="line2d_2">
      <defs>
       <path id="me82caf340b" d="M 0 0 
L 0 3.5 
" style="stroke: #000000; stroke-width: 0.8"/>
      </defs>
      <g>
       <use xlink:href="#me82caf340b" x="138.436364" y="640.8" style="stroke: #000000; stroke-width: 0.8"/>
      </g>
     </g>
     <g id="text_1">
      <!-- 0.0 -->
      <g transform="translate(130.484801 655.398438) scale(0.1 -0.1)">
       <defs>
        <path id="DejaVuSans-30" d="M 2034 4250 
Q 1547 4250 1301 3770 
Q 1056 3291 1056 2328 
Q 1056 1369 1301 889 
Q 1547 409 2034 409 
Q 2525 409 2770 889 
Q 3016 1369 3016 2328 
Q 3016 3291 2770 3770 
Q 2525 4250 2034 4250 
z
M 2034 4750 
Q 2819 4750 3233 4129 
Q 3647 3509 3647 2328 
Q 3647 1150 3233 529 
Q 2819 -91 2034 -91 
Q 1250 -91 836 529 
Q 422 1150 422 2328 
Q 422 3509 836 4129 
Q 1250 4750 2034 4750 
z
" transform="scale(0.015625)"/>
        <path id="DejaVuSans-2e" d="M 684 794 
L 1344 794 
L 1344 0 
L 684 0 
L 684 794 
z
" transform="scale(0.015625)"/>
       </defs>
       <use xlink:href="#DejaVuSans-30"/>
       <use xlink:href="#DejaVuSans-2e" x="63.623047"/>
       <use xlink:href="#DejaVuSans-30" x="95.410156"/>
      </g>
     </g>
    </g>
    <g id="xtick_2">
     <g id="line2d_3">
      <path d="M 260.181818 640.8 
L 260.181818 86.4 
" clip-path="url(#pfe4724d787)" style="fill: none; stroke: #b0b0b0; stroke-width: 0.8; stroke-linecap: square"/>
     </g>
     <g id="line2d_4">
      <g>
       <use xlink:href="#me82caf340b" x="260.181818" y="640.8" style="stroke: #000000; stroke-width: 0.8"/>
      </g>
     </g>
     <g id="text_2">
      <!-- 0.2 -->
      <g transform="translate(252.230256 655.398438) scale(0.1 -0.1)">
       <defs>
        <path id="DejaVuSans-32" d="M 1228 531 
L 3431 531 
L 3431 0 
L 469 0 
L 469 531 
Q 828 903 1448 1529 
Q 2069 2156 2228 2338 
Q 2531 2678 2651 2914 
Q 2772 3150 2772 3378 
Q 2772 3750 2511 3984 
Q 2250 4219 1831 4219 
Q 1534 4219 1204 4116 
Q 875 4013 500 3803 
L 500 4441 
Q 881 4594 1212 4672 
Q 1544 4750 1819 4750 
Q 2544 4750 2975 4387 
Q 3406 4025 3406 3419 
Q 3406 3131 3298 2873 
Q 3191 2616 2906 2266 
Q 2828 2175 2409 1742 
Q 1991 1309 1228 531 
z
" transform="scale(0.015625)"/>
       </defs>
       <use xlink:href="#DejaVuSans-30"/>
       <use xlink:href="#DejaVuSans-2e" x="63.623047"/>
       <use xlink:href="#DejaVuSans-32" x="95.410156"/>
      </g>
     </g>
    </g>
    <g id="xtick_3">
     <g id="line2d_5">
      <path d="M 381.927273 640.8 
L 381.927273 86.4 
" clip-path="url(#pfe4724d787)" style="fill: none; stroke: #b0b0b0; stroke-width: 0.8; stroke-linecap: square"/>
     </g>
     <g id="line2d_6">
      <g>
       <use xlink:href="#me82caf340b" x="381.927273" y="640.8" style="stroke: #000000; stroke-width: 0.8"/>
      </g>
     </g>
     <g id="text_3">
      <!-- 0.4 -->
      <g transform="translate(373.97571 655.398438) scale(0.1 -0.1)">
       <defs>
        <path id="DejaVuSans-34" d="M 2419 4116 
L 825 1625 
L 2419 1625 
L 2419 4116 
z
M 2253 4666 
L 3047 4666 
L 3047 1625 
L 3713 1625 
L 3713 1100 
L 3047 1100 
L 3047 0 
L 2419 0 
L 2419 1100 
L 313 1100 
L 313 1709 
L 2253 4666 
z
" transform="scale(0.015625)"/>
       </defs>
       <use xlink:href="#DejaVuSans-30"/>
       <use xlink:href="#DejaVuSans-2e" x="63.623047"/>
       <use xlink:href="#DejaVuSans-34" x="95.410156"/>
      </g>
     </g>
    </g>
    <g id="xtick_4">
     <g id="line2d_7">
      <path d="M 503.672727 640.8 
L 503.672727 86.4 
" clip-path="url(#pfe4724d787)" style="fill: none; stroke: #b0b0b0; stroke-width: 0.8; stroke-linecap: square"/>
     </g>
     <g id="line2d_8">
      <g>
       <use xlink:href="#me82caf340b" x="503.672727" y="640.8" style="stroke: #000000; stroke-width: 0.8"/>
      </g>
     </g>
     <g id="text_4">
      <!-- 0.6 -->
      <g transform="translate(495.721165 655.398438) scale(0.1 -0.1)">
       <defs>
        <path id="DejaVuSans-36" d="M 2113 2584 
Q 1688 2584 1439 2293 
Q 1191 2003 1191 1497 
Q 1191 994 1439 701 
Q 1688 409 2113 409 
Q 2538 409 2786 701 
Q 3034 994 3034 1497 
Q 3034 2003 2786 2293 
Q 2538 2584 2113 2584 
z
M 3366 4563 
L 3366 3988 
Q 3128 4100 2886 4159 
Q 2644 4219 2406 4219 
Q 1781 4219 1451 3797 
Q 1122 3375 1075 2522 
Q 1259 2794 1537 2939 
Q 1816 3084 2150 3084 
Q 2853 3084 3261 2657 
Q 3669 2231 3669 1497 
Q 3669 778 3244 343 
Q 2819 -91 2113 -91 
Q 1303 -91 875 529 
Q 447 1150 447 2328 
Q 447 3434 972 4092 
Q 1497 4750 2381 4750 
Q 2619 4750 2861 4703 
Q 3103 4656 3366 4563 
z
" transform="scale(0.015625)"/>
       </defs>
       <use xlink:href="#DejaVuSans-30"/>
       <use xlink:href="#DejaVuSans-2e" x="63.623047"/>
       <use xlink:href="#DejaVuSans-36" x="95.410156"/>
      </g>
     </g>
    </g>
    <g id="xtick_5">
     <g id="line2d_9">
      <path d="M 625.418182 640.8 
L 625.418182 86.4 
" clip-path="url(#pfe4724d787)" style="fill: none; stroke: #b0b0b0; stroke-width: 0.8; stroke-linecap: square"/>
     </g>
     <g id="line2d_10">
      <g>
       <use xlink:href="#me82caf340b" x="625.418182" y="640.8" style="stroke: #000000; stroke-width: 0.8"/>
      </g>
     </g>
     <g id="text_5">
      <!-- 0.8 -->
      <g transform="translate(617.466619 655.398438) scale(0.1 -0.1)">
       <defs>
        <path id="DejaVuSans-38" d="M 2034 2216 
Q 1584 2216 1326 1975 
Q 1069 1734 1069 1313 
Q 1069 891 1326 650 
Q 1584 409 2034 409 
Q 2484 409 2743 651 
Q 3003 894 3003 1313 
Q 3003 1734 2745 1975 
Q 2488 2216 2034 2216 
z
M 1403 2484 
Q 997 2584 770 2862 
Q 544 3141 544 3541 
Q 544 4100 942 4425 
Q 1341 4750 2034 4750 
Q 2731 4750 3128 4425 
Q 3525 4100 3525 3541 
Q 3525 3141 3298 2862 
Q 3072 2584 2669 2484 
Q 3125 2378 3379 2068 
Q 3634 1759 3634 1313 
Q 3634 634 3220 271 
Q 2806 -91 2034 -91 
Q 1263 -91 848 271 
Q 434 634 434 1313 
Q 434 1759 690 2068 
Q 947 2378 1403 2484 
z
M 1172 3481 
Q 1172 3119 1398 2916 
Q 1625 2713 2034 2713 
Q 2441 2713 2670 2916 
Q 2900 3119 2900 3481 
Q 2900 3844 2670 4047 
Q 2441 4250 2034 4250 
Q 1625 4250 1398 4047 
Q 1172 3844 1172 3481 
z
" transform="scale(0.015625)"/>
       </defs>
       <use xlink:href="#DejaVuSans-30"/>
       <use xlink:href="#DejaVuSans-2e" x="63.623047"/>
       <use xlink:href="#DejaVuSans-38" x="95.410156"/>
      </g>
     </g>
    </g>
    <g id="xtick_6">
     <g id="line2d_11">
      <path d="M 747.163636 640.8 
L 747.163636 86.4 
" clip-path="url(#pfe4724d787)" style="fill: none; stroke: #b0b0b0; stroke-width: 0.8; stroke-linecap: square"/>
     </g>
     <g id="line2d_12">
      <g>
       <use xlink:href="#me82caf340b" x="747.163636" y="640.8" style="stroke: #000000; stroke-width: 0.8"/>
      </g>
     </g>
     <g id="text_6">
      <!-- 1.0 -->
      <g transform="translate(739.212074 655.398438) scale(0.1 -0.1)">
       <defs>
        <path id="DejaVuSans-31" d="M 794 531 
L 1825 531 
L 1825 4091 
L 703 3866 
L 703 4441 
L 1819 4666 
L 2450 4666 
L 2450 531 
L 3481 531 
L 3481 0 
L 794 0 
L 794 531 
z
" transform="scale(0.015625)"/>
       </defs>
       <use xlink:href="#DejaVuSans-31"/>
       <use xlink:href="#DejaVuSans-2e" x="63.623047"/>
       <use xlink:href="#DejaVuSans-30" x="95.410156"/>
      </g>
     </g>
    </g>
    <g id="text_7">
     <!-- False Positive Rate -->
     <g transform="translate(396.333594 669.076563) scale(0.1 -0.1)">
      <defs>
       <path id="DejaVuSans-46" d="M 628 4666 
L 3309 4666 
L 3309 4134 
L 1259 4134 
L 1259 2759 
L 3109 2759 
L 3109 2228 
L 1259 2228 
L 1259 0 
L 628 0 
L 628 4666 
z
" transform="scale(0.015625)"/>
       <path id="DejaVuSans-61" d="M 2194 1759 
Q 1497 1759 1228 1600 
Q 959 1441 959 1056 
Q 959 750 1161 570 
Q 1363 391 1709 391 
Q 2188 391 2477 730 
Q 2766 1069 2766 1631 
L 2766 1759 
L 2194 1759 
z
M 3341 1997 
L 3341 0 
L 2766 0 
L 2766 531 
Q 2569 213 2275 61 
Q 1981 -91 1556 -91 
Q 1019 -91 701 211 
Q 384 513 384 1019 
Q 384 1609 779 1909 
Q 1175 2209 1959 2209 
L 2766 2209 
L 2766 2266 
Q 2766 2663 2505 2880 
Q 2244 3097 1772 3097 
Q 1472 3097 1187 3025 
Q 903 2953 641 2809 
L 641 3341 
Q 956 3463 1253 3523 
Q 1550 3584 1831 3584 
Q 2591 3584 2966 3190 
Q 3341 2797 3341 1997 
z
" transform="scale(0.015625)"/>
       <path id="DejaVuSans-6c" d="M 603 4863 
L 1178 4863 
L 1178 0 
L 603 0 
L 603 4863 
z
" transform="scale(0.015625)"/>
       <path id="DejaVuSans-73" d="M 2834 3397 
L 2834 2853 
Q 2591 2978 2328 3040 
Q 2066 3103 1784 3103 
Q 1356 3103 1142 2972 
Q 928 2841 928 2578 
Q 928 2378 1081 2264 
Q 1234 2150 1697 2047 
L 1894 2003 
Q 2506 1872 2764 1633 
Q 3022 1394 3022 966 
Q 3022 478 2636 193 
Q 2250 -91 1575 -91 
Q 1294 -91 989 -36 
Q 684 19 347 128 
L 347 722 
Q 666 556 975 473 
Q 1284 391 1588 391 
Q 1994 391 2212 530 
Q 2431 669 2431 922 
Q 2431 1156 2273 1281 
Q 2116 1406 1581 1522 
L 1381 1569 
Q 847 1681 609 1914 
Q 372 2147 372 2553 
Q 372 3047 722 3315 
Q 1072 3584 1716 3584 
Q 2034 3584 2315 3537 
Q 2597 3491 2834 3397 
z
" transform="scale(0.015625)"/>
       <path id="DejaVuSans-65" d="M 3597 1894 
L 3597 1613 
L 953 1613 
Q 991 1019 1311 708 
Q 1631 397 2203 397 
Q 2534 397 2845 478 
Q 3156 559 3463 722 
L 3463 178 
Q 3153 47 2828 -22 
Q 2503 -91 2169 -91 
Q 1331 -91 842 396 
Q 353 884 353 1716 
Q 353 2575 817 3079 
Q 1281 3584 2069 3584 
Q 2775 3584 3186 3129 
Q 3597 2675 3597 1894 
z
M 3022 2063 
Q 3016 2534 2758 2815 
Q 2500 3097 2075 3097 
Q 1594 3097 1305 2825 
Q 1016 2553 972 2059 
L 3022 2063 
z
" transform="scale(0.015625)"/>
       <path id="DejaVuSans-20" transform="scale(0.015625)"/>
       <path id="DejaVuSans-50" d="M 1259 4147 
L 1259 2394 
L 2053 2394 
Q 2494 2394 2734 2622 
Q 2975 2850 2975 3272 
Q 2975 3691 2734 3919 
Q 2494 4147 2053 4147 
L 1259 4147 
z
M 628 4666 
L 2053 4666 
Q 2838 4666 3239 4311 
Q 3641 3956 3641 3272 
Q 3641 2581 3239 2228 
Q 2838 1875 2053 1875 
L 1259 1875 
L 1259 0 
L 628 0 
L 628 4666 
z
" transform="scale(0.015625)"/>
       <path id="DejaVuSans-6f" d="M 1959 3097 
Q 1497 3097 1228 2736 
Q 959 2375 959 1747 
Q 959 1119 1226 758 
Q 1494 397 1959 397 
Q 2419 397 2687 759 
Q 2956 1122 2956 1747 
Q 2956 2369 2687 2733 
Q 2419 3097 1959 3097 
z
M 1959 3584 
Q 2709 3584 3137 3096 
Q 3566 2609 3566 1747 
Q 3566 888 3137 398 
Q 2709 -91 1959 -91 
Q 1206 -91 779 398 
Q 353 888 353 1747 
Q 353 2609 779 3096 
Q 1206 3584 1959 3584 
z
" transform="scale(0.015625)"/>
       <path id="DejaVuSans-69" d="M 603 3500 
L 1178 3500 
L 1178 0 
L 603 0 
L 603 3500 
z
M 603 4863 
L 1178 4863 
L 1178 4134 
L 603 4134 
L 603 4863 
z
" transform="scale(0.015625)"/>
       <path id="DejaVuSans-74" d="M 1172 4494 
L 1172 3500 
L 2356 3500 
L 2356 3053 
L 1172 3053 
L 1172 1153 
Q 1172 725 1289 603 
Q 1406 481 1766 481 
L 2356 481 
L 2356 0 
L 1766 0 
Q 1100 0 847 248 
Q 594 497 594 1153 
L 594 3053 
L 172 3053 
L 172 3500 
L 594 3500 
L 594 4494 
L 1172 4494 
z
" transform="scale(0.015625)"/>
       <path id="DejaVuSans-76" d="M 191 3500 
L 800 3500 
L 1894 563 
L 2988 3500 
L 3597 3500 
L 2284 0 
L 1503 0 
L 191 3500 
z
" transform="scale(0.015625)"/>
       <path id="DejaVuSans-52" d="M 2841 2188 
Q 3044 2119 3236 1894 
Q 3428 1669 3622 1275 
L 4263 0 
L 3584 0 
L 2988 1197 
Q 2756 1666 2539 1819 
Q 2322 1972 1947 1972 
L 1259 1972 
L 1259 0 
L 628 0 
L 628 4666 
L 2053 4666 
Q 2853 4666 3247 4331 
Q 3641 3997 3641 3322 
Q 3641 2881 3436 2590 
Q 3231 2300 2841 2188 
z
M 1259 4147 
L 1259 2491 
L 2053 2491 
Q 2509 2491 2742 2702 
Q 2975 2913 2975 3322 
Q 2975 3731 2742 3939 
Q 2509 4147 2053 4147 
L 1259 4147 
z
" transform="scale(0.015625)"/>
      </defs>
      <use xlink:href="#DejaVuSans-46"/>
      <use xlink:href="#DejaVuSans-61" x="48.394531"/>
      <use xlink:href="#DejaVuSans-6c" x="109.673828"/>
      <use xlink:href="#DejaVuSans-73" x="137.457031"/>
      <use xlink:href="#DejaVuSans-65" x="189.556641"/>
      <use xlink:href="#DejaVuSans-20" x="251.080078"/>
      <use xlink:href="#DejaVuSans-50" x="282.867188"/>
      <use xlink:href="#DejaVuSans-6f" x="339.544922"/>
      <use xlink:href="#DejaVuSans-73" x="400.726562"/>
      <use xlink:href="#DejaVuSans-69" x="452.826172"/>
      <use xlink:href="#DejaVuSans-74" x="480.609375"/>
      <use xlink:href="#DejaVuSans-69" x="519.818359"/>
      <use xlink:href="#DejaVuSans-76" x="547.601562"/>
      <use xlink:href="#DejaVuSans-65" x="606.78125"/>
      <use xlink:href="#DejaVuSans-20" x="668.304688"/>
      <use xlink:href="#DejaVuSans-52" x="700.091797"/>
      <use xlink:href="#DejaVuSans-61" x="767.324219"/>
      <use xlink:href="#DejaVuSans-74" x="828.603516"/>
      <use xlink:href="#DejaVuSans-65" x="867.8125"/>
     </g>
    </g>
   </g>
   <g id="matplotlib.axis_2">
    <g id="ytick_1">
     <g id="line2d_13">
      <path d="M 108 615.6 
L 777.6 615.6 
" clip-path="url(#pfe4724d787)" style="fill: none; stroke: #b0b0b0; stroke-width: 0.8; stroke-linecap: square"/>
     </g>
     <g id="line2d_14">
      <defs>
       <path id="ma5e5330480" d="M 0 0 
L -3.5 0 
" style="stroke: #000000; stroke-width: 0.8"/>
      </defs>
      <g>
       <use xlink:href="#ma5e5330480" x="108" y="615.6" style="stroke: #000000; stroke-width: 0.8"/>
      </g>
     </g>
     <g id="text_8">
      <!-- 0.0 -->
      <g transform="translate(85.096875 619.399219) scale(0.1 -0.1)">
       <use xlink:href="#DejaVuSans-30"/>
       <use xlink:href="#DejaVuSans-2e" x="63.623047"/>
       <use xlink:href="#DejaVuSans-30" x="95.410156"/>
      </g>
     </g>
    </g>
    <g id="ytick_2">
     <g id="line2d_15">
      <path d="M 108 514.8 
L 777.6 514.8 
" clip-path="url(#pfe4724d787)" style="fill: none; stroke: #b0b0b0; stroke-width: 0.8; stroke-linecap: square"/>
     </g>
     <g id="line2d_16">
      <g>
       <use xlink:href="#ma5e5330480" x="108" y="514.8" style="stroke: #000000; stroke-width: 0.8"/>
      </g>
     </g>
     <g id="text_9">
      <!-- 0.2 -->
      <g transform="translate(85.096875 518.599219) scale(0.1 -0.1)">
       <use xlink:href="#DejaVuSans-30"/>
       <use xlink:href="#DejaVuSans-2e" x="63.623047"/>
       <use xlink:href="#DejaVuSans-32" x="95.410156"/>
      </g>
     </g>
    </g>
    <g id="ytick_3">
     <g id="line2d_17">
      <path d="M 108 414 
L 777.6 414 
" clip-path="url(#pfe4724d787)" style="fill: none; stroke: #b0b0b0; stroke-width: 0.8; stroke-linecap: square"/>
     </g>
     <g id="line2d_18">
      <g>
       <use xlink:href="#ma5e5330480" x="108" y="414" style="stroke: #000000; stroke-width: 0.8"/>
      </g>
     </g>
     <g id="text_10">
      <!-- 0.4 -->
      <g transform="translate(85.096875 417.799219) scale(0.1 -0.1)">
       <use xlink:href="#DejaVuSans-30"/>
       <use xlink:href="#DejaVuSans-2e" x="63.623047"/>
       <use xlink:href="#DejaVuSans-34" x="95.410156"/>
      </g>
     </g>
    </g>
    <g id="ytick_4">
     <g id="line2d_19">
      <path d="M 108 313.2 
L 777.6 313.2 
" clip-path="url(#pfe4724d787)" style="fill: none; stroke: #b0b0b0; stroke-width: 0.8; stroke-linecap: square"/>
     </g>
     <g id="line2d_20">
      <g>
       <use xlink:href="#ma5e5330480" x="108" y="313.2" style="stroke: #000000; stroke-width: 0.8"/>
      </g>
     </g>
     <g id="text_11">
      <!-- 0.6 -->
      <g transform="translate(85.096875 316.999219) scale(0.1 -0.1)">
       <use xlink:href="#DejaVuSans-30"/>
       <use xlink:href="#DejaVuSans-2e" x="63.623047"/>
       <use xlink:href="#DejaVuSans-36" x="95.410156"/>
      </g>
     </g>
    </g>
    <g id="ytick_5">
     <g id="line2d_21">
      <path d="M 108 212.4 
L 777.6 212.4 
" clip-path="url(#pfe4724d787)" style="fill: none; stroke: #b0b0b0; stroke-width: 0.8; stroke-linecap: square"/>
     </g>
     <g id="line2d_22">
      <g>
       <use xlink:href="#ma5e5330480" x="108" y="212.4" style="stroke: #000000; stroke-width: 0.8"/>
      </g>
     </g>
     <g id="text_12">
      <!-- 0.8 -->
      <g transform="translate(85.096875 216.199219) scale(0.1 -0.1)">
       <use xlink:href="#DejaVuSans-30"/>
       <use xlink:href="#DejaVuSans-2e" x="63.623047"/>
       <use xlink:href="#DejaVuSans-38" x="95.410156"/>
      </g>
     </g>
    </g>
    <g id="ytick_6">
     <g id="line2d_23">
      <path d="M 108 111.6 
L 777.6 111.6 
" clip-path="url(#pfe4724d787)" style="fill: none; stroke: #b0b0b0; stroke-width: 0.8; stroke-linecap: square"/>
     </g>
     <g id="line2d_24">
      <g>
       <use xlink:href="#ma5e5330480" x="108" y="111.6" style="stroke: #000000; stroke-width: 0.8"/>
      </g>
     </g>
     <g id="text_13">
      <!-- 1.0 -->
      <g transform="translate(85.096875 115.399219) scale(0.1 -0.1)">
       <use xlink:href="#DejaVuSans-31"/>
       <use xlink:href="#DejaVuSans-2e" x="63.623047"/>
       <use xlink:href="#DejaVuSans-30" x="95.410156"/>
      </g>
     </g>
    </g>
    <g id="text_14">
     <!-- True Positive Rate -->
     <g transform="translate(79.017187 408.129687) rotate(-90) scale(0.1 -0.1)">
      <defs>
       <path id="DejaVuSans-54" d="M -19 4666 
L 3928 4666 
L 3928 4134 
L 2272 4134 
L 2272 0 
L 1638 0 
L 1638 4134 
L -19 4134 
L -19 4666 
z
" transform="scale(0.015625)"/>
       <path id="DejaVuSans-72" d="M 2631 2963 
Q 2534 3019 2420 3045 
Q 2306 3072 2169 3072 
Q 1681 3072 1420 2755 
Q 1159 2438 1159 1844 
L 1159 0 
L 581 0 
L 581 3500 
L 1159 3500 
L 1159 2956 
Q 1341 3275 1631 3429 
Q 1922 3584 2338 3584 
Q 2397 3584 2469 3576 
Q 2541 3569 2628 3553 
L 2631 2963 
z
" transform="scale(0.015625)"/>
       <path id="DejaVuSans-75" d="M 544 1381 
L 544 3500 
L 1119 3500 
L 1119 1403 
Q 1119 906 1312 657 
Q 1506 409 1894 409 
Q 2359 409 2629 706 
Q 2900 1003 2900 1516 
L 2900 3500 
L 3475 3500 
L 3475 0 
L 2900 0 
L 2900 538 
Q 2691 219 2414 64 
Q 2138 -91 1772 -91 
Q 1169 -91 856 284 
Q 544 659 544 1381 
z
M 1991 3584 
L 1991 3584 
z
" transform="scale(0.015625)"/>
      </defs>
      <use xlink:href="#DejaVuSans-54"/>
      <use xlink:href="#DejaVuSans-72" x="46.333984"/>
      <use xlink:href="#DejaVuSans-75" x="87.447266"/>
      <use xlink:href="#DejaVuSans-65" x="150.826172"/>
      <use xlink:href="#DejaVuSans-20" x="212.349609"/>
      <use xlink:href="#DejaVuSans-50" x="244.136719"/>
      <use xlink:href="#DejaVuSans-6f" x="300.814453"/>
      <use xlink:href="#DejaVuSans-73" x="361.996094"/>
      <use xlink:href="#DejaVuSans-69" x="414.095703"/>
      <use xlink:href="#DejaVuSans-74" x="441.878906"/>
      <use xlink:href="#DejaVuSans-69" x="481.087891"/>
      <use xlink:href="#DejaVuSans-76" x="508.871094"/>
      <use xlink:href="#DejaVuSans-65" x="568.050781"/>
      <use xlink:href="#DejaVuSans-20" x="629.574219"/>
      <use xlink:href="#DejaVuSans-52" x="661.361328"/>
      <use xlink:href="#DejaVuSans-61" x="728.59375"/>
      <use xlink:href="#DejaVuSans-74" x="789.873047"/>
      <use xlink:href="#DejaVuSans-65" x="829.082031"/>
     </g>
    </g>
   </g>
   <g id="line2d_25">
    <path d="M 138.436364 615.6 
L 138.436364 610.218259 
L 139.039362 562.320769 
L 139.340862 463.56583 
L 139.642361 446.613348 
L 143.260354 309.378964 
L 143.561853 308.302616 
L 144.164852 305.073572 
L 146.878347 236.187293 
L 147.782845 223.271116 
L 147.782845 218.696636 
L 148.084344 218.427549 
L 148.385844 218.427549 
L 148.385844 215.467592 
L 148.988842 208.471329 
L 148.988842 207.394981 
L 149.591841 207.394981 
L 149.591841 206.58772 
L 149.893341 206.318633 
L 150.19484 205.780459 
L 150.19484 204.435024 
L 150.496339 203.627763 
L 150.496339 202.820502 
L 151.099338 197.438761 
L 151.702337 197.438761 
L 151.702337 196.900587 
L 152.003836 196.900587 
L 152.003836 196.362413 
L 152.305336 196.362413 
L 152.305336 194.747891 
L 152.606835 194.747891 
L 152.606835 193.94063 
L 152.908334 193.94063 
L 152.908334 191.787934 
L 153.209834 191.787934 
L 153.209834 186.67528 
L 153.511333 186.67528 
L 153.511333 185.060758 
L 153.812833 185.060758 
L 153.812833 182.100801 
L 154.114332 182.100801 
L 154.114332 179.948105 
L 154.415831 179.948105 
L 154.415831 179.409931 
L 155.01883 179.409931 
L 155.01883 178.333582 
L 155.32033 178.333582 
L 155.32033 177.795408 
L 155.621829 177.795408 
L 155.621829 176.988147 
L 155.923328 176.988147 
L 155.923328 175.911799 
L 156.224828 175.642712 
L 156.224828 171.875494 
L 156.526327 171.875494 
L 156.526327 169.453711 
L 157.430825 169.453711 
L 157.430825 168.108275 
L 157.732325 168.108275 
L 157.732325 167.570101 
L 158.335324 167.570101 
L 158.335324 165.148318 
L 158.636823 164.879231 
L 158.636823 163.533796 
L 158.938322 163.533796 
L 158.938322 162.995622 
L 159.239822 162.995622 
L 159.239822 161.919274 
L 159.541321 161.919274 
L 159.541321 161.650187 
L 160.14432 161.650187 
L 160.14432 158.421143 
L 160.445819 158.421143 
L 160.445819 155.730272 
L 160.747319 155.730272 
L 160.747319 154.653924 
L 161.048818 154.653924 
L 161.048818 153.039402 
L 161.350317 153.039402 
L 161.350317 150.886706 
L 161.953316 150.886706 
L 161.953316 149.810358 
L 162.254816 149.003097 
L 162.556315 148.73401 
L 162.857814 148.73401 
L 162.857814 148.195836 
L 163.159314 148.195836 
L 163.159314 147.119487 
L 163.460813 147.119487 
L 163.460813 146.312226 
L 164.063812 146.312226 
L 164.365311 145.774052 
L 164.666811 145.774052 
L 164.666811 144.966791 
L 164.96831 144.697704 
L 165.26981 144.697704 
L 165.872808 144.428617 
L 165.872808 143.890443 
L 166.475807 143.890443 
L 166.777306 143.083182 
L 168.887802 142.814095 
L 170.0938 142.814095 
L 170.0938 142.545008 
L 170.998298 142.545008 
L 172.505795 142.275921 
L 172.807294 142.006834 
L 174.616291 142.006834 
L 174.91779 141.46866 
L 178.234283 141.46866 
L 178.535783 141.199573 
L 179.440281 140.930486 
L 179.74178 140.661399 
L 180.04328 140.661399 
L 180.344779 140.392312 
L 181.249277 140.392312 
L 181.249277 139.585051 
L 181.852276 139.315964 
L 182.153775 139.315964 
L 195.118249 137.970529 
L 195.721248 137.701442 
L 196.625746 137.701442 
L 203.258733 137.163267 
L 203.861732 136.89418 
L 205.369229 136.625093 
L 205.670728 136.356006 
L 210.796218 136.356006 
L 211.399217 136.086919 
L 211.700716 135.817832 
L 211.700716 135.279658 
L 212.605214 135.279658 
L 218.333703 134.741484 
L 218.635202 134.472397 
L 219.8412 134.472397 
L 221.047197 133.934223 
L 222.856193 133.934223 
L 223.157693 133.665136 
L 228.283182 133.665136 
L 229.187681 133.396049 
L 231.901175 133.396049 
L 232.504174 133.126962 
L 234.31317 133.126962 
L 237.026665 132.857875 
L 238.835661 132.857875 
L 246.071647 130.705179 
L 246.976145 130.705179 
L 250.292638 130.436092 
L 254.21213 130.167005 
L 257.227124 130.167005 
L 260.845117 129.359744 
L 261.146616 129.090657 
L 263.558611 129.090657 
L 264.764609 128.552483 
L 265.669107 128.283396 
L 266.573605 128.283396 
L 266.573605 128.014309 
L 269.890099 128.014309 
L 269.890099 127.745222 
L 278.332082 127.745222 
L 278.633581 127.207048 
L 278.93508 127.207048 
L 289.487559 126.93796 
L 292.201054 126.399786 
L 292.804052 126.399786 
L 296.422045 126.130699 
L 296.422045 125.861612 
L 300.341537 125.861612 
L 300.341537 125.323438 
L 300.643037 125.323438 
L 306.070026 124.785264 
L 308.482021 124.785264 
L 311.195515 124.24709 
L 316.321005 124.24709 
L 318.130001 123.978003 
L 321.446495 123.708916 
L 323.85849 123.708916 
L 326.270485 122.901655 
L 364.862407 121.018046 
L 366.369904 120.748959 
L 367.575902 120.748959 
L 383.25387 118.596263 
L 384.158368 118.327176 
L 385.967365 118.327176 
L 716.410698 112.407261 
L 747.163636 111.6 
L 747.163636 111.6 
" clip-path="url(#pfe4724d787)" style="fill: none; stroke: #1f77b4; stroke-width: 2; stroke-linecap: square"/>
   </g>
   <g id="line2d_26">
    <path d="M 138.436364 615.6 
L 138.436364 609.498305 
L 139.09232 609.498305 
L 139.09232 594.244068 
L 139.748276 594.244068 
L 139.748276 588.142373 
L 140.404232 588.142373 
L 140.404232 568.616949 
L 141.060188 568.616949 
L 141.060188 553.362712 
L 141.716144 553.362712 
L 141.716144 525.294915 
L 142.3721 524.074576 
L 142.3721 486.244068 
L 143.028056 486.244068 
L 143.028056 475.871186 
L 143.684013 475.871186 
L 143.684013 449.633898 
L 144.339969 449.023729 
L 144.339969 447.19322 
L 144.995925 447.19322 
L 144.995925 373.362712 
L 145.651881 373.362712 
L 145.651881 356.277966 
L 146.307837 356.277966 
L 146.307837 348.955932 
L 146.963793 348.955932 
L 146.963793 334.311864 
L 147.619749 334.311864 
L 147.619749 316.00678 
L 148.275705 315.39661 
L 148.275705 306.854237 
L 148.931661 306.854237 
L 148.931661 303.80339 
L 149.587618 302.583051 
L 149.587618 285.498305 
L 150.243574 284.888136 
L 150.243574 249.498305 
L 150.89953 249.498305 
L 150.89953 248.888136 
L 152.211442 248.888136 
L 152.211442 240.345763 
L 152.867398 240.345763 
L 152.867398 238.515254 
L 154.17931 238.515254 
L 154.17931 192.142373 
L 154.835266 192.142373 
L 155.491223 191.532203 
L 156.147179 191.532203 
L 156.147179 187.261017 
L 156.803135 187.261017 
L 156.803135 176.277966 
L 157.459091 176.277966 
L 157.459091 173.837288 
L 158.115047 173.837288 
L 158.115047 167.125424 
L 158.771003 166.515254 
L 160.082915 166.515254 
L 160.082915 163.464407 
L 160.738871 163.464407 
L 160.738871 157.972881 
L 162.050784 157.972881 
L 162.050784 154.922034 
L 163.362696 154.922034 
L 163.362696 153.091525 
L 164.018652 153.091525 
L 164.018652 152.481356 
L 164.674608 152.481356 
L 164.674608 148.820339 
L 165.330564 148.210169 
L 165.330564 147.6 
L 165.98652 147.6 
L 165.98652 145.769492 
L 166.642476 145.159322 
L 166.642476 144.549153 
L 167.298433 144.549153 
L 167.298433 141.498305 
L 167.954389 140.888136 
L 167.954389 140.277966 
L 169.266301 140.277966 
L 169.266301 138.447458 
L 169.922257 138.447458 
L 169.922257 137.837288 
L 170.578213 137.837288 
L 170.578213 137.227119 
L 171.234169 136.616949 
L 172.546082 136.616949 
L 172.546082 134.176271 
L 173.202038 133.566102 
L 173.857994 133.566102 
L 173.857994 132.955932 
L 174.51395 132.955932 
L 174.51395 132.345763 
L 176.481818 132.345763 
L 177.137774 131.735593 
L 182.385423 131.735593 
L 182.385423 129.905085 
L 186.977116 129.905085 
L 186.977116 129.294915 
L 193.536677 129.294915 
L 193.536677 128.684746 
L 196.160502 128.684746 
L 196.160502 128.074576 
L 204.031975 128.074576 
L 204.031975 127.464407 
L 205.999843 127.464407 
L 205.999843 126.854237 
L 207.311755 126.854237 
L 207.311755 126.244068 
L 207.967712 126.244068 
L 207.967712 125.633898 
L 209.279624 125.633898 
L 209.279624 125.023729 
L 213.215361 125.023729 
L 213.215361 124.413559 
L 217.151097 124.413559 
L 217.151097 123.80339 
L 221.086834 123.80339 
L 221.086834 123.19322 
L 221.74279 122.583051 
L 230.926176 122.583051 
L 230.926176 121.362712 
L 239.453605 121.362712 
L 239.453605 120.142373 
L 240.109561 120.142373 
L 240.109561 119.532203 
L 253.884639 119.532203 
L 253.884639 118.922034 
L 272.251411 118.922034 
L 272.251411 118.311864 
L 289.962226 118.311864 
L 289.962226 117.701695 
L 297.177743 117.701695 
L 297.177743 117.091525 
L 305.049216 117.091525 
L 305.049216 116.481356 
L 310.296865 116.481356 
L 310.296865 115.871186 
L 319.480251 115.871186 
L 319.480251 115.261017 
L 340.470846 115.261017 
L 340.470846 114.650847 
L 382.452038 114.650847 
L 382.452038 114.040678 
L 447.391693 114.040678 
L 448.047649 113.430508 
L 577.271003 113.430508 
L 581.20674 112.820339 
L 619.252194 112.820339 
L 695.343103 111.6 
L 747.163636 111.6 
L 747.163636 111.6 
" clip-path="url(#pfe4724d787)" style="fill: none; stroke: #ff7f0e; stroke-width: 2; stroke-linecap: square"/>
   </g>
   <g id="line2d_27">
    <path d="M 138.436364 615.6 
L 138.436364 592.305882 
L 139.203023 592.305882 
L 139.203023 541.482353 
L 139.969682 541.482353 
L 139.969682 530.894118 
L 140.736341 530.894118 
L 140.736341 519.6 
L 141.503 519.6 
L 141.503 464.541176 
L 142.269659 464.541176 
L 142.269659 437.717647 
L 143.036318 437.717647 
L 143.036318 410.894118 
L 143.802977 410.894118 
L 143.802977 407.364706 
L 144.569636 407.364706 
L 144.569636 393.952941 
L 145.336295 393.952941 
L 145.336295 371.364706 
L 146.869613 371.364706 
L 146.869613 350.188235 
L 147.636272 350.188235 
L 147.636272 315.6 
L 148.402931 315.6 
L 148.402931 274.658824 
L 149.16959 274.658824 
L 149.16959 257.717647 
L 149.936249 257.717647 
L 149.936249 247.129412 
L 150.702908 247.129412 
L 150.702908 246.423529 
L 152.236226 246.423529 
L 152.236226 230.188235 
L 153.002885 230.188235 
L 153.002885 215.364706 
L 153.769544 215.364706 
L 153.769544 213.247059 
L 154.536203 213.247059 
L 154.536203 207.6 
L 156.069521 207.6 
L 156.069521 188.541176 
L 156.83618 188.541176 
L 156.83618 175.835294 
L 157.602839 175.835294 
L 157.602839 159.6 
L 159.136158 159.6 
L 159.136158 157.482353 
L 159.902817 157.482353 
L 159.902817 152.541176 
L 160.669476 152.541176 
L 160.669476 151.835294 
L 161.436135 151.835294 
L 161.436135 149.011765 
L 162.202794 149.011765 
L 162.202794 146.894118 
L 162.969453 146.894118 
L 162.969453 146.188235 
L 164.502771 146.188235 
L 164.502771 142.658824 
L 166.802748 142.658824 
L 166.802748 141.952941 
L 168.336066 141.952941 
L 168.336066 141.247059 
L 169.102725 141.247059 
L 169.102725 138.423529 
L 169.869384 138.423529 
L 169.869384 137.011765 
L 172.93602 137.011765 
L 172.93602 136.305882 
L 173.702679 136.305882 
L 173.702679 135.6 
L 174.469338 135.6 
L 174.469338 134.894118 
L 181.36927 134.894118 
L 181.36927 134.188235 
L 182.902588 134.188235 
L 182.902588 133.482353 
L 183.669247 133.482353 
L 183.669247 132.776471 
L 184.435906 132.776471 
L 184.435906 132.070588 
L 186.735883 132.070588 
L 186.735883 131.364706 
L 189.802519 131.364706 
L 189.802519 129.952941 
L 192.102496 129.952941 
L 192.102496 129.247059 
L 192.869155 129.247059 
L 192.869155 128.541176 
L 197.469109 128.541176 
L 197.469109 127.129412 
L 207.435677 127.129412 
L 207.435677 126.423529 
L 215.868926 126.423529 
L 215.868926 125.717647 
L 220.46888 125.717647 
L 220.46888 124.305882 
L 226.602153 124.305882 
L 226.602153 123.6 
L 261.101809 123.6 
L 261.101809 122.894118 
L 265.701763 122.894118 
L 265.701763 122.188235 
L 281.801603 122.188235 
L 281.801603 121.482353 
L 291.001511 121.482353 
L 291.001511 120.776471 
L 304.034715 120.776471 
L 304.034715 119.364706 
L 305.568033 119.364706 
L 305.568033 117.952941 
L 321.667873 117.952941 
L 321.667873 117.247059 
L 330.101122 117.247059 
L 330.101122 116.541176 
L 375.334005 116.541176 
L 375.334005 115.835294 
L 396.033799 115.835294 
L 396.033799 115.129412 
L 407.533684 115.129412 
L 407.533684 114.423529 
L 433.600092 114.423529 
L 434.366751 113.717647 
L 443.566659 113.717647 
L 443.566659 113.011765 
L 581.565285 113.011765 
L 581.565285 112.305882 
L 626.798168 112.305882 
L 627.564827 111.6 
L 747.163636 111.6 
L 747.163636 111.6 
" clip-path="url(#pfe4724d787)" style="fill: none; stroke: #2ca02c; stroke-width: 2; stroke-linecap: square"/>
   </g>
   <g id="line2d_28">
    <path d="M 138.436364 615.6 
L 138.436364 612.81547 
L 138.436364 601.677348 
L 141.449865 601.677348 
L 141.449865 579.401105 
L 141.449865 573.832044 
L 141.449865 571.047514 
L 144.463366 571.047514 
L 144.463366 565.478453 
L 144.463366 551.555801 
L 144.463366 545.98674 
L 144.463366 540.41768 
L 147.476868 540.41768 
L 147.476868 518.141436 
L 147.476868 512.572376 
L 147.476868 498.649724 
L 150.490369 498.649724 
L 150.490369 476.373481 
L 150.490369 465.235359 
L 150.490369 459.666298 
L 150.490369 454.097238 
L 150.490369 445.743646 
L 150.490369 437.390055 
L 153.50387 437.390055 
L 153.50387 431.820994 
L 153.50387 420.682873 
L 153.50387 412.329282 
L 153.50387 401.19116 
L 153.50387 392.837569 
L 153.50387 381.699448 
L 153.50387 376.130387 
L 153.50387 373.345856 
L 156.517372 370.561326 
L 156.517372 362.207735 
L 156.517372 356.638674 
L 156.517372 351.069613 
L 156.517372 342.716022 
L 156.517372 339.931492 
L 156.517372 334.362431 
L 159.530873 326.00884 
L 159.530873 317.655249 
L 159.530873 312.086188 
L 159.530873 300.948066 
L 159.530873 295.379006 
L 159.530873 292.594475 
L 159.530873 287.025414 
L 159.530873 270.318232 
L 159.530873 259.18011 
L 159.530873 245.257459 
L 159.530873 234.119337 
L 159.530873 228.550276 
L 162.544374 228.550276 
L 162.544374 220.196685 
L 165.557876 220.196685 
L 165.557876 214.627624 
L 165.557876 203.489503 
L 171.584878 200.704972 
L 171.584878 195.135912 
L 174.59838 192.351381 
L 174.59838 189.566851 
L 174.59838 178.428729 
L 174.59838 170.075138 
L 174.59838 164.506077 
L 174.59838 161.721547 
L 174.59838 156.152486 
L 174.59838 147.798895 
L 177.611881 147.798895 
L 183.638884 145.014365 
L 186.652385 145.014365 
L 204.733393 136.660773 
L 240.89541 131.091713 
L 249.935914 125.522652 
L 258.976418 122.738122 
L 261.989919 122.738122 
L 274.043924 119.953591 
L 277.057426 119.953591 
L 295.138434 119.953591 
L 298.151935 119.953591 
L 307.192439 119.953591 
L 310.205941 117.169061 
L 316.232943 117.169061 
L 325.273447 117.169061 
L 328.286949 117.169061 
L 337.327453 117.169061 
L 340.340954 117.169061 
L 391.570477 117.169061 
L 427.732493 114.38453 
L 457.867507 114.38453 
L 463.894509 114.38453 
L 469.921512 114.38453 
L 475.948515 114.38453 
L 488.00252 114.38453 
L 494.029523 114.38453 
L 503.070027 114.38453 
L 509.09703 114.38453 
L 512.110531 114.38453 
L 518.137534 114.38453 
L 521.151035 114.38453 
L 527.178038 114.38453 
L 530.191539 114.38453 
L 536.218542 114.38453 
L 545.259046 114.38453 
L 554.29955 114.38453 
L 566.353555 114.38453 
L 581.421062 114.38453 
L 587.448065 114.38453 
L 602.515572 114.38453 
L 608.542574 114.38453 
L 614.569577 114.38453 
L 620.59658 114.38453 
L 623.610081 114.38453 
L 629.637084 114.38453 
L 632.650585 114.38453 
L 638.677588 114.38453 
L 647.718092 114.38453 
L 665.7991 114.38453 
L 671.826103 114.38453 
L 677.853105 114.38453 
L 686.893609 114.38453 
L 692.920612 114.38453 
L 720.042124 114.38453 
L 723.055626 114.38453 
L 735.109631 114.38453 
L 747.163636 111.6 
" clip-path="url(#pfe4724d787)" style="fill: none; stroke: #d62728; stroke-width: 2; stroke-linecap: square"/>
   </g>
   <g id="line2d_29">
    <path d="M 138.436364 615.6 
L 747.163636 111.6 
" clip-path="url(#pfe4724d787)" style="fill: none; stroke-dasharray: 7.4,3.2; stroke-dashoffset: 0; stroke: #000080; stroke-width: 2"/>
   </g>
   <g id="patch_3">
    <path d="M 108 640.8 
L 108 86.4 
" style="fill: none; stroke: #000000; stroke-width: 0.8; stroke-linejoin: miter; stroke-linecap: square"/>
   </g>
   <g id="patch_4">
    <path d="M 777.6 640.8 
L 777.6 86.4 
" style="fill: none; stroke: #000000; stroke-width: 0.8; stroke-linejoin: miter; stroke-linecap: square"/>
   </g>
   <g id="patch_5">
    <path d="M 108 640.8 
L 777.6 640.8 
" style="fill: none; stroke: #000000; stroke-width: 0.8; stroke-linejoin: miter; stroke-linecap: square"/>
   </g>
   <g id="patch_6">
    <path d="M 108 86.4 
L 777.6 86.4 
" style="fill: none; stroke: #000000; stroke-width: 0.8; stroke-linejoin: miter; stroke-linecap: square"/>
   </g>
   <g id="text_15">
    <!-- Receiver Operating Characteristic (ROC) Curve for All Locations -->
    <g transform="translate(252.105 80.4) scale(0.12 -0.12)">
     <defs>
      <path id="DejaVuSans-63" d="M 3122 3366 
L 3122 2828 
Q 2878 2963 2633 3030 
Q 2388 3097 2138 3097 
Q 1578 3097 1268 2742 
Q 959 2388 959 1747 
Q 959 1106 1268 751 
Q 1578 397 2138 397 
Q 2388 397 2633 464 
Q 2878 531 3122 666 
L 3122 134 
Q 2881 22 2623 -34 
Q 2366 -91 2075 -91 
Q 1284 -91 818 406 
Q 353 903 353 1747 
Q 353 2603 823 3093 
Q 1294 3584 2113 3584 
Q 2378 3584 2631 3529 
Q 2884 3475 3122 3366 
z
" transform="scale(0.015625)"/>
      <path id="DejaVuSans-4f" d="M 2522 4238 
Q 1834 4238 1429 3725 
Q 1025 3213 1025 2328 
Q 1025 1447 1429 934 
Q 1834 422 2522 422 
Q 3209 422 3611 934 
Q 4013 1447 4013 2328 
Q 4013 3213 3611 3725 
Q 3209 4238 2522 4238 
z
M 2522 4750 
Q 3503 4750 4090 4092 
Q 4678 3434 4678 2328 
Q 4678 1225 4090 567 
Q 3503 -91 2522 -91 
Q 1538 -91 948 565 
Q 359 1222 359 2328 
Q 359 3434 948 4092 
Q 1538 4750 2522 4750 
z
" transform="scale(0.015625)"/>
      <path id="DejaVuSans-70" d="M 1159 525 
L 1159 -1331 
L 581 -1331 
L 581 3500 
L 1159 3500 
L 1159 2969 
Q 1341 3281 1617 3432 
Q 1894 3584 2278 3584 
Q 2916 3584 3314 3078 
Q 3713 2572 3713 1747 
Q 3713 922 3314 415 
Q 2916 -91 2278 -91 
Q 1894 -91 1617 61 
Q 1341 213 1159 525 
z
M 3116 1747 
Q 3116 2381 2855 2742 
Q 2594 3103 2138 3103 
Q 1681 3103 1420 2742 
Q 1159 2381 1159 1747 
Q 1159 1113 1420 752 
Q 1681 391 2138 391 
Q 2594 391 2855 752 
Q 3116 1113 3116 1747 
z
" transform="scale(0.015625)"/>
      <path id="DejaVuSans-6e" d="M 3513 2113 
L 3513 0 
L 2938 0 
L 2938 2094 
Q 2938 2591 2744 2837 
Q 2550 3084 2163 3084 
Q 1697 3084 1428 2787 
Q 1159 2491 1159 1978 
L 1159 0 
L 581 0 
L 581 3500 
L 1159 3500 
L 1159 2956 
Q 1366 3272 1645 3428 
Q 1925 3584 2291 3584 
Q 2894 3584 3203 3211 
Q 3513 2838 3513 2113 
z
" transform="scale(0.015625)"/>
      <path id="DejaVuSans-67" d="M 2906 1791 
Q 2906 2416 2648 2759 
Q 2391 3103 1925 3103 
Q 1463 3103 1205 2759 
Q 947 2416 947 1791 
Q 947 1169 1205 825 
Q 1463 481 1925 481 
Q 2391 481 2648 825 
Q 2906 1169 2906 1791 
z
M 3481 434 
Q 3481 -459 3084 -895 
Q 2688 -1331 1869 -1331 
Q 1566 -1331 1297 -1286 
Q 1028 -1241 775 -1147 
L 775 -588 
Q 1028 -725 1275 -790 
Q 1522 -856 1778 -856 
Q 2344 -856 2625 -561 
Q 2906 -266 2906 331 
L 2906 616 
Q 2728 306 2450 153 
Q 2172 0 1784 0 
Q 1141 0 747 490 
Q 353 981 353 1791 
Q 353 2603 747 3093 
Q 1141 3584 1784 3584 
Q 2172 3584 2450 3431 
Q 2728 3278 2906 2969 
L 2906 3500 
L 3481 3500 
L 3481 434 
z
" transform="scale(0.015625)"/>
      <path id="DejaVuSans-43" d="M 4122 4306 
L 4122 3641 
Q 3803 3938 3442 4084 
Q 3081 4231 2675 4231 
Q 1875 4231 1450 3742 
Q 1025 3253 1025 2328 
Q 1025 1406 1450 917 
Q 1875 428 2675 428 
Q 3081 428 3442 575 
Q 3803 722 4122 1019 
L 4122 359 
Q 3791 134 3420 21 
Q 3050 -91 2638 -91 
Q 1578 -91 968 557 
Q 359 1206 359 2328 
Q 359 3453 968 4101 
Q 1578 4750 2638 4750 
Q 3056 4750 3426 4639 
Q 3797 4528 4122 4306 
z
" transform="scale(0.015625)"/>
      <path id="DejaVuSans-68" d="M 3513 2113 
L 3513 0 
L 2938 0 
L 2938 2094 
Q 2938 2591 2744 2837 
Q 2550 3084 2163 3084 
Q 1697 3084 1428 2787 
Q 1159 2491 1159 1978 
L 1159 0 
L 581 0 
L 581 4863 
L 1159 4863 
L 1159 2956 
Q 1366 3272 1645 3428 
Q 1925 3584 2291 3584 
Q 2894 3584 3203 3211 
Q 3513 2838 3513 2113 
z
" transform="scale(0.015625)"/>
      <path id="DejaVuSans-28" d="M 1984 4856 
Q 1566 4138 1362 3434 
Q 1159 2731 1159 2009 
Q 1159 1288 1364 580 
Q 1569 -128 1984 -844 
L 1484 -844 
Q 1016 -109 783 600 
Q 550 1309 550 2009 
Q 550 2706 781 3412 
Q 1013 4119 1484 4856 
L 1984 4856 
z
" transform="scale(0.015625)"/>
      <path id="DejaVuSans-29" d="M 513 4856 
L 1013 4856 
Q 1481 4119 1714 3412 
Q 1947 2706 1947 2009 
Q 1947 1309 1714 600 
Q 1481 -109 1013 -844 
L 513 -844 
Q 928 -128 1133 580 
Q 1338 1288 1338 2009 
Q 1338 2731 1133 3434 
Q 928 4138 513 4856 
z
" transform="scale(0.015625)"/>
      <path id="DejaVuSans-66" d="M 2375 4863 
L 2375 4384 
L 1825 4384 
Q 1516 4384 1395 4259 
Q 1275 4134 1275 3809 
L 1275 3500 
L 2222 3500 
L 2222 3053 
L 1275 3053 
L 1275 0 
L 697 0 
L 697 3053 
L 147 3053 
L 147 3500 
L 697 3500 
L 697 3744 
Q 697 4328 969 4595 
Q 1241 4863 1831 4863 
L 2375 4863 
z
" transform="scale(0.015625)"/>
      <path id="DejaVuSans-41" d="M 2188 4044 
L 1331 1722 
L 3047 1722 
L 2188 4044 
z
M 1831 4666 
L 2547 4666 
L 4325 0 
L 3669 0 
L 3244 1197 
L 1141 1197 
L 716 0 
L 50 0 
L 1831 4666 
z
" transform="scale(0.015625)"/>
      <path id="DejaVuSans-4c" d="M 628 4666 
L 1259 4666 
L 1259 531 
L 3531 531 
L 3531 0 
L 628 0 
L 628 4666 
z
" transform="scale(0.015625)"/>
     </defs>
     <use xlink:href="#DejaVuSans-52"/>
     <use xlink:href="#DejaVuSans-65" x="64.982422"/>
     <use xlink:href="#DejaVuSans-63" x="126.505859"/>
     <use xlink:href="#DejaVuSans-65" x="181.486328"/>
     <use xlink:href="#DejaVuSans-69" x="243.009766"/>
     <use xlink:href="#DejaVuSans-76" x="270.792969"/>
     <use xlink:href="#DejaVuSans-65" x="329.972656"/>
     <use xlink:href="#DejaVuSans-72" x="391.496094"/>
     <use xlink:href="#DejaVuSans-20" x="432.609375"/>
     <use xlink:href="#DejaVuSans-4f" x="464.396484"/>
     <use xlink:href="#DejaVuSans-70" x="543.107422"/>
     <use xlink:href="#DejaVuSans-65" x="606.583984"/>
     <use xlink:href="#DejaVuSans-72" x="668.107422"/>
     <use xlink:href="#DejaVuSans-61" x="709.220703"/>
     <use xlink:href="#DejaVuSans-74" x="770.5"/>
     <use xlink:href="#DejaVuSans-69" x="809.708984"/>
     <use xlink:href="#DejaVuSans-6e" x="837.492188"/>
     <use xlink:href="#DejaVuSans-67" x="900.871094"/>
     <use xlink:href="#DejaVuSans-20" x="964.347656"/>
     <use xlink:href="#DejaVuSans-43" x="996.134766"/>
     <use xlink:href="#DejaVuSans-68" x="1065.958984"/>
     <use xlink:href="#DejaVuSans-61" x="1129.337891"/>
     <use xlink:href="#DejaVuSans-72" x="1190.617188"/>
     <use xlink:href="#DejaVuSans-61" x="1231.730469"/>
     <use xlink:href="#DejaVuSans-63" x="1293.009766"/>
     <use xlink:href="#DejaVuSans-74" x="1347.990234"/>
     <use xlink:href="#DejaVuSans-65" x="1387.199219"/>
     <use xlink:href="#DejaVuSans-72" x="1448.722656"/>
     <use xlink:href="#DejaVuSans-69" x="1489.835938"/>
     <use xlink:href="#DejaVuSans-73" x="1517.619141"/>
     <use xlink:href="#DejaVuSans-74" x="1569.71875"/>
     <use xlink:href="#DejaVuSans-69" x="1608.927734"/>
     <use xlink:href="#DejaVuSans-63" x="1636.710938"/>
     <use xlink:href="#DejaVuSans-20" x="1691.691406"/>
     <use xlink:href="#DejaVuSans-28" x="1723.478516"/>
     <use xlink:href="#DejaVuSans-52" x="1762.492188"/>
     <use xlink:href="#DejaVuSans-4f" x="1831.974609"/>
     <use xlink:href="#DejaVuSans-43" x="1910.685547"/>
     <use xlink:href="#DejaVuSans-29" x="1980.509766"/>
     <use xlink:href="#DejaVuSans-20" x="2019.523438"/>
     <use xlink:href="#DejaVuSans-43" x="2051.310547"/>
     <use xlink:href="#DejaVuSans-75" x="2121.134766"/>
     <use xlink:href="#DejaVuSans-72" x="2184.513672"/>
     <use xlink:href="#DejaVuSans-76" x="2225.626953"/>
     <use xlink:href="#DejaVuSans-65" x="2284.806641"/>
     <use xlink:href="#DejaVuSans-20" x="2346.330078"/>
     <use xlink:href="#DejaVuSans-66" x="2378.117188"/>
     <use xlink:href="#DejaVuSans-6f" x="2413.322266"/>
     <use xlink:href="#DejaVuSans-72" x="2474.503906"/>
     <use xlink:href="#DejaVuSans-20" x="2515.617188"/>
     <use xlink:href="#DejaVuSans-41" x="2547.404297"/>
     <use xlink:href="#DejaVuSans-6c" x="2615.8125"/>
     <use xlink:href="#DejaVuSans-6c" x="2643.595703"/>
     <use xlink:href="#DejaVuSans-20" x="2671.378906"/>
     <use xlink:href="#DejaVuSans-4c" x="2703.166016"/>
     <use xlink:href="#DejaVuSans-6f" x="2757.128906"/>
     <use xlink:href="#DejaVuSans-63" x="2818.310547"/>
     <use xlink:href="#DejaVuSans-61" x="2873.291016"/>
     <use xlink:href="#DejaVuSans-74" x="2934.570312"/>
     <use xlink:href="#DejaVuSans-69" x="2973.779297"/>
     <use xlink:href="#DejaVuSans-6f" x="3001.5625"/>
     <use xlink:href="#DejaVuSans-6e" x="3062.744141"/>
     <use xlink:href="#DejaVuSans-73" x="3126.123047"/>
    </g>
   </g>
   <g id="legend_1">
    <g id="patch_7">
     <path d="M 586.796875 635.8 
L 770.6 635.8 
Q 772.6 635.8 772.6 633.8 
L 772.6 576.0875 
Q 772.6 574.0875 770.6 574.0875 
L 586.796875 574.0875 
Q 584.796875 574.0875 584.796875 576.0875 
L 584.796875 633.8 
Q 584.796875 635.8 586.796875 635.8 
z
" style="fill: #ffffff; opacity: 0.8; stroke: #cccccc; stroke-linejoin: miter"/>
    </g>
    <g id="line2d_30">
     <path d="M 588.796875 582.185938 
L 598.796875 582.185938 
L 608.796875 582.185938 
" style="fill: none; stroke: #1f77b4; stroke-width: 2; stroke-linecap: square"/>
    </g>
    <g id="text_16">
     <!-- Bone Metastasis (AUC = 0.97) -->
     <g transform="translate(616.796875 585.685938) scale(0.1 -0.1)">
      <defs>
       <path id="DejaVuSans-42" d="M 1259 2228 
L 1259 519 
L 2272 519 
Q 2781 519 3026 730 
Q 3272 941 3272 1375 
Q 3272 1813 3026 2020 
Q 2781 2228 2272 2228 
L 1259 2228 
z
M 1259 4147 
L 1259 2741 
L 2194 2741 
Q 2656 2741 2882 2914 
Q 3109 3088 3109 3444 
Q 3109 3797 2882 3972 
Q 2656 4147 2194 4147 
L 1259 4147 
z
M 628 4666 
L 2241 4666 
Q 2963 4666 3353 4366 
Q 3744 4066 3744 3513 
Q 3744 3084 3544 2831 
Q 3344 2578 2956 2516 
Q 3422 2416 3680 2098 
Q 3938 1781 3938 1306 
Q 3938 681 3513 340 
Q 3088 0 2303 0 
L 628 0 
L 628 4666 
z
" transform="scale(0.015625)"/>
       <path id="DejaVuSans-4d" d="M 628 4666 
L 1569 4666 
L 2759 1491 
L 3956 4666 
L 4897 4666 
L 4897 0 
L 4281 0 
L 4281 4097 
L 3078 897 
L 2444 897 
L 1241 4097 
L 1241 0 
L 628 0 
L 628 4666 
z
" transform="scale(0.015625)"/>
       <path id="DejaVuSans-55" d="M 556 4666 
L 1191 4666 
L 1191 1831 
Q 1191 1081 1462 751 
Q 1734 422 2344 422 
Q 2950 422 3222 751 
Q 3494 1081 3494 1831 
L 3494 4666 
L 4128 4666 
L 4128 1753 
Q 4128 841 3676 375 
Q 3225 -91 2344 -91 
Q 1459 -91 1007 375 
Q 556 841 556 1753 
L 556 4666 
z
" transform="scale(0.015625)"/>
       <path id="DejaVuSans-3d" d="M 678 2906 
L 4684 2906 
L 4684 2381 
L 678 2381 
L 678 2906 
z
M 678 1631 
L 4684 1631 
L 4684 1100 
L 678 1100 
L 678 1631 
z
" transform="scale(0.015625)"/>
       <path id="DejaVuSans-39" d="M 703 97 
L 703 672 
Q 941 559 1184 500 
Q 1428 441 1663 441 
Q 2288 441 2617 861 
Q 2947 1281 2994 2138 
Q 2813 1869 2534 1725 
Q 2256 1581 1919 1581 
Q 1219 1581 811 2004 
Q 403 2428 403 3163 
Q 403 3881 828 4315 
Q 1253 4750 1959 4750 
Q 2769 4750 3195 4129 
Q 3622 3509 3622 2328 
Q 3622 1225 3098 567 
Q 2575 -91 1691 -91 
Q 1453 -91 1209 -44 
Q 966 3 703 97 
z
M 1959 2075 
Q 2384 2075 2632 2365 
Q 2881 2656 2881 3163 
Q 2881 3666 2632 3958 
Q 2384 4250 1959 4250 
Q 1534 4250 1286 3958 
Q 1038 3666 1038 3163 
Q 1038 2656 1286 2365 
Q 1534 2075 1959 2075 
z
" transform="scale(0.015625)"/>
       <path id="DejaVuSans-37" d="M 525 4666 
L 3525 4666 
L 3525 4397 
L 1831 0 
L 1172 0 
L 2766 4134 
L 525 4134 
L 525 4666 
z
" transform="scale(0.015625)"/>
      </defs>
      <use xlink:href="#DejaVuSans-42"/>
      <use xlink:href="#DejaVuSans-6f" x="68.603516"/>
      <use xlink:href="#DejaVuSans-6e" x="129.785156"/>
      <use xlink:href="#DejaVuSans-65" x="193.164062"/>
      <use xlink:href="#DejaVuSans-20" x="254.6875"/>
      <use xlink:href="#DejaVuSans-4d" x="286.474609"/>
      <use xlink:href="#DejaVuSans-65" x="372.753906"/>
      <use xlink:href="#DejaVuSans-74" x="434.277344"/>
      <use xlink:href="#DejaVuSans-61" x="473.486328"/>
      <use xlink:href="#DejaVuSans-73" x="534.765625"/>
      <use xlink:href="#DejaVuSans-74" x="586.865234"/>
      <use xlink:href="#DejaVuSans-61" x="626.074219"/>
      <use xlink:href="#DejaVuSans-73" x="687.353516"/>
      <use xlink:href="#DejaVuSans-69" x="739.453125"/>
      <use xlink:href="#DejaVuSans-73" x="767.236328"/>
      <use xlink:href="#DejaVuSans-20" x="819.335938"/>
      <use xlink:href="#DejaVuSans-28" x="851.123047"/>
      <use xlink:href="#DejaVuSans-41" x="890.136719"/>
      <use xlink:href="#DejaVuSans-55" x="958.544922"/>
      <use xlink:href="#DejaVuSans-43" x="1031.738281"/>
      <use xlink:href="#DejaVuSans-20" x="1101.5625"/>
      <use xlink:href="#DejaVuSans-3d" x="1133.349609"/>
      <use xlink:href="#DejaVuSans-20" x="1217.138672"/>
      <use xlink:href="#DejaVuSans-30" x="1248.925781"/>
      <use xlink:href="#DejaVuSans-2e" x="1312.548828"/>
      <use xlink:href="#DejaVuSans-39" x="1344.335938"/>
      <use xlink:href="#DejaVuSans-37" x="1407.958984"/>
      <use xlink:href="#DejaVuSans-29" x="1471.582031"/>
     </g>
    </g>
    <g id="line2d_31">
     <path d="M 588.796875 596.864063 
L 598.796875 596.864063 
L 608.796875 596.864063 
" style="fill: none; stroke: #ff7f0e; stroke-width: 2; stroke-linecap: square"/>
    </g>
    <g id="text_17">
     <!-- Lung Metastasis (AUC = 0.98) -->
     <g transform="translate(616.796875 600.364063) scale(0.1 -0.1)">
      <use xlink:href="#DejaVuSans-4c"/>
      <use xlink:href="#DejaVuSans-75" x="53.962891"/>
      <use xlink:href="#DejaVuSans-6e" x="117.341797"/>
      <use xlink:href="#DejaVuSans-67" x="180.720703"/>
      <use xlink:href="#DejaVuSans-20" x="244.197266"/>
      <use xlink:href="#DejaVuSans-4d" x="275.984375"/>
      <use xlink:href="#DejaVuSans-65" x="362.263672"/>
      <use xlink:href="#DejaVuSans-74" x="423.787109"/>
      <use xlink:href="#DejaVuSans-61" x="462.996094"/>
      <use xlink:href="#DejaVuSans-73" x="524.275391"/>
      <use xlink:href="#DejaVuSans-74" x="576.375"/>
      <use xlink:href="#DejaVuSans-61" x="615.583984"/>
      <use xlink:href="#DejaVuSans-73" x="676.863281"/>
      <use xlink:href="#DejaVuSans-69" x="728.962891"/>
      <use xlink:href="#DejaVuSans-73" x="756.746094"/>
      <use xlink:href="#DejaVuSans-20" x="808.845703"/>
      <use xlink:href="#DejaVuSans-28" x="840.632812"/>
      <use xlink:href="#DejaVuSans-41" x="879.646484"/>
      <use xlink:href="#DejaVuSans-55" x="948.054688"/>
      <use xlink:href="#DejaVuSans-43" x="1021.248047"/>
      <use xlink:href="#DejaVuSans-20" x="1091.072266"/>
      <use xlink:href="#DejaVuSans-3d" x="1122.859375"/>
      <use xlink:href="#DejaVuSans-20" x="1206.648438"/>
      <use xlink:href="#DejaVuSans-30" x="1238.435547"/>
      <use xlink:href="#DejaVuSans-2e" x="1302.058594"/>
      <use xlink:href="#DejaVuSans-39" x="1333.845703"/>
      <use xlink:href="#DejaVuSans-38" x="1397.46875"/>
      <use xlink:href="#DejaVuSans-29" x="1461.091797"/>
     </g>
    </g>
    <g id="line2d_32">
     <path d="M 588.796875 611.542188 
L 598.796875 611.542188 
L 608.796875 611.542188 
" style="fill: none; stroke: #2ca02c; stroke-width: 2; stroke-linecap: square"/>
    </g>
    <g id="text_18">
     <!-- Liver Metastasis (AUC = 0.98) -->
     <g transform="translate(616.796875 615.042188) scale(0.1 -0.1)">
      <use xlink:href="#DejaVuSans-4c"/>
      <use xlink:href="#DejaVuSans-69" x="55.712891"/>
      <use xlink:href="#DejaVuSans-76" x="83.496094"/>
      <use xlink:href="#DejaVuSans-65" x="142.675781"/>
      <use xlink:href="#DejaVuSans-72" x="204.199219"/>
      <use xlink:href="#DejaVuSans-20" x="245.3125"/>
      <use xlink:href="#DejaVuSans-4d" x="277.099609"/>
      <use xlink:href="#DejaVuSans-65" x="363.378906"/>
      <use xlink:href="#DejaVuSans-74" x="424.902344"/>
      <use xlink:href="#DejaVuSans-61" x="464.111328"/>
      <use xlink:href="#DejaVuSans-73" x="525.390625"/>
      <use xlink:href="#DejaVuSans-74" x="577.490234"/>
      <use xlink:href="#DejaVuSans-61" x="616.699219"/>
      <use xlink:href="#DejaVuSans-73" x="677.978516"/>
      <use xlink:href="#DejaVuSans-69" x="730.078125"/>
      <use xlink:href="#DejaVuSans-73" x="757.861328"/>
      <use xlink:href="#DejaVuSans-20" x="809.960938"/>
      <use xlink:href="#DejaVuSans-28" x="841.748047"/>
      <use xlink:href="#DejaVuSans-41" x="880.761719"/>
      <use xlink:href="#DejaVuSans-55" x="949.169922"/>
      <use xlink:href="#DejaVuSans-43" x="1022.363281"/>
      <use xlink:href="#DejaVuSans-20" x="1092.1875"/>
      <use xlink:href="#DejaVuSans-3d" x="1123.974609"/>
      <use xlink:href="#DejaVuSans-20" x="1207.763672"/>
      <use xlink:href="#DejaVuSans-30" x="1239.550781"/>
      <use xlink:href="#DejaVuSans-2e" x="1303.173828"/>
      <use xlink:href="#DejaVuSans-39" x="1334.960938"/>
      <use xlink:href="#DejaVuSans-38" x="1398.583984"/>
      <use xlink:href="#DejaVuSans-29" x="1462.207031"/>
     </g>
    </g>
    <g id="line2d_33">
     <path d="M 588.796875 626.220313 
L 598.796875 626.220313 
L 608.796875 626.220313 
" style="fill: none; stroke: #d62728; stroke-width: 2; stroke-linecap: square"/>
    </g>
    <g id="text_19">
     <!-- Brain Metastasis (AUC = 0.96) -->
     <g transform="translate(616.796875 629.720313) scale(0.1 -0.1)">
      <use xlink:href="#DejaVuSans-42"/>
      <use xlink:href="#DejaVuSans-72" x="68.603516"/>
      <use xlink:href="#DejaVuSans-61" x="109.716797"/>
      <use xlink:href="#DejaVuSans-69" x="170.996094"/>
      <use xlink:href="#DejaVuSans-6e" x="198.779297"/>
      <use xlink:href="#DejaVuSans-20" x="262.158203"/>
      <use xlink:href="#DejaVuSans-4d" x="293.945312"/>
      <use xlink:href="#DejaVuSans-65" x="380.224609"/>
      <use xlink:href="#DejaVuSans-74" x="441.748047"/>
      <use xlink:href="#DejaVuSans-61" x="480.957031"/>
      <use xlink:href="#DejaVuSans-73" x="542.236328"/>
      <use xlink:href="#DejaVuSans-74" x="594.335938"/>
      <use xlink:href="#DejaVuSans-61" x="633.544922"/>
      <use xlink:href="#DejaVuSans-73" x="694.824219"/>
      <use xlink:href="#DejaVuSans-69" x="746.923828"/>
      <use xlink:href="#DejaVuSans-73" x="774.707031"/>
      <use xlink:href="#DejaVuSans-20" x="826.806641"/>
      <use xlink:href="#DejaVuSans-28" x="858.59375"/>
      <use xlink:href="#DejaVuSans-41" x="897.607422"/>
      <use xlink:href="#DejaVuSans-55" x="966.015625"/>
      <use xlink:href="#DejaVuSans-43" x="1039.208984"/>
      <use xlink:href="#DejaVuSans-20" x="1109.033203"/>
      <use xlink:href="#DejaVuSans-3d" x="1140.820312"/>
      <use xlink:href="#DejaVuSans-20" x="1224.609375"/>
      <use xlink:href="#DejaVuSans-30" x="1256.396484"/>
      <use xlink:href="#DejaVuSans-2e" x="1320.019531"/>
      <use xlink:href="#DejaVuSans-39" x="1351.806641"/>
      <use xlink:href="#DejaVuSans-36" x="1415.429688"/>
      <use xlink:href="#DejaVuSans-29" x="1479.052734"/>
     </g>
    </g>
   </g>
  </g>
 </g>
 <defs>
  <clipPath id="pfe4724d787">
   <rect x="108" y="86.4" width="669.6" height="554.4"/>
  </clipPath>
 </defs>
</svg>
