<?xml version="1.0" encoding="utf-8" standalone="no"?>
<!DOCTYPE svg PUBLIC "-//W3C//DTD SVG 1.1//EN"
  "http://www.w3.org/Graphics/SVG/1.1/DTD/svg11.dtd">
<svg xmlns:xlink="http://www.w3.org/1999/xlink" width="864pt" height="720pt" viewBox="0 0 864 720" xmlns="http://www.w3.org/2000/svg" version="1.1">
 <metadata>
  <rdf:RDF xmlns:dc="http://purl.org/dc/elements/1.1/" xmlns:cc="http://creativecommons.org/ns#" xmlns:rdf="http://www.w3.org/1999/02/22-rdf-syntax-ns#">
   <cc:Work>
    <dc:type rdf:resource="http://purl.org/dc/dcmitype/StillImage"/>
    <dc:date>2024-06-19T16:27:37.132560</dc:date>
    <dc:format>image/svg+xml</dc:format>
    <dc:creator>
     <cc:Agent>
      <dc:title>Matplotlib v3.7.2, https://matplotlib.org/</dc:title>
     </cc:Agent>
    </dc:creator>
   </cc:Work>
  </rdf:RDF>
 </metadata>
 <defs>
  <style type="text/css">*{stroke-linejoin: round; stroke-linecap: butt}</style>
 </defs>
 <g id="figure_1">
  <g id="patch_1">
   <path d="M 0 720 
L 864 720 
L 864 0 
L 0 0 
z
" style="fill: #ffffff"/>
  </g>
  <g id="axes_1">
   <g id="patch_2">
    <path d="M 108 640.8 
L 777.6 640.8 
L 777.6 86.4 
L 108 86.4 
z
" style="fill: #ffffff"/>
   </g>
   <g id="matplotlib.axis_1">
    <g id="xtick_1">
     <g id="line2d_1">
      <path d="M 138.436364 640.8 
L 138.436364 86.4 
" clip-path="url(#p6a12770ac3)" style="fill: none; stroke: #b0b0b0; stroke-width: 0.8; stroke-linecap: square"/>
     </g>
     <g id="line2d_2">
      <defs>
       <path id="m89fce9a043" d="M 0 0 
L 0 3.5 
" style="stroke: #000000; stroke-width: 0.8"/>
      </defs>
      <g>
       <use xlink:href="#m89fce9a043" x="138.436364" y="640.8" style="stroke: #000000; stroke-width: 0.8"/>
      </g>
     </g>
     <g id="text_1">
      <!-- 0.0 -->
      <g transform="translate(130.484801 655.398438) scale(0.1 -0.1)">
       <defs>
        <path id="DejaVuSans-30" d="M 2034 4250 
Q 1547 4250 1301 3770 
Q 1056 3291 1056 2328 
Q 1056 1369 1301 889 
Q 1547 409 2034 409 
Q 2525 409 2770 889 
Q 3016 1369 3016 2328 
Q 3016 3291 2770 3770 
Q 2525 4250 2034 4250 
z
M 2034 4750 
Q 2819 4750 3233 4129 
Q 3647 3509 3647 2328 
Q 3647 1150 3233 529 
Q 2819 -91 2034 -91 
Q 1250 -91 836 529 
Q 422 1150 422 2328 
Q 422 3509 836 4129 
Q 1250 4750 2034 4750 
z
" transform="scale(0.015625)"/>
        <path id="DejaVuSans-2e" d="M 684 794 
L 1344 794 
L 1344 0 
L 684 0 
L 684 794 
z
" transform="scale(0.015625)"/>
       </defs>
       <use xlink:href="#DejaVuSans-30"/>
       <use xlink:href="#DejaVuSans-2e" x="63.623047"/>
       <use xlink:href="#DejaVuSans-30" x="95.410156"/>
      </g>
     </g>
    </g>
    <g id="xtick_2">
     <g id="line2d_3">
      <path d="M 260.181818 640.8 
L 260.181818 86.4 
" clip-path="url(#p6a12770ac3)" style="fill: none; stroke: #b0b0b0; stroke-width: 0.8; stroke-linecap: square"/>
     </g>
     <g id="line2d_4">
      <g>
       <use xlink:href="#m89fce9a043" x="260.181818" y="640.8" style="stroke: #000000; stroke-width: 0.8"/>
      </g>
     </g>
     <g id="text_2">
      <!-- 0.2 -->
      <g transform="translate(252.230256 655.398438) scale(0.1 -0.1)">
       <defs>
        <path id="DejaVuSans-32" d="M 1228 531 
L 3431 531 
L 3431 0 
L 469 0 
L 469 531 
Q 828 903 1448 1529 
Q 2069 2156 2228 2338 
Q 2531 2678 2651 2914 
Q 2772 3150 2772 3378 
Q 2772 3750 2511 3984 
Q 2250 4219 1831 4219 
Q 1534 4219 1204 4116 
Q 875 4013 500 3803 
L 500 4441 
Q 881 4594 1212 4672 
Q 1544 4750 1819 4750 
Q 2544 4750 2975 4387 
Q 3406 4025 3406 3419 
Q 3406 3131 3298 2873 
Q 3191 2616 2906 2266 
Q 2828 2175 2409 1742 
Q 1991 1309 1228 531 
z
" transform="scale(0.015625)"/>
       </defs>
       <use xlink:href="#DejaVuSans-30"/>
       <use xlink:href="#DejaVuSans-2e" x="63.623047"/>
       <use xlink:href="#DejaVuSans-32" x="95.410156"/>
      </g>
     </g>
    </g>
    <g id="xtick_3">
     <g id="line2d_5">
      <path d="M 381.927273 640.8 
L 381.927273 86.4 
" clip-path="url(#p6a12770ac3)" style="fill: none; stroke: #b0b0b0; stroke-width: 0.8; stroke-linecap: square"/>
     </g>
     <g id="line2d_6">
      <g>
       <use xlink:href="#m89fce9a043" x="381.927273" y="640.8" style="stroke: #000000; stroke-width: 0.8"/>
      </g>
     </g>
     <g id="text_3">
      <!-- 0.4 -->
      <g transform="translate(373.97571 655.398438) scale(0.1 -0.1)">
       <defs>
        <path id="DejaVuSans-34" d="M 2419 4116 
L 825 1625 
L 2419 1625 
L 2419 4116 
z
M 2253 4666 
L 3047 4666 
L 3047 1625 
L 3713 1625 
L 3713 1100 
L 3047 1100 
L 3047 0 
L 2419 0 
L 2419 1100 
L 313 1100 
L 313 1709 
L 2253 4666 
z
" transform="scale(0.015625)"/>
       </defs>
       <use xlink:href="#DejaVuSans-30"/>
       <use xlink:href="#DejaVuSans-2e" x="63.623047"/>
       <use xlink:href="#DejaVuSans-34" x="95.410156"/>
      </g>
     </g>
    </g>
    <g id="xtick_4">
     <g id="line2d_7">
      <path d="M 503.672727 640.8 
L 503.672727 86.4 
" clip-path="url(#p6a12770ac3)" style="fill: none; stroke: #b0b0b0; stroke-width: 0.8; stroke-linecap: square"/>
     </g>
     <g id="line2d_8">
      <g>
       <use xlink:href="#m89fce9a043" x="503.672727" y="640.8" style="stroke: #000000; stroke-width: 0.8"/>
      </g>
     </g>
     <g id="text_4">
      <!-- 0.6 -->
      <g transform="translate(495.721165 655.398438) scale(0.1 -0.1)">
       <defs>
        <path id="DejaVuSans-36" d="M 2113 2584 
Q 1688 2584 1439 2293 
Q 1191 2003 1191 1497 
Q 1191 994 1439 701 
Q 1688 409 2113 409 
Q 2538 409 2786 701 
Q 3034 994 3034 1497 
Q 3034 2003 2786 2293 
Q 2538 2584 2113 2584 
z
M 3366 4563 
L 3366 3988 
Q 3128 4100 2886 4159 
Q 2644 4219 2406 4219 
Q 1781 4219 1451 3797 
Q 1122 3375 1075 2522 
Q 1259 2794 1537 2939 
Q 1816 3084 2150 3084 
Q 2853 3084 3261 2657 
Q 3669 2231 3669 1497 
Q 3669 778 3244 343 
Q 2819 -91 2113 -91 
Q 1303 -91 875 529 
Q 447 1150 447 2328 
Q 447 3434 972 4092 
Q 1497 4750 2381 4750 
Q 2619 4750 2861 4703 
Q 3103 4656 3366 4563 
z
" transform="scale(0.015625)"/>
       </defs>
       <use xlink:href="#DejaVuSans-30"/>
       <use xlink:href="#DejaVuSans-2e" x="63.623047"/>
       <use xlink:href="#DejaVuSans-36" x="95.410156"/>
      </g>
     </g>
    </g>
    <g id="xtick_5">
     <g id="line2d_9">
      <path d="M 625.418182 640.8 
L 625.418182 86.4 
" clip-path="url(#p6a12770ac3)" style="fill: none; stroke: #b0b0b0; stroke-width: 0.8; stroke-linecap: square"/>
     </g>
     <g id="line2d_10">
      <g>
       <use xlink:href="#m89fce9a043" x="625.418182" y="640.8" style="stroke: #000000; stroke-width: 0.8"/>
      </g>
     </g>
     <g id="text_5">
      <!-- 0.8 -->
      <g transform="translate(617.466619 655.398438) scale(0.1 -0.1)">
       <defs>
        <path id="DejaVuSans-38" d="M 2034 2216 
Q 1584 2216 1326 1975 
Q 1069 1734 1069 1313 
Q 1069 891 1326 650 
Q 1584 409 2034 409 
Q 2484 409 2743 651 
Q 3003 894 3003 1313 
Q 3003 1734 2745 1975 
Q 2488 2216 2034 2216 
z
M 1403 2484 
Q 997 2584 770 2862 
Q 544 3141 544 3541 
Q 544 4100 942 4425 
Q 1341 4750 2034 4750 
Q 2731 4750 3128 4425 
Q 3525 4100 3525 3541 
Q 3525 3141 3298 2862 
Q 3072 2584 2669 2484 
Q 3125 2378 3379 2068 
Q 3634 1759 3634 1313 
Q 3634 634 3220 271 
Q 2806 -91 2034 -91 
Q 1263 -91 848 271 
Q 434 634 434 1313 
Q 434 1759 690 2068 
Q 947 2378 1403 2484 
z
M 1172 3481 
Q 1172 3119 1398 2916 
Q 1625 2713 2034 2713 
Q 2441 2713 2670 2916 
Q 2900 3119 2900 3481 
Q 2900 3844 2670 4047 
Q 2441 4250 2034 4250 
Q 1625 4250 1398 4047 
Q 1172 3844 1172 3481 
z
" transform="scale(0.015625)"/>
       </defs>
       <use xlink:href="#DejaVuSans-30"/>
       <use xlink:href="#DejaVuSans-2e" x="63.623047"/>
       <use xlink:href="#DejaVuSans-38" x="95.410156"/>
      </g>
     </g>
    </g>
    <g id="xtick_6">
     <g id="line2d_11">
      <path d="M 747.163636 640.8 
L 747.163636 86.4 
" clip-path="url(#p6a12770ac3)" style="fill: none; stroke: #b0b0b0; stroke-width: 0.8; stroke-linecap: square"/>
     </g>
     <g id="line2d_12">
      <g>
       <use xlink:href="#m89fce9a043" x="747.163636" y="640.8" style="stroke: #000000; stroke-width: 0.8"/>
      </g>
     </g>
     <g id="text_6">
      <!-- 1.0 -->
      <g transform="translate(739.212074 655.398438) scale(0.1 -0.1)">
       <defs>
        <path id="DejaVuSans-31" d="M 794 531 
L 1825 531 
L 1825 4091 
L 703 3866 
L 703 4441 
L 1819 4666 
L 2450 4666 
L 2450 531 
L 3481 531 
L 3481 0 
L 794 0 
L 794 531 
z
" transform="scale(0.015625)"/>
       </defs>
       <use xlink:href="#DejaVuSans-31"/>
       <use xlink:href="#DejaVuSans-2e" x="63.623047"/>
       <use xlink:href="#DejaVuSans-30" x="95.410156"/>
      </g>
     </g>
    </g>
    <g id="text_7">
     <!-- False Positive Rate -->
     <g transform="translate(396.333594 669.076563) scale(0.1 -0.1)">
      <defs>
       <path id="DejaVuSans-46" d="M 628 4666 
L 3309 4666 
L 3309 4134 
L 1259 4134 
L 1259 2759 
L 3109 2759 
L 3109 2228 
L 1259 2228 
L 1259 0 
L 628 0 
L 628 4666 
z
" transform="scale(0.015625)"/>
       <path id="DejaVuSans-61" d="M 2194 1759 
Q 1497 1759 1228 1600 
Q 959 1441 959 1056 
Q 959 750 1161 570 
Q 1363 391 1709 391 
Q 2188 391 2477 730 
Q 2766 1069 2766 1631 
L 2766 1759 
L 2194 1759 
z
M 3341 1997 
L 3341 0 
L 2766 0 
L 2766 531 
Q 2569 213 2275 61 
Q 1981 -91 1556 -91 
Q 1019 -91 701 211 
Q 384 513 384 1019 
Q 384 1609 779 1909 
Q 1175 2209 1959 2209 
L 2766 2209 
L 2766 2266 
Q 2766 2663 2505 2880 
Q 2244 3097 1772 3097 
Q 1472 3097 1187 3025 
Q 903 2953 641 2809 
L 641 3341 
Q 956 3463 1253 3523 
Q 1550 3584 1831 3584 
Q 2591 3584 2966 3190 
Q 3341 2797 3341 1997 
z
" transform="scale(0.015625)"/>
       <path id="DejaVuSans-6c" d="M 603 4863 
L 1178 4863 
L 1178 0 
L 603 0 
L 603 4863 
z
" transform="scale(0.015625)"/>
       <path id="DejaVuSans-73" d="M 2834 3397 
L 2834 2853 
Q 2591 2978 2328 3040 
Q 2066 3103 1784 3103 
Q 1356 3103 1142 2972 
Q 928 2841 928 2578 
Q 928 2378 1081 2264 
Q 1234 2150 1697 2047 
L 1894 2003 
Q 2506 1872 2764 1633 
Q 3022 1394 3022 966 
Q 3022 478 2636 193 
Q 2250 -91 1575 -91 
Q 1294 -91 989 -36 
Q 684 19 347 128 
L 347 722 
Q 666 556 975 473 
Q 1284 391 1588 391 
Q 1994 391 2212 530 
Q 2431 669 2431 922 
Q 2431 1156 2273 1281 
Q 2116 1406 1581 1522 
L 1381 1569 
Q 847 1681 609 1914 
Q 372 2147 372 2553 
Q 372 3047 722 3315 
Q 1072 3584 1716 3584 
Q 2034 3584 2315 3537 
Q 2597 3491 2834 3397 
z
" transform="scale(0.015625)"/>
       <path id="DejaVuSans-65" d="M 3597 1894 
L 3597 1613 
L 953 1613 
Q 991 1019 1311 708 
Q 1631 397 2203 397 
Q 2534 397 2845 478 
Q 3156 559 3463 722 
L 3463 178 
Q 3153 47 2828 -22 
Q 2503 -91 2169 -91 
Q 1331 -91 842 396 
Q 353 884 353 1716 
Q 353 2575 817 3079 
Q 1281 3584 2069 3584 
Q 2775 3584 3186 3129 
Q 3597 2675 3597 1894 
z
M 3022 2063 
Q 3016 2534 2758 2815 
Q 2500 3097 2075 3097 
Q 1594 3097 1305 2825 
Q 1016 2553 972 2059 
L 3022 2063 
z
" transform="scale(0.015625)"/>
       <path id="DejaVuSans-20" transform="scale(0.015625)"/>
       <path id="DejaVuSans-50" d="M 1259 4147 
L 1259 2394 
L 2053 2394 
Q 2494 2394 2734 2622 
Q 2975 2850 2975 3272 
Q 2975 3691 2734 3919 
Q 2494 4147 2053 4147 
L 1259 4147 
z
M 628 4666 
L 2053 4666 
Q 2838 4666 3239 4311 
Q 3641 3956 3641 3272 
Q 3641 2581 3239 2228 
Q 2838 1875 2053 1875 
L 1259 1875 
L 1259 0 
L 628 0 
L 628 4666 
z
" transform="scale(0.015625)"/>
       <path id="DejaVuSans-6f" d="M 1959 3097 
Q 1497 3097 1228 2736 
Q 959 2375 959 1747 
Q 959 1119 1226 758 
Q 1494 397 1959 397 
Q 2419 397 2687 759 
Q 2956 1122 2956 1747 
Q 2956 2369 2687 2733 
Q 2419 3097 1959 3097 
z
M 1959 3584 
Q 2709 3584 3137 3096 
Q 3566 2609 3566 1747 
Q 3566 888 3137 398 
Q 2709 -91 1959 -91 
Q 1206 -91 779 398 
Q 353 888 353 1747 
Q 353 2609 779 3096 
Q 1206 3584 1959 3584 
z
" transform="scale(0.015625)"/>
       <path id="DejaVuSans-69" d="M 603 3500 
L 1178 3500 
L 1178 0 
L 603 0 
L 603 3500 
z
M 603 4863 
L 1178 4863 
L 1178 4134 
L 603 4134 
L 603 4863 
z
" transform="scale(0.015625)"/>
       <path id="DejaVuSans-74" d="M 1172 4494 
L 1172 3500 
L 2356 3500 
L 2356 3053 
L 1172 3053 
L 1172 1153 
Q 1172 725 1289 603 
Q 1406 481 1766 481 
L 2356 481 
L 2356 0 
L 1766 0 
Q 1100 0 847 248 
Q 594 497 594 1153 
L 594 3053 
L 172 3053 
L 172 3500 
L 594 3500 
L 594 4494 
L 1172 4494 
z
" transform="scale(0.015625)"/>
       <path id="DejaVuSans-76" d="M 191 3500 
L 800 3500 
L 1894 563 
L 2988 3500 
L 3597 3500 
L 2284 0 
L 1503 0 
L 191 3500 
z
" transform="scale(0.015625)"/>
       <path id="DejaVuSans-52" d="M 2841 2188 
Q 3044 2119 3236 1894 
Q 3428 1669 3622 1275 
L 4263 0 
L 3584 0 
L 2988 1197 
Q 2756 1666 2539 1819 
Q 2322 1972 1947 1972 
L 1259 1972 
L 1259 0 
L 628 0 
L 628 4666 
L 2053 4666 
Q 2853 4666 3247 4331 
Q 3641 3997 3641 3322 
Q 3641 2881 3436 2590 
Q 3231 2300 2841 2188 
z
M 1259 4147 
L 1259 2491 
L 2053 2491 
Q 2509 2491 2742 2702 
Q 2975 2913 2975 3322 
Q 2975 3731 2742 3939 
Q 2509 4147 2053 4147 
L 1259 4147 
z
" transform="scale(0.015625)"/>
      </defs>
      <use xlink:href="#DejaVuSans-46"/>
      <use xlink:href="#DejaVuSans-61" x="48.394531"/>
      <use xlink:href="#DejaVuSans-6c" x="109.673828"/>
      <use xlink:href="#DejaVuSans-73" x="137.457031"/>
      <use xlink:href="#DejaVuSans-65" x="189.556641"/>
      <use xlink:href="#DejaVuSans-20" x="251.080078"/>
      <use xlink:href="#DejaVuSans-50" x="282.867188"/>
      <use xlink:href="#DejaVuSans-6f" x="339.544922"/>
      <use xlink:href="#DejaVuSans-73" x="400.726562"/>
      <use xlink:href="#DejaVuSans-69" x="452.826172"/>
      <use xlink:href="#DejaVuSans-74" x="480.609375"/>
      <use xlink:href="#DejaVuSans-69" x="519.818359"/>
      <use xlink:href="#DejaVuSans-76" x="547.601562"/>
      <use xlink:href="#DejaVuSans-65" x="606.78125"/>
      <use xlink:href="#DejaVuSans-20" x="668.304688"/>
      <use xlink:href="#DejaVuSans-52" x="700.091797"/>
      <use xlink:href="#DejaVuSans-61" x="767.324219"/>
      <use xlink:href="#DejaVuSans-74" x="828.603516"/>
      <use xlink:href="#DejaVuSans-65" x="867.8125"/>
     </g>
    </g>
   </g>
   <g id="matplotlib.axis_2">
    <g id="ytick_1">
     <g id="line2d_13">
      <path d="M 108 615.6 
L 777.6 615.6 
" clip-path="url(#p6a12770ac3)" style="fill: none; stroke: #b0b0b0; stroke-width: 0.8; stroke-linecap: square"/>
     </g>
     <g id="line2d_14">
      <defs>
       <path id="mc0b8cc2e43" d="M 0 0 
L -3.5 0 
" style="stroke: #000000; stroke-width: 0.8"/>
      </defs>
      <g>
       <use xlink:href="#mc0b8cc2e43" x="108" y="615.6" style="stroke: #000000; stroke-width: 0.8"/>
      </g>
     </g>
     <g id="text_8">
      <!-- 0.0 -->
      <g transform="translate(85.096875 619.399219) scale(0.1 -0.1)">
       <use xlink:href="#DejaVuSans-30"/>
       <use xlink:href="#DejaVuSans-2e" x="63.623047"/>
       <use xlink:href="#DejaVuSans-30" x="95.410156"/>
      </g>
     </g>
    </g>
    <g id="ytick_2">
     <g id="line2d_15">
      <path d="M 108 514.8 
L 777.6 514.8 
" clip-path="url(#p6a12770ac3)" style="fill: none; stroke: #b0b0b0; stroke-width: 0.8; stroke-linecap: square"/>
     </g>
     <g id="line2d_16">
      <g>
       <use xlink:href="#mc0b8cc2e43" x="108" y="514.8" style="stroke: #000000; stroke-width: 0.8"/>
      </g>
     </g>
     <g id="text_9">
      <!-- 0.2 -->
      <g transform="translate(85.096875 518.599219) scale(0.1 -0.1)">
       <use xlink:href="#DejaVuSans-30"/>
       <use xlink:href="#DejaVuSans-2e" x="63.623047"/>
       <use xlink:href="#DejaVuSans-32" x="95.410156"/>
      </g>
     </g>
    </g>
    <g id="ytick_3">
     <g id="line2d_17">
      <path d="M 108 414 
L 777.6 414 
" clip-path="url(#p6a12770ac3)" style="fill: none; stroke: #b0b0b0; stroke-width: 0.8; stroke-linecap: square"/>
     </g>
     <g id="line2d_18">
      <g>
       <use xlink:href="#mc0b8cc2e43" x="108" y="414" style="stroke: #000000; stroke-width: 0.8"/>
      </g>
     </g>
     <g id="text_10">
      <!-- 0.4 -->
      <g transform="translate(85.096875 417.799219) scale(0.1 -0.1)">
       <use xlink:href="#DejaVuSans-30"/>
       <use xlink:href="#DejaVuSans-2e" x="63.623047"/>
       <use xlink:href="#DejaVuSans-34" x="95.410156"/>
      </g>
     </g>
    </g>
    <g id="ytick_4">
     <g id="line2d_19">
      <path d="M 108 313.2 
L 777.6 313.2 
" clip-path="url(#p6a12770ac3)" style="fill: none; stroke: #b0b0b0; stroke-width: 0.8; stroke-linecap: square"/>
     </g>
     <g id="line2d_20">
      <g>
       <use xlink:href="#mc0b8cc2e43" x="108" y="313.2" style="stroke: #000000; stroke-width: 0.8"/>
      </g>
     </g>
     <g id="text_11">
      <!-- 0.6 -->
      <g transform="translate(85.096875 316.999219) scale(0.1 -0.1)">
       <use xlink:href="#DejaVuSans-30"/>
       <use xlink:href="#DejaVuSans-2e" x="63.623047"/>
       <use xlink:href="#DejaVuSans-36" x="95.410156"/>
      </g>
     </g>
    </g>
    <g id="ytick_5">
     <g id="line2d_21">
      <path d="M 108 212.4 
L 777.6 212.4 
" clip-path="url(#p6a12770ac3)" style="fill: none; stroke: #b0b0b0; stroke-width: 0.8; stroke-linecap: square"/>
     </g>
     <g id="line2d_22">
      <g>
       <use xlink:href="#mc0b8cc2e43" x="108" y="212.4" style="stroke: #000000; stroke-width: 0.8"/>
      </g>
     </g>
     <g id="text_12">
      <!-- 0.8 -->
      <g transform="translate(85.096875 216.199219) scale(0.1 -0.1)">
       <use xlink:href="#DejaVuSans-30"/>
       <use xlink:href="#DejaVuSans-2e" x="63.623047"/>
       <use xlink:href="#DejaVuSans-38" x="95.410156"/>
      </g>
     </g>
    </g>
    <g id="ytick_6">
     <g id="line2d_23">
      <path d="M 108 111.6 
L 777.6 111.6 
" clip-path="url(#p6a12770ac3)" style="fill: none; stroke: #b0b0b0; stroke-width: 0.8; stroke-linecap: square"/>
     </g>
     <g id="line2d_24">
      <g>
       <use xlink:href="#mc0b8cc2e43" x="108" y="111.6" style="stroke: #000000; stroke-width: 0.8"/>
      </g>
     </g>
     <g id="text_13">
      <!-- 1.0 -->
      <g transform="translate(85.096875 115.399219) scale(0.1 -0.1)">
       <use xlink:href="#DejaVuSans-31"/>
       <use xlink:href="#DejaVuSans-2e" x="63.623047"/>
       <use xlink:href="#DejaVuSans-30" x="95.410156"/>
      </g>
     </g>
    </g>
    <g id="text_14">
     <!-- True Positive Rate -->
     <g transform="translate(79.017187 408.129687) rotate(-90) scale(0.1 -0.1)">
      <defs>
       <path id="DejaVuSans-54" d="M -19 4666 
L 3928 4666 
L 3928 4134 
L 2272 4134 
L 2272 0 
L 1638 0 
L 1638 4134 
L -19 4134 
L -19 4666 
z
" transform="scale(0.015625)"/>
       <path id="DejaVuSans-72" d="M 2631 2963 
Q 2534 3019 2420 3045 
Q 2306 3072 2169 3072 
Q 1681 3072 1420 2755 
Q 1159 2438 1159 1844 
L 1159 0 
L 581 0 
L 581 3500 
L 1159 3500 
L 1159 2956 
Q 1341 3275 1631 3429 
Q 1922 3584 2338 3584 
Q 2397 3584 2469 3576 
Q 2541 3569 2628 3553 
L 2631 2963 
z
" transform="scale(0.015625)"/>
       <path id="DejaVuSans-75" d="M 544 1381 
L 544 3500 
L 1119 3500 
L 1119 1403 
Q 1119 906 1312 657 
Q 1506 409 1894 409 
Q 2359 409 2629 706 
Q 2900 1003 2900 1516 
L 2900 3500 
L 3475 3500 
L 3475 0 
L 2900 0 
L 2900 538 
Q 2691 219 2414 64 
Q 2138 -91 1772 -91 
Q 1169 -91 856 284 
Q 544 659 544 1381 
z
M 1991 3584 
L 1991 3584 
z
" transform="scale(0.015625)"/>
      </defs>
      <use xlink:href="#DejaVuSans-54"/>
      <use xlink:href="#DejaVuSans-72" x="46.333984"/>
      <use xlink:href="#DejaVuSans-75" x="87.447266"/>
      <use xlink:href="#DejaVuSans-65" x="150.826172"/>
      <use xlink:href="#DejaVuSans-20" x="212.349609"/>
      <use xlink:href="#DejaVuSans-50" x="244.136719"/>
      <use xlink:href="#DejaVuSans-6f" x="300.814453"/>
      <use xlink:href="#DejaVuSans-73" x="361.996094"/>
      <use xlink:href="#DejaVuSans-69" x="414.095703"/>
      <use xlink:href="#DejaVuSans-74" x="441.878906"/>
      <use xlink:href="#DejaVuSans-69" x="481.087891"/>
      <use xlink:href="#DejaVuSans-76" x="508.871094"/>
      <use xlink:href="#DejaVuSans-65" x="568.050781"/>
      <use xlink:href="#DejaVuSans-20" x="629.574219"/>
      <use xlink:href="#DejaVuSans-52" x="661.361328"/>
      <use xlink:href="#DejaVuSans-61" x="728.59375"/>
      <use xlink:href="#DejaVuSans-74" x="789.873047"/>
      <use xlink:href="#DejaVuSans-65" x="829.082031"/>
     </g>
    </g>
   </g>
   <g id="line2d_25">
    <path d="M 138.436364 615.6 
L 138.436364 614.773319 
L 139.077467 614.773319 
L 139.077467 613.671077 
L 139.398018 613.671077 
L 139.398018 609.26211 
L 140.039121 609.26211 
L 140.039121 608.435429 
L 140.680224 608.435429 
L 140.680224 606.782067 
L 141.000776 606.782067 
L 141.000776 605.679825 
L 141.321327 605.679825 
L 141.321327 604.302023 
L 141.641879 604.302023 
L 141.641879 599.341935 
L 142.603533 599.341935 
L 142.603533 596.03521 
L 142.924084 595.75965 
L 142.924084 592.452925 
L 143.244636 592.452925 
L 143.244636 591.075123 
L 143.565187 591.075123 
L 143.565187 586.666156 
L 143.885739 586.666156 
L 143.885739 583.634992 
L 144.20629 583.634992 
L 144.20629 581.981629 
L 144.526842 581.981629 
L 144.526842 579.226025 
L 145.167945 579.226025 
L 145.167945 578.674904 
L 145.488496 578.674904 
L 145.488496 573.163696 
L 145.809048 573.163696 
L 145.809048 572.337015 
L 146.129599 572.337015 
L 146.129599 569.30585 
L 146.450151 569.30585 
L 146.450151 564.070202 
L 147.091254 564.070202 
L 147.091254 562.967961 
L 147.411805 562.967961 
L 147.411805 562.41684 
L 147.732357 562.41684 
L 147.732357 558.283434 
L 148.052908 558.283434 
L 148.052908 554.425588 
L 148.37346 554.425588 
L 148.37346 550.292182 
L 148.694011 550.292182 
L 148.694011 545.883215 
L 149.014563 545.883215 
L 149.014563 545.607654 
L 149.335114 545.607654 
L 149.335114 545.332094 
L 149.655666 545.332094 
L 149.655666 545.056534 
L 150.296769 545.056534 
L 150.61732 544.780973 
L 150.61732 540.647567 
L 150.937872 540.647567 
L 150.937872 537.616402 
L 151.258423 537.616402 
L 151.258423 536.514161 
L 151.578975 536.514161 
L 151.578975 532.656315 
L 151.899526 532.656315 
L 151.899526 531.002952 
L 152.220078 531.002952 
L 152.220078 526.869546 
L 152.540629 526.869546 
L 152.540629 524.665063 
L 152.861181 524.665063 
L 152.861181 521.082777 
L 153.181732 521.082777 
L 153.181732 516.673811 
L 153.502283 516.673811 
L 153.502283 514.744888 
L 153.822835 514.744888 
L 153.822835 514.469328 
L 154.143386 514.193767 
L 154.143386 511.989284 
L 154.463938 511.989284 
L 154.463938 510.060361 
L 155.746144 510.060361 
L 155.746144 509.50924 
L 156.066695 509.50924 
L 156.066695 508.406998 
L 156.387247 508.406998 
L 156.387247 507.029196 
L 156.707798 507.029196 
L 156.707798 505.651394 
L 157.02835 505.651394 
L 157.02835 504.549153 
L 157.348901 504.549153 
L 157.348901 503.446911 
L 157.990004 503.446911 
L 157.990004 501.242428 
L 158.310556 501.242428 
L 158.310556 499.037944 
L 158.951659 499.037944 
L 158.951659 498.486823 
L 159.27221 498.486823 
L 159.27221 494.628978 
L 159.592762 494.628978 
L 159.592762 493.802296 
L 159.913313 493.802296 
L 159.913313 492.975615 
L 160.233865 492.975615 
L 160.233865 491.046692 
L 160.554416 491.046692 
L 160.554416 482.228759 
L 161.195519 482.228759 
L 161.195519 471.206342 
L 161.516071 471.206342 
L 161.516071 467.899617 
L 161.836622 467.899617 
L 161.836622 467.348496 
L 162.157174 467.348496 
L 162.157174 465.695134 
L 162.477725 465.695134 
L 162.477725 464.041771 
L 162.798277 464.041771 
L 162.798277 463.21509 
L 163.118828 463.21509 
L 163.118828 462.112849 
L 163.43938 462.112849 
L 163.43938 456.877201 
L 164.080483 456.877201 
L 164.080483 455.774959 
L 164.401034 455.499399 
L 164.401034 454.948278 
L 164.721586 454.948278 
L 164.721586 454.672717 
L 165.68324 454.672717 
L 165.68324 453.294915 
L 166.003791 453.294915 
L 166.003791 451.917113 
L 166.324343 451.917113 
L 166.324343 449.71263 
L 166.644894 449.71263 
L 166.644894 448.885949 
L 166.965446 448.885949 
L 166.965446 448.334828 
L 167.285997 448.334828 
L 167.285997 445.579224 
L 167.606549 445.579224 
L 167.606549 443.09918 
L 167.9271 443.09918 
L 167.9271 439.792455 
L 168.247652 439.792455 
L 168.247652 436.76129 
L 168.568203 436.76129 
L 168.568203 431.250082 
L 168.888755 431.250082 
L 168.888755 429.321159 
L 169.529858 429.321159 
L 169.529858 429.045599 
L 169.850409 429.045599 
L 169.850409 427.943357 
L 170.170961 427.943357 
L 170.170961 427.116676 
L 170.491512 427.116676 
L 170.491512 426.841115 
L 170.812064 426.841115 
L 170.812064 424.636632 
L 171.453167 424.636632 
L 171.453167 421.605467 
L 171.773718 421.605467 
L 171.773718 419.400984 
L 172.09427 419.400984 
L 172.09427 418.298742 
L 172.414821 418.298742 
L 172.414821 417.196501 
L 172.735373 417.196501 
L 172.735373 413.614215 
L 173.055924 413.614215 
L 173.055924 412.787534 
L 173.376476 412.787534 
L 173.376476 412.511974 
L 173.697027 412.511974 
L 173.697027 412.236413 
L 174.017579 412.236413 
L 174.017579 411.409732 
L 174.658682 411.409732 
L 174.658682 410.30749 
L 174.979233 410.30749 
L 174.979233 408.929688 
L 175.620336 408.929688 
L 175.620336 406.449645 
L 175.940888 406.449645 
L 175.940888 403.14292 
L 176.261439 403.14292 
L 176.261439 400.938436 
L 176.581991 400.938436 
L 176.581991 398.182832 
L 177.223093 398.182832 
L 177.223093 397.631711 
L 177.543645 397.631711 
L 177.543645 391.844943 
L 177.864196 391.844943 
L 177.864196 388.262657 
L 178.184748 388.262657 
L 178.184748 384.680372 
L 178.505299 384.680372 
L 178.505299 381.924768 
L 178.825851 381.924768 
L 178.825851 381.098086 
L 179.146402 380.822526 
L 179.146402 379.995845 
L 179.466954 379.720284 
L 179.787505 379.720284 
L 179.787505 376.68912 
L 180.108057 376.68912 
L 180.108057 374.760197 
L 180.428608 374.760197 
L 180.428608 370.626791 
L 180.74916 370.626791 
L 180.74916 363.73778 
L 181.069711 363.73778 
L 181.069711 359.328814 
L 181.390263 359.053253 
L 181.390263 357.951011 
L 181.710814 357.951011 
L 181.710814 356.573209 
L 182.031366 356.573209 
L 182.031366 355.195407 
L 182.351917 355.195407 
L 182.351917 354.919847 
L 182.672469 354.919847 
L 182.672469 354.644286 
L 182.99302 354.644286 
L 182.99302 354.093166 
L 183.313572 354.093166 
L 183.313572 347.755276 
L 183.634123 347.755276 
L 183.634123 346.653034 
L 183.954675 346.653034 
L 183.954675 345.826353 
L 184.275226 345.826353 
L 184.275226 345.275232 
L 184.595778 345.275232 
L 184.595778 344.448551 
L 184.916329 344.448551 
L 184.916329 341.968507 
L 185.236881 341.968507 
L 185.236881 339.212903 
L 185.557432 339.212903 
L 185.557432 337.835101 
L 185.877984 337.835101 
L 185.877984 337.28398 
L 186.198535 337.28398 
L 186.198535 337.00842 
L 187.16019 337.00842 
L 187.16019 335.906178 
L 187.480741 335.906178 
L 187.480741 335.630618 
L 187.801293 335.630618 
L 187.801293 334.252816 
L 188.121844 334.252816 
L 188.121844 333.701695 
L 189.083498 333.701695 
L 189.083498 333.426134 
L 189.40405 333.426134 
L 189.40405 333.150574 
L 189.724601 333.150574 
L 190.045153 332.875014 
L 190.045153 330.67053 
L 190.365704 330.67053 
L 190.365704 330.11941 
L 190.686256 330.11941 
L 190.686256 329.843849 
L 191.006807 329.843849 
L 191.006807 327.639366 
L 191.327359 327.639366 
L 191.327359 322.954839 
L 191.64791 322.954839 
L 191.64791 320.750355 
L 191.968462 320.750355 
L 191.968462 319.923674 
L 192.289013 319.923674 
L 192.289013 319.372553 
L 192.609565 319.372553 
L 192.609565 314.412466 
L 192.930116 314.412466 
L 192.930116 313.034664 
L 193.250668 313.034664 
L 193.250668 312.483543 
L 193.571219 312.483543 
L 193.571219 310.27906 
L 194.532874 310.27906 
L 194.532874 310.003499 
L 194.853425 310.003499 
L 194.853425 309.727939 
L 195.173977 309.727939 
L 195.173977 307.799016 
L 195.494528 307.799016 
L 195.494528 307.523455 
L 195.81508 307.523455 
L 195.81508 307.247895 
L 196.135631 307.247895 
L 196.135631 306.145653 
L 196.456183 306.145653 
L 196.456183 305.043412 
L 196.776734 305.043412 
L 196.776734 304.21673 
L 197.097286 304.21673 
L 197.097286 302.563368 
L 197.417837 302.563368 
L 197.417837 302.012247 
L 197.738389 302.012247 
L 197.738389 300.634445 
L 198.05894 300.634445 
L 198.05894 300.358885 
L 198.379492 300.358885 
L 198.379492 299.807764 
L 198.700043 299.807764 
L 198.700043 299.532203 
L 199.661698 299.532203 
L 199.661698 299.256643 
L 200.302801 299.256643 
L 200.302801 296.776599 
L 200.623352 296.776599 
L 200.623352 294.296555 
L 201.264455 294.296555 
L 201.264455 292.643193 
L 201.585006 292.643193 
L 201.585006 290.71427 
L 202.226109 290.71427 
L 202.226109 290.43871 
L 202.546661 290.43871 
L 202.546661 290.163149 
L 202.867212 290.163149 
L 202.867212 289.612028 
L 203.187764 289.612028 
L 203.187764 288.785347 
L 204.149418 288.785347 
L 204.149418 288.234226 
L 204.46997 288.234226 
L 204.46997 287.958666 
L 204.790521 287.958666 
L 204.790521 287.407545 
L 205.752176 287.407545 
L 205.752176 286.580864 
L 206.072727 286.580864 
L 206.072727 285.754183 
L 206.393279 285.754183 
L 206.393279 285.478622 
L 206.71383 285.478622 
L 206.71383 285.203062 
L 207.034382 285.203062 
L 207.034382 284.927501 
L 207.675485 284.927501 
L 207.675485 284.651941 
L 208.637139 284.651941 
L 208.637139 282.998578 
L 208.957691 282.723018 
L 208.957691 281.620776 
L 209.278242 281.620776 
L 209.278242 281.345216 
L 209.598794 281.345216 
L 209.598794 280.518535 
L 209.919345 280.518535 
L 209.919345 279.691853 
L 210.239897 279.691853 
L 210.239897 278.865172 
L 210.560448 278.865172 
L 210.560448 274.731766 
L 210.881 274.731766 
L 210.881 274.456206 
L 211.201551 274.456206 
L 211.201551 274.180645 
L 211.522103 274.180645 
L 211.522103 273.905085 
L 211.842654 273.905085 
L 211.842654 273.353964 
L 212.163206 273.353964 
L 212.163206 270.59836 
L 212.804308 270.59836 
L 212.804308 270.322799 
L 213.12486 270.322799 
L 213.12486 269.496118 
L 213.445411 269.496118 
L 213.445411 268.944997 
L 213.765963 268.944997 
L 213.765963 268.393876 
L 215.048169 268.393876 
L 215.048169 266.740514 
L 215.36872 266.740514 
L 215.36872 266.189393 
L 216.009823 266.189393 
L 216.009823 265.913833 
L 216.330375 265.913833 
L 216.330375 265.087151 
L 218.894787 265.087151 
L 218.894787 264.811591 
L 220.176993 264.811591 
L 220.176993 263.433789 
L 220.497544 263.433789 
L 220.497544 262.607108 
L 220.818096 262.607108 
L 220.818096 261.780426 
L 221.77975 261.780426 
L 221.77975 261.229306 
L 222.100302 261.229306 
L 222.100302 260.953745 
L 222.420853 260.953745 
L 222.420853 260.402624 
L 223.061956 260.402624 
L 223.061956 260.127064 
L 223.382508 260.127064 
L 223.382508 259.851504 
L 224.023611 259.851504 
L 224.023611 259.575943 
L 224.344162 259.575943 
L 224.344162 259.024822 
L 224.664713 259.024822 
L 224.664713 258.473701 
L 224.985265 258.473701 
L 224.985265 257.922581 
L 225.305816 257.922581 
L 225.305816 255.993658 
L 225.946919 255.993658 
L 225.946919 255.442537 
L 226.267471 255.442537 
L 226.267471 255.166976 
L 226.588022 255.166976 
L 226.588022 254.891416 
L 226.908574 254.891416 
L 226.908574 254.615856 
L 227.229125 254.615856 
L 227.229125 254.340295 
L 228.19078 254.340295 
L 228.19078 254.064735 
L 229.152434 254.064735 
L 229.152434 253.789174 
L 229.793537 253.789174 
L 229.793537 253.238054 
L 230.114089 253.238054 
L 230.114089 252.962493 
L 231.075743 252.962493 
L 231.075743 252.686933 
L 231.396295 252.686933 
L 231.396295 252.135812 
L 232.678501 252.135812 
L 232.678501 251.860252 
L 232.999052 251.860252 
L 232.999052 251.584691 
L 233.319604 251.584691 
L 233.319604 251.03357 
L 235.563464 251.03357 
L 235.563464 249.104647 
L 235.884016 249.104647 
L 235.884016 248.829087 
L 237.807324 248.829087 
L 237.807324 248.553527 
L 238.127876 248.553527 
L 238.127876 248.002406 
L 238.448427 248.002406 
L 238.448427 247.726845 
L 239.410082 247.726845 
L 239.410082 246.900164 
L 240.051185 246.900164 
L 240.051185 246.624604 
L 240.371736 246.624604 
L 240.371736 244.42012 
L 241.333391 244.42012 
L 241.333391 243.868999 
L 241.653942 243.868999 
L 241.653942 242.215637 
L 241.974494 242.215637 
L 241.974494 241.940077 
L 242.295045 241.940077 
L 242.295045 241.388956 
L 242.936148 241.388956 
L 242.936148 241.113395 
L 243.2567 241.113395 
L 243.2567 240.837835 
L 243.897803 240.837835 
L 243.897803 240.286714 
L 244.538906 240.286714 
L 244.538906 240.011154 
L 244.859457 240.011154 
L 244.859457 239.735593 
L 245.180009 239.735593 
L 245.180009 238.633352 
L 246.141663 238.633352 
L 246.141663 237.80667 
L 246.462215 237.80667 
L 246.462215 237.255549 
L 247.103318 237.255549 
L 247.103318 236.153308 
L 247.423869 236.153308 
L 247.423869 235.326627 
L 247.744421 235.326627 
L 247.744421 235.051066 
L 248.064972 235.051066 
L 248.064972 234.775506 
L 248.385523 234.775506 
L 248.385523 233.948824 
L 249.988281 233.948824 
L 249.988281 233.673264 
L 250.308832 233.673264 
L 250.308832 233.397704 
L 251.591038 230.6421 
L 252.873244 230.6421 
L 252.873244 229.815418 
L 253.514347 229.815418 
L 253.514347 228.713177 
L 253.834899 228.713177 
L 253.834899 228.437616 
L 254.476002 228.437616 
L 254.476002 227.059814 
L 254.796553 227.059814 
L 254.796553 226.508693 
L 255.117105 226.508693 
L 255.117105 225.406452 
L 255.437656 225.406452 
L 255.437656 225.130891 
L 257.040414 225.130891 
L 257.040414 224.57977 
L 258.002068 224.57977 
L 258.002068 224.30421 
L 258.963723 224.30421 
L 258.963723 223.753089 
L 259.284274 223.753089 
L 259.284274 223.477529 
L 260.245928 223.477529 
L 260.245928 223.201968 
L 260.887031 223.201968 
L 260.887031 222.926408 
L 261.848686 222.926408 
L 261.848686 221.273045 
L 266.015855 221.273045 
L 266.015855 220.997485 
L 266.336407 220.997485 
L 266.336407 220.721925 
L 266.656958 220.721925 
L 266.656958 220.446364 
L 266.97751 220.446364 
L 266.97751 219.619683 
L 267.298061 219.619683 
L 267.298061 218.517441 
L 267.618613 218.517441 
L 267.618613 218.241881 
L 268.259716 218.241881 
L 268.259716 217.69076 
L 268.900819 217.69076 
L 268.900819 216.588518 
L 269.541922 216.588518 
L 269.541922 216.312958 
L 269.862473 216.312958 
L 269.862473 216.037397 
L 270.503576 216.037397 
L 270.503576 215.486277 
L 270.824128 215.486277 
L 270.824128 214.935156 
L 271.144679 214.935156 
L 271.144679 214.659595 
L 271.785782 214.659595 
L 271.785782 214.384035 
L 272.106333 214.384035 
L 272.106333 213.832914 
L 272.426885 213.832914 
L 272.426885 213.557354 
L 273.388539 213.557354 
L 273.388539 213.281793 
L 273.709091 213.281793 
L 273.709091 213.006233 
L 274.670745 213.006233 
L 274.670745 211.903991 
L 275.311848 211.903991 
L 275.311848 211.35287 
L 275.6324 211.35287 
L 275.6324 210.250629 
L 276.594054 210.250629 
L 276.594054 209.699508 
L 276.914606 209.699508 
L 276.914606 209.423948 
L 277.235157 209.423948 
L 277.235157 208.872827 
L 279.158466 208.872827 
L 279.158466 208.321706 
L 279.479018 208.321706 
L 279.479018 207.770585 
L 279.799569 207.770585 
L 279.799569 207.495025 
L 280.120121 207.495025 
L 280.120121 207.219464 
L 280.761224 207.219464 
L 280.761224 206.668343 
L 281.402327 206.668343 
L 281.402327 205.841662 
L 281.722878 205.841662 
L 281.722878 205.014981 
L 283.325636 205.014981 
L 283.325636 203.637179 
L 283.966738 203.637179 
L 283.966738 203.361618 
L 284.28729 203.361618 
L 284.28729 203.086058 
L 284.607841 203.086058 
L 284.607841 202.534937 
L 284.928393 202.534937 
L 284.928393 201.432695 
L 285.248944 201.432695 
L 285.248944 200.881575 
L 286.53115 200.881575 
L 286.53115 200.606014 
L 287.492805 200.606014 
L 287.813356 200.330454 
L 290.377768 200.330454 
L 290.377768 200.054893 
L 290.69832 200.054893 
L 290.69832 199.779333 
L 291.980526 199.779333 
L 291.980526 199.503773 
L 292.301077 199.503773 
L 292.301077 199.228212 
L 292.94218 199.228212 
L 292.94218 198.952652 
L 294.544938 198.952652 
L 294.544938 198.677091 
L 294.865489 198.677091 
L 294.865489 198.401531 
L 295.18604 198.401531 
L 295.18604 198.12597 
L 295.827143 198.12597 
L 295.827143 197.57485 
L 296.468246 197.57485 
L 296.468246 197.299289 
L 296.788798 197.299289 
L 296.788798 197.023729 
L 297.109349 197.023729 
L 297.109349 196.472608 
L 297.750452 196.472608 
L 298.071004 196.197048 
L 298.071004 195.645927 
L 298.712107 195.645927 
L 298.712107 195.370366 
L 299.35321 195.370366 
L 299.35321 195.094806 
L 300.314864 195.094806 
L 300.314864 194.819245 
L 300.635416 194.819245 
L 300.635416 194.268125 
L 301.276519 194.268125 
L 301.276519 193.992564 
L 302.238173 193.992564 
L 302.238173 193.441443 
L 302.558725 193.441443 
L 302.558725 193.165883 
L 303.199828 193.165883 
L 303.199828 192.339202 
L 304.161482 192.339202 
L 304.161482 191.788081 
L 305.76424 191.788081 
L 305.76424 191.512521 
L 306.405343 191.512521 
L 306.405343 191.23696 
L 306.725894 191.23696 
L 306.725894 190.9614 
L 308.969754 190.9614 
L 308.969754 190.410279 
L 310.25196 190.410279 
L 310.25196 190.134718 
L 311.213615 190.134718 
L 311.213615 189.859158 
L 311.854718 189.859158 
L 311.854718 189.583598 
L 312.495821 189.583598 
L 312.495821 189.308037 
L 313.136924 189.308037 
L 313.136924 189.032477 
L 315.380784 189.032477 
L 315.380784 188.756916 
L 318.265748 188.756916 
L 318.265748 187.379114 
L 318.90685 187.379114 
L 318.90685 187.103554 
L 320.189056 187.103554 
L 320.189056 186.827993 
L 321.471262 186.827993 
L 321.471262 186.552433 
L 321.791814 186.552433 
L 321.791814 186.001312 
L 322.112365 186.001312 
L 322.112365 185.725752 
L 322.432917 185.725752 
L 322.432917 185.450191 
L 323.07402 185.450191 
L 323.07402 185.174631 
L 324.035674 185.174631 
L 324.035674 184.62351 
L 324.356226 184.62351 
L 324.356226 183.796829 
L 326.600086 183.796829 
L 326.600086 182.970148 
L 328.202844 182.970148 
L 328.202844 182.694587 
L 329.164498 182.694587 
L 329.164498 182.419027 
L 331.087807 182.419027 
L 331.087807 182.143466 
L 331.72891 182.143466 
L 331.72891 181.867906 
L 333.011116 181.867906 
L 333.011116 181.592346 
L 334.934425 181.592346 
L 334.934425 181.316785 
L 335.575528 181.316785 
L 335.575528 181.041225 
L 337.498837 181.041225 
L 337.498837 180.490104 
L 337.819388 180.490104 
L 337.819388 180.214543 
L 338.781043 180.214543 
L 338.781043 179.663423 
L 339.422146 179.663423 
L 339.422146 179.112302 
L 339.742697 179.112302 
L 339.742697 178.836741 
L 340.063249 178.836741 
L 340.063249 178.561181 
L 341.666006 178.561181 
L 341.666006 178.285621 
L 341.986558 178.285621 
L 341.986558 178.01006 
L 342.62766 178.01006 
L 342.62766 177.7345 
L 344.230418 177.7345 
L 344.230418 177.458939 
L 345.192072 177.458939 
L 345.192072 177.183379 
L 346.474278 177.183379 
L 346.474278 176.907818 
L 346.79483 176.907818 
L 346.79483 176.632258 
L 347.435933 176.632258 
L 347.435933 175.805577 
L 348.077036 175.805577 
L 348.077036 175.530016 
L 348.718139 175.530016 
L 348.718139 175.254456 
L 349.359242 175.254456 
L 349.359242 174.978896 
L 352.885308 174.978896 
L 352.885308 174.703335 
L 354.167514 174.703335 
L 354.167514 174.427775 
L 354.488065 174.427775 
L 354.488065 174.152214 
L 354.808617 173.876654 
L 355.129168 173.876654 
L 355.129168 173.601093 
L 356.090823 173.601093 
L 356.090823 173.325533 
L 356.731926 173.325533 
L 356.731926 171.947731 
L 358.334683 171.947731 
L 358.334683 171.39661 
L 358.975786 171.39661 
L 358.975786 171.12105 
L 359.616889 171.12105 
L 359.616889 170.569929 
L 360.257992 170.569929 
L 360.257992 170.294369 
L 361.540198 170.294369 
L 361.540198 169.467687 
L 362.501853 169.467687 
L 362.501853 168.641006 
L 362.822404 168.641006 
L 362.822404 168.365446 
L 364.10461 168.365446 
L 364.10461 167.263204 
L 364.745713 167.263204 
L 364.745713 166.987644 
L 365.707368 166.987644 
L 365.707368 166.436523 
L 366.989573 166.436523 
L 366.989573 165.885402 
L 367.310125 165.885402 
L 367.310125 165.058721 
L 369.553985 165.058721 
L 369.553985 164.78316 
L 370.51564 164.78316 
L 370.51564 164.5076 
L 371.477294 164.5076 
L 371.477294 164.232039 
L 372.7595 164.232039 
L 372.7595 163.956479 
L 373.080052 163.956479 
L 373.080052 163.680919 
L 373.400603 163.680919 
L 373.400603 163.129798 
L 373.721155 163.129798 
L 373.721155 162.303116 
L 374.362258 162.303116 
L 374.362258 162.027556 
L 375.003361 162.027556 
L 375.003361 161.751996 
L 376.92667 161.751996 
L 376.92667 161.476435 
L 377.567773 161.476435 
L 377.567773 161.200875 
L 378.208875 161.200875 
L 378.208875 160.925314 
L 378.529427 160.925314 
L 378.529427 160.649754 
L 380.132184 160.649754 
L 380.132184 160.374194 
L 382.696596 160.374194 
L 382.696596 160.098633 
L 384.299354 160.098633 
L 384.299354 159.547512 
L 385.902111 159.547512 
L 385.902111 158.996391 
L 386.222663 158.996391 
L 386.222663 158.720831 
L 386.863766 158.720831 
L 386.863766 158.445271 
L 389.428178 158.445271 
L 389.428178 158.16971 
L 389.748729 158.16971 
L 389.748729 157.89415 
L 392.313141 157.89415 
L 392.313141 157.618589 
L 394.23645 157.618589 
L 394.23645 157.343029 
L 394.877553 157.343029 
L 394.877553 157.067469 
L 396.800862 157.067469 
L 396.800862 156.791908 
L 397.441965 156.791908 
L 397.441965 156.516348 
L 401.288583 156.516348 
L 401.288583 156.240787 
L 402.250237 156.240787 
L 402.250237 155.965227 
L 402.89134 155.965227 
L 402.89134 155.689666 
L 403.852994 155.689666 
L 403.852994 155.414106 
L 404.814649 155.414106 
L 404.814649 155.138546 
L 406.737958 155.138546 
L 406.737958 154.862985 
L 414.110642 154.862985 
L 414.110642 154.587425 
L 414.431193 154.587425 
L 414.431193 154.311864 
L 414.751745 154.311864 
L 414.751745 154.036304 
L 416.033951 154.036304 
L 416.033951 153.760744 
L 419.239466 153.760744 
L 419.239466 152.658502 
L 421.803878 152.658502 
L 421.803878 152.382941 
L 422.124429 152.382941 
L 422.124429 152.107381 
L 422.444981 152.107381 
L 422.444981 151.831821 
L 424.688841 151.831821 
L 424.688841 151.2807 
L 425.971047 151.2807 
L 426.291598 151.005139 
L 430.458768 151.005139 
L 430.458768 150.454019 
L 430.779319 150.454019 
L 430.779319 150.178458 
L 434.305386 150.178458 
L 434.305386 149.902898 
L 434.946489 149.902898 
L 434.946489 149.627337 
L 436.549246 149.627337 
L 436.549246 149.351777 
L 437.831452 149.351777 
L 437.831452 149.076217 
L 440.395864 149.076217 
L 440.395864 148.800656 
L 443.601379 148.800656 
L 443.601379 148.525096 
L 444.242482 148.525096 
L 444.242482 148.249535 
L 450.974063 148.249535 
L 450.974063 147.973975 
L 451.615166 147.973975 
L 451.615166 147.698414 
L 451.935717 147.422854 
L 451.935717 147.147294 
L 454.500129 147.147294 
L 454.500129 146.871733 
L 454.820681 146.871733 
L 454.820681 146.596173 
L 456.423438 146.596173 
L 456.423438 146.320612 
L 462.513916 146.320612 
L 462.513916 146.045052 
L 469.566049 146.045052 
L 469.566049 145.769492 
L 470.527704 145.769492 
L 470.527704 145.493931 
L 471.168807 145.493931 
L 471.168807 145.218371 
L 473.412667 145.218371 
L 473.412667 144.94281 
L 477.579836 144.94281 
L 477.579836 144.66725 
L 481.747006 144.66725 
L 481.747006 144.391689 
L 483.029212 144.391689 
L 483.029212 144.116129 
L 487.196381 144.116129 
L 487.196381 143.840569 
L 488.799138 143.840569 
L 488.799138 143.289448 
L 490.722447 143.289448 
L 490.722447 142.738327 
L 498.095131 142.738327 
L 498.095131 142.462767 
L 498.415683 142.462767 
L 498.415683 142.187206 
L 505.788367 142.187206 
L 505.788367 141.911646 
L 511.558294 141.911646 
L 511.558294 141.636085 
L 512.8405 141.636085 
L 512.8405 141.360525 
L 513.481603 141.360525 
L 513.481603 141.084964 
L 518.610427 141.084964 
L 518.610427 140.809404 
L 525.342008 140.809404 
L 525.342008 140.258283 
L 526.303662 140.258283 
L 526.303662 139.982723 
L 527.585868 139.982723 
L 527.585868 139.707162 
L 531.111935 139.707162 
L 531.111935 139.431602 
L 540.087376 139.431602 
L 540.087376 139.156042 
L 540.728479 139.156042 
L 540.728479 138.880481 
L 549.383369 138.880481 
L 549.383369 138.604921 
L 551.947781 138.604921 
L 551.947781 138.32936 
L 553.550539 138.32936 
L 553.550539 138.0538 
L 554.512193 138.0538 
L 554.512193 137.778239 
L 555.473847 137.778239 
L 555.473847 137.502679 
L 556.756053 137.502679 
L 556.756053 137.227119 
L 563.167083 137.227119 
L 563.167083 136.951558 
L 564.449289 136.951558 
L 564.449289 136.675998 
L 566.69315 136.675998 
L 566.69315 136.400437 
L 567.654804 136.400437 
L 567.654804 136.124877 
L 576.630246 136.124877 
L 576.630246 135.849317 
L 578.874106 135.849317 
L 578.874106 135.573756 
L 579.515209 135.573756 
L 579.515209 135.298196 
L 579.83576 135.298196 
L 579.83576 135.022635 
L 580.156312 135.022635 
L 580.156312 134.747075 
L 581.117966 134.747075 
L 581.117966 134.471514 
L 582.079621 134.471514 
L 582.079621 134.195954 
L 586.887893 134.195954 
L 586.887893 133.920394 
L 588.811202 133.920394 
L 588.811202 133.644833 
L 592.016717 133.644833 
L 592.016717 133.369273 
L 595.542783 133.369273 
L 595.542783 133.093712 
L 600.030504 133.093712 
L 600.030504 132.542592 
L 600.351056 132.542592 
L 600.351056 132.267031 
L 601.31271 132.267031 
L 601.31271 131.991471 
L 601.953813 131.991471 
L 602.274364 131.71591 
L 606.441534 131.71591 
L 606.441534 131.44035 
L 608.364843 131.44035 
L 608.364843 131.16479 
L 610.288152 131.16479 
L 610.288152 130.889229 
L 612.211461 130.889229 
L 612.211461 130.613669 
L 618.943042 130.613669 
L 618.943042 130.338108 
L 619.904696 130.338108 
L 619.904696 129.786987 
L 620.225248 129.786987 
L 620.225248 129.511427 
L 621.507454 129.511427 
L 621.507454 129.235867 
L 622.469108 129.235867 
L 622.469108 128.960306 
L 624.392417 128.960306 
L 624.392417 128.409185 
L 625.03352 128.409185 
L 625.03352 128.133625 
L 625.354072 128.133625 
L 625.354072 127.858065 
L 632.085653 127.858065 
L 632.406204 127.582504 
L 633.047307 127.582504 
L 633.047307 127.306944 
L 633.367859 127.306944 
L 633.367859 127.031383 
L 639.458337 127.031383 
L 639.458337 126.755823 
L 639.778888 126.755823 
L 639.778888 126.204702 
L 643.625506 126.204702 
L 643.625506 125.929142 
L 644.266609 125.929142 
L 644.266609 125.653581 
L 645.869367 125.653581 
L 645.869367 125.378021 
L 646.189918 125.378021 
L 646.189918 125.10246 
L 649.395433 125.10246 
L 649.395433 124.8269 
L 651.639293 124.8269 
L 651.639293 124.275779 
L 651.959845 124.275779 
L 651.959845 124.000219 
L 653.242051 124.000219 
L 653.242051 123.724658 
L 656.447566 123.724658 
L 656.447566 123.449098 
L 656.768117 123.449098 
L 656.768117 123.173537 
L 657.088669 123.173537 
L 657.088669 122.897977 
L 658.370875 122.897977 
L 658.370875 122.622417 
L 661.255838 122.622417 
L 661.255838 122.346856 
L 662.858595 122.346856 
L 662.858595 122.071296 
L 667.025765 122.071296 
L 667.025765 121.795735 
L 667.346316 121.795735 
L 667.346316 121.244615 
L 671.192934 121.244615 
L 671.192934 120.969054 
L 673.436794 120.969054 
L 673.436794 120.693494 
L 674.077897 120.693494 
L 674.077897 120.417933 
L 677.603964 120.417933 
L 677.603964 120.142373 
L 677.924515 120.142373 
L 677.924515 119.866812 
L 679.527273 119.866812 
L 679.527273 119.591252 
L 686.579405 119.591252 
L 686.579405 119.315692 
L 687.54106 119.315692 
L 687.54106 119.040131 
L 688.182163 119.040131 
L 688.182163 118.764571 
L 696.516502 118.764571 
L 696.516502 118.48901 
L 699.080913 118.48901 
L 699.080913 118.21345 
L 701.645325 118.21345 
L 701.645325 117.93789 
L 704.209737 117.93789 
L 704.209737 117.662329 
L 705.171392 117.662329 
L 705.171392 117.386769 
L 708.697458 117.386769 
L 708.697458 117.111208 
L 710.300215 117.111208 
L 710.300215 116.284527 
L 710.941318 116.284527 
L 710.941318 116.008967 
L 713.50573 116.008967 
L 713.50573 115.733406 
L 713.826282 115.733406 
L 713.826282 115.457846 
L 717.031797 115.457846 
L 717.031797 115.182285 
L 718.955106 115.182285 
L 718.955106 114.906725 
L 719.91676 114.906725 
L 719.91676 114.355604 
L 722.481172 114.355604 
L 722.481172 113.804483 
L 727.609996 113.804483 
L 727.609996 113.528923 
L 731.777165 113.528923 
L 731.777165 113.253362 
L 733.379922 113.253362 
L 733.379922 112.977802 
L 734.98268 112.977802 
L 734.98268 112.426681 
L 737.867643 112.426681 
L 737.867643 112.151121 
L 739.470401 112.151121 
L 739.470401 111.87556 
L 743.63757 111.87556 
L 743.63757 111.6 
L 747.163636 111.6 
L 747.163636 111.6 
" clip-path="url(#p6a12770ac3)" style="fill: none; stroke: #1f77b4; stroke-width: 2; stroke-linecap: square"/>
   </g>
   <g id="line2d_26">
    <path d="M 138.436364 615.6 
L 138.436364 614.989831 
L 139.09232 614.989831 
L 139.09232 612.549153 
L 139.748276 612.549153 
L 139.748276 607.057627 
L 140.404232 607.057627 
L 140.404232 589.972881 
L 141.060188 589.972881 
L 141.060188 585.701695 
L 141.716144 585.701695 
L 141.716144 584.481356 
L 142.3721 584.481356 
L 142.3721 583.871186 
L 143.028056 583.871186 
L 143.028056 581.430508 
L 143.684013 581.430508 
L 143.684013 574.108475 
L 144.339969 574.108475 
L 144.339969 570.447458 
L 144.995925 569.837288 
L 144.995925 568.616949 
L 145.651881 568.616949 
L 145.651881 568.00678 
L 146.963793 568.00678 
L 146.963793 554.583051 
L 147.619749 554.583051 
L 147.619749 546.040678 
L 148.275705 546.040678 
L 148.275705 541.769492 
L 148.931661 541.769492 
L 148.931661 538.718644 
L 149.587618 538.718644 
L 149.587618 536.888136 
L 150.243574 536.888136 
L 150.243574 536.277966 
L 150.89953 536.277966 
L 150.89953 524.684746 
L 151.555486 524.684746 
L 151.555486 523.464407 
L 152.211442 523.464407 
L 152.211442 521.633898 
L 152.867398 521.633898 
L 152.867398 499.667797 
L 153.523354 499.667797 
L 153.523354 497.227119 
L 154.17931 497.227119 
L 154.17931 496.00678 
L 155.491223 496.00678 
L 155.491223 488.074576 
L 156.147179 488.074576 
L 156.147179 487.464407 
L 156.803135 487.464407 
L 156.803135 486.854237 
L 157.459091 486.854237 
L 157.459091 484.413559 
L 158.115047 484.413559 
L 158.115047 481.972881 
L 158.771003 481.972881 
L 158.771003 481.362712 
L 159.426959 481.362712 
L 159.426959 478.311864 
L 160.082915 478.311864 
L 160.082915 477.091525 
L 160.738871 477.091525 
L 160.738871 474.650847 
L 161.394828 474.650847 
L 161.394828 472.820339 
L 162.050784 472.820339 
L 162.050784 471.6 
L 162.70674 471.6 
L 162.70674 465.498305 
L 163.362696 465.498305 
L 163.362696 461.227119 
L 164.018652 461.227119 
L 164.018652 450.854237 
L 164.674608 450.854237 
L 164.674608 448.413559 
L 165.330564 448.413559 
L 165.330564 428.277966 
L 166.642476 428.277966 
L 166.642476 427.667797 
L 167.298433 427.667797 
L 167.298433 426.447458 
L 167.954389 426.447458 
L 167.954389 422.176271 
L 168.610345 422.176271 
L 168.610345 416.074576 
L 169.922257 416.074576 
L 169.922257 410.583051 
L 170.578213 410.583051 
L 170.578213 405.701695 
L 172.546082 405.701695 
L 172.546082 398.379661 
L 173.202038 398.379661 
L 173.202038 397.769492 
L 173.857994 397.769492 
L 173.857994 397.159322 
L 174.51395 397.159322 
L 174.51395 394.108475 
L 175.169906 394.108475 
L 175.169906 387.39661 
L 176.481818 387.39661 
L 176.481818 386.786441 
L 177.137774 386.786441 
L 177.137774 383.735593 
L 177.79373 383.735593 
L 177.79373 378.244068 
L 178.449687 378.244068 
L 178.449687 374.583051 
L 179.105643 374.583051 
L 179.105643 373.972881 
L 181.729467 373.972881 
L 181.729467 372.142373 
L 182.385423 372.142373 
L 182.385423 369.701695 
L 183.041379 369.701695 
L 183.041379 369.091525 
L 183.697335 369.091525 
L 183.697335 368.481356 
L 184.353292 368.481356 
L 184.353292 367.871186 
L 185.009248 367.871186 
L 185.009248 362.989831 
L 185.665204 362.989831 
L 185.665204 356.277966 
L 187.633072 356.277966 
L 187.633072 353.227119 
L 188.289028 353.227119 
L 188.289028 345.905085 
L 189.60094 345.905085 
L 189.60094 345.294915 
L 190.256897 345.294915 
L 190.256897 341.633898 
L 192.224765 341.633898 
L 192.224765 341.023729 
L 192.880721 341.023729 
L 192.880721 338.583051 
L 193.536677 338.583051 
L 193.536677 332.481356 
L 194.192633 332.481356 
L 194.192633 331.871186 
L 195.504545 331.871186 
L 195.504545 330.650847 
L 196.160502 330.650847 
L 196.160502 327.6 
L 197.472414 327.6 
L 197.472414 326.379661 
L 198.784326 326.379661 
L 198.784326 325.159322 
L 199.440282 325.159322 
L 199.440282 324.549153 
L 200.096238 324.549153 
L 200.096238 321.498305 
L 200.752194 321.498305 
L 200.752194 315.39661 
L 201.40815 315.39661 
L 201.40815 311.735593 
L 202.064107 311.735593 
L 202.064107 309.905085 
L 202.720063 309.905085 
L 202.720063 308.074576 
L 204.031975 308.074576 
L 204.031975 303.80339 
L 204.687931 303.80339 
L 204.687931 302.583051 
L 205.343887 302.583051 
L 205.343887 296.481356 
L 206.655799 296.481356 
L 206.655799 287.328814 
L 207.311755 287.328814 
L 207.311755 286.718644 
L 207.967712 286.718644 
L 207.967712 285.498305 
L 208.623668 285.498305 
L 208.623668 284.888136 
L 209.279624 284.888136 
L 209.279624 283.667797 
L 209.93558 283.667797 
L 209.93558 283.057627 
L 211.247492 283.057627 
L 211.247492 281.837288 
L 211.903448 281.837288 
L 211.903448 280.616949 
L 212.559404 280.616949 
L 212.559404 279.39661 
L 213.215361 279.39661 
L 213.215361 277.566102 
L 213.871317 277.566102 
L 213.871317 276.955932 
L 215.183229 276.955932 
L 215.183229 275.735593 
L 215.839185 275.735593 
L 215.839185 273.905085 
L 216.495141 273.905085 
L 216.495141 272.684746 
L 217.151097 272.684746 
L 217.151097 269.633898 
L 218.463009 269.633898 
L 218.463009 269.023729 
L 220.430878 269.023729 
L 220.430878 267.80339 
L 221.086834 267.80339 
L 221.086834 267.19322 
L 221.74279 267.19322 
L 221.74279 265.362712 
L 222.398746 265.362712 
L 222.398746 263.532203 
L 223.710658 263.532203 
L 223.710658 262.311864 
L 224.366614 262.311864 
L 224.366614 258.650847 
L 225.022571 258.650847 
L 225.022571 256.210169 
L 226.334483 256.210169 
L 226.334483 255.6 
L 226.990439 255.6 
L 226.990439 254.989831 
L 227.646395 254.989831 
L 227.646395 251.938983 
L 228.302351 251.938983 
L 228.302351 251.328814 
L 229.614263 251.328814 
L 229.614263 248.888136 
L 230.926176 248.888136 
L 230.926176 247.057627 
L 231.582132 247.057627 
L 231.582132 245.837288 
L 232.238088 245.837288 
L 232.238088 244.00678 
L 232.894044 244.00678 
L 232.894044 239.735593 
L 234.205956 239.735593 
L 234.205956 235.464407 
L 235.517868 235.464407 
L 235.517868 233.023729 
L 236.173824 233.023729 
L 236.173824 231.19322 
L 236.829781 231.19322 
L 236.829781 229.972881 
L 238.141693 229.972881 
L 238.141693 229.362712 
L 238.797649 229.362712 
L 238.797649 226.311864 
L 240.109561 226.311864 
L 240.109561 225.701695 
L 241.421473 225.701695 
L 241.421473 225.091525 
L 242.077429 225.091525 
L 242.077429 223.871186 
L 243.389342 223.871186 
L 243.389342 222.650847 
L 244.045298 222.650847 
L 244.045298 222.040678 
L 245.35721 222.040678 
L 245.35721 218.379661 
L 247.325078 218.379661 
L 247.325078 217.769492 
L 249.948903 217.769492 
L 249.948903 217.159322 
L 250.604859 216.549153 
L 250.604859 212.888136 
L 251.260815 212.888136 
L 251.260815 212.277966 
L 252.572727 212.277966 
L 252.572727 211.667797 
L 254.540596 211.667797 
L 254.540596 211.057627 
L 255.852508 211.057627 
L 255.852508 210.447458 
L 257.16442 210.447458 
L 257.16442 209.837288 
L 257.820376 209.837288 
L 257.820376 208.616949 
L 258.476332 208.616949 
L 258.476332 205.566102 
L 259.132288 205.566102 
L 259.132288 203.735593 
L 259.788245 201.294915 
L 262.412069 201.294915 
L 262.412069 200.684746 
L 263.068025 200.684746 
L 263.068025 199.464407 
L 264.379937 199.464407 
L 264.379937 198.244068 
L 265.69185 198.244068 
L 265.69185 197.633898 
L 266.347806 197.633898 
L 266.347806 195.80339 
L 267.659718 195.80339 
L 267.659718 194.583051 
L 268.97163 194.583051 
L 268.97163 193.972881 
L 270.283542 193.972881 
L 270.283542 193.362712 
L 271.595455 193.362712 
L 271.595455 192.142373 
L 274.219279 192.142373 
L 274.219279 191.532203 
L 275.531191 191.532203 
L 275.531191 190.311864 
L 277.49906 190.311864 
L 277.49906 189.091525 
L 280.122884 189.091525 
L 280.122884 187.871186 
L 281.434796 187.871186 
L 281.434796 185.430508 
L 284.714577 185.430508 
L 284.714577 184.820339 
L 289.962226 184.820339 
L 289.962226 182.989831 
L 290.618182 182.989831 
L 290.618182 182.379661 
L 293.242006 182.379661 
L 293.242006 181.769492 
L 293.897962 181.769492 
L 293.897962 181.159322 
L 295.209875 181.159322 
L 295.209875 180.549153 
L 297.833699 180.549153 
L 297.833699 179.938983 
L 298.489655 179.938983 
L 298.489655 179.328814 
L 301.11348 179.328814 
L 301.11348 178.718644 
L 302.425392 178.718644 
L 302.425392 178.108475 
L 303.737304 178.108475 
L 303.737304 177.498305 
L 305.049216 177.498305 
L 305.049216 176.277966 
L 308.328997 176.277966 
L 308.328997 175.667797 
L 308.984953 175.667797 
L 308.984953 175.057627 
L 309.640909 175.057627 
L 309.640909 174.447458 
L 310.952821 174.447458 
L 310.952821 173.837288 
L 312.264734 173.837288 
L 312.264734 173.227119 
L 312.92069 173.227119 
L 312.92069 172.00678 
L 314.232602 172.00678 
L 314.232602 171.39661 
L 315.544514 171.39661 
L 315.544514 170.786441 
L 316.20047 170.786441 
L 316.20047 170.176271 
L 316.856426 170.176271 
L 316.856426 168.955932 
L 317.512382 168.955932 
L 317.512382 168.345763 
L 320.792163 168.345763 
L 320.792163 167.735593 
L 323.415987 167.735593 
L 323.415987 167.125424 
L 324.071944 167.125424 
L 324.071944 166.515254 
L 324.7279 166.515254 
L 324.7279 165.905085 
L 325.383856 165.905085 
L 325.383856 165.294915 
L 326.039812 165.294915 
L 326.039812 164.684746 
L 326.695768 164.684746 
L 326.695768 164.074576 
L 328.663636 164.074576 
L 328.663636 159.19322 
L 329.319592 159.19322 
L 329.319592 157.362712 
L 331.943417 157.362712 
L 331.943417 156.752542 
L 336.53511 156.752542 
L 336.53511 156.142373 
L 337.847022 156.142373 
L 337.847022 155.532203 
L 338.502978 155.532203 
L 338.502978 154.311864 
L 339.158934 154.311864 
L 339.158934 153.701695 
L 340.470846 153.701695 
L 340.470846 153.091525 
L 341.126803 153.091525 
L 341.126803 151.871186 
L 342.438715 151.871186 
L 342.438715 150.650847 
L 346.374451 150.650847 
L 346.374451 149.430508 
L 348.34232 149.430508 
L 348.34232 148.820339 
L 349.654232 148.820339 
L 349.654232 148.210169 
L 353.589969 148.210169 
L 353.589969 147.6 
L 356.213793 147.6 
L 356.213793 146.989831 
L 357.525705 146.989831 
L 357.525705 146.379661 
L 360.14953 146.379661 
L 360.14953 145.159322 
L 363.42931 145.159322 
L 363.42931 144.549153 
L 364.741223 144.549153 
L 364.741223 143.938983 
L 369.988871 143.938983 
L 369.988871 143.328814 
L 379.828213 143.328814 
L 379.828213 142.718644 
L 381.796082 142.718644 
L 381.796082 142.108475 
L 391.635423 142.108475 
L 391.635423 141.498305 
L 393.603292 141.498305 
L 393.603292 140.277966 
L 406.066458 140.277966 
L 406.066458 139.667797 
L 423.121317 139.667797 
L 423.121317 139.057627 
L 425.089185 139.057627 
L 425.089185 138.447458 
L 447.391693 138.447458 
L 447.391693 137.837288 
L 448.047649 137.837288 
L 448.047649 137.227119 
L 455.263166 137.227119 
L 455.263166 136.616949 
L 459.198903 136.616949 
L 459.198903 136.00678 
L 461.166771 136.00678 
L 461.166771 135.39661 
L 471.662069 135.39661 
L 471.662069 134.786441 
L 474.285893 134.786441 
L 474.285893 134.176271 
L 475.597806 134.176271 
L 475.597806 133.566102 
L 476.909718 133.566102 
L 476.909718 132.955932 
L 487.405016 132.955932 
L 487.405016 132.345763 
L 488.060972 132.345763 
L 488.060972 131.735593 
L 495.932445 131.735593 
L 495.932445 131.125424 
L 503.147962 131.125424 
L 503.147962 130.515254 
L 505.115831 130.515254 
L 505.115831 129.905085 
L 554.968495 129.905085 
L 554.968495 129.294915 
L 556.936364 129.294915 
L 556.936364 128.684746 
L 559.560188 128.684746 
L 559.560188 128.074576 
L 573.991223 128.074576 
L 573.991223 127.464407 
L 576.615047 127.464407 
L 576.615047 126.854237 
L 579.238871 126.854237 
L 579.238871 126.244068 
L 588.422257 126.244068 
L 588.422257 125.633898 
L 592.357994 125.633898 
L 592.357994 125.023729 
L 594.325862 125.023729 
L 594.325862 124.413559 
L 625.155799 124.413559 
L 625.155799 123.80339 
L 628.43558 123.80339 
L 628.43558 123.19322 
L 630.403448 123.19322 
L 630.403448 121.972881 
L 633.683229 121.972881 
L 633.683229 121.362712 
L 639.586834 121.362712 
L 639.586834 120.752542 
L 642.866614 120.752542 
L 642.866614 120.142373 
L 643.522571 120.142373 
L 643.522571 119.532203 
L 655.329781 119.532203 
L 655.329781 118.922034 
L 655.985737 118.922034 
L 655.985737 118.311864 
L 660.577429 118.311864 
L 660.577429 117.701695 
L 667.792947 117.701695 
L 667.792947 117.091525 
L 669.760815 117.091525 
L 669.760815 116.481356 
L 677.632288 116.481356 
L 677.632288 115.871186 
L 678.944201 115.871186 
L 678.944201 115.261017 
L 698.622884 115.261017 
L 698.622884 114.650847 
L 699.934796 114.650847 
L 699.934796 114.040678 
L 716.333699 114.040678 
L 716.333699 113.430508 
L 724.861129 113.430508 
L 724.861129 112.820339 
L 735.356426 112.820339 
L 735.356426 112.210169 
L 742.571944 112.210169 
L 742.571944 111.6 
L 747.163636 111.6 
L 747.163636 111.6 
" clip-path="url(#p6a12770ac3)" style="fill: none; stroke: #ff7f0e; stroke-width: 2; stroke-linecap: square"/>
   </g>
   <g id="line2d_27">
    <path d="M 138.436364 615.6 
L 138.436364 596.567832 
L 139.203989 596.567832 
L 139.203989 595.158042 
L 139.971615 595.158042 
L 139.971615 594.453147 
L 140.739241 594.453147 
L 140.739241 590.928671 
L 141.506867 590.928671 
L 141.506867 585.28951 
L 142.274493 585.28951 
L 142.274493 584.584615 
L 143.809744 584.584615 
L 143.809744 581.765035 
L 144.57737 581.765035 
L 144.57737 579.65035 
L 145.344996 579.65035 
L 145.344996 578.945455 
L 146.112622 578.945455 
L 146.112622 577.535664 
L 146.880248 577.535664 
L 146.880248 576.125874 
L 147.647873 576.125874 
L 147.647873 572.601399 
L 148.415499 572.601399 
L 148.415499 562.732867 
L 149.183125 562.732867 
L 149.183125 548.634965 
L 149.950751 548.634965 
L 149.950751 540.176224 
L 150.718377 540.176224 
L 150.718377 524.668531 
L 151.486003 524.668531 
L 151.486003 522.553846 
L 152.253628 522.553846 
L 152.253628 511.98042 
L 153.021254 511.98042 
L 153.021254 506.341259 
L 153.78888 506.341259 
L 153.78888 504.226573 
L 154.556506 504.226573 
L 154.556506 502.111888 
L 155.324132 502.111888 
L 155.324132 497.882517 
L 156.091757 497.882517 
L 156.091757 494.358042 
L 156.859383 494.358042 
L 156.859383 489.423776 
L 157.627009 489.423776 
L 157.627009 483.784615 
L 158.394635 483.784615 
L 158.394635 483.07972 
L 159.929887 483.07972 
L 159.929887 480.965035 
L 160.697512 480.965035 
L 160.697512 478.85035 
L 161.465138 478.85035 
L 161.465138 475.325874 
L 162.232764 475.325874 
L 162.232764 472.506294 
L 163.00039 472.506294 
L 163.00039 471.096503 
L 163.768016 471.096503 
L 163.768016 464.047552 
L 164.535641 464.047552 
L 164.535641 455.588811 
L 165.303267 455.588811 
L 165.303267 445.72028 
L 166.070893 445.72028 
L 166.070893 437.966434 
L 167.606145 437.966434 
L 167.606145 436.556643 
L 168.37377 436.556643 
L 168.37377 430.212587 
L 169.909022 430.212587 
L 169.909022 421.048951 
L 172.2119 421.048951 
L 172.2119 420.344056 
L 172.979525 420.344056 
L 172.979525 419.639161 
L 173.747151 418.934266 
L 173.747151 417.524476 
L 174.514777 417.524476 
L 174.514777 415.40979 
L 176.050029 415.40979 
L 176.050029 413.295105 
L 176.817654 413.295105 
L 176.817654 408.360839 
L 177.58528 408.360839 
L 177.58528 404.131469 
L 178.352906 404.131469 
L 178.352906 402.721678 
L 179.120532 402.721678 
L 179.120532 399.197203 
L 180.655784 399.197203 
L 180.655784 398.492308 
L 182.191035 398.492308 
L 182.191035 394.262937 
L 182.958661 394.262937 
L 182.958661 392.148252 
L 183.726287 392.148252 
L 183.726287 390.033566 
L 184.493913 390.033566 
L 184.493913 389.328671 
L 185.261538 389.328671 
L 185.261538 387.213986 
L 186.029164 387.213986 
L 186.029164 385.804196 
L 188.332042 385.804196 
L 188.332042 366.772028 
L 189.099668 366.772028 
L 189.099668 365.362238 
L 189.867293 365.362238 
L 189.867293 361.132867 
L 190.634919 361.132867 
L 190.634919 359.723077 
L 191.402545 359.723077 
L 191.402545 358.313287 
L 192.170171 358.313287 
L 192.170171 356.198601 
L 192.937797 356.198601 
L 192.937797 355.493706 
L 193.705422 355.493706 
L 193.705422 351.969231 
L 194.473048 351.969231 
L 194.473048 344.92028 
L 196.0083 344.92028 
L 196.0083 341.395804 
L 197.543552 341.395804 
L 197.543552 340.690909 
L 198.311177 340.690909 
L 198.311177 339.986014 
L 199.078803 339.986014 
L 199.078803 339.281119 
L 199.846429 339.281119 
L 199.846429 335.756643 
L 201.381681 335.756643 
L 201.381681 329.412587 
L 203.684558 329.412587 
L 203.684558 328.707692 
L 204.452184 328.707692 
L 204.452184 326.593007 
L 205.21981 326.593007 
L 205.21981 325.183217 
L 205.987436 325.183217 
L 205.987436 320.248951 
L 206.755061 320.248951 
L 206.755061 315.314685 
L 207.522687 315.314685 
L 207.522687 313.2 
L 209.057939 313.2 
L 209.057939 306.855944 
L 209.825565 306.855944 
L 209.825565 304.741259 
L 210.59319 304.741259 
L 210.59319 301.216783 
L 211.360816 301.216783 
L 211.360816 300.511888 
L 212.128442 300.511888 
L 212.128442 296.282517 
L 214.43132 296.282517 
L 214.43132 292.053147 
L 215.198945 292.053147 
L 215.198945 291.348252 
L 215.966571 291.348252 
L 215.966571 289.938462 
L 217.501823 289.938462 
L 217.501823 289.233566 
L 219.8047 289.233566 
L 219.8047 285.709091 
L 220.572326 285.709091 
L 220.572326 282.88951 
L 221.339952 282.88951 
L 221.339952 282.184615 
L 222.107578 282.184615 
L 222.107578 281.47972 
L 222.875203 281.47972 
L 222.875203 279.365035 
L 223.642829 279.365035 
L 223.642829 278.66014 
L 224.410455 277.955245 
L 225.178081 277.955245 
L 225.178081 276.545455 
L 227.480958 276.545455 
L 227.480958 274.430769 
L 228.248584 274.430769 
L 228.248584 272.316084 
L 229.01621 272.316084 
L 229.01621 271.611189 
L 230.551462 271.611189 
L 230.551462 270.906294 
L 231.319087 270.906294 
L 231.319087 270.201399 
L 232.086713 270.201399 
L 232.086713 267.381818 
L 233.621965 267.381818 
L 233.621965 262.447552 
L 235.157217 262.447552 
L 235.157217 261.037762 
L 237.460094 261.037762 
L 237.460094 260.332867 
L 238.22772 260.332867 
L 238.22772 258.218182 
L 238.995346 258.218182 
L 238.995346 257.513287 
L 239.762971 257.513287 
L 239.762971 256.103497 
L 240.530597 256.103497 
L 240.530597 252.579021 
L 241.298223 252.579021 
L 241.298223 249.759441 
L 242.065849 249.759441 
L 242.065849 249.054545 
L 242.833475 249.054545 
L 242.833475 246.234965 
L 243.601101 246.234965 
L 243.601101 244.12028 
L 246.671604 244.12028 
L 246.671604 242.005594 
L 247.43923 242.005594 
L 247.43923 239.890909 
L 248.206855 239.890909 
L 248.206855 238.481119 
L 248.974481 238.481119 
L 248.974481 237.071329 
L 249.742107 237.071329 
L 249.742107 235.661538 
L 252.044985 235.661538 
L 252.044985 234.956643 
L 252.81261 234.956643 
L 252.81261 234.251748 
L 253.580236 234.251748 
L 253.580236 233.546853 
L 255.883114 233.546853 
L 255.883114 231.432168 
L 257.418365 231.432168 
L 257.418365 230.727273 
L 258.953617 230.727273 
L 258.953617 230.022378 
L 259.721243 230.022378 
L 259.721243 228.612587 
L 260.488869 228.612587 
L 260.488869 227.907692 
L 262.02412 227.907692 
L 262.02412 226.497902 
L 262.791746 226.497902 
L 262.791746 222.268531 
L 263.559372 222.268531 
L 263.559372 220.858741 
L 265.862249 220.858741 
L 265.862249 219.448951 
L 267.397501 219.448951 
L 270.468004 215.21958 
L 270.468004 213.80979 
L 271.23563 213.80979 
L 271.23563 213.104895 
L 272.003256 213.104895 
L 272.003256 208.170629 
L 274.306133 208.170629 
L 274.306133 207.465734 
L 275.073759 207.465734 
L 275.073759 206.760839 
L 275.841385 206.760839 
L 275.841385 204.646154 
L 277.376636 204.646154 
L 277.376636 203.236364 
L 278.144262 203.236364 
L 278.144262 202.531469 
L 281.982391 202.531469 
L 281.982391 201.826573 
L 282.750017 201.826573 
L 282.750017 200.416783 
L 283.517643 200.416783 
L 283.517643 199.711888 
L 285.052895 199.711888 
L 285.052895 199.006993 
L 285.82052 199.006993 
L 285.82052 198.302098 
L 288.891024 198.302098 
L 288.891024 197.597203 
L 291.193901 197.597203 
L 291.193901 196.892308 
L 291.961527 196.892308 
L 291.961527 195.482517 
L 292.729153 195.482517 
L 292.729153 194.072727 
L 294.264404 194.072727 
L 294.264404 193.367832 
L 298.102534 193.367832 
L 298.102534 192.662937 
L 301.173037 192.662937 
L 301.173037 189.138462 
L 301.940663 189.138462 
L 301.940663 188.433566 
L 303.475914 188.433566 
L 303.475914 187.728671 
L 304.24354 187.728671 
L 304.24354 186.318881 
L 307.314043 186.318881 
L 307.314043 185.613986 
L 314.222676 185.613986 
L 314.222676 184.909091 
L 315.757927 184.909091 
L 315.757927 182.08951 
L 318.060805 182.08951 
L 318.060805 181.384615 
L 321.131308 181.384615 
L 321.131308 180.67972 
L 321.898934 180.67972 
L 321.898934 179.974825 
L 323.434185 179.974825 
L 323.434185 179.26993 
L 325.737063 179.26993 
L 325.737063 178.565035 
L 328.03994 178.565035 
L 328.03994 177.155245 
L 328.807566 177.155245 
L 328.807566 176.45035 
L 329.575192 176.45035 
L 329.575192 175.745455 
L 333.413321 175.745455 
L 333.413321 175.040559 
L 334.948573 175.040559 
L 334.948573 174.335664 
L 336.483824 174.335664 
L 336.483824 173.630769 
L 338.019076 173.630769 
L 338.019076 172.220979 
L 340.321953 172.220979 
L 340.321953 170.811189 
L 341.089579 170.811189 
L 341.089579 169.401399 
L 343.392457 169.401399 
L 343.392457 168.696503 
L 344.927708 168.696503 
L 344.927708 167.991608 
L 346.46296 167.991608 
L 346.46296 166.581818 
L 352.603967 166.581818 
L 352.603967 163.057343 
L 354.906844 163.057343 
L 354.906844 162.352448 
L 355.67447 162.352448 
L 355.67447 161.647552 
L 358.744973 161.647552 
L 358.744973 160.237762 
L 359.512599 160.237762 
L 359.512599 159.532867 
L 360.280225 159.532867 
L 360.280225 158.123077 
L 361.815476 158.123077 
L 361.815476 156.008392 
L 364.88598 156.008392 
L 364.88598 153.188811 
L 366.421231 153.188811 
L 366.421231 152.483916 
L 374.865115 152.483916 
L 374.865115 151.779021 
L 375.632741 151.779021 
L 375.632741 151.074126 
L 376.400367 151.074126 
L 376.400367 149.664336 
L 379.47087 149.664336 
L 379.47087 148.959441 
L 380.238496 148.959441 
L 380.238496 148.254545 
L 390.217632 148.254545 
L 390.217632 147.54965 
L 391.752883 147.54965 
L 391.752883 146.844755 
L 398.661516 146.844755 
L 398.661516 146.13986 
L 400.196767 146.13986 
L 400.196767 144.73007 
L 400.964393 144.73007 
L 400.964393 144.025175 
L 401.732019 144.025175 
L 401.732019 143.32028 
L 403.26727 143.32028 
L 403.26727 140.500699 
L 404.802522 140.500699 
L 404.802522 139.795804 
L 410.943529 139.795804 
L 410.943529 139.090909 
L 411.711154 139.090909 
L 411.711154 138.386014 
L 425.528419 138.386014 
L 425.528419 137.681119 
L 428.598922 137.681119 
L 428.598922 136.976224 
L 430.9018 136.976224 
L 430.9018 136.271329 
L 431.669426 136.271329 
L 431.669426 134.861538 
L 460.839207 134.861538 
L 460.839207 134.156643 
L 464.677336 134.156643 
L 464.677336 133.451748 
L 465.444962 133.451748 
L 465.444962 132.746853 
L 466.980213 132.746853 
L 466.980213 132.041958 
L 468.515465 132.041958 
L 468.515465 131.337063 
L 470.050716 131.337063 
L 470.050716 130.632168 
L 478.4946 130.632168 
L 478.4946 129.927273 
L 495.382368 129.927273 
L 495.382368 129.222378 
L 513.037762 129.222378 
L 513.037762 128.517483 
L 519.946395 128.517483 
L 519.946395 127.812587 
L 524.552149 127.812587 
L 524.552149 127.107692 
L 527.622653 127.107692 
L 527.622653 126.402797 
L 536.066537 126.402797 
L 536.066537 124.993007 
L 538.369414 124.993007 
L 538.369414 124.288112 
L 548.34855 124.288112 
L 548.34855 122.878322 
L 561.398189 122.878322 
L 561.398189 122.173427 
L 569.074447 122.173427 
L 569.074447 121.468531 
L 570.609698 121.468531 
L 570.609698 120.763636 
L 572.14495 120.763636 
L 572.14495 120.058741 
L 585.194589 120.058741 
L 585.194589 119.353846 
L 595.173725 119.353846 
L 595.173725 118.648951 
L 610.526241 118.648951 
L 610.526241 117.944056 
L 611.293867 117.944056 
L 611.293867 117.239161 
L 622.040628 117.239161 
L 622.040628 116.534266 
L 631.252138 116.534266 
L 631.252138 115.829371 
L 656.58379 115.829371 
L 656.58379 115.124476 
L 661.189545 115.124476 
L 661.189545 114.41958 
L 695.732707 114.41958 
L 695.732707 113.714685 
L 701.873713 113.714685 
L 701.873713 113.00979 
L 731.81112 113.00979 
L 731.81112 112.304895 
L 744.093133 112.304895 
L 744.093133 111.6 
L 747.163636 111.6 
L 747.163636 111.6 
" clip-path="url(#p6a12770ac3)" style="fill: none; stroke: #2ca02c; stroke-width: 2; stroke-linecap: square"/>
   </g>
   <g id="line2d_28">
    <path d="M 138.436364 615.6 
L 138.436364 612.703448 
L 138.436364 467.875862 
L 141.362937 467.875862 
L 141.362937 453.393103 
L 144.28951 453.393103 
L 144.28951 407.048276 
L 144.28951 401.255172 
L 144.28951 378.082759 
L 147.216084 378.082759 
L 147.216084 366.496552 
L 150.142657 366.496552 
L 150.142657 352.013793 
L 153.069231 352.013793 
L 153.069231 346.22069 
L 161.848951 346.22069 
L 161.848951 299.875862 
L 164.775524 299.875862 
L 164.775524 288.289655 
L 167.702098 288.289655 
L 167.702098 285.393103 
L 170.628671 285.393103 
L 170.628671 279.6 
L 176.481818 279.6 
L 176.481818 273.806897 
L 179.408392 273.806897 
L 179.408392 270.910345 
L 182.334965 270.910345 
L 182.334965 253.531034 
L 185.261538 253.531034 
L 185.261538 250.634483 
L 188.188112 250.634483 
L 188.188112 233.255172 
L 191.114685 233.255172 
L 191.114685 221.668966 
L 196.967832 221.668966 
L 196.967832 218.772414 
L 202.820979 218.772414 
L 202.820979 215.875862 
L 205.747552 215.875862 
L 205.747552 198.496552 
L 208.674126 198.496552 
L 208.674126 184.013793 
L 211.600699 184.013793 
L 211.600699 181.117241 
L 229.16014 181.117241 
L 229.16014 175.324138 
L 235.013287 175.324138 
L 235.013287 172.427586 
L 237.93986 172.427586 
L 237.93986 163.737931 
L 246.71958 163.737931 
L 246.71958 160.841379 
L 249.646154 160.841379 
L 249.646154 157.944828 
L 273.058741 157.944828 
L 275.985315 155.048276 
L 281.838462 155.048276 
L 281.838462 152.151724 
L 302.324476 152.151724 
L 302.324476 149.255172 
L 314.030769 149.255172 
L 314.030769 146.358621 
L 331.59021 146.358621 
L 331.59021 143.462069 
L 343.296503 143.462069 
L 343.296503 140.565517 
L 352.076224 140.565517 
L 352.076224 137.668966 
L 372.562238 137.668966 
L 372.562238 134.772414 
L 375.488811 134.772414 
L 375.488811 131.875862 
L 378.415385 131.875862 
L 378.415385 128.97931 
L 407.681119 128.97931 
L 407.681119 126.082759 
L 428.167133 126.082759 
L 428.167133 123.186207 
L 477.918881 123.186207 
L 477.918881 120.289655 
L 486.698601 120.289655 
L 486.698601 117.393103 
L 583.275524 117.393103 
L 583.275524 114.496552 
L 606.688112 114.496552 
L 606.688112 111.6 
L 700.338462 111.6 
L 706.191608 111.6 
L 747.163636 111.6 
" clip-path="url(#p6a12770ac3)" style="fill: none; stroke: #d62728; stroke-width: 2; stroke-linecap: square"/>
   </g>
   <g id="line2d_29">
    <path d="M 138.436364 615.6 
L 747.163636 111.6 
" clip-path="url(#p6a12770ac3)" style="fill: none; stroke-dasharray: 7.4,3.2; stroke-dashoffset: 0; stroke: #000080; stroke-width: 2"/>
   </g>
   <g id="patch_3">
    <path d="M 108 640.8 
L 108 86.4 
" style="fill: none; stroke: #000000; stroke-width: 0.8; stroke-linejoin: miter; stroke-linecap: square"/>
   </g>
   <g id="patch_4">
    <path d="M 777.6 640.8 
L 777.6 86.4 
" style="fill: none; stroke: #000000; stroke-width: 0.8; stroke-linejoin: miter; stroke-linecap: square"/>
   </g>
   <g id="patch_5">
    <path d="M 108 640.8 
L 777.6 640.8 
" style="fill: none; stroke: #000000; stroke-width: 0.8; stroke-linejoin: miter; stroke-linecap: square"/>
   </g>
   <g id="patch_6">
    <path d="M 108 86.4 
L 777.6 86.4 
" style="fill: none; stroke: #000000; stroke-width: 0.8; stroke-linejoin: miter; stroke-linecap: square"/>
   </g>
   <g id="text_15">
    <!-- Receiver Operating Characteristic (ROC) Curve for All Locations -->
    <g transform="translate(252.105 80.4) scale(0.12 -0.12)">
     <defs>
      <path id="DejaVuSans-63" d="M 3122 3366 
L 3122 2828 
Q 2878 2963 2633 3030 
Q 2388 3097 2138 3097 
Q 1578 3097 1268 2742 
Q 959 2388 959 1747 
Q 959 1106 1268 751 
Q 1578 397 2138 397 
Q 2388 397 2633 464 
Q 2878 531 3122 666 
L 3122 134 
Q 2881 22 2623 -34 
Q 2366 -91 2075 -91 
Q 1284 -91 818 406 
Q 353 903 353 1747 
Q 353 2603 823 3093 
Q 1294 3584 2113 3584 
Q 2378 3584 2631 3529 
Q 2884 3475 3122 3366 
z
" transform="scale(0.015625)"/>
      <path id="DejaVuSans-4f" d="M 2522 4238 
Q 1834 4238 1429 3725 
Q 1025 3213 1025 2328 
Q 1025 1447 1429 934 
Q 1834 422 2522 422 
Q 3209 422 3611 934 
Q 4013 1447 4013 2328 
Q 4013 3213 3611 3725 
Q 3209 4238 2522 4238 
z
M 2522 4750 
Q 3503 4750 4090 4092 
Q 4678 3434 4678 2328 
Q 4678 1225 4090 567 
Q 3503 -91 2522 -91 
Q 1538 -91 948 565 
Q 359 1222 359 2328 
Q 359 3434 948 4092 
Q 1538 4750 2522 4750 
z
" transform="scale(0.015625)"/>
      <path id="DejaVuSans-70" d="M 1159 525 
L 1159 -1331 
L 581 -1331 
L 581 3500 
L 1159 3500 
L 1159 2969 
Q 1341 3281 1617 3432 
Q 1894 3584 2278 3584 
Q 2916 3584 3314 3078 
Q 3713 2572 3713 1747 
Q 3713 922 3314 415 
Q 2916 -91 2278 -91 
Q 1894 -91 1617 61 
Q 1341 213 1159 525 
z
M 3116 1747 
Q 3116 2381 2855 2742 
Q 2594 3103 2138 3103 
Q 1681 3103 1420 2742 
Q 1159 2381 1159 1747 
Q 1159 1113 1420 752 
Q 1681 391 2138 391 
Q 2594 391 2855 752 
Q 3116 1113 3116 1747 
z
" transform="scale(0.015625)"/>
      <path id="DejaVuSans-6e" d="M 3513 2113 
L 3513 0 
L 2938 0 
L 2938 2094 
Q 2938 2591 2744 2837 
Q 2550 3084 2163 3084 
Q 1697 3084 1428 2787 
Q 1159 2491 1159 1978 
L 1159 0 
L 581 0 
L 581 3500 
L 1159 3500 
L 1159 2956 
Q 1366 3272 1645 3428 
Q 1925 3584 2291 3584 
Q 2894 3584 3203 3211 
Q 3513 2838 3513 2113 
z
" transform="scale(0.015625)"/>
      <path id="DejaVuSans-67" d="M 2906 1791 
Q 2906 2416 2648 2759 
Q 2391 3103 1925 3103 
Q 1463 3103 1205 2759 
Q 947 2416 947 1791 
Q 947 1169 1205 825 
Q 1463 481 1925 481 
Q 2391 481 2648 825 
Q 2906 1169 2906 1791 
z
M 3481 434 
Q 3481 -459 3084 -895 
Q 2688 -1331 1869 -1331 
Q 1566 -1331 1297 -1286 
Q 1028 -1241 775 -1147 
L 775 -588 
Q 1028 -725 1275 -790 
Q 1522 -856 1778 -856 
Q 2344 -856 2625 -561 
Q 2906 -266 2906 331 
L 2906 616 
Q 2728 306 2450 153 
Q 2172 0 1784 0 
Q 1141 0 747 490 
Q 353 981 353 1791 
Q 353 2603 747 3093 
Q 1141 3584 1784 3584 
Q 2172 3584 2450 3431 
Q 2728 3278 2906 2969 
L 2906 3500 
L 3481 3500 
L 3481 434 
z
" transform="scale(0.015625)"/>
      <path id="DejaVuSans-43" d="M 4122 4306 
L 4122 3641 
Q 3803 3938 3442 4084 
Q 3081 4231 2675 4231 
Q 1875 4231 1450 3742 
Q 1025 3253 1025 2328 
Q 1025 1406 1450 917 
Q 1875 428 2675 428 
Q 3081 428 3442 575 
Q 3803 722 4122 1019 
L 4122 359 
Q 3791 134 3420 21 
Q 3050 -91 2638 -91 
Q 1578 -91 968 557 
Q 359 1206 359 2328 
Q 359 3453 968 4101 
Q 1578 4750 2638 4750 
Q 3056 4750 3426 4639 
Q 3797 4528 4122 4306 
z
" transform="scale(0.015625)"/>
      <path id="DejaVuSans-68" d="M 3513 2113 
L 3513 0 
L 2938 0 
L 2938 2094 
Q 2938 2591 2744 2837 
Q 2550 3084 2163 3084 
Q 1697 3084 1428 2787 
Q 1159 2491 1159 1978 
L 1159 0 
L 581 0 
L 581 4863 
L 1159 4863 
L 1159 2956 
Q 1366 3272 1645 3428 
Q 1925 3584 2291 3584 
Q 2894 3584 3203 3211 
Q 3513 2838 3513 2113 
z
" transform="scale(0.015625)"/>
      <path id="DejaVuSans-28" d="M 1984 4856 
Q 1566 4138 1362 3434 
Q 1159 2731 1159 2009 
Q 1159 1288 1364 580 
Q 1569 -128 1984 -844 
L 1484 -844 
Q 1016 -109 783 600 
Q 550 1309 550 2009 
Q 550 2706 781 3412 
Q 1013 4119 1484 4856 
L 1984 4856 
z
" transform="scale(0.015625)"/>
      <path id="DejaVuSans-29" d="M 513 4856 
L 1013 4856 
Q 1481 4119 1714 3412 
Q 1947 2706 1947 2009 
Q 1947 1309 1714 600 
Q 1481 -109 1013 -844 
L 513 -844 
Q 928 -128 1133 580 
Q 1338 1288 1338 2009 
Q 1338 2731 1133 3434 
Q 928 4138 513 4856 
z
" transform="scale(0.015625)"/>
      <path id="DejaVuSans-66" d="M 2375 4863 
L 2375 4384 
L 1825 4384 
Q 1516 4384 1395 4259 
Q 1275 4134 1275 3809 
L 1275 3500 
L 2222 3500 
L 2222 3053 
L 1275 3053 
L 1275 0 
L 697 0 
L 697 3053 
L 147 3053 
L 147 3500 
L 697 3500 
L 697 3744 
Q 697 4328 969 4595 
Q 1241 4863 1831 4863 
L 2375 4863 
z
" transform="scale(0.015625)"/>
      <path id="DejaVuSans-41" d="M 2188 4044 
L 1331 1722 
L 3047 1722 
L 2188 4044 
z
M 1831 4666 
L 2547 4666 
L 4325 0 
L 3669 0 
L 3244 1197 
L 1141 1197 
L 716 0 
L 50 0 
L 1831 4666 
z
" transform="scale(0.015625)"/>
      <path id="DejaVuSans-4c" d="M 628 4666 
L 1259 4666 
L 1259 531 
L 3531 531 
L 3531 0 
L 628 0 
L 628 4666 
z
" transform="scale(0.015625)"/>
     </defs>
     <use xlink:href="#DejaVuSans-52"/>
     <use xlink:href="#DejaVuSans-65" x="64.982422"/>
     <use xlink:href="#DejaVuSans-63" x="126.505859"/>
     <use xlink:href="#DejaVuSans-65" x="181.486328"/>
     <use xlink:href="#DejaVuSans-69" x="243.009766"/>
     <use xlink:href="#DejaVuSans-76" x="270.792969"/>
     <use xlink:href="#DejaVuSans-65" x="329.972656"/>
     <use xlink:href="#DejaVuSans-72" x="391.496094"/>
     <use xlink:href="#DejaVuSans-20" x="432.609375"/>
     <use xlink:href="#DejaVuSans-4f" x="464.396484"/>
     <use xlink:href="#DejaVuSans-70" x="543.107422"/>
     <use xlink:href="#DejaVuSans-65" x="606.583984"/>
     <use xlink:href="#DejaVuSans-72" x="668.107422"/>
     <use xlink:href="#DejaVuSans-61" x="709.220703"/>
     <use xlink:href="#DejaVuSans-74" x="770.5"/>
     <use xlink:href="#DejaVuSans-69" x="809.708984"/>
     <use xlink:href="#DejaVuSans-6e" x="837.492188"/>
     <use xlink:href="#DejaVuSans-67" x="900.871094"/>
     <use xlink:href="#DejaVuSans-20" x="964.347656"/>
     <use xlink:href="#DejaVuSans-43" x="996.134766"/>
     <use xlink:href="#DejaVuSans-68" x="1065.958984"/>
     <use xlink:href="#DejaVuSans-61" x="1129.337891"/>
     <use xlink:href="#DejaVuSans-72" x="1190.617188"/>
     <use xlink:href="#DejaVuSans-61" x="1231.730469"/>
     <use xlink:href="#DejaVuSans-63" x="1293.009766"/>
     <use xlink:href="#DejaVuSans-74" x="1347.990234"/>
     <use xlink:href="#DejaVuSans-65" x="1387.199219"/>
     <use xlink:href="#DejaVuSans-72" x="1448.722656"/>
     <use xlink:href="#DejaVuSans-69" x="1489.835938"/>
     <use xlink:href="#DejaVuSans-73" x="1517.619141"/>
     <use xlink:href="#DejaVuSans-74" x="1569.71875"/>
     <use xlink:href="#DejaVuSans-69" x="1608.927734"/>
     <use xlink:href="#DejaVuSans-63" x="1636.710938"/>
     <use xlink:href="#DejaVuSans-20" x="1691.691406"/>
     <use xlink:href="#DejaVuSans-28" x="1723.478516"/>
     <use xlink:href="#DejaVuSans-52" x="1762.492188"/>
     <use xlink:href="#DejaVuSans-4f" x="1831.974609"/>
     <use xlink:href="#DejaVuSans-43" x="1910.685547"/>
     <use xlink:href="#DejaVuSans-29" x="1980.509766"/>
     <use xlink:href="#DejaVuSans-20" x="2019.523438"/>
     <use xlink:href="#DejaVuSans-43" x="2051.310547"/>
     <use xlink:href="#DejaVuSans-75" x="2121.134766"/>
     <use xlink:href="#DejaVuSans-72" x="2184.513672"/>
     <use xlink:href="#DejaVuSans-76" x="2225.626953"/>
     <use xlink:href="#DejaVuSans-65" x="2284.806641"/>
     <use xlink:href="#DejaVuSans-20" x="2346.330078"/>
     <use xlink:href="#DejaVuSans-66" x="2378.117188"/>
     <use xlink:href="#DejaVuSans-6f" x="2413.322266"/>
     <use xlink:href="#DejaVuSans-72" x="2474.503906"/>
     <use xlink:href="#DejaVuSans-20" x="2515.617188"/>
     <use xlink:href="#DejaVuSans-41" x="2547.404297"/>
     <use xlink:href="#DejaVuSans-6c" x="2615.8125"/>
     <use xlink:href="#DejaVuSans-6c" x="2643.595703"/>
     <use xlink:href="#DejaVuSans-20" x="2671.378906"/>
     <use xlink:href="#DejaVuSans-4c" x="2703.166016"/>
     <use xlink:href="#DejaVuSans-6f" x="2757.128906"/>
     <use xlink:href="#DejaVuSans-63" x="2818.310547"/>
     <use xlink:href="#DejaVuSans-61" x="2873.291016"/>
     <use xlink:href="#DejaVuSans-74" x="2934.570312"/>
     <use xlink:href="#DejaVuSans-69" x="2973.779297"/>
     <use xlink:href="#DejaVuSans-6f" x="3001.5625"/>
     <use xlink:href="#DejaVuSans-6e" x="3062.744141"/>
     <use xlink:href="#DejaVuSans-73" x="3126.123047"/>
    </g>
   </g>
   <g id="legend_1">
    <g id="patch_7">
     <path d="M 586.796875 635.8 
L 770.6 635.8 
Q 772.6 635.8 772.6 633.8 
L 772.6 576.0875 
Q 772.6 574.0875 770.6 574.0875 
L 586.796875 574.0875 
Q 584.796875 574.0875 584.796875 576.0875 
L 584.796875 633.8 
Q 584.796875 635.8 586.796875 635.8 
z
" style="fill: #ffffff; opacity: 0.8; stroke: #cccccc; stroke-linejoin: miter"/>
    </g>
    <g id="line2d_30">
     <path d="M 588.796875 582.185938 
L 598.796875 582.185938 
L 608.796875 582.185938 
" style="fill: none; stroke: #1f77b4; stroke-width: 2; stroke-linecap: square"/>
    </g>
    <g id="text_16">
     <!-- Bone Metastasis (AUC = 0.85) -->
     <g transform="translate(616.796875 585.685938) scale(0.1 -0.1)">
      <defs>
       <path id="DejaVuSans-42" d="M 1259 2228 
L 1259 519 
L 2272 519 
Q 2781 519 3026 730 
Q 3272 941 3272 1375 
Q 3272 1813 3026 2020 
Q 2781 2228 2272 2228 
L 1259 2228 
z
M 1259 4147 
L 1259 2741 
L 2194 2741 
Q 2656 2741 2882 2914 
Q 3109 3088 3109 3444 
Q 3109 3797 2882 3972 
Q 2656 4147 2194 4147 
L 1259 4147 
z
M 628 4666 
L 2241 4666 
Q 2963 4666 3353 4366 
Q 3744 4066 3744 3513 
Q 3744 3084 3544 2831 
Q 3344 2578 2956 2516 
Q 3422 2416 3680 2098 
Q 3938 1781 3938 1306 
Q 3938 681 3513 340 
Q 3088 0 2303 0 
L 628 0 
L 628 4666 
z
" transform="scale(0.015625)"/>
       <path id="DejaVuSans-4d" d="M 628 4666 
L 1569 4666 
L 2759 1491 
L 3956 4666 
L 4897 4666 
L 4897 0 
L 4281 0 
L 4281 4097 
L 3078 897 
L 2444 897 
L 1241 4097 
L 1241 0 
L 628 0 
L 628 4666 
z
" transform="scale(0.015625)"/>
       <path id="DejaVuSans-55" d="M 556 4666 
L 1191 4666 
L 1191 1831 
Q 1191 1081 1462 751 
Q 1734 422 2344 422 
Q 2950 422 3222 751 
Q 3494 1081 3494 1831 
L 3494 4666 
L 4128 4666 
L 4128 1753 
Q 4128 841 3676 375 
Q 3225 -91 2344 -91 
Q 1459 -91 1007 375 
Q 556 841 556 1753 
L 556 4666 
z
" transform="scale(0.015625)"/>
       <path id="DejaVuSans-3d" d="M 678 2906 
L 4684 2906 
L 4684 2381 
L 678 2381 
L 678 2906 
z
M 678 1631 
L 4684 1631 
L 4684 1100 
L 678 1100 
L 678 1631 
z
" transform="scale(0.015625)"/>
       <path id="DejaVuSans-35" d="M 691 4666 
L 3169 4666 
L 3169 4134 
L 1269 4134 
L 1269 2991 
Q 1406 3038 1543 3061 
Q 1681 3084 1819 3084 
Q 2600 3084 3056 2656 
Q 3513 2228 3513 1497 
Q 3513 744 3044 326 
Q 2575 -91 1722 -91 
Q 1428 -91 1123 -41 
Q 819 9 494 109 
L 494 744 
Q 775 591 1075 516 
Q 1375 441 1709 441 
Q 2250 441 2565 725 
Q 2881 1009 2881 1497 
Q 2881 1984 2565 2268 
Q 2250 2553 1709 2553 
Q 1456 2553 1204 2497 
Q 953 2441 691 2322 
L 691 4666 
z
" transform="scale(0.015625)"/>
      </defs>
      <use xlink:href="#DejaVuSans-42"/>
      <use xlink:href="#DejaVuSans-6f" x="68.603516"/>
      <use xlink:href="#DejaVuSans-6e" x="129.785156"/>
      <use xlink:href="#DejaVuSans-65" x="193.164062"/>
      <use xlink:href="#DejaVuSans-20" x="254.6875"/>
      <use xlink:href="#DejaVuSans-4d" x="286.474609"/>
      <use xlink:href="#DejaVuSans-65" x="372.753906"/>
      <use xlink:href="#DejaVuSans-74" x="434.277344"/>
      <use xlink:href="#DejaVuSans-61" x="473.486328"/>
      <use xlink:href="#DejaVuSans-73" x="534.765625"/>
      <use xlink:href="#DejaVuSans-74" x="586.865234"/>
      <use xlink:href="#DejaVuSans-61" x="626.074219"/>
      <use xlink:href="#DejaVuSans-73" x="687.353516"/>
      <use xlink:href="#DejaVuSans-69" x="739.453125"/>
      <use xlink:href="#DejaVuSans-73" x="767.236328"/>
      <use xlink:href="#DejaVuSans-20" x="819.335938"/>
      <use xlink:href="#DejaVuSans-28" x="851.123047"/>
      <use xlink:href="#DejaVuSans-41" x="890.136719"/>
      <use xlink:href="#DejaVuSans-55" x="958.544922"/>
      <use xlink:href="#DejaVuSans-43" x="1031.738281"/>
      <use xlink:href="#DejaVuSans-20" x="1101.5625"/>
      <use xlink:href="#DejaVuSans-3d" x="1133.349609"/>
      <use xlink:href="#DejaVuSans-20" x="1217.138672"/>
      <use xlink:href="#DejaVuSans-30" x="1248.925781"/>
      <use xlink:href="#DejaVuSans-2e" x="1312.548828"/>
      <use xlink:href="#DejaVuSans-38" x="1344.335938"/>
      <use xlink:href="#DejaVuSans-35" x="1407.958984"/>
      <use xlink:href="#DejaVuSans-29" x="1471.582031"/>
     </g>
    </g>
    <g id="line2d_31">
     <path d="M 588.796875 596.864063 
L 598.796875 596.864063 
L 608.796875 596.864063 
" style="fill: none; stroke: #ff7f0e; stroke-width: 2; stroke-linecap: square"/>
    </g>
    <g id="text_17">
     <!-- Lung Metastasis (AUC = 0.87) -->
     <g transform="translate(616.796875 600.364063) scale(0.1 -0.1)">
      <defs>
       <path id="DejaVuSans-37" d="M 525 4666 
L 3525 4666 
L 3525 4397 
L 1831 0 
L 1172 0 
L 2766 4134 
L 525 4134 
L 525 4666 
z
" transform="scale(0.015625)"/>
      </defs>
      <use xlink:href="#DejaVuSans-4c"/>
      <use xlink:href="#DejaVuSans-75" x="53.962891"/>
      <use xlink:href="#DejaVuSans-6e" x="117.341797"/>
      <use xlink:href="#DejaVuSans-67" x="180.720703"/>
      <use xlink:href="#DejaVuSans-20" x="244.197266"/>
      <use xlink:href="#DejaVuSans-4d" x="275.984375"/>
      <use xlink:href="#DejaVuSans-65" x="362.263672"/>
      <use xlink:href="#DejaVuSans-74" x="423.787109"/>
      <use xlink:href="#DejaVuSans-61" x="462.996094"/>
      <use xlink:href="#DejaVuSans-73" x="524.275391"/>
      <use xlink:href="#DejaVuSans-74" x="576.375"/>
      <use xlink:href="#DejaVuSans-61" x="615.583984"/>
      <use xlink:href="#DejaVuSans-73" x="676.863281"/>
      <use xlink:href="#DejaVuSans-69" x="728.962891"/>
      <use xlink:href="#DejaVuSans-73" x="756.746094"/>
      <use xlink:href="#DejaVuSans-20" x="808.845703"/>
      <use xlink:href="#DejaVuSans-28" x="840.632812"/>
      <use xlink:href="#DejaVuSans-41" x="879.646484"/>
      <use xlink:href="#DejaVuSans-55" x="948.054688"/>
      <use xlink:href="#DejaVuSans-43" x="1021.248047"/>
      <use xlink:href="#DejaVuSans-20" x="1091.072266"/>
      <use xlink:href="#DejaVuSans-3d" x="1122.859375"/>
      <use xlink:href="#DejaVuSans-20" x="1206.648438"/>
      <use xlink:href="#DejaVuSans-30" x="1238.435547"/>
      <use xlink:href="#DejaVuSans-2e" x="1302.058594"/>
      <use xlink:href="#DejaVuSans-38" x="1333.845703"/>
      <use xlink:href="#DejaVuSans-37" x="1397.46875"/>
      <use xlink:href="#DejaVuSans-29" x="1461.091797"/>
     </g>
    </g>
    <g id="line2d_32">
     <path d="M 588.796875 611.542188 
L 598.796875 611.542188 
L 608.796875 611.542188 
" style="fill: none; stroke: #2ca02c; stroke-width: 2; stroke-linecap: square"/>
    </g>
    <g id="text_18">
     <!-- Liver Metastasis (AUC = 0.86) -->
     <g transform="translate(616.796875 615.042188) scale(0.1 -0.1)">
      <use xlink:href="#DejaVuSans-4c"/>
      <use xlink:href="#DejaVuSans-69" x="55.712891"/>
      <use xlink:href="#DejaVuSans-76" x="83.496094"/>
      <use xlink:href="#DejaVuSans-65" x="142.675781"/>
      <use xlink:href="#DejaVuSans-72" x="204.199219"/>
      <use xlink:href="#DejaVuSans-20" x="245.3125"/>
      <use xlink:href="#DejaVuSans-4d" x="277.099609"/>
      <use xlink:href="#DejaVuSans-65" x="363.378906"/>
      <use xlink:href="#DejaVuSans-74" x="424.902344"/>
      <use xlink:href="#DejaVuSans-61" x="464.111328"/>
      <use xlink:href="#DejaVuSans-73" x="525.390625"/>
      <use xlink:href="#DejaVuSans-74" x="577.490234"/>
      <use xlink:href="#DejaVuSans-61" x="616.699219"/>
      <use xlink:href="#DejaVuSans-73" x="677.978516"/>
      <use xlink:href="#DejaVuSans-69" x="730.078125"/>
      <use xlink:href="#DejaVuSans-73" x="757.861328"/>
      <use xlink:href="#DejaVuSans-20" x="809.960938"/>
      <use xlink:href="#DejaVuSans-28" x="841.748047"/>
      <use xlink:href="#DejaVuSans-41" x="880.761719"/>
      <use xlink:href="#DejaVuSans-55" x="949.169922"/>
      <use xlink:href="#DejaVuSans-43" x="1022.363281"/>
      <use xlink:href="#DejaVuSans-20" x="1092.1875"/>
      <use xlink:href="#DejaVuSans-3d" x="1123.974609"/>
      <use xlink:href="#DejaVuSans-20" x="1207.763672"/>
      <use xlink:href="#DejaVuSans-30" x="1239.550781"/>
      <use xlink:href="#DejaVuSans-2e" x="1303.173828"/>
      <use xlink:href="#DejaVuSans-38" x="1334.960938"/>
      <use xlink:href="#DejaVuSans-36" x="1398.583984"/>
      <use xlink:href="#DejaVuSans-29" x="1462.207031"/>
     </g>
    </g>
    <g id="line2d_33">
     <path d="M 588.796875 626.220313 
L 598.796875 626.220313 
L 608.796875 626.220313 
" style="fill: none; stroke: #d62728; stroke-width: 2; stroke-linecap: square"/>
    </g>
    <g id="text_19">
     <!-- Brain Metastasis (AUC = 0.93) -->
     <g transform="translate(616.796875 629.720313) scale(0.1 -0.1)">
      <defs>
       <path id="DejaVuSans-39" d="M 703 97 
L 703 672 
Q 941 559 1184 500 
Q 1428 441 1663 441 
Q 2288 441 2617 861 
Q 2947 1281 2994 2138 
Q 2813 1869 2534 1725 
Q 2256 1581 1919 1581 
Q 1219 1581 811 2004 
Q 403 2428 403 3163 
Q 403 3881 828 4315 
Q 1253 4750 1959 4750 
Q 2769 4750 3195 4129 
Q 3622 3509 3622 2328 
Q 3622 1225 3098 567 
Q 2575 -91 1691 -91 
Q 1453 -91 1209 -44 
Q 966 3 703 97 
z
M 1959 2075 
Q 2384 2075 2632 2365 
Q 2881 2656 2881 3163 
Q 2881 3666 2632 3958 
Q 2384 4250 1959 4250 
Q 1534 4250 1286 3958 
Q 1038 3666 1038 3163 
Q 1038 2656 1286 2365 
Q 1534 2075 1959 2075 
z
" transform="scale(0.015625)"/>
       <path id="DejaVuSans-33" d="M 2597 2516 
Q 3050 2419 3304 2112 
Q 3559 1806 3559 1356 
Q 3559 666 3084 287 
Q 2609 -91 1734 -91 
Q 1441 -91 1130 -33 
Q 819 25 488 141 
L 488 750 
Q 750 597 1062 519 
Q 1375 441 1716 441 
Q 2309 441 2620 675 
Q 2931 909 2931 1356 
Q 2931 1769 2642 2001 
Q 2353 2234 1838 2234 
L 1294 2234 
L 1294 2753 
L 1863 2753 
Q 2328 2753 2575 2939 
Q 2822 3125 2822 3475 
Q 2822 3834 2567 4026 
Q 2313 4219 1838 4219 
Q 1578 4219 1281 4162 
Q 984 4106 628 3988 
L 628 4550 
Q 988 4650 1302 4700 
Q 1616 4750 1894 4750 
Q 2613 4750 3031 4423 
Q 3450 4097 3450 3541 
Q 3450 3153 3228 2886 
Q 3006 2619 2597 2516 
z
" transform="scale(0.015625)"/>
      </defs>
      <use xlink:href="#DejaVuSans-42"/>
      <use xlink:href="#DejaVuSans-72" x="68.603516"/>
      <use xlink:href="#DejaVuSans-61" x="109.716797"/>
      <use xlink:href="#DejaVuSans-69" x="170.996094"/>
      <use xlink:href="#DejaVuSans-6e" x="198.779297"/>
      <use xlink:href="#DejaVuSans-20" x="262.158203"/>
      <use xlink:href="#DejaVuSans-4d" x="293.945312"/>
      <use xlink:href="#DejaVuSans-65" x="380.224609"/>
      <use xlink:href="#DejaVuSans-74" x="441.748047"/>
      <use xlink:href="#DejaVuSans-61" x="480.957031"/>
      <use xlink:href="#DejaVuSans-73" x="542.236328"/>
      <use xlink:href="#DejaVuSans-74" x="594.335938"/>
      <use xlink:href="#DejaVuSans-61" x="633.544922"/>
      <use xlink:href="#DejaVuSans-73" x="694.824219"/>
      <use xlink:href="#DejaVuSans-69" x="746.923828"/>
      <use xlink:href="#DejaVuSans-73" x="774.707031"/>
      <use xlink:href="#DejaVuSans-20" x="826.806641"/>
      <use xlink:href="#DejaVuSans-28" x="858.59375"/>
      <use xlink:href="#DejaVuSans-41" x="897.607422"/>
      <use xlink:href="#DejaVuSans-55" x="966.015625"/>
      <use xlink:href="#DejaVuSans-43" x="1039.208984"/>
      <use xlink:href="#DejaVuSans-20" x="1109.033203"/>
      <use xlink:href="#DejaVuSans-3d" x="1140.820312"/>
      <use xlink:href="#DejaVuSans-20" x="1224.609375"/>
      <use xlink:href="#DejaVuSans-30" x="1256.396484"/>
      <use xlink:href="#DejaVuSans-2e" x="1320.019531"/>
      <use xlink:href="#DejaVuSans-39" x="1351.806641"/>
      <use xlink:href="#DejaVuSans-33" x="1415.429688"/>
      <use xlink:href="#DejaVuSans-29" x="1479.052734"/>
     </g>
    </g>
   </g>
  </g>
 </g>
 <defs>
  <clipPath id="p6a12770ac3">
   <rect x="108" y="86.4" width="669.6" height="554.4"/>
  </clipPath>
 </defs>
</svg>
